0
SECTION
2
HEADER
9
$INSUNITS
70
6
9
$EXTMIN
10
0
20
0
30
0
0
ENDSEC
0
SECTION
2
TABLES
0
TABLE
2
LAYER
70
45
0
LAYER
2
L0_EXTERIOR_WALL
70
0
62
7
6
CONTINUOUS
0
LAYER
2
L0_COURTYARD
70
0
62
7
6
CONTINUOUS
0
LAYER
2
L0_WALL_INNER_FACE
70
0
62
7
6
CONTINUOUS
0
LAYER
2
L0_COURT_INNER_FACE
70
0
62
7
6
CONTINUOUS
0
LAYER
2
L0_PROGRAM_LOBBY
70
0
62
7
6
CONTINUOUS
0
LAYER
2
L0_LABELS
70
0
62
7
6
CONTINUOUS
0
LAYER
2
L0_PROGRAM_ADMIN
70
0
62
7
6
CONTINUOUS
0
LAYER
2
L0_PROGRAM_HEALTH
70
0
62
7
6
CONTINUOUS
0
LAYER
2
L0_PROGRAM_STAFF
70
0
62
7
6
CONTINUOUS
0
LAYER
2
L0_PROGRAM_GYM
70
0
62
7
6
CONTINUOUS
0
LAYER
2
L0_PROGRAM_STAGE
70
0
62
7
6
CONTINUOUS
0
LAYER
2
L0_PROGRAM_CAFETERIA
70
0
62
7
6
CONTINUOUS
0
LAYER
2
L0_PROGRAM_KITCHEN
70
0
62
7
6
CONTINUOUS
0
LAYER
2
L0_PROGRAM_KINDER
70
0
62
7
6
CONTINUOUS
0
LAYER
2
L0_PROGRAM_TOILETS
70
0
62
7
6
CONTINUOUS
0
LAYER
2
L0_PROGRAM_STORAGE
70
0
62
7
6
CONTINUOUS
0
LAYER
2
L0_PROGRAM_MECH
70
0
62
7
6
CONTINUOUS
0
LAYER
2
L0_PROGRAM_OUTDOOR
70
0
62
7
6
CONTINUOUS
0
LAYER
2
L0_PROGRAM_CORE
70
0
62
7
6
CONTINUOUS
0
LAYER
2
L1_EXTERIOR_WALL
70
0
62
7
6
CONTINUOUS
0
LAYER
2
L1_COURTYARD
70
0
62
7
6
CONTINUOUS
0
LAYER
2
L1_WALL_INNER_FACE
70
0
62
7
6
CONTINUOUS
0
LAYER
2
L1_COURT_INNER_FACE
70
0
62
7
6
CONTINUOUS
0
LAYER
2
L1_PROGRAM_CLASSROOM
70
0
62
7
6
CONTINUOUS
0
LAYER
2
L1_LABELS
70
0
62
7
6
CONTINUOUS
0
LAYER
2
L1_PROGRAM_SPED
70
0
62
7
6
CONTINUOUS
0
LAYER
2
L1_PROGRAM_ART
70
0
62
7
6
CONTINUOUS
0
LAYER
2
L1_PROGRAM_LIBRARY
70
0
62
7
6
CONTINUOUS
0
LAYER
2
L1_PROGRAM_TOILETS
70
0
62
7
6
CONTINUOUS
0
LAYER
2
L1_PROGRAM_STORAGE
70
0
62
7
6
CONTINUOUS
0
LAYER
2
L1_PROGRAM_STAFF
70
0
62
7
6
CONTINUOUS
0
LAYER
2
L1_PROGRAM_CORE
70
0
62
7
6
CONTINUOUS
0
LAYER
2
L2_EXTERIOR_WALL
70
0
62
7
6
CONTINUOUS
0
LAYER
2
L2_COURTYARD
70
0
62
7
6
CONTINUOUS
0
LAYER
2
L2_WALL_INNER_FACE
70
0
62
7
6
CONTINUOUS
0
LAYER
2
L2_COURT_INNER_FACE
70
0
62
7
6
CONTINUOUS
0
LAYER
2
L2_PROGRAM_CLASSROOM
70
0
62
7
6
CONTINUOUS
0
LAYER
2
L2_LABELS
70
0
62
7
6
CONTINUOUS
0
LAYER
2
L2_PROGRAM_STEM
70
0
62
7
6
CONTINUOUS
0
LAYER
2
L2_PROGRAM_MUSIC
70
0
62
7
6
CONTINUOUS
0
LAYER
2
L2_PROGRAM_SPED
70
0
62
7
6
CONTINUOUS
0
LAYER
2
L2_PROGRAM_TOILETS
70
0
62
7
6
CONTINUOUS
0
LAYER
2
L2_PROGRAM_STORAGE
70
0
62
7
6
CONTINUOUS
0
LAYER
2
L2_PROGRAM_STAFF
70
0
62
7
6
CONTINUOUS
0
LAYER
2
L2_PROGRAM_CORE
70
0
62
7
6
CONTINUOUS
0
ENDTAB
0
ENDSEC
0
SECTION
2
ENTITIES
0
POLYLINE
8
L0_EXTERIOR_WALL
62
5
66
1
70
1
10
0.0
20
0.0
30
0.0000
0
VERTEX
8
L0_EXTERIOR_WALL
10
5.7327
20
47.8095
30
0.0000
0
VERTEX
8
L0_EXTERIOR_WALL
10
4.2513
20
48.7018
30
0.0000
0
VERTEX
8
L0_EXTERIOR_WALL
10
2.4975
20
48.7384
30
0.0000
0
VERTEX
8
L0_EXTERIOR_WALL
10
0.7528
20
48.6338
30
0.0000
0
VERTEX
8
L0_EXTERIOR_WALL
10
-0.9814
20
48.3699
30
0.0000
0
VERTEX
8
L0_EXTERIOR_WALL
10
-2.6497
20
47.8363
30
0.0000
0
VERTEX
8
L0_EXTERIOR_WALL
10
-4.2610
20
47.1643
30
0.0000
0
VERTEX
8
L0_EXTERIOR_WALL
10
-5.7668
20
46.2645
30
0.0000
0
VERTEX
8
L0_EXTERIOR_WALL
10
-7.1339
20
45.1761
30
0.0000
0
VERTEX
8
L0_EXTERIOR_WALL
10
-8.4412
20
44.0064
30
0.0000
0
VERTEX
8
L0_EXTERIOR_WALL
10
-9.5012
20
42.6099
30
0.0000
0
VERTEX
8
L0_EXTERIOR_WALL
10
-10.5275
20
41.1901
30
0.0000
0
VERTEX
8
L0_EXTERIOR_WALL
10
-11.3418
20
39.6363
30
0.0000
0
VERTEX
8
L0_EXTERIOR_WALL
10
-12.2053
20
38.1046
30
0.0000
0
VERTEX
8
L0_EXTERIOR_WALL
10
-13.1005
20
36.5736
30
0.0000
0
VERTEX
8
L0_EXTERIOR_WALL
10
-14.1646
20
35.0994
30
0.0000
0
VERTEX
8
L0_EXTERIOR_WALL
10
-15.1164
20
33.5517
30
0.0000
0
VERTEX
8
L0_EXTERIOR_WALL
10
-15.7269
20
31.8939
30
0.0000
0
VERTEX
8
L0_EXTERIOR_WALL
10
-15.9934
20
30.1206
30
0.0000
0
VERTEX
8
L0_EXTERIOR_WALL
10
-16.0995
20
28.3042
30
0.0000
0
VERTEX
8
L0_EXTERIOR_WALL
10
-16.3604
20
26.5473
30
0.0000
0
VERTEX
8
L0_EXTERIOR_WALL
10
-16.8063
20
24.8486
30
0.0000
0
VERTEX
8
L0_EXTERIOR_WALL
10
-17.2859
20
23.1612
30
0.0000
0
VERTEX
8
L0_EXTERIOR_WALL
10
-17.8026
20
21.4845
30
0.0000
0
VERTEX
8
L0_EXTERIOR_WALL
10
-18.4759
20
19.8518
30
0.0000
0
VERTEX
8
L0_EXTERIOR_WALL
10
-19.4665
20
18.3036
30
0.0000
0
VERTEX
8
L0_EXTERIOR_WALL
10
-20.6510
20
16.8085
30
0.0000
0
VERTEX
8
L0_EXTERIOR_WALL
10
-21.6022
20
15.2429
30
0.0000
0
VERTEX
8
L0_EXTERIOR_WALL
10
-22.2135
20
13.5766
30
0.0000
0
VERTEX
8
L0_EXTERIOR_WALL
10
-22.6768
20
11.8780
30
0.0000
0
VERTEX
8
L0_EXTERIOR_WALL
10
-23.1193
20
10.1795
30
0.0000
0
VERTEX
8
L0_EXTERIOR_WALL
10
-23.5612
20
8.4766
30
0.0000
0
VERTEX
8
L0_EXTERIOR_WALL
10
-23.9857
20
6.7702
30
0.0000
0
VERTEX
8
L0_EXTERIOR_WALL
10
-24.3231
20
5.0459
30
0.0000
0
VERTEX
8
L0_EXTERIOR_WALL
10
-24.4088
20
3.2529
30
0.0000
0
VERTEX
8
L0_EXTERIOR_WALL
10
-24.1998
20
1.3878
30
0.0000
0
VERTEX
8
L0_EXTERIOR_WALL
10
-24.0057
20
-0.4690
30
0.0000
0
VERTEX
8
L0_EXTERIOR_WALL
10
-24.1057
20
-2.2525
30
0.0000
0
VERTEX
8
L0_EXTERIOR_WALL
10
-24.4323
20
-3.9787
30
0.0000
0
VERTEX
8
L0_EXTERIOR_WALL
10
-24.8395
20
-5.6850
30
0.0000
0
VERTEX
8
L0_EXTERIOR_WALL
10
-25.3018
20
-7.3781
30
0.0000
0
VERTEX
8
L0_EXTERIOR_WALL
10
-25.9314
20
-9.0325
30
0.0000
0
VERTEX
8
L0_EXTERIOR_WALL
10
-26.8594
20
-10.6176
30
0.0000
0
VERTEX
8
L0_EXTERIOR_WALL
10
-27.9301
20
-12.1824
30
0.0000
0
VERTEX
8
L0_EXTERIOR_WALL
10
-28.7613
20
-13.8198
30
0.0000
0
VERTEX
8
L0_EXTERIOR_WALL
10
-29.2394
20
-15.5212
30
0.0000
0
VERTEX
8
L0_EXTERIOR_WALL
10
-29.3978
20
-17.3089
30
0.0000
0
VERTEX
8
L0_EXTERIOR_WALL
10
-29.1437
20
-19.1657
30
0.0000
0
VERTEX
8
L0_EXTERIOR_WALL
10
-28.7314
20
-21.0290
30
0.0000
0
VERTEX
8
L0_EXTERIOR_WALL
10
-28.5175
20
-22.8411
30
0.0000
0
VERTEX
8
L0_EXTERIOR_WALL
10
-28.5559
20
-24.6040
30
0.0000
0
VERTEX
8
L0_EXTERIOR_WALL
10
-28.5729
20
-26.3555
30
0.0000
0
VERTEX
8
L0_EXTERIOR_WALL
10
-28.3568
20
-28.0809
30
0.0000
0
VERTEX
8
L0_EXTERIOR_WALL
10
-27.7209
20
-29.6984
30
0.0000
0
VERTEX
8
L0_EXTERIOR_WALL
10
-26.6322
20
-31.0591
30
0.0000
0
VERTEX
8
L0_EXTERIOR_WALL
10
-25.1802
20
-32.0435
30
0.0000
0
VERTEX
8
L0_EXTERIOR_WALL
10
-23.5406
20
-32.6550
30
0.0000
0
VERTEX
8
L0_EXTERIOR_WALL
10
-21.8660
20
-33.1727
30
0.0000
0
VERTEX
8
L0_EXTERIOR_WALL
10
-20.1804
20
-33.6662
30
0.0000
0
VERTEX
8
L0_EXTERIOR_WALL
10
-18.5086
20
-34.2482
30
0.0000
0
VERTEX
8
L0_EXTERIOR_WALL
10
-16.8635
20
-35.0428
30
0.0000
0
VERTEX
8
L0_EXTERIOR_WALL
10
-15.1954
20
-35.8533
30
0.0000
0
VERTEX
8
L0_EXTERIOR_WALL
10
-13.4732
20
-36.3819
30
0.0000
0
VERTEX
8
L0_EXTERIOR_WALL
10
-11.6810
20
-36.4498
30
0.0000
0
VERTEX
8
L0_EXTERIOR_WALL
10
-9.8688
20
-36.1407
30
0.0000
0
VERTEX
8
L0_EXTERIOR_WALL
10
-8.0673
20
-35.8013
30
0.0000
0
VERTEX
8
L0_EXTERIOR_WALL
10
-6.2922
20
-35.6445
30
0.0000
0
VERTEX
8
L0_EXTERIOR_WALL
10
-4.5367
20
-35.6926
30
0.0000
0
VERTEX
8
L0_EXTERIOR_WALL
10
-2.7854
20
-35.7915
30
0.0000
0
VERTEX
8
L0_EXTERIOR_WALL
10
-1.0334
20
-35.8791
30
0.0000
0
VERTEX
8
L0_EXTERIOR_WALL
10
0.7186
20
-35.9668
30
0.0000
0
VERTEX
8
L0_EXTERIOR_WALL
10
2.4724
20
-35.9877
30
0.0000
0
VERTEX
8
L0_EXTERIOR_WALL
10
4.2304
20
-36.1314
30
0.0000
0
VERTEX
8
L0_EXTERIOR_WALL
10
6.0200
20
-36.5965
30
0.0000
0
VERTEX
8
L0_EXTERIOR_WALL
10
7.8520
20
-37.2030
30
0.0000
0
VERTEX
8
L0_EXTERIOR_WALL
10
9.6919
20
-37.5777
30
0.0000
0
VERTEX
8
L0_EXTERIOR_WALL
10
11.5074
20
-37.5083
30
0.0000
0
VERTEX
8
L0_EXTERIOR_WALL
10
13.2809
20
-37.2208
30
0.0000
0
VERTEX
8
L0_EXTERIOR_WALL
10
15.0203
20
-36.6493
30
0.0000
0
VERTEX
8
L0_EXTERIOR_WALL
10
16.6658
20
-35.7159
30
0.0000
0
VERTEX
8
L0_EXTERIOR_WALL
10
18.2523
20
-34.6303
30
0.0000
0
VERTEX
8
L0_EXTERIOR_WALL
10
19.8301
20
-33.7086
30
0.0000
0
VERTEX
8
L0_EXTERIOR_WALL
10
21.4435
20
-33.0068
30
0.0000
0
VERTEX
8
L0_EXTERIOR_WALL
10
23.0477
20
-32.2921
30
0.0000
0
VERTEX
8
L0_EXTERIOR_WALL
10
24.5276
20
-31.3512
30
0.0000
0
VERTEX
8
L0_EXTERIOR_WALL
10
26.0644
20
-30.2996
30
0.0000
0
VERTEX
8
L0_EXTERIOR_WALL
10
27.5647
20
-28.8720
30
0.0000
0
VERTEX
8
L0_EXTERIOR_WALL
10
28.6577
20
-27.1485
30
0.0000
0
VERTEX
8
L0_EXTERIOR_WALL
10
29.1724
20
-25.2409
30
0.0000
0
VERTEX
8
L0_EXTERIOR_WALL
10
28.8941
20
-23.3072
30
0.0000
0
VERTEX
8
L0_EXTERIOR_WALL
10
28.2142
20
-21.5006
30
0.0000
0
VERTEX
8
L0_EXTERIOR_WALL
10
27.5488
20
-19.7484
30
0.0000
0
VERTEX
8
L0_EXTERIOR_WALL
10
27.2011
20
-18.0077
30
0.0000
0
VERTEX
8
L0_EXTERIOR_WALL
10
26.9630
20
-16.2663
30
0.0000
0
VERTEX
8
L0_EXTERIOR_WALL
10
26.7379
20
-14.5257
30
0.0000
0
VERTEX
8
L0_EXTERIOR_WALL
10
26.4912
20
-12.7882
30
0.0000
0
VERTEX
8
L0_EXTERIOR_WALL
10
26.3442
20
-11.0360
30
0.0000
0
VERTEX
8
L0_EXTERIOR_WALL
10
26.3061
20
-9.2626
30
0.0000
0
VERTEX
8
L0_EXTERIOR_WALL
10
26.3042
20
-7.4791
30
0.0000
0
VERTEX
8
L0_EXTERIOR_WALL
10
26.3129
20
-5.6788
30
0.0000
0
VERTEX
8
L0_EXTERIOR_WALL
10
26.2574
20
-3.8735
30
0.0000
0
VERTEX
8
L0_EXTERIOR_WALL
10
26.1834
20
-2.0802
30
0.0000
0
VERTEX
8
L0_EXTERIOR_WALL
10
26.0503
20
-0.2692
30
0.0000
0
VERTEX
8
L0_EXTERIOR_WALL
10
25.7664
20
1.5058
30
0.0000
0
VERTEX
8
L0_EXTERIOR_WALL
10
25.3898
20
3.2184
30
0.0000
0
VERTEX
8
L0_EXTERIOR_WALL
10
24.9502
20
4.9122
30
0.0000
0
VERTEX
8
L0_EXTERIOR_WALL
10
24.4686
20
6.5975
30
0.0000
0
VERTEX
8
L0_EXTERIOR_WALL
10
23.9481
20
8.2717
30
0.0000
0
VERTEX
8
L0_EXTERIOR_WALL
10
23.4107
20
9.9409
30
0.0000
0
VERTEX
8
L0_EXTERIOR_WALL
10
22.8688
20
11.6118
30
0.0000
0
VERTEX
8
L0_EXTERIOR_WALL
10
22.3238
20
13.2879
30
0.0000
0
VERTEX
8
L0_EXTERIOR_WALL
10
21.7737
20
14.9635
30
0.0000
0
VERTEX
8
L0_EXTERIOR_WALL
10
21.2742
20
16.6471
30
0.0000
0
VERTEX
8
L0_EXTERIOR_WALL
10
20.9200
20
18.3743
30
0.0000
0
VERTEX
8
L0_EXTERIOR_WALL
10
20.6838
20
20.1354
30
0.0000
0
VERTEX
8
L0_EXTERIOR_WALL
10
20.3964
20
21.8783
30
0.0000
0
VERTEX
8
L0_EXTERIOR_WALL
10
19.9828
20
23.6068
30
0.0000
0
VERTEX
8
L0_EXTERIOR_WALL
10
19.4855
20
25.3102
30
0.0000
0
VERTEX
8
L0_EXTERIOR_WALL
10
18.9780
20
26.9976
30
0.0000
0
VERTEX
8
L0_EXTERIOR_WALL
10
18.3955
20
28.6777
30
0.0000
0
VERTEX
8
L0_EXTERIOR_WALL
10
17.5871
20
30.2764
30
0.0000
0
VERTEX
8
L0_EXTERIOR_WALL
10
16.4710
20
31.7836
30
0.0000
0
VERTEX
8
L0_EXTERIOR_WALL
10
15.2202
20
33.2258
30
0.0000
0
VERTEX
8
L0_EXTERIOR_WALL
10
14.2115
20
34.7259
30
0.0000
0
VERTEX
8
L0_EXTERIOR_WALL
10
13.4553
20
36.3142
30
0.0000
0
VERTEX
8
L0_EXTERIOR_WALL
10
12.7226
20
37.9085
30
0.0000
0
VERTEX
8
L0_EXTERIOR_WALL
10
12.0028
20
39.5082
30
0.0000
0
VERTEX
8
L0_EXTERIOR_WALL
10
11.1118
20
41.0192
30
0.0000
0
VERTEX
8
L0_EXTERIOR_WALL
10
10.2202
20
42.5299
30
0.0000
0
VERTEX
8
L0_EXTERIOR_WALL
10
9.2459
20
43.9863
30
0.0000
0
VERTEX
8
L0_EXTERIOR_WALL
10
8.2154
20
45.4060
30
0.0000
0
VERTEX
8
L0_EXTERIOR_WALL
10
7.1850
20
46.8257
30
0.0000
0
SEQEND
8
L0_EXTERIOR_WALL
0
POLYLINE
8
L0_COURTYARD
62
3
66
1
70
1
10
0.0
20
0.0
30
0.0000
0
VERTEX
8
L0_COURTYARD
10
-1.7773
20
22.3390
30
0.0000
0
VERTEX
8
L0_COURTYARD
10
-2.2560
20
22.5234
30
0.0000
0
VERTEX
8
L0_COURTYARD
10
-3.5302
20
21.8044
30
0.0000
0
VERTEX
8
L0_COURTYARD
10
-4.6848
20
20.8219
30
0.0000
0
VERTEX
8
L0_COURTYARD
10
-5.6009
20
19.6530
30
0.0000
0
VERTEX
8
L0_COURTYARD
10
-6.2318
20
18.3326
30
0.0000
0
VERTEX
8
L0_COURTYARD
10
-6.6626
20
16.9358
30
0.0000
0
VERTEX
8
L0_COURTYARD
10
-6.8230
20
15.4634
30
0.0000
0
VERTEX
8
L0_COURTYARD
10
-6.7594
20
13.9334
30
0.0000
0
VERTEX
8
L0_COURTYARD
10
-6.5652
20
12.3880
30
0.0000
0
VERTEX
8
L0_COURTYARD
10
-6.4278
20
10.8619
30
0.0000
0
VERTEX
8
L0_COURTYARD
10
-6.5114
20
9.4053
30
0.0000
0
VERTEX
8
L0_COURTYARD
10
-6.7692
20
7.9964
30
0.0000
0
VERTEX
8
L0_COURTYARD
10
-7.1385
20
6.5925
30
0.0000
0
VERTEX
8
L0_COURTYARD
10
-7.5224
20
5.2107
30
0.0000
0
VERTEX
8
L0_COURTYARD
10
-7.9091
20
3.8148
30
0.0000
0
VERTEX
8
L0_COURTYARD
10
-8.3759
20
2.4353
30
0.0000
0
VERTEX
8
L0_COURTYARD
10
-8.8741
20
1.0569
30
0.0000
0
VERTEX
8
L0_COURTYARD
10
-9.3023
20
-0.3505
30
0.0000
0
VERTEX
8
L0_COURTYARD
10
-9.4562
20
-1.7890
30
0.0000
0
VERTEX
8
L0_COURTYARD
10
-9.2958
20
-3.2655
30
0.0000
0
VERTEX
8
L0_COURTYARD
10
-8.9931
20
-4.7371
30
0.0000
0
VERTEX
8
L0_COURTYARD
10
-8.7002
20
-6.2003
30
0.0000
0
VERTEX
8
L0_COURTYARD
10
-8.5177
20
-7.6063
30
0.0000
0
VERTEX
8
L0_COURTYARD
10
-8.3397
20
-8.9915
30
0.0000
0
VERTEX
8
L0_COURTYARD
10
-8.2294
20
-10.3406
30
0.0000
0
VERTEX
8
L0_COURTYARD
10
-8.1078
20
-11.5875
30
0.0000
0
VERTEX
8
L0_COURTYARD
10
-8.0708
20
-12.4733
30
0.0000
0
VERTEX
8
L0_COURTYARD
10
-8.3474
20
-12.4996
30
0.0000
0
VERTEX
8
L0_COURTYARD
10
-8.1522
20
-12.4637
30
0.0000
0
VERTEX
8
L0_COURTYARD
10
-7.0779
20
-12.8110
30
0.0000
0
VERTEX
8
L0_COURTYARD
10
-5.7774
20
-13.1690
30
0.0000
0
VERTEX
8
L0_COURTYARD
10
-4.3655
20
-13.5432
30
0.0000
0
VERTEX
8
L0_COURTYARD
10
-2.9299
20
-13.7018
30
0.0000
0
VERTEX
8
L0_COURTYARD
10
-1.4684
20
-13.5457
30
0.0000
0
VERTEX
8
L0_COURTYARD
10
-0.0218
20
-13.2199
30
0.0000
0
VERTEX
8
L0_COURTYARD
10
1.3643
20
-12.9942
30
0.0000
0
VERTEX
8
L0_COURTYARD
10
2.7413
20
-13.0537
30
0.0000
0
VERTEX
8
L0_COURTYARD
10
4.1336
20
-13.4693
30
0.0000
0
VERTEX
8
L0_COURTYARD
10
5.5571
20
-14.0508
30
0.0000
0
VERTEX
8
L0_COURTYARD
10
6.9911
20
-14.4896
30
0.0000
0
VERTEX
8
L0_COURTYARD
10
8.2541
20
-14.4726
30
0.0000
0
VERTEX
8
L0_COURTYARD
10
8.8459
20
-14.0106
30
0.0000
0
VERTEX
8
L0_COURTYARD
10
8.5817
20
-13.1751
30
0.0000
0
VERTEX
8
L0_COURTYARD
10
8.2097
20
-11.9728
30
0.0000
0
VERTEX
8
L0_COURTYARD
10
7.9597
20
-10.6216
30
0.0000
0
VERTEX
8
L0_COURTYARD
10
7.7789
20
-9.2541
30
0.0000
0
VERTEX
8
L0_COURTYARD
10
7.7530
20
-7.8663
30
0.0000
0
VERTEX
8
L0_COURTYARD
10
7.7441
20
-6.4797
30
0.0000
0
VERTEX
8
L0_COURTYARD
10
7.7632
20
-5.0622
30
0.0000
0
VERTEX
8
L0_COURTYARD
10
7.7229
20
-3.6615
30
0.0000
0
VERTEX
8
L0_COURTYARD
10
7.6326
20
-2.2372
30
0.0000
0
VERTEX
8
L0_COURTYARD
10
7.4901
20
-0.8347
30
0.0000
0
VERTEX
8
L0_COURTYARD
10
7.2638
20
0.5776
30
0.0000
0
VERTEX
8
L0_COURTYARD
10
7.0086
20
1.9727
30
0.0000
0
VERTEX
8
L0_COURTYARD
10
6.6626
20
3.3457
30
0.0000
0
VERTEX
8
L0_COURTYARD
10
6.3147
20
4.7347
30
0.0000
0
VERTEX
8
L0_COURTYARD
10
5.9733
20
6.1084
30
0.0000
0
VERTEX
8
L0_COURTYARD
10
5.6445
20
7.5026
30
0.0000
0
VERTEX
8
L0_COURTYARD
10
5.2444
20
8.8561
30
0.0000
0
VERTEX
8
L0_COURTYARD
10
4.6116
20
10.1435
30
0.0000
0
VERTEX
8
L0_COURTYARD
10
3.8080
20
11.3348
30
0.0000
0
VERTEX
8
L0_COURTYARD
10
2.8683
20
12.4457
30
0.0000
0
VERTEX
8
L0_COURTYARD
10
1.9673
20
13.5976
30
0.0000
0
VERTEX
8
L0_COURTYARD
10
1.1136
20
14.7315
30
0.0000
0
VERTEX
8
L0_COURTYARD
10
0.2726
20
15.8757
30
0.0000
0
VERTEX
8
L0_COURTYARD
10
-0.5674
20
16.9810
30
0.0000
0
VERTEX
8
L0_COURTYARD
10
-1.4210
20
18.0637
30
0.0000
0
VERTEX
8
L0_COURTYARD
10
-2.2143
20
19.1174
30
0.0000
0
VERTEX
8
L0_COURTYARD
10
-2.9154
20
20.1514
30
0.0000
0
VERTEX
8
L0_COURTYARD
10
-3.5085
20
21.2754
30
0.0000
0
VERTEX
8
L0_COURTYARD
10
-2.9300
20
21.7454
30
0.0000
0
SEQEND
8
L0_COURTYARD
0
POLYLINE
8
L0_WALL_INNER_FACE
62
8
66
1
70
1
10
0.0
20
0.0
30
0.0000
0
VERTEX
8
L0_WALL_INNER_FACE
10
5.5173
20
47.4725
30
0.0000
0
VERTEX
8
L0_WALL_INNER_FACE
10
4.1402
20
48.3176
30
0.0000
0
VERTEX
8
L0_WALL_INNER_FACE
10
2.5053
20
48.3384
30
0.0000
0
VERTEX
8
L0_WALL_INNER_FACE
10
0.7949
20
48.2360
30
0.0000
0
VERTEX
8
L0_WALL_INNER_FACE
10
-0.8901
20
47.9805
30
0.0000
0
VERTEX
8
L0_WALL_INNER_FACE
10
-2.5116
20
47.4608
30
0.0000
0
VERTEX
8
L0_WALL_INNER_FACE
10
-4.0810
20
46.8071
30
0.0000
0
VERTEX
8
L0_WALL_INNER_FACE
10
-5.5391
20
45.9356
30
0.0000
0
VERTEX
8
L0_WALL_INNER_FACE
10
-6.8759
20
44.8705
30
0.0000
0
VERTEX
8
L0_WALL_INNER_FACE
10
-8.1472
20
43.7352
30
0.0000
0
VERTEX
8
L0_WALL_INNER_FACE
10
-9.1798
20
42.3718
30
0.0000
0
VERTEX
8
L0_WALL_INNER_FACE
10
-10.1874
20
40.9796
30
0.0000
0
VERTEX
8
L0_WALL_INNER_FACE
10
-10.9904
20
39.4453
30
0.0000
0
VERTEX
8
L0_WALL_INNER_FACE
10
-11.8584
20
37.9054
30
0.0000
0
VERTEX
8
L0_WALL_INNER_FACE
10
-12.7653
20
36.3554
30
0.0000
0
VERTEX
8
L0_WALL_INNER_FACE
10
-13.8318
20
34.8774
30
0.0000
0
VERTEX
8
L0_WALL_INNER_FACE
10
-14.7566
20
33.3769
30
0.0000
0
VERTEX
8
L0_WALL_INNER_FACE
10
-15.3394
20
31.7946
30
0.0000
0
VERTEX
8
L0_WALL_INNER_FACE
10
-15.5956
20
30.0792
30
0.0000
0
VERTEX
8
L0_WALL_INNER_FACE
10
-15.7016
20
28.2631
30
0.0000
0
VERTEX
8
L0_WALL_INNER_FACE
10
-15.9686
20
26.4671
30
0.0000
0
VERTEX
8
L0_WALL_INNER_FACE
10
-16.4204
20
24.7432
30
0.0000
0
VERTEX
8
L0_WALL_INNER_FACE
10
-16.9023
20
23.0476
30
0.0000
0
VERTEX
8
L0_WALL_INNER_FACE
10
-17.4262
20
21.3492
30
0.0000
0
VERTEX
8
L0_WALL_INNER_FACE
10
-18.1212
20
19.6670
30
0.0000
0
VERTEX
8
L0_WALL_INNER_FACE
10
-19.1409
20
18.0713
30
0.0000
0
VERTEX
8
L0_WALL_INNER_FACE
10
-20.3227
20
16.5800
30
0.0000
0
VERTEX
8
L0_WALL_INNER_FACE
10
-21.2418
20
15.0694
30
0.0000
0
VERTEX
8
L0_WALL_INNER_FACE
10
-21.8324
20
13.4550
30
0.0000
0
VERTEX
8
L0_WALL_INNER_FACE
10
-22.2903
20
11.7749
30
0.0000
0
VERTEX
8
L0_WALL_INNER_FACE
10
-22.7322
20
10.0789
30
0.0000
0
VERTEX
8
L0_WALL_INNER_FACE
10
-23.1735
20
8.3781
30
0.0000
0
VERTEX
8
L0_WALL_INNER_FACE
10
-23.5952
20
6.6835
30
0.0000
0
VERTEX
8
L0_WALL_INNER_FACE
10
-23.9260
20
4.9978
30
0.0000
0
VERTEX
8
L0_WALL_INNER_FACE
10
-24.0090
20
3.2656
30
0.0000
0
VERTEX
8
L0_WALL_INNER_FACE
10
-23.8021
20
1.4309
30
0.0000
0
VERTEX
8
L0_WALL_INNER_FACE
10
-23.6058
20
-0.4593
30
0.0000
0
VERTEX
8
L0_WALL_INNER_FACE
10
-23.7087
20
-2.3010
30
0.0000
0
VERTEX
8
L0_WALL_INNER_FACE
10
-24.0411
20
-4.0623
30
0.0000
0
VERTEX
8
L0_WALL_INNER_FACE
10
-24.4520
20
-5.7841
30
0.0000
0
VERTEX
8
L0_WALL_INNER_FACE
10
-24.9215
20
-7.5021
30
0.0000
0
VERTEX
8
L0_WALL_INNER_FACE
10
-25.5707
20
-9.2053
30
0.0000
0
VERTEX
8
L0_WALL_INNER_FACE
10
-26.5216
20
-10.8317
30
0.0000
0
VERTEX
8
L0_WALL_INNER_FACE
10
-27.5860
20
-12.3863
30
0.0000
0
VERTEX
8
L0_WALL_INNER_FACE
10
-28.3887
20
-13.9651
30
0.0000
0
VERTEX
8
L0_WALL_INNER_FACE
10
-28.8460
20
-15.5933
30
0.0000
0
VERTEX
8
L0_WALL_INNER_FACE
10
-28.9979
20
-17.2993
30
0.0000
0
VERTEX
8
L0_WALL_INNER_FACE
10
-28.7499
20
-19.0953
30
0.0000
0
VERTEX
8
L0_WALL_INNER_FACE
10
-28.3370
20
-20.9622
30
0.0000
0
VERTEX
8
L0_WALL_INNER_FACE
10
-28.1180
20
-22.8220
30
0.0000
0
VERTEX
8
L0_WALL_INNER_FACE
10
-28.1560
20
-24.6102
30
0.0000
0
VERTEX
8
L0_WALL_INNER_FACE
10
-28.1736
20
-26.3326
30
0.0000
0
VERTEX
8
L0_WALL_INNER_FACE
10
-27.9692
20
-27.9821
30
0.0000
0
VERTEX
8
L0_WALL_INNER_FACE
10
-27.3747
20
-29.4980
30
0.0000
0
VERTEX
8
L0_WALL_INNER_FACE
10
-26.3607
20
-30.7653
30
0.0000
0
VERTEX
8
L0_WALL_INNER_FACE
10
-24.9968
20
-31.6880
30
0.0000
0
VERTEX
8
L0_WALL_INNER_FACE
10
-23.4116
20
-32.2763
30
0.0000
0
VERTEX
8
L0_WALL_INNER_FACE
10
-21.7507
20
-32.7897
30
0.0000
0
VERTEX
8
L0_WALL_INNER_FACE
10
-20.0584
20
-33.2852
30
0.0000
0
VERTEX
8
L0_WALL_INNER_FACE
10
-18.3556
20
-33.8786
30
0.0000
0
VERTEX
8
L0_WALL_INNER_FACE
10
-16.6891
20
-34.6828
30
0.0000
0
VERTEX
8
L0_WALL_INNER_FACE
10
-15.0489
20
-35.4811
30
0.0000
0
VERTEX
8
L0_WALL_INNER_FACE
10
-13.4064
20
-35.9875
30
0.0000
0
VERTEX
8
L0_WALL_INNER_FACE
10
-11.7072
20
-36.0507
30
0.0000
0
VERTEX
8
L0_WALL_INNER_FACE
10
-9.9395
20
-35.7470
30
0.0000
0
VERTEX
8
L0_WALL_INNER_FACE
10
-8.1220
20
-35.4051
30
0.0000
0
VERTEX
8
L0_WALL_INNER_FACE
10
-6.3043
20
-35.2447
30
0.0000
0
VERTEX
8
L0_WALL_INNER_FACE
10
-4.5200
20
-35.2929
30
0.0000
0
VERTEX
8
L0_WALL_INNER_FACE
10
-2.7641
20
-35.3921
30
0.0000
0
VERTEX
8
L0_WALL_INNER_FACE
10
-1.0134
20
-35.4796
30
0.0000
0
VERTEX
8
L0_WALL_INNER_FACE
10
0.7310
20
-35.5670
30
0.0000
0
VERTEX
8
L0_WALL_INNER_FACE
10
2.4911
20
-35.5881
30
0.0000
0
VERTEX
8
L0_WALL_INNER_FACE
10
4.2973
20
-35.7370
30
0.0000
0
VERTEX
8
L0_WALL_INNER_FACE
10
6.1333
20
-36.2128
30
0.0000
0
VERTEX
8
L0_WALL_INNER_FACE
10
7.9550
20
-36.8165
30
0.0000
0
VERTEX
8
L0_WALL_INNER_FACE
10
9.7244
20
-37.1790
30
0.0000
0
VERTEX
8
L0_WALL_INNER_FACE
10
11.4677
20
-37.1103
30
0.0000
0
VERTEX
8
L0_WALL_INNER_FACE
10
13.1862
20
-36.8322
30
0.0000
0
VERTEX
8
L0_WALL_INNER_FACE
10
14.8584
20
-36.2835
30
0.0000
0
VERTEX
8
L0_WALL_INNER_FACE
10
16.4540
20
-35.3765
30
0.0000
0
VERTEX
8
L0_WALL_INNER_FACE
10
18.0383
20
-34.2924
30
0.0000
0
VERTEX
8
L0_WALL_INNER_FACE
10
19.6491
20
-33.3519
30
0.0000
0
VERTEX
8
L0_WALL_INNER_FACE
10
21.2824
20
-32.6407
30
0.0000
0
VERTEX
8
L0_WALL_INNER_FACE
10
22.8585
20
-31.9396
30
0.0000
0
VERTEX
8
L0_WALL_INNER_FACE
10
24.3073
20
-31.0173
30
0.0000
0
VERTEX
8
L0_WALL_INNER_FACE
10
25.8128
20
-29.9887
30
0.0000
0
VERTEX
8
L0_WALL_INNER_FACE
10
27.2556
20
-28.6181
30
0.0000
0
VERTEX
8
L0_WALL_INNER_FACE
10
28.2916
20
-26.9875
30
0.0000
0
VERTEX
8
L0_WALL_INNER_FACE
10
28.7731
20
-25.2168
30
0.0000
0
VERTEX
8
L0_WALL_INNER_FACE
10
28.5067
20
-23.4067
30
0.0000
0
VERTEX
8
L0_WALL_INNER_FACE
10
27.8400
20
-21.6420
30
0.0000
0
VERTEX
8
L0_WALL_INNER_FACE
10
27.1644
20
-19.8589
30
0.0000
0
VERTEX
8
L0_WALL_INNER_FACE
10
26.8066
20
-18.0740
30
0.0000
0
VERTEX
8
L0_WALL_INNER_FACE
10
26.5665
20
-16.3191
30
0.0000
0
VERTEX
8
L0_WALL_INNER_FACE
10
26.3416
20
-14.5795
30
0.0000
0
VERTEX
8
L0_WALL_INNER_FACE
10
26.0937
20
-12.8331
30
0.0000
0
VERTEX
8
L0_WALL_INNER_FACE
10
25.9448
20
-11.0571
30
0.0000
0
VERTEX
8
L0_WALL_INNER_FACE
10
25.9061
20
-9.2671
30
0.0000
0
VERTEX
8
L0_WALL_INNER_FACE
10
25.9042
20
-7.4783
30
0.0000
0
VERTEX
8
L0_WALL_INNER_FACE
10
25.9129
20
-5.6840
30
0.0000
0
VERTEX
8
L0_WALL_INNER_FACE
10
25.8576
20
-3.8878
30
0.0000
0
VERTEX
8
L0_WALL_INNER_FACE
10
25.7840
20
-2.1031
30
0.0000
0
VERTEX
8
L0_WALL_INNER_FACE
10
25.6530
20
-0.3155
30
0.0000
0
VERTEX
8
L0_WALL_INNER_FACE
10
25.3734
20
1.4312
30
0.0000
0
VERTEX
8
L0_WALL_INNER_FACE
10
25.0008
20
3.1252
30
0.0000
0
VERTEX
8
L0_WALL_INNER_FACE
10
24.5643
20
4.8070
30
0.0000
0
VERTEX
8
L0_WALL_INNER_FACE
10
24.0853
20
6.4832
30
0.0000
0
VERTEX
8
L0_WALL_INNER_FACE
10
23.5667
20
8.1511
30
0.0000
0
VERTEX
8
L0_WALL_INNER_FACE
10
23.0301
20
9.8179
30
0.0000
0
VERTEX
8
L0_WALL_INNER_FACE
10
22.4883
20
11.4882
30
0.0000
0
VERTEX
8
L0_WALL_INNER_FACE
10
21.9435
20
13.1637
30
0.0000
0
VERTEX
8
L0_WALL_INNER_FACE
10
21.3919
20
14.8442
30
0.0000
0
VERTEX
8
L0_WALL_INNER_FACE
10
20.8862
20
16.5500
30
0.0000
0
VERTEX
8
L0_WALL_INNER_FACE
10
20.5256
20
18.3075
30
0.0000
0
VERTEX
8
L0_WALL_INNER_FACE
10
20.2882
20
20.0763
30
0.0000
0
VERTEX
8
L0_WALL_INNER_FACE
10
20.0043
20
21.7992
30
0.0000
0
VERTEX
8
L0_WALL_INNER_FACE
10
19.5962
20
23.5042
30
0.0000
0
VERTEX
8
L0_WALL_INNER_FACE
10
19.1020
20
25.1965
30
0.0000
0
VERTEX
8
L0_WALL_INNER_FACE
10
18.5974
20
26.8745
30
0.0000
0
VERTEX
8
L0_WALL_INNER_FACE
10
18.0272
20
28.5216
30
0.0000
0
VERTEX
8
L0_WALL_INNER_FACE
10
17.2467
20
30.0664
30
0.0000
0
VERTEX
8
L0_WALL_INNER_FACE
10
16.1589
20
31.5334
30
0.0000
0
VERTEX
8
L0_WALL_INNER_FACE
10
14.9025
20
32.9827
30
0.0000
0
VERTEX
8
L0_WALL_INNER_FACE
10
13.8640
20
34.5278
30
0.0000
0
VERTEX
8
L0_WALL_INNER_FACE
10
13.0930
20
36.1447
30
0.0000
0
VERTEX
8
L0_WALL_INNER_FACE
10
12.3585
20
37.7429
30
0.0000
0
VERTEX
8
L0_WALL_INNER_FACE
10
11.6476
20
39.3242
30
0.0000
0
VERTEX
8
L0_WALL_INNER_FACE
10
10.7673
20
40.8159
30
0.0000
0
VERTEX
8
L0_WALL_INNER_FACE
10
9.8816
20
42.3170
30
0.0000
0
VERTEX
8
L0_WALL_INNER_FACE
10
8.9177
20
43.7576
30
0.0000
0
VERTEX
8
L0_WALL_INNER_FACE
10
7.8917
20
45.1710
30
0.0000
0
VERTEX
8
L0_WALL_INNER_FACE
10
6.9068
20
46.5383
30
0.0000
0
SEQEND
8
L0_WALL_INNER_FACE
0
POLYLINE
8
L0_COURT_INNER_FACE
62
8
66
1
70
1
10
0.0
20
0.0
30
0.0000
0
VERTEX
8
L0_COURT_INNER_FACE
10
-1.3779
20
22.3606
30
0.0000
0
VERTEX
8
L0_COURT_INNER_FACE
10
-2.2852
20
22.9223
30
0.0000
0
VERTEX
8
L0_COURT_INNER_FACE
10
-3.7591
20
22.1325
30
0.0000
0
VERTEX
8
L0_COURT_INNER_FACE
10
-4.9733
20
21.0990
30
0.0000
0
VERTEX
8
L0_COURT_INNER_FACE
10
-5.9408
20
19.8638
30
0.0000
0
VERTEX
8
L0_COURT_INNER_FACE
10
-6.6044
20
18.4782
30
0.0000
0
VERTEX
8
L0_COURT_INNER_FACE
10
-7.0544
20
17.0167
30
0.0000
0
VERTEX
8
L0_COURT_INNER_FACE
10
-7.2228
20
15.4767
30
0.0000
0
VERTEX
8
L0_COURT_INNER_FACE
10
-7.1580
20
13.9002
30
0.0000
0
VERTEX
8
L0_COURT_INNER_FACE
10
-6.9629
20
12.3451
30
0.0000
0
VERTEX
8
L0_COURT_INNER_FACE
10
-6.8277
20
10.8554
30
0.0000
0
VERTEX
8
L0_COURT_INNER_FACE
10
-6.9086
20
9.4528
30
0.0000
0
VERTEX
8
L0_COURT_INNER_FACE
10
-7.1597
20
8.0834
30
0.0000
0
VERTEX
8
L0_COURT_INNER_FACE
10
-7.5246
20
6.6969
30
0.0000
0
VERTEX
8
L0_COURT_INNER_FACE
10
-7.9079
20
5.3177
30
0.0000
0
VERTEX
8
L0_COURT_INNER_FACE
10
-8.2914
20
3.9324
30
0.0000
0
VERTEX
8
L0_COURT_INNER_FACE
10
-8.7534
20
2.5674
30
0.0000
0
VERTEX
8
L0_COURT_INNER_FACE
10
-9.2537
20
1.1832
30
0.0000
0
VERTEX
8
L0_COURT_INNER_FACE
10
-9.6943
20
-0.2706
30
0.0000
0
VERTEX
8
L0_COURT_INNER_FACE
10
-9.8562
20
-1.7894
30
0.0000
0
VERTEX
8
L0_COURT_INNER_FACE
10
-9.6910
20
-3.3274
30
0.0000
0
VERTEX
8
L0_COURT_INNER_FACE
10
-9.3851
20
-4.8166
30
0.0000
0
VERTEX
8
L0_COURT_INNER_FACE
10
-9.0948
20
-6.2653
30
0.0000
0
VERTEX
8
L0_COURT_INNER_FACE
10
-8.9144
20
-7.6575
30
0.0000
0
VERTEX
8
L0_COURT_INNER_FACE
10
-8.7375
20
-9.0333
30
0.0000
0
VERTEX
8
L0_COURT_INNER_FACE
10
-8.6278
20
-10.3763
30
0.0000
0
VERTEX
8
L0_COURT_INNER_FACE
10
-8.5069
20
-11.6153
30
0.0000
0
VERTEX
8
L0_COURT_INNER_FACE
10
-8.3723
20
-12.2104
30
0.0000
0
VERTEX
8
L0_COURT_INNER_FACE
10
-7.9512
20
-12.4445
30
0.0000
0
VERTEX
8
L0_COURT_INNER_FACE
10
-8.1784
20
-12.8629
30
0.0000
0
VERTEX
8
L0_COURT_INNER_FACE
10
-7.1925
20
-13.1942
30
0.0000
0
VERTEX
8
L0_COURT_INNER_FACE
10
-5.8818
20
-13.5551
30
0.0000
0
VERTEX
8
L0_COURT_INNER_FACE
10
-4.4389
20
-13.9365
30
0.0000
0
VERTEX
8
L0_COURT_INNER_FACE
10
-2.9306
20
-14.1018
30
0.0000
0
VERTEX
8
L0_COURT_INNER_FACE
10
-1.4032
20
-13.9404
30
0.0000
0
VERTEX
8
L0_COURT_INNER_FACE
10
0.0544
20
-13.6126
30
0.0000
0
VERTEX
8
L0_COURT_INNER_FACE
10
1.3879
20
-13.3935
30
0.0000
0
VERTEX
8
L0_COURT_INNER_FACE
10
2.6750
20
-13.4482
30
0.0000
0
VERTEX
8
L0_COURT_INNER_FACE
10
4.0006
20
-13.8466
30
0.0000
0
VERTEX
8
L0_COURT_INNER_FACE
10
5.4228
20
-14.4276
30
0.0000
0
VERTEX
8
L0_COURT_INNER_FACE
10
6.9346
20
-14.8856
30
0.0000
0
VERTEX
8
L0_COURT_INNER_FACE
10
8.3868
20
-14.8499
30
0.0000
0
VERTEX
8
L0_COURT_INNER_FACE
10
9.2280
20
-14.1291
30
0.0000
0
VERTEX
8
L0_COURT_INNER_FACE
10
8.9635
20
-13.0557
30
0.0000
0
VERTEX
8
L0_COURT_INNER_FACE
10
8.5981
20
-11.8771
30
0.0000
0
VERTEX
8
L0_COURT_INNER_FACE
10
8.3547
20
-10.5589
30
0.0000
0
VERTEX
8
L0_COURT_INNER_FACE
10
8.1778
20
-9.2241
30
0.0000
0
VERTEX
8
L0_COURT_INNER_FACE
10
8.1529
20
-7.8613
30
0.0000
0
VERTEX
8
L0_COURT_INNER_FACE
10
8.1441
20
-6.4812
30
0.0000
0
VERTEX
8
L0_COURT_INNER_FACE
10
8.1632
20
-5.0592
30
0.0000
0
VERTEX
8
L0_COURT_INNER_FACE
10
8.1225
20
-3.6431
30
0.0000
0
VERTEX
8
L0_COURT_INNER_FACE
10
8.0313
20
-2.2043
30
0.0000
0
VERTEX
8
L0_COURT_INNER_FACE
10
7.8867
20
-0.7828
30
0.0000
0
VERTEX
8
L0_COURT_INNER_FACE
10
7.6580
20
0.6452
30
0.0000
0
VERTEX
8
L0_COURT_INNER_FACE
10
7.3995
20
2.0576
30
0.0000
0
VERTEX
8
L0_COURT_INNER_FACE
10
7.0505
20
3.4431
30
0.0000
0
VERTEX
8
L0_COURT_INNER_FACE
10
6.7028
20
4.8316
30
0.0000
0
VERTEX
8
L0_COURT_INNER_FACE
10
6.3621
20
6.2026
30
0.0000
0
VERTEX
8
L0_COURT_INNER_FACE
10
6.0311
20
7.6052
30
0.0000
0
VERTEX
8
L0_COURT_INNER_FACE
10
5.6171
20
9.0016
30
0.0000
0
VERTEX
8
L0_COURT_INNER_FACE
10
4.9577
20
10.3440
30
0.0000
0
VERTEX
8
L0_COURT_INNER_FACE
10
4.1270
20
11.5762
30
0.0000
0
VERTEX
8
L0_COURT_INNER_FACE
10
3.1786
20
12.6981
30
0.0000
0
VERTEX
8
L0_COURT_INNER_FACE
10
2.2847
20
13.8412
30
0.0000
0
VERTEX
8
L0_COURT_INNER_FACE
10
1.4345
20
14.9702
30
0.0000
0
VERTEX
8
L0_COURT_INNER_FACE
10
0.5929
20
16.1152
30
0.0000
0
VERTEX
8
L0_COURT_INNER_FACE
10
-0.2511
20
17.2259
30
0.0000
0
VERTEX
8
L0_COURT_INNER_FACE
10
-1.1042
20
18.3078
30
0.0000
0
VERTEX
8
L0_COURT_INNER_FACE
10
-1.8889
20
19.3500
30
0.0000
0
VERTEX
8
L0_COURT_INNER_FACE
10
-2.5725
20
20.3573
30
0.0000
0
VERTEX
8
L0_COURT_INNER_FACE
10
-3.1166
20
21.1954
30
0.0000
0
VERTEX
8
L0_COURT_INNER_FACE
10
-2.7112
20
21.4106
30
0.0000
0
SEQEND
8
L0_COURT_INNER_FACE
0
CIRCLE
8
L0_PROGRAM_LOBBY
62
7
10
11.5199
20
-6.1241
30
0.0000
40
6.1804
0
TEXT
8
L0_LABELS
10
11.5199
20
-6.1241
30
0.0000
40
0.9889
1
Entry / Lobby 101 | 120 m2
72
1
11
11.5199
21
-6.1241
31
0.0000
0
CIRCLE
8
L0_PROGRAM_ADMIN
62
7
10
18.9092
20
2.3638
30
0.0000
40
6.4328
0
TEXT
8
L0_LABELS
10
18.9092
20
2.3638
30
0.0000
40
1.0292
1
Administration 101 | 130 m2
72
1
11
18.9092
21
2.3638
31
0.0000
0
CIRCLE
8
L0_PROGRAM_HEALTH
62
7
10
9.3381
20
5.3185
30
0.0000
40
3.9088
0
TEXT
8
L0_LABELS
10
9.3381
20
5.3185
30
0.0000
40
0.6254
1
Health / Counseling 101 | 48 m2
72
1
11
9.3381
21
5.3185
31
0.0000
0
CIRCLE
8
L0_PROGRAM_STAFF
62
7
10
20.0907
20
11.7595
30
0.0000
40
4.7203
0
TEXT
8
L0_LABELS
10
20.0907
20
11.7595
30
0.0000
40
0.7553
1
Staff / Workroom 101 | 70 m2
72
1
11
20.0907
21
11.7595
31
0.0000
0
CIRCLE
8
L0_PROGRAM_GYM
62
7
10
9.3244
20
21.9569
30
0.0000
40
11.6993
0
TEXT
8
L0_LABELS
10
9.3244
20
21.9569
30
0.0000
40
1.8719
1
Gymnasium 101 | 430 m2
72
1
11
9.3244
21
21.9569
31
0.0000
0
CIRCLE
8
L0_PROGRAM_STAGE
62
7
10
-9.2998
20
30.3205
30
0.0000
40
5.9173
0
TEXT
8
L0_LABELS
10
-9.2998
20
30.3205
30
0.0000
40
0.9468
1
Stage / Assembly 101 | 110 m2
72
1
11
-9.2998
21
30.3205
31
0.0000
0
CIRCLE
8
L0_PROGRAM_CAFETERIA
62
7
10
-15.8745
20
8.1803
30
0.0000
40
9.7721
0
TEXT
8
L0_LABELS
10
-15.8745
20
8.1803
30
0.0000
40
1.5635
1
Cafeteria / Commons 101 | 300 m2
72
1
11
-15.8745
21
8.1803
31
0.0000
0
CIRCLE
8
L0_PROGRAM_KITCHEN
62
7
10
-22.8613
20
-16.6897
30
0.0000
40
6.1804
0
TEXT
8
L0_LABELS
10
-22.8613
20
-16.6897
30
0.0000
40
0.9889
1
Kitchen / Servery 101 | 120 m2
72
1
11
-22.8613
21
-16.6897
31
0.0000
0
CIRCLE
8
L0_PROGRAM_KINDER
62
7
10
-13.7637
20
-8.0674
30
0.0000
40
5.5279
0
TEXT
8
L0_LABELS
10
-13.7637
20
-8.0674
30
0.0000
40
0.8845
1
Kindergarten 101 | 96 m2
72
1
11
-13.7637
21
-8.0674
31
0.0000
0
CIRCLE
8
L0_PROGRAM_KINDER
62
7
10
-12.4482
20
-30.2933
30
0.0000
40
5.5279
0
TEXT
8
L0_LABELS
10
-12.4482
20
-30.2933
30
0.0000
40
0.8845
1
Kindergarten 102 | 96 m2
72
1
11
-12.4482
21
-30.2933
31
0.0000
0
CIRCLE
8
L0_PROGRAM_KINDER
62
7
10
-0.2253
20
-28.9441
30
0.0000
40
5.5279
0
TEXT
8
L0_LABELS
10
-0.2253
20
-28.9441
30
0.0000
40
0.8845
1
Kindergarten 103 | 96 m2
72
1
11
-0.2253
21
-28.9441
31
0.0000
0
CIRCLE
8
L0_PROGRAM_KINDER
62
7
10
11.2907
20
-32.2101
30
0.0000
40
5.5279
0
TEXT
8
L0_LABELS
10
11.2907
20
-32.2101
30
0.0000
40
0.8845
1
Kindergarten 104 | 96 m2
72
1
11
11.2907
21
-32.2101
31
0.0000
0
CIRCLE
8
L0_PROGRAM_KINDER
62
7
10
-7.6999
20
-18.9320
30
0.0000
40
5.5279
0
TEXT
8
L0_LABELS
10
-7.6999
20
-18.9320
30
0.0000
40
0.8845
1
Kindergarten 105 | 96 m2
72
1
11
-7.6999
21
-18.9320
31
0.0000
0
CIRCLE
8
L0_PROGRAM_TOILETS
62
7
10
16.9155
20
-24.7339
30
0.0000
40
3.7424
0
TEXT
8
L0_LABELS
10
16.9155
20
-24.7339
30
0.0000
40
0.6000
1
Toilet Group 101 | 44 m2
72
1
11
16.9155
21
-24.7339
31
0.0000
0
CIRCLE
8
L0_PROGRAM_TOILETS
62
7
10
1.8105
20
-15.8991
30
0.0000
40
3.7424
0
TEXT
8
L0_LABELS
10
1.8105
20
-15.8991
30
0.0000
40
0.6000
1
Toilet Group 102 | 44 m2
72
1
11
1.8105
21
-15.8991
31
0.0000
0
CIRCLE
8
L0_PROGRAM_STORAGE
62
7
10
25.4206
20
-25.1023
30
0.0000
40
3.4779
0
TEXT
8
L0_LABELS
10
25.4206
20
-25.1023
30
0.0000
40
0.6000
1
Storage / Support 101 | 38 m2
72
1
11
25.4206
21
-25.1023
31
0.0000
0
CIRCLE
8
L0_PROGRAM_STORAGE
62
7
10
12.7400
20
-14.7940
30
0.0000
40
3.4779
0
TEXT
8
L0_LABELS
10
12.7400
20
-14.7940
30
0.0000
40
0.6000
1
Storage / Support 102 | 38 m2
72
1
11
12.7400
21
-14.7940
31
0.0000
0
CIRCLE
8
L0_PROGRAM_MECH
62
7
10
23.9917
20
-5.7465
30
0.0000
40
4.2220
0
TEXT
8
L0_LABELS
10
23.9917
20
-5.7465
30
0.0000
40
0.6755
1
Mech / Electrical 101 | 56 m2
72
1
11
23.9917
21
-5.7465
31
0.0000
0
CIRCLE
8
L0_PROGRAM_OUTDOOR
62
7
10
5.7430
20
2.8327
30
0.0000
40
6.4328
0
TEXT
8
L0_LABELS
10
5.7430
20
2.8327
30
0.0000
40
1.0292
1
Outdoor Learning 101 | 130 m2
72
1
11
5.7430
21
2.8327
31
0.0000
0
CIRCLE
8
L0_PROGRAM_CORE
62
7
10
8.2271
20
-21.5670
30
0.0000
40
4.2967
0
TEXT
8
L0_LABELS
10
8.2271
20
-21.5670
30
0.0000
40
0.6875
1
Stair 01 + Lift | 58 m2
72
1
11
8.2271
21
-21.5670
31
0.0000
0
CIRCLE
8
L0_PROGRAM_CORE
62
7
10
21.8271
20
-16.7670
30
0.0000
40
4.2967
0
TEXT
8
L0_LABELS
10
21.8271
20
-16.7670
30
0.0000
40
0.6875
1
Stair 02 + Lift | 58 m2
72
1
11
21.8271
21
-16.7670
31
0.0000
0
CIRCLE
8
L0_PROGRAM_CORE
62
7
10
20.2271
20
-9.5670
30
0.0000
40
4.2967
0
TEXT
8
L0_LABELS
10
20.2271
20
-9.5670
30
0.0000
40
0.6875
1
Service Core + Risers | 58 m2
72
1
11
20.2271
21
-9.5670
31
0.0000
0
POLYLINE
8
L1_EXTERIOR_WALL
62
5
66
1
70
1
10
0.0
20
0.0
30
4.2000
0
VERTEX
8
L1_EXTERIOR_WALL
10
-26.0429
20
40.8898
30
4.2000
0
VERTEX
8
L1_EXTERIOR_WALL
10
-27.7513
20
40.6211
30
4.2000
0
VERTEX
8
L1_EXTERIOR_WALL
10
-29.1183
20
39.5217
30
4.2000
0
VERTEX
8
L1_EXTERIOR_WALL
10
-30.3875
20
38.3202
30
4.2000
0
VERTEX
8
L1_EXTERIOR_WALL
10
-31.5464
20
37.0033
30
4.2000
0
VERTEX
8
L1_EXTERIOR_WALL
10
-32.4813
20
35.5222
30
4.2000
0
VERTEX
8
L1_EXTERIOR_WALL
10
-33.2838
20
33.9717
30
4.2000
0
VERTEX
8
L1_EXTERIOR_WALL
10
-33.8589
20
32.3145
30
4.2000
0
VERTEX
8
L1_EXTERIOR_WALL
10
-34.2066
20
30.6020
30
4.2000
0
VERTEX
8
L1_EXTERIOR_WALL
10
-34.4561
20
28.8656
30
4.2000
0
VERTEX
8
L1_EXTERIOR_WALL
10
-34.3705
20
27.1145
30
4.2000
0
VERTEX
8
L1_EXTERIOR_WALL
10
-34.2441
20
25.3671
30
4.2000
0
VERTEX
8
L1_EXTERIOR_WALL
10
-33.8616
20
23.6552
30
4.2000
0
VERTEX
8
L1_EXTERIOR_WALL
10
-33.4727
20
21.9449
30
4.2000
0
VERTEX
8
L1_EXTERIOR_WALL
10
-32.9469
20
20.2714
30
4.2000
0
VERTEX
8
L1_EXTERIOR_WALL
10
-32.4210
20
18.5978
30
4.2000
0
VERTEX
8
L1_EXTERIOR_WALL
10
-31.8252
20
16.9488
30
4.2000
0
VERTEX
8
L1_EXTERIOR_WALL
10
-31.1933
20
15.3124
30
4.2000
0
VERTEX
8
L1_EXTERIOR_WALL
10
-30.5614
20
13.6760
30
4.2000
0
VERTEX
8
L1_EXTERIOR_WALL
10
-29.8897
20
12.0555
30
4.2000
0
VERTEX
8
L1_EXTERIOR_WALL
10
-29.2154
20
10.4361
30
4.2000
0
VERTEX
8
L1_EXTERIOR_WALL
10
-28.5411
20
8.8167
30
4.2000
0
VERTEX
8
L1_EXTERIOR_WALL
10
-27.8311
20
7.2126
30
4.2000
0
VERTEX
8
L1_EXTERIOR_WALL
10
-27.1208
20
5.6087
30
4.2000
0
VERTEX
8
L1_EXTERIOR_WALL
10
-26.4104
20
4.0047
30
4.2000
0
VERTEX
8
L1_EXTERIOR_WALL
10
-25.6824
20
2.4088
30
4.2000
0
VERTEX
8
L1_EXTERIOR_WALL
10
-24.9613
20
0.8096
30
4.2000
0
VERTEX
8
L1_EXTERIOR_WALL
10
-24.3241
20
-0.8286
30
4.2000
0
VERTEX
8
L1_EXTERIOR_WALL
10
-23.8939
20
-2.5659
30
4.2000
0
VERTEX
8
L1_EXTERIOR_WALL
10
-23.6293
20
-4.3836
30
4.2000
0
VERTEX
8
L1_EXTERIOR_WALL
10
-23.1893
20
-6.1173
30
4.2000
0
VERTEX
8
L1_EXTERIOR_WALL
10
-22.3241
20
-7.6515
30
4.2000
0
VERTEX
8
L1_EXTERIOR_WALL
10
-21.2380
20
-9.0784
30
4.2000
0
VERTEX
8
L1_EXTERIOR_WALL
10
-20.4422
20
-10.6422
30
4.2000
0
VERTEX
8
L1_EXTERIOR_WALL
10
-20.1055
20
-12.4302
30
4.2000
0
VERTEX
8
L1_EXTERIOR_WALL
10
-19.8301
20
-14.2508
30
4.2000
0
VERTEX
8
L1_EXTERIOR_WALL
10
-19.3080
20
-15.9479
30
4.2000
0
VERTEX
8
L1_EXTERIOR_WALL
10
-18.5521
20
-17.5393
30
4.2000
0
VERTEX
8
L1_EXTERIOR_WALL
10
-17.5584
20
-19.0140
30
4.2000
0
VERTEX
8
L1_EXTERIOR_WALL
10
-16.2705
20
-20.3338
30
4.2000
0
VERTEX
8
L1_EXTERIOR_WALL
10
-14.9188
20
-21.6234
30
4.2000
0
VERTEX
8
L1_EXTERIOR_WALL
10
-13.9460
20
-23.1003
30
4.2000
0
VERTEX
8
L1_EXTERIOR_WALL
10
-13.3250
20
-24.7526
30
4.2000
0
VERTEX
8
L1_EXTERIOR_WALL
10
-12.6018
20
-26.3600
30
4.2000
0
VERTEX
8
L1_EXTERIOR_WALL
10
-11.5770
20
-27.8126
30
4.2000
0
VERTEX
8
L1_EXTERIOR_WALL
10
-10.4688
20
-29.2106
30
4.2000
0
VERTEX
8
L1_EXTERIOR_WALL
10
-9.4793
20
-30.6709
30
4.2000
0
VERTEX
8
L1_EXTERIOR_WALL
10
-8.5576
20
-32.1651
30
4.2000
0
VERTEX
8
L1_EXTERIOR_WALL
10
-7.6687
20
-33.6774
30
4.2000
0
VERTEX
8
L1_EXTERIOR_WALL
10
-6.7354
20
-35.1615
30
4.2000
0
VERTEX
8
L1_EXTERIOR_WALL
10
-5.7498
20
-36.6126
30
4.2000
0
VERTEX
8
L1_EXTERIOR_WALL
10
-4.6501
20
-37.9752
30
4.2000
0
VERTEX
8
L1_EXTERIOR_WALL
10
-3.3755
20
-39.1579
30
4.2000
0
VERTEX
8
L1_EXTERIOR_WALL
10
-1.8487
20
-39.9883
30
4.2000
0
VERTEX
8
L1_EXTERIOR_WALL
10
-0.1400
20
-40.3308
30
4.2000
0
VERTEX
8
L1_EXTERIOR_WALL
10
1.6050
20
-40.1516
30
4.2000
0
VERTEX
8
L1_EXTERIOR_WALL
10
3.2541
20
-39.5661
30
4.2000
0
VERTEX
8
L1_EXTERIOR_WALL
10
4.8675
20
-38.8814
30
4.2000
0
VERTEX
8
L1_EXTERIOR_WALL
10
6.4518
20
-38.1282
30
4.2000
0
VERTEX
8
L1_EXTERIOR_WALL
10
8.0027
20
-37.3098
30
4.2000
0
VERTEX
8
L1_EXTERIOR_WALL
10
9.5415
20
-36.4676
30
4.2000
0
VERTEX
8
L1_EXTERIOR_WALL
10
11.0567
20
-35.5844
30
4.2000
0
VERTEX
8
L1_EXTERIOR_WALL
10
12.6114
20
-34.7608
30
4.2000
0
VERTEX
8
L1_EXTERIOR_WALL
10
14.3086
20
-34.1417
30
4.2000
0
VERTEX
8
L1_EXTERIOR_WALL
10
16.1481
20
-33.7122
30
4.2000
0
VERTEX
8
L1_EXTERIOR_WALL
10
17.9615
20
-33.2144
30
4.2000
0
VERTEX
8
L1_EXTERIOR_WALL
10
19.5764
20
-32.4155
30
4.2000
0
VERTEX
8
L1_EXTERIOR_WALL
10
21.0467
20
-31.4334
30
4.2000
0
VERTEX
8
L1_EXTERIOR_WALL
10
22.4280
20
-30.3094
30
4.2000
0
VERTEX
8
L1_EXTERIOR_WALL
10
23.6327
20
-28.9744
30
4.2000
0
VERTEX
8
L1_EXTERIOR_WALL
10
24.6670
20
-27.3881
30
4.2000
0
VERTEX
8
L1_EXTERIOR_WALL
10
25.6139
20
-25.7399
30
4.2000
0
VERTEX
8
L1_EXTERIOR_WALL
10
26.7111
20
-24.3198
30
4.2000
0
VERTEX
8
L1_EXTERIOR_WALL
10
27.9535
20
-23.0768
30
4.2000
0
VERTEX
8
L1_EXTERIOR_WALL
10
29.1887
20
-21.8308
30
4.2000
0
VERTEX
8
L1_EXTERIOR_WALL
10
30.4313
20
-20.5926
30
4.2000
0
VERTEX
8
L1_EXTERIOR_WALL
10
31.6142
20
-19.2976
30
4.2000
0
VERTEX
8
L1_EXTERIOR_WALL
10
32.7877
20
-17.9938
30
4.2000
0
VERTEX
8
L1_EXTERIOR_WALL
10
33.9186
20
-16.6537
30
4.2000
0
VERTEX
8
L1_EXTERIOR_WALL
10
35.0151
20
-15.2845
30
4.2000
0
VERTEX
8
L1_EXTERIOR_WALL
10
36.0706
20
-13.8854
30
4.2000
0
VERTEX
8
L1_EXTERIOR_WALL
10
37.0337
20
-12.4193
30
4.2000
0
VERTEX
8
L1_EXTERIOR_WALL
10
37.9270
20
-10.9133
30
4.2000
0
VERTEX
8
L1_EXTERIOR_WALL
10
38.6970
20
-9.3372
30
4.2000
0
VERTEX
8
L1_EXTERIOR_WALL
10
39.1217
20
-7.6523
30
4.2000
0
VERTEX
8
L1_EXTERIOR_WALL
10
39.3327
20
-5.9103
30
4.2000
0
VERTEX
8
L1_EXTERIOR_WALL
10
39.3060
20
-4.0446
30
4.2000
0
VERTEX
8
L1_EXTERIOR_WALL
10
39.1358
20
-2.0857
30
4.2000
0
VERTEX
8
L1_EXTERIOR_WALL
10
38.6534
20
-0.1474
30
4.2000
0
VERTEX
8
L1_EXTERIOR_WALL
10
37.4994
20
1.3688
30
4.2000
0
VERTEX
8
L1_EXTERIOR_WALL
10
35.9369
20
2.4267
30
4.2000
0
VERTEX
8
L1_EXTERIOR_WALL
10
34.2399
20
3.2971
30
4.2000
0
VERTEX
8
L1_EXTERIOR_WALL
10
32.8434
20
4.4050
30
4.2000
0
VERTEX
8
L1_EXTERIOR_WALL
10
31.8319
20
5.8988
30
4.2000
0
VERTEX
8
L1_EXTERIOR_WALL
10
31.0541
20
7.6548
30
4.2000
0
VERTEX
8
L1_EXTERIOR_WALL
10
30.0941
20
9.2441
30
4.2000
0
VERTEX
8
L1_EXTERIOR_WALL
10
28.8722
20
10.5324
30
4.2000
0
VERTEX
8
L1_EXTERIOR_WALL
10
27.4029
20
11.5590
30
4.2000
0
VERTEX
8
L1_EXTERIOR_WALL
10
25.6868
20
12.2713
30
4.2000
0
VERTEX
8
L1_EXTERIOR_WALL
10
23.8664
20
12.8519
30
4.2000
0
VERTEX
8
L1_EXTERIOR_WALL
10
22.1851
20
13.5701
30
4.2000
0
VERTEX
8
L1_EXTERIOR_WALL
10
20.7053
20
14.5249
30
4.2000
0
VERTEX
8
L1_EXTERIOR_WALL
10
19.2960
20
15.5692
30
4.2000
0
VERTEX
8
L1_EXTERIOR_WALL
10
17.8603
20
16.5771
30
4.2000
0
VERTEX
8
L1_EXTERIOR_WALL
10
16.4245
20
17.5850
30
4.2000
0
VERTEX
8
L1_EXTERIOR_WALL
10
14.9910
20
18.5960
30
4.2000
0
VERTEX
8
L1_EXTERIOR_WALL
10
13.5592
20
19.6095
30
4.2000
0
VERTEX
8
L1_EXTERIOR_WALL
10
12.1274
20
20.6229
30
4.2000
0
VERTEX
8
L1_EXTERIOR_WALL
10
10.6982
20
21.6401
30
4.2000
0
VERTEX
8
L1_EXTERIOR_WALL
10
9.2699
20
22.6585
30
4.2000
0
VERTEX
8
L1_EXTERIOR_WALL
10
7.8416
20
23.6769
30
4.2000
0
VERTEX
8
L1_EXTERIOR_WALL
10
6.4075
20
24.6870
30
4.2000
0
VERTEX
8
L1_EXTERIOR_WALL
10
4.9717
20
25.6949
30
4.2000
0
VERTEX
8
L1_EXTERIOR_WALL
10
3.5360
20
26.7028
30
4.2000
0
VERTEX
8
L1_EXTERIOR_WALL
10
2.0933
20
27.7007
30
4.2000
0
VERTEX
8
L1_EXTERIOR_WALL
10
0.6498
20
28.6974
30
4.2000
0
VERTEX
8
L1_EXTERIOR_WALL
10
-0.7953
20
29.6918
30
4.2000
0
VERTEX
8
L1_EXTERIOR_WALL
10
-2.2586
20
30.6592
30
4.2000
0
VERTEX
8
L1_EXTERIOR_WALL
10
-3.7219
20
31.6267
30
4.2000
0
VERTEX
8
L1_EXTERIOR_WALL
10
-5.1921
20
32.5835
30
4.2000
0
VERTEX
8
L1_EXTERIOR_WALL
10
-6.6756
20
33.5197
30
4.2000
0
VERTEX
8
L1_EXTERIOR_WALL
10
-8.1591
20
34.4559
30
4.2000
0
VERTEX
8
L1_EXTERIOR_WALL
10
-9.6736
20
35.3400
30
4.2000
0
VERTEX
8
L1_EXTERIOR_WALL
10
-11.2033
20
36.1986
30
4.2000
0
VERTEX
8
L1_EXTERIOR_WALL
10
-12.7443
20
37.0355
30
4.2000
0
VERTEX
8
L1_EXTERIOR_WALL
10
-14.3240
20
37.7982
30
4.2000
0
VERTEX
8
L1_EXTERIOR_WALL
10
-15.9037
20
38.5609
30
4.2000
0
VERTEX
8
L1_EXTERIOR_WALL
10
-17.5575
20
39.1457
30
4.2000
0
VERTEX
8
L1_EXTERIOR_WALL
10
-19.2116
20
39.7299
30
4.2000
0
VERTEX
8
L1_EXTERIOR_WALL
10
-20.8942
20
40.2193
30
4.2000
0
VERTEX
8
L1_EXTERIOR_WALL
10
-22.5960
20
40.6445
30
4.2000
0
VERTEX
8
L1_EXTERIOR_WALL
10
-24.2979
20
41.0697
30
4.2000
0
SEQEND
8
L1_EXTERIOR_WALL
0
POLYLINE
8
L1_COURTYARD
62
3
66
1
70
1
10
0.0
20
0.0
30
4.2000
0
VERTEX
8
L1_COURTYARD
10
-17.8659
20
17.6902
30
4.2000
0
VERTEX
8
L1_COURTYARD
10
-17.8530
20
16.2252
30
4.2000
0
VERTEX
8
L1_COURTYARD
10
-17.6078
20
14.7831
30
4.2000
0
VERTEX
8
L1_COURTYARD
10
-17.1860
20
13.3841
30
4.2000
0
VERTEX
8
L1_COURTYARD
10
-16.5147
20
12.0732
30
4.2000
0
VERTEX
8
L1_COURTYARD
10
-15.5139
20
10.9063
30
4.2000
0
VERTEX
8
L1_COURTYARD
10
-14.3434
20
9.8365
30
4.2000
0
VERTEX
8
L1_COURTYARD
10
-13.1752
20
8.8059
30
4.2000
0
VERTEX
8
L1_COURTYARD
10
-12.2298
20
7.6568
30
4.2000
0
VERTEX
8
L1_COURTYARD
10
-11.5453
20
6.4076
30
4.2000
0
VERTEX
8
L1_COURTYARD
10
-10.9931
20
5.0755
30
4.2000
0
VERTEX
8
L1_COURTYARD
10
-10.4981
20
3.7226
30
4.2000
0
VERTEX
8
L1_COURTYARD
10
-9.9653
20
2.3888
30
4.2000
0
VERTEX
8
L1_COURTYARD
10
-9.3972
20
1.0486
30
4.2000
0
VERTEX
8
L1_COURTYARD
10
-8.7990
20
-0.2540
30
4.2000
0
VERTEX
8
L1_COURTYARD
10
-8.1364
20
-1.5360
30
4.2000
0
VERTEX
8
L1_COURTYARD
10
-7.4461
20
-2.7946
30
4.2000
0
VERTEX
8
L1_COURTYARD
10
-6.6884
20
-4.0066
30
4.2000
0
VERTEX
8
L1_COURTYARD
10
-5.8843
20
-5.2077
30
4.2000
0
VERTEX
8
L1_COURTYARD
10
-5.0394
20
-6.3675
30
4.2000
0
VERTEX
8
L1_COURTYARD
10
-4.1438
20
-7.5026
30
4.2000
0
VERTEX
8
L1_COURTYARD
10
-3.2299
20
-8.6063
30
4.2000
0
VERTEX
8
L1_COURTYARD
10
-2.2733
20
-9.6827
30
4.2000
0
VERTEX
8
L1_COURTYARD
10
-1.3584
20
-10.7363
30
4.2000
0
VERTEX
8
L1_COURTYARD
10
-0.4320
20
-11.7660
30
4.2000
0
VERTEX
8
L1_COURTYARD
10
0.4152
20
-12.8296
30
4.2000
0
VERTEX
8
L1_COURTYARD
10
1.2265
20
-13.8225
30
4.2000
0
VERTEX
8
L1_COURTYARD
10
1.8332
20
-14.6177
30
4.2000
0
VERTEX
8
L1_COURTYARD
10
1.9134
20
-14.9816
30
4.2000
0
VERTEX
8
L1_COURTYARD
10
2.3491
20
-14.8385
30
4.2000
0
VERTEX
8
L1_COURTYARD
10
3.4883
20
-14.3976
30
4.2000
0
VERTEX
8
L1_COURTYARD
10
4.7101
20
-13.7632
30
4.2000
0
VERTEX
8
L1_COURTYARD
10
5.9934
20
-13.0746
30
4.2000
0
VERTEX
8
L1_COURTYARD
10
7.2692
20
-12.3658
30
4.2000
0
VERTEX
8
L1_COURTYARD
10
8.5445
20
-11.6462
30
4.2000
0
VERTEX
8
L1_COURTYARD
10
9.8069
20
-10.9178
30
4.2000
0
VERTEX
8
L1_COURTYARD
10
11.0445
20
-10.1706
30
4.2000
0
VERTEX
8
L1_COURTYARD
10
12.2567
20
-9.3741
30
4.2000
0
VERTEX
8
L1_COURTYARD
10
13.4539
20
-8.5466
30
4.2000
0
VERTEX
8
L1_COURTYARD
10
14.5779
20
-7.6291
30
4.2000
0
VERTEX
8
L1_COURTYARD
10
15.5523
20
-6.5692
30
4.2000
0
VERTEX
8
L1_COURTYARD
10
16.1818
20
-5.3642
30
4.2000
0
VERTEX
8
L1_COURTYARD
10
16.0786
20
-4.4660
30
4.2000
0
VERTEX
8
L1_COURTYARD
10
15.2077
20
-4.0659
30
4.2000
0
VERTEX
8
L1_COURTYARD
10
14.1472
20
-3.4145
30
4.2000
0
VERTEX
8
L1_COURTYARD
10
13.1470
20
-2.5015
30
4.2000
0
VERTEX
8
L1_COURTYARD
10
12.1951
20
-1.5164
30
4.2000
0
VERTEX
8
L1_COURTYARD
10
11.3128
20
-0.4426
30
4.2000
0
VERTEX
8
L1_COURTYARD
10
10.4122
20
0.6126
30
4.2000
0
VERTEX
8
L1_COURTYARD
10
9.5053
20
1.7006
30
4.2000
0
VERTEX
8
L1_COURTYARD
10
8.5683
20
2.7418
30
4.2000
0
VERTEX
8
L1_COURTYARD
10
7.5821
20
3.7732
30
4.2000
0
VERTEX
8
L1_COURTYARD
10
6.5713
20
4.7558
30
4.2000
0
VERTEX
8
L1_COURTYARD
10
5.4901
20
5.6922
30
4.2000
0
VERTEX
8
L1_COURTYARD
10
4.3973
20
6.5961
30
4.2000
0
VERTEX
8
L1_COURTYARD
10
3.2434
20
7.4165
30
4.2000
0
VERTEX
8
L1_COURTYARD
10
2.0559
20
8.2158
30
4.2000
0
VERTEX
8
L1_COURTYARD
10
0.8413
20
8.9383
30
4.2000
0
VERTEX
8
L1_COURTYARD
10
-0.4130
20
9.6175
30
4.2000
0
VERTEX
8
L1_COURTYARD
10
-1.6696
20
10.2356
30
4.2000
0
VERTEX
8
L1_COURTYARD
10
-2.9806
20
10.7926
30
4.2000
0
VERTEX
8
L1_COURTYARD
10
-4.2683
20
11.3314
30
4.2000
0
VERTEX
8
L1_COURTYARD
10
-5.5691
20
11.8262
30
4.2000
0
VERTEX
8
L1_COURTYARD
10
-6.8467
20
12.4557
30
4.2000
0
VERTEX
8
L1_COURTYARD
10
-8.0275
20
13.2535
30
4.2000
0
VERTEX
8
L1_COURTYARD
10
-9.1375
20
14.2815
30
4.2000
0
VERTEX
8
L1_COURTYARD
10
-10.2131
20
15.4259
30
4.2000
0
VERTEX
8
L1_COURTYARD
10
-11.3533
20
16.4943
30
4.2000
0
VERTEX
8
L1_COURTYARD
10
-12.5919
20
17.3534
30
4.2000
0
VERTEX
8
L1_COURTYARD
10
-13.9390
20
17.9399
30
4.2000
0
VERTEX
8
L1_COURTYARD
10
-15.3501
20
18.3223
30
4.2000
0
VERTEX
8
L1_COURTYARD
10
-16.7923
20
18.5750
30
4.2000
0
SEQEND
8
L1_COURTYARD
0
POLYLINE
8
L1_WALL_INNER_FACE
62
8
66
1
70
1
10
0.0
20
0.0
30
4.2000
0
VERTEX
8
L1_WALL_INNER_FACE
10
-25.9913
20
40.4931
30
4.2000
0
VERTEX
8
L1_WALL_INNER_FACE
10
-27.5894
20
40.2553
30
4.2000
0
VERTEX
8
L1_WALL_INNER_FACE
10
-28.8552
20
39.2204
30
4.2000
0
VERTEX
8
L1_WALL_INNER_FACE
10
-30.0996
20
38.0426
30
4.2000
0
VERTEX
8
L1_WALL_INNER_FACE
10
-31.2261
20
36.7637
30
4.2000
0
VERTEX
8
L1_WALL_INNER_FACE
10
-32.1343
20
35.3233
30
4.2000
0
VERTEX
8
L1_WALL_INNER_FACE
10
-32.9162
20
33.8138
30
4.2000
0
VERTEX
8
L1_WALL_INNER_FACE
10
-33.4731
20
32.2089
30
4.2000
0
VERTEX
8
L1_WALL_INNER_FACE
10
-33.8124
20
30.5337
30
4.2000
0
VERTEX
8
L1_WALL_INNER_FACE
10
-34.0566
20
28.8469
30
4.2000
0
VERTEX
8
L1_WALL_INNER_FACE
10
-33.9712
20
27.1387
30
4.2000
0
VERTEX
8
L1_WALL_INNER_FACE
10
-33.8483
20
25.4253
30
4.2000
0
VERTEX
8
L1_WALL_INNER_FACE
10
-33.4714
20
23.7431
30
4.2000
0
VERTEX
8
L1_WALL_INNER_FACE
10
-33.0865
20
22.0493
30
4.2000
0
VERTEX
8
L1_WALL_INNER_FACE
10
-32.5652
20
20.3913
30
4.2000
0
VERTEX
8
L1_WALL_INNER_FACE
10
-32.0420
20
18.7258
30
4.2000
0
VERTEX
8
L1_WALL_INNER_FACE
10
-31.4505
20
17.0888
30
4.2000
0
VERTEX
8
L1_WALL_INNER_FACE
10
-30.8201
20
15.4565
30
4.2000
0
VERTEX
8
L1_WALL_INNER_FACE
10
-30.1900
20
13.8246
30
4.2000
0
VERTEX
8
L1_WALL_INNER_FACE
10
-29.5203
20
12.2090
30
4.2000
0
VERTEX
8
L1_WALL_INNER_FACE
10
-28.8461
20
10.5899
30
4.2000
0
VERTEX
8
L1_WALL_INNER_FACE
10
-28.1735
20
8.9745
30
4.2000
0
VERTEX
8
L1_WALL_INNER_FACE
10
-27.4653
20
7.3745
30
4.2000
0
VERTEX
8
L1_WALL_INNER_FACE
10
-26.7550
20
5.7706
30
4.2000
0
VERTEX
8
L1_WALL_INNER_FACE
10
-26.0456
20
4.1687
30
4.2000
0
VERTEX
8
L1_WALL_INNER_FACE
10
-25.3181
20
2.5740
30
4.2000
0
VERTEX
8
L1_WALL_INNER_FACE
10
-24.5925
20
0.9644
30
4.2000
0
VERTEX
8
L1_WALL_INNER_FACE
10
-23.9428
20
-0.7077
30
4.2000
0
VERTEX
8
L1_WALL_INNER_FACE
10
-23.5014
20
-2.4889
30
4.2000
0
VERTEX
8
L1_WALL_INNER_FACE
10
-23.2370
20
-4.3055
30
4.2000
0
VERTEX
8
L1_WALL_INNER_FACE
10
-22.8180
20
-5.9685
30
4.2000
0
VERTEX
8
L1_WALL_INNER_FACE
10
-21.9900
20
-7.4316
30
4.2000
0
VERTEX
8
L1_WALL_INNER_FACE
10
-20.8993
20
-8.8657
30
4.2000
0
VERTEX
8
L1_WALL_INNER_FACE
10
-20.0636
20
-10.5131
30
4.2000
0
VERTEX
8
L1_WALL_INNER_FACE
10
-19.7112
20
-12.3633
30
4.2000
0
VERTEX
8
L1_WALL_INNER_FACE
10
-19.4402
20
-14.1619
30
4.2000
0
VERTEX
8
L1_WALL_INNER_FACE
10
-18.9352
20
-15.8028
30
4.2000
0
VERTEX
8
L1_WALL_INNER_FACE
10
-18.2046
20
-17.3412
30
4.2000
0
VERTEX
8
L1_WALL_INNER_FACE
10
-17.2482
20
-18.7616
30
4.2000
0
VERTEX
8
L1_WALL_INNER_FACE
10
-15.9892
20
-20.0493
30
4.2000
0
VERTEX
8
L1_WALL_INNER_FACE
10
-14.6117
20
-21.3671
30
4.2000
0
VERTEX
8
L1_WALL_INNER_FACE
10
-13.5895
20
-22.9188
30
4.2000
0
VERTEX
8
L1_WALL_INNER_FACE
10
-12.9552
20
-24.6001
30
4.2000
0
VERTEX
8
L1_WALL_INNER_FACE
10
-12.2544
20
-26.1617
30
4.2000
0
VERTEX
8
L1_WALL_INNER_FACE
10
-11.2567
20
-27.5730
30
4.2000
0
VERTEX
8
L1_WALL_INNER_FACE
10
-10.1463
20
-28.9740
30
4.2000
0
VERTEX
8
L1_WALL_INNER_FACE
10
-9.1434
20
-30.4537
30
4.2000
0
VERTEX
8
L1_WALL_INNER_FACE
10
-8.2150
20
-31.9588
30
4.2000
0
VERTEX
8
L1_WALL_INNER_FACE
10
-7.3269
20
-33.4696
30
4.2000
0
VERTEX
8
L1_WALL_INNER_FACE
10
-6.4006
20
-34.9426
30
4.2000
0
VERTEX
8
L1_WALL_INNER_FACE
10
-5.4284
20
-36.3745
30
4.2000
0
VERTEX
8
L1_WALL_INNER_FACE
10
-4.3577
20
-37.7022
30
4.2000
0
VERTEX
8
L1_WALL_INNER_FACE
10
-3.1421
20
-38.8331
30
4.2000
0
VERTEX
8
L1_WALL_INNER_FACE
10
-1.7123
20
-39.6123
30
4.2000
0
VERTEX
8
L1_WALL_INNER_FACE
10
-0.1209
20
-39.9313
30
4.2000
0
VERTEX
8
L1_WALL_INNER_FACE
10
1.5170
20
-39.7614
30
4.2000
0
VERTEX
8
L1_WALL_INNER_FACE
10
3.1089
20
-39.1933
30
4.2000
0
VERTEX
8
L1_WALL_INNER_FACE
10
4.7034
20
-38.5165
30
4.2000
0
VERTEX
8
L1_WALL_INNER_FACE
10
6.2725
20
-37.7706
30
4.2000
0
VERTEX
8
L1_WALL_INNER_FACE
10
7.8133
20
-36.9574
30
4.2000
0
VERTEX
8
L1_WALL_INNER_FACE
10
9.3448
20
-36.1194
30
4.2000
0
VERTEX
8
L1_WALL_INNER_FACE
10
10.8623
20
-35.2348
30
4.2000
0
VERTEX
8
L1_WALL_INNER_FACE
10
12.4489
20
-34.3953
30
4.2000
0
VERTEX
8
L1_WALL_INNER_FACE
10
14.1943
20
-33.7584
30
4.2000
0
VERTEX
8
L1_WALL_INNER_FACE
10
16.0496
20
-33.3245
30
4.2000
0
VERTEX
8
L1_WALL_INNER_FACE
10
17.8192
20
-32.8405
30
4.2000
0
VERTEX
8
L1_WALL_INNER_FACE
10
19.3762
20
-32.0692
30
4.2000
0
VERTEX
8
L1_WALL_INNER_FACE
10
20.8091
20
-31.1116
30
4.2000
0
VERTEX
8
L1_WALL_INNER_FACE
10
22.1525
20
-30.0194
30
4.2000
0
VERTEX
8
L1_WALL_INNER_FACE
10
23.3157
20
-28.7304
30
4.2000
0
VERTEX
8
L1_WALL_INNER_FACE
10
24.3259
20
-27.1792
30
4.2000
0
VERTEX
8
L1_WALL_INNER_FACE
10
25.2814
20
-25.5175
30
4.2000
0
VERTEX
8
L1_WALL_INNER_FACE
10
26.4108
20
-24.0556
30
4.2000
0
VERTEX
8
L1_WALL_INNER_FACE
10
27.6700
20
-22.7947
30
4.2000
0
VERTEX
8
L1_WALL_INNER_FACE
10
28.9055
20
-21.5483
30
4.2000
0
VERTEX
8
L1_WALL_INNER_FACE
10
30.1424
20
-20.3159
30
4.2000
0
VERTEX
8
L1_WALL_INNER_FACE
10
31.3179
20
-19.0289
30
4.2000
0
VERTEX
8
L1_WALL_INNER_FACE
10
32.4862
20
-17.7309
30
4.2000
0
VERTEX
8
L1_WALL_INNER_FACE
10
33.6096
20
-16.3997
30
4.2000
0
VERTEX
8
L1_WALL_INNER_FACE
10
34.6993
20
-15.0390
30
4.2000
0
VERTEX
8
L1_WALL_INNER_FACE
10
35.7436
20
-13.6550
30
4.2000
0
VERTEX
8
L1_WALL_INNER_FACE
10
36.6945
20
-12.2074
30
4.2000
0
VERTEX
8
L1_WALL_INNER_FACE
10
37.5750
20
-10.7233
30
4.2000
0
VERTEX
8
L1_WALL_INNER_FACE
10
38.3213
20
-9.1998
30
4.2000
0
VERTEX
8
L1_WALL_INNER_FACE
10
38.7284
20
-7.5792
30
4.2000
0
VERTEX
8
L1_WALL_INNER_FACE
10
38.9332
20
-5.8891
30
4.2000
0
VERTEX
8
L1_WALL_INNER_FACE
10
38.9065
20
-4.0648
30
4.2000
0
VERTEX
8
L1_WALL_INNER_FACE
10
38.7413
20
-2.1515
30
4.2000
0
VERTEX
8
L1_WALL_INNER_FACE
10
38.2927
20
-0.3204
30
4.2000
0
VERTEX
8
L1_WALL_INNER_FACE
10
37.2245
20
1.0782
30
4.2000
0
VERTEX
8
L1_WALL_INNER_FACE
10
35.7331
20
2.0825
30
4.2000
0
VERTEX
8
L1_WALL_INNER_FACE
10
34.0233
20
2.9608
30
4.2000
0
VERTEX
8
L1_WALL_INNER_FACE
10
32.5501
20
4.1330
30
4.2000
0
VERTEX
8
L1_WALL_INNER_FACE
10
31.4820
20
5.7049
30
4.2000
0
VERTEX
8
L1_WALL_INNER_FACE
10
30.6993
20
7.4701
30
4.2000
0
VERTEX
8
L1_WALL_INNER_FACE
10
29.7760
20
9.0017
30
4.2000
0
VERTEX
8
L1_WALL_INNER_FACE
10
28.6113
20
10.2293
30
4.2000
0
VERTEX
8
L1_WALL_INNER_FACE
10
27.2106
20
11.2082
30
4.2000
0
VERTEX
8
L1_WALL_INNER_FACE
10
25.5492
20
11.8957
30
4.2000
0
VERTEX
8
L1_WALL_INNER_FACE
10
23.7269
20
12.4770
30
4.2000
0
VERTEX
8
L1_WALL_INNER_FACE
10
21.9975
20
13.2169
30
4.2000
0
VERTEX
8
L1_WALL_INNER_FACE
10
20.4777
20
14.1960
30
4.2000
0
VERTEX
8
L1_WALL_INNER_FACE
10
19.0620
20
15.2448
30
4.2000
0
VERTEX
8
L1_WALL_INNER_FACE
10
17.6304
20
16.2497
30
4.2000
0
VERTEX
8
L1_WALL_INNER_FACE
10
16.1943
20
17.2578
30
4.2000
0
VERTEX
8
L1_WALL_INNER_FACE
10
14.7602
20
18.2693
30
4.2000
0
VERTEX
8
L1_WALL_INNER_FACE
10
13.3281
20
19.2830
30
4.2000
0
VERTEX
8
L1_WALL_INNER_FACE
10
11.8959
20
20.2967
30
4.2000
0
VERTEX
8
L1_WALL_INNER_FACE
10
10.4661
20
21.3143
30
4.2000
0
VERTEX
8
L1_WALL_INNER_FACE
10
9.0377
20
22.3328
30
4.2000
0
VERTEX
8
L1_WALL_INNER_FACE
10
7.6103
20
23.3506
30
4.2000
0
VERTEX
8
L1_WALL_INNER_FACE
10
6.1774
20
24.3598
30
4.2000
0
VERTEX
8
L1_WALL_INNER_FACE
10
4.7419
20
25.3675
30
4.2000
0
VERTEX
8
L1_WALL_INNER_FACE
10
3.3073
20
26.3746
30
4.2000
0
VERTEX
8
L1_WALL_INNER_FACE
10
1.8659
20
27.3717
30
4.2000
0
VERTEX
8
L1_WALL_INNER_FACE
10
0.4228
20
28.3681
30
4.2000
0
VERTEX
8
L1_WALL_INNER_FACE
10
-1.0190
20
29.3602
30
4.2000
0
VERTEX
8
L1_WALL_INNER_FACE
10
-2.4792
20
30.3256
30
4.2000
0
VERTEX
8
L1_WALL_INNER_FACE
10
-3.9413
20
31.2922
30
4.2000
0
VERTEX
8
L1_WALL_INNER_FACE
10
-5.4079
20
32.2467
30
4.2000
0
VERTEX
8
L1_WALL_INNER_FACE
10
-6.8891
20
33.1814
30
4.2000
0
VERTEX
8
L1_WALL_INNER_FACE
10
-8.3666
20
34.1140
30
4.2000
0
VERTEX
8
L1_WALL_INNER_FACE
10
-9.8723
20
34.9928
30
4.2000
0
VERTEX
8
L1_WALL_INNER_FACE
10
-11.3966
20
35.8484
30
4.2000
0
VERTEX
8
L1_WALL_INNER_FACE
10
-12.9268
20
36.6795
30
4.2000
0
VERTEX
8
L1_WALL_INNER_FACE
10
-14.4979
20
37.4380
30
4.2000
0
VERTEX
8
L1_WALL_INNER_FACE
10
-16.0576
20
38.1917
30
4.2000
0
VERTEX
8
L1_WALL_INNER_FACE
10
-17.6908
20
38.7685
30
4.2000
0
VERTEX
8
L1_WALL_INNER_FACE
10
-19.3341
20
39.3491
30
4.2000
0
VERTEX
8
L1_WALL_INNER_FACE
10
-20.9985
20
39.8331
30
4.2000
0
VERTEX
8
L1_WALL_INNER_FACE
10
-22.6930
20
40.2564
30
4.2000
0
VERTEX
8
L1_WALL_INNER_FACE
10
-24.3263
20
40.6707
30
4.2000
0
SEQEND
8
L1_WALL_INNER_FACE
0
POLYLINE
8
L1_COURT_INNER_FACE
62
8
66
1
70
1
10
0.0
20
0.0
30
4.2000
0
VERTEX
8
L1_COURT_INNER_FACE
10
-18.2285
20
17.8592
30
4.2000
0
VERTEX
8
L1_COURT_INNER_FACE
10
-18.2514
20
16.1898
30
4.2000
0
VERTEX
8
L1_COURT_INNER_FACE
10
-17.9972
20
14.6917
30
4.2000
0
VERTEX
8
L1_COURT_INNER_FACE
10
-17.5570
20
13.2346
30
4.2000
0
VERTEX
8
L1_COURT_INNER_FACE
10
-16.8469
20
11.8503
30
4.2000
0
VERTEX
8
L1_COURT_INNER_FACE
10
-15.8011
20
10.6279
30
4.2000
0
VERTEX
8
L1_COURT_INNER_FACE
10
-14.6107
20
9.5388
30
4.2000
0
VERTEX
8
L1_COURT_INNER_FACE
10
-13.4629
20
8.5279
30
4.2000
0
VERTEX
8
L1_COURT_INNER_FACE
10
-12.5611
20
7.4327
30
4.2000
0
VERTEX
8
L1_COURT_INNER_FACE
10
-11.9060
20
6.2346
30
4.2000
0
VERTEX
8
L1_COURT_INNER_FACE
10
-11.3658
20
4.9302
30
4.2000
0
VERTEX
8
L1_COURT_INNER_FACE
10
-10.8717
20
3.5796
30
4.2000
0
VERTEX
8
L1_COURT_INNER_FACE
10
-10.3352
20
2.2366
30
4.2000
0
VERTEX
8
L1_COURT_INNER_FACE
10
-9.7632
20
0.8871
30
4.2000
0
VERTEX
8
L1_COURT_INNER_FACE
10
-9.1585
20
-0.4294
30
4.2000
0
VERTEX
8
L1_COURT_INNER_FACE
10
-8.4894
20
-1.7241
30
4.2000
0
VERTEX
8
L1_COURT_INNER_FACE
10
-7.7912
20
-2.9969
30
4.2000
0
VERTEX
8
L1_COURT_INNER_FACE
10
-7.0242
20
-4.2239
30
4.2000
0
VERTEX
8
L1_COURT_INNER_FACE
10
-6.2122
20
-5.4368
30
4.2000
0
VERTEX
8
L1_COURT_INNER_FACE
10
-5.3581
20
-6.6092
30
4.2000
0
VERTEX
8
L1_COURT_INNER_FACE
10
-4.4549
20
-7.7541
30
4.2000
0
VERTEX
8
L1_COURT_INNER_FACE
10
-3.5335
20
-8.8667
30
4.2000
0
VERTEX
8
L1_COURT_INNER_FACE
10
-2.5739
20
-9.9467
30
4.2000
0
VERTEX
8
L1_COURT_INNER_FACE
10
-1.6581
20
-11.0012
30
4.2000
0
VERTEX
8
L1_COURT_INNER_FACE
10
-0.7372
20
-12.0245
30
4.2000
0
VERTEX
8
L1_COURT_INNER_FACE
10
0.1039
20
-13.0807
30
4.2000
0
VERTEX
8
L1_COURT_INNER_FACE
10
0.9126
20
-14.0704
30
4.2000
0
VERTEX
8
L1_COURT_INNER_FACE
10
1.4704
20
-14.7860
30
4.2000
0
VERTEX
8
L1_COURT_INNER_FACE
10
1.7153
20
-15.3291
30
4.2000
0
VERTEX
8
L1_COURT_INNER_FACE
10
2.4837
20
-15.2151
30
4.2000
0
VERTEX
8
L1_COURT_INNER_FACE
10
3.6529
20
-14.7622
30
4.2000
0
VERTEX
8
L1_COURT_INNER_FACE
10
4.8968
20
-14.1170
30
4.2000
0
VERTEX
8
L1_COURT_INNER_FACE
10
6.1851
20
-13.4257
30
4.2000
0
VERTEX
8
L1_COURT_INNER_FACE
10
7.4646
20
-12.7148
30
4.2000
0
VERTEX
8
L1_COURT_INNER_FACE
10
8.7427
20
-11.9936
30
4.2000
0
VERTEX
8
L1_COURT_INNER_FACE
10
10.0102
20
-11.2622
30
4.2000
0
VERTEX
8
L1_COURT_INNER_FACE
10
11.2577
20
-10.5090
30
4.2000
0
VERTEX
8
L1_COURT_INNER_FACE
10
12.4803
20
-9.7058
30
4.2000
0
VERTEX
8
L1_COURT_INNER_FACE
10
13.6943
20
-8.8663
30
4.2000
0
VERTEX
8
L1_COURT_INNER_FACE
10
14.8523
20
-7.9201
30
4.2000
0
VERTEX
8
L1_COURT_INNER_FACE
10
15.8796
20
-6.7991
30
4.2000
0
VERTEX
8
L1_COURT_INNER_FACE
10
16.5751
20
-5.4372
30
4.2000
0
VERTEX
8
L1_COURT_INNER_FACE
10
16.4024
20
-4.2312
30
4.2000
0
VERTEX
8
L1_COURT_INNER_FACE
10
15.3962
20
-3.7131
30
4.2000
0
VERTEX
8
L1_COURT_INNER_FACE
10
14.3878
20
-3.0949
30
4.2000
0
VERTEX
8
L1_COURT_INNER_FACE
10
13.4258
20
-2.2147
30
4.2000
0
VERTEX
8
L1_COURT_INNER_FACE
10
12.4937
20
-1.2503
30
4.2000
0
VERTEX
8
L1_COURT_INNER_FACE
10
11.6195
20
-0.1858
30
4.2000
0
VERTEX
8
L1_COURT_INNER_FACE
10
10.7180
20
0.8705
30
4.2000
0
VERTEX
8
L1_COURT_INNER_FACE
10
9.8076
20
1.9625
30
4.2000
0
VERTEX
8
L1_COURT_INNER_FACE
10
8.8615
20
3.0138
30
4.2000
0
VERTEX
8
L1_COURT_INNER_FACE
10
7.8661
20
4.0549
30
4.2000
0
VERTEX
8
L1_COURT_INNER_FACE
10
6.8417
20
5.0505
30
4.2000
0
VERTEX
8
L1_COURT_INNER_FACE
10
5.7485
20
5.9975
30
4.2000
0
VERTEX
8
L1_COURT_INNER_FACE
10
4.6408
20
6.9134
30
4.2000
0
VERTEX
8
L1_COURT_INNER_FACE
10
3.4709
20
7.7455
30
4.2000
0
VERTEX
8
L1_COURT_INNER_FACE
10
2.2699
20
8.5538
30
4.2000
0
VERTEX
8
L1_COURT_INNER_FACE
10
1.0388
20
9.2862
30
4.2000
0
VERTEX
8
L1_COURT_INNER_FACE
10
-0.2295
20
9.9729
30
4.2000
0
VERTEX
8
L1_COURT_INNER_FACE
10
-1.5031
20
10.5993
30
4.2000
0
VERTEX
8
L1_COURT_INNER_FACE
10
-2.8252
20
11.1612
30
4.2000
0
VERTEX
8
L1_COURT_INNER_FACE
10
-4.1200
20
11.7029
30
4.2000
0
VERTEX
8
L1_COURT_INNER_FACE
10
-5.4094
20
12.1930
30
4.2000
0
VERTEX
8
L1_COURT_INNER_FACE
10
-6.6458
20
12.8017
30
4.2000
0
VERTEX
8
L1_COURT_INNER_FACE
10
-7.7789
20
13.5669
30
4.2000
0
VERTEX
8
L1_COURT_INNER_FACE
10
-8.8557
20
14.5654
30
4.2000
0
VERTEX
8
L1_COURT_INNER_FACE
10
-9.9305
20
15.7089
30
4.2000
0
VERTEX
8
L1_COURT_INNER_FACE
10
-11.1019
20
16.8055
30
4.2000
0
VERTEX
8
L1_COURT_INNER_FACE
10
-12.3972
20
17.7028
30
4.2000
0
VERTEX
8
L1_COURT_INNER_FACE
10
-13.8065
20
18.3173
30
4.2000
0
VERTEX
8
L1_COURT_INNER_FACE
10
-15.2632
20
18.7127
30
4.2000
0
VERTEX
8
L1_COURT_INNER_FACE
10
-16.8944
20
18.9618
30
4.2000
0
SEQEND
8
L1_COURT_INNER_FACE
0
CIRCLE
8
L1_PROGRAM_CLASSROOM
62
7
10
17.7907
20
0.6287
30
4.2000
40
4.8533
0
TEXT
8
L1_LABELS
10
17.7907
20
0.6287
30
4.2000
40
0.7765
1
General Classroom 201 | 74 m2
72
1
11
17.7907
21
0.6287
31
4.2000
0
CIRCLE
8
L1_PROGRAM_CLASSROOM
62
7
10
15.3312
20
10.1451
30
4.2000
40
4.8533
0
TEXT
8
L1_LABELS
10
15.3312
20
10.1451
30
4.2000
40
0.7765
1
General Classroom 202 | 74 m2
72
1
11
15.3312
21
10.1451
31
4.2000
0
CIRCLE
8
L1_PROGRAM_CLASSROOM
62
7
10
4.5087
20
9.7825
30
4.2000
40
4.8533
0
TEXT
8
L1_LABELS
10
4.5087
20
9.7825
30
4.2000
40
0.7765
1
General Classroom 203 | 74 m2
72
1
11
4.5087
21
9.7825
31
4.2000
0
CIRCLE
8
L1_PROGRAM_CLASSROOM
62
7
10
-4.3075
20
14.9246
30
4.2000
40
4.8533
0
TEXT
8
L1_LABELS
10
-4.3075
20
14.9246
30
4.2000
40
0.7765
1
General Classroom 204 | 74 m2
72
1
11
-4.3075
21
14.9246
31
4.2000
0
CIRCLE
8
L1_PROGRAM_CLASSROOM
62
7
10
5.6905
20
16.2195
30
4.2000
40
4.8533
0
TEXT
8
L1_LABELS
10
5.6905
20
16.2195
30
4.2000
40
0.7765
1
General Classroom 205 | 74 m2
72
1
11
5.6905
21
16.2195
31
4.2000
0
CIRCLE
8
L1_PROGRAM_CLASSROOM
62
7
10
-14.6960
20
4.8529
30
4.2000
40
4.8533
0
TEXT
8
L1_LABELS
10
-14.6960
20
4.8529
30
4.2000
40
0.7765
1
General Classroom 206 | 74 m2
72
1
11
-14.6960
21
4.8529
31
4.2000
0
CIRCLE
8
L1_PROGRAM_CLASSROOM
62
7
10
-9.8928
20
-3.8844
30
4.2000
40
4.8533
0
TEXT
8
L1_LABELS
10
-9.8928
20
-3.8844
30
4.2000
40
0.7765
1
General Classroom 207 | 74 m2
72
1
11
-9.8928
21
-3.8844
31
4.2000
0
CIRCLE
8
L1_PROGRAM_CLASSROOM
62
7
10
-18.1133
20
-4.1345
30
4.2000
40
4.8533
0
TEXT
8
L1_LABELS
10
-18.1133
20
-4.1345
30
4.2000
40
0.7765
1
General Classroom 208 | 74 m2
72
1
11
-18.1133
21
-4.1345
31
4.2000
0
CIRCLE
8
L1_PROGRAM_CLASSROOM
62
7
10
-14.7589
20
-14.9511
30
4.2000
40
4.8533
0
TEXT
8
L1_LABELS
10
-14.7589
20
-14.9511
30
4.2000
40
0.7765
1
General Classroom 209 | 74 m2
72
1
11
-14.7589
21
-14.9511
31
4.2000
0
CIRCLE
8
L1_PROGRAM_CLASSROOM
62
7
10
-8.0800
20
-23.1677
30
4.2000
40
4.8533
0
TEXT
8
L1_LABELS
10
-8.0800
20
-23.1677
30
4.2000
40
0.7765
1
General Classroom 210 | 74 m2
72
1
11
-8.0800
21
-23.1677
31
4.2000
0
CIRCLE
8
L1_PROGRAM_CLASSROOM
62
7
10
-5.4706
20
-13.4623
30
4.2000
40
4.8533
0
TEXT
8
L1_LABELS
10
-5.4706
20
-13.4623
30
4.2000
40
0.7765
1
General Classroom 211 | 74 m2
72
1
11
-5.4706
21
-13.4623
31
4.2000
0
CIRCLE
8
L1_PROGRAM_CLASSROOM
62
7
10
1.3997
20
-29.6091
30
4.2000
40
4.8533
0
TEXT
8
L1_LABELS
10
1.3997
20
-29.6091
30
4.2000
40
0.7765
1
General Classroom 212 | 74 m2
72
1
11
1.3997
21
-29.6091
31
4.2000
0
CIRCLE
8
L1_PROGRAM_SPED
62
7
10
-10.2543
20
-7.5012
30
4.2000
40
3.2898
0
TEXT
8
L1_LABELS
10
-10.2543
20
-7.5012
30
4.2000
40
0.6000
1
Small Group / SPED 201 | 34 m2
72
1
11
-10.2543
21
-7.5012
31
4.2000
0
CIRCLE
8
L1_PROGRAM_SPED
62
7
10
-0.4101
20
-19.8331
30
4.2000
40
3.2898
0
TEXT
8
L1_LABELS
10
-0.4101
20
-19.8331
30
4.2000
40
0.6000
1
Small Group / SPED 202 | 34 m2
72
1
11
-0.4101
21
-19.8331
31
4.2000
0
CIRCLE
8
L1_PROGRAM_ART
62
7
10
17.6474
20
-27.0428
30
4.2000
40
5.7536
0
TEXT
8
L1_LABELS
10
17.6474
20
-27.0428
30
4.2000
40
0.9206
1
Art / Maker 201 | 104 m2
72
1
11
17.6474
21
-27.0428
31
4.2000
0
CIRCLE
8
L1_PROGRAM_LIBRARY
62
7
10
10.9565
20
-15.1926
30
4.2000
40
7.7768
0
TEXT
8
L1_LABELS
10
10.9565
20
-15.1926
30
4.2000
40
1.2443
1
Library / Media 201 | 190 m2
72
1
11
10.9565
21
-15.1926
31
4.2000
0
CIRCLE
8
L1_PROGRAM_TOILETS
62
7
10
26.3859
20
-2.4308
30
4.2000
40
3.7424
0
TEXT
8
L1_LABELS
10
26.3859
20
-2.4308
30
4.2000
40
0.6000
1
Toilet Group 201 | 44 m2
72
1
11
26.3859
21
-2.4308
31
4.2000
0
CIRCLE
8
L1_PROGRAM_TOILETS
62
7
10
11.6999
20
3.9788
30
4.2000
40
3.7424
0
TEXT
8
L1_LABELS
10
11.6999
20
3.9788
30
4.2000
40
0.6000
1
Toilet Group 202 | 44 m2
72
1
11
11.6999
21
3.9788
31
4.2000
0
CIRCLE
8
L1_PROGRAM_STORAGE
62
7
10
34.9115
20
-1.6340
30
4.2000
40
3.4779
0
TEXT
8
L1_LABELS
10
34.9115
20
-1.6340
30
4.2000
40
0.6000
1
Storage / Support 201 | 38 m2
72
1
11
34.9115
21
-1.6340
31
4.2000
0
CIRCLE
8
L1_PROGRAM_STAFF
62
7
10
25.8607
20
6.9668
30
4.2000
40
4.7203
0
TEXT
8
L1_LABELS
10
25.8607
20
6.9668
30
4.2000
40
0.7553
1
Staff / Workroom 201 | 70 m2
72
1
11
25.8607
21
6.9668
31
4.2000
0
CIRCLE
8
L1_PROGRAM_CORE
62
7
10
8.2271
20
-21.5670
30
4.2000
40
4.2967
0
TEXT
8
L1_LABELS
10
8.2271
20
-21.5670
30
4.2000
40
0.6875
1
Stair 01 + Lift | 58 m2
72
1
11
8.2271
21
-21.5670
31
4.2000
0
CIRCLE
8
L1_PROGRAM_CORE
62
7
10
21.8271
20
-16.7670
30
4.2000
40
4.2967
0
TEXT
8
L1_LABELS
10
21.8271
20
-16.7670
30
4.2000
40
0.6875
1
Stair 02 + Lift | 58 m2
72
1
11
21.8271
21
-16.7670
31
4.2000
0
CIRCLE
8
L1_PROGRAM_CORE
62
7
10
20.2271
20
-9.5670
30
4.2000
40
4.2967
0
TEXT
8
L1_LABELS
10
20.2271
20
-9.5670
30
4.2000
40
0.6875
1
Service Core + Risers | 58 m2
72
1
11
20.2271
21
-9.5670
31
4.2000
0
POLYLINE
8
L2_EXTERIOR_WALL
62
5
66
1
70
1
10
0.0
20
0.0
30
8.4000
0
VERTEX
8
L2_EXTERIOR_WALL
10
-45.9364
20
15.1640
30
8.4000
0
VERTEX
8
L2_EXTERIOR_WALL
10
-47.0724
20
13.8600
30
8.4000
0
VERTEX
8
L2_EXTERIOR_WALL
10
-47.4130
20
12.1392
30
8.4000
0
VERTEX
8
L2_EXTERIOR_WALL
10
-47.6130
20
10.4029
30
8.4000
0
VERTEX
8
L2_EXTERIOR_WALL
10
-47.6542
20
8.6492
30
8.4000
0
VERTEX
8
L2_EXTERIOR_WALL
10
-47.4184
20
6.9136
30
8.4000
0
VERTEX
8
L2_EXTERIOR_WALL
10
-47.0364
20
5.2101
30
8.4000
0
VERTEX
8
L2_EXTERIOR_WALL
10
-46.4118
20
3.5709
30
8.4000
0
VERTEX
8
L2_EXTERIOR_WALL
10
-45.5773
20
2.0356
30
8.4000
0
VERTEX
8
L2_EXTERIOR_WALL
10
-44.6524
20
0.5450
30
8.4000
0
VERTEX
8
L2_EXTERIOR_WALL
10
-43.4612
20
-0.7414
30
8.4000
0
VERTEX
8
L2_EXTERIOR_WALL
10
-42.2412
20
-1.9986
30
8.4000
0
VERTEX
8
L2_EXTERIOR_WALL
10
-40.8478
20
-3.0643
30
8.4000
0
VERTEX
8
L2_EXTERIOR_WALL
10
-39.4505
20
-4.1244
30
8.4000
0
VERTEX
8
L2_EXTERIOR_WALL
10
-37.9720
20
-5.0684
30
8.4000
0
VERTEX
8
L2_EXTERIOR_WALL
10
-36.4934
20
-6.0124
30
8.4000
0
VERTEX
8
L2_EXTERIOR_WALL
10
-34.9770
20
-6.8926
30
8.4000
0
VERTEX
8
L2_EXTERIOR_WALL
10
-33.4411
20
-7.7400
30
8.4000
0
VERTEX
8
L2_EXTERIOR_WALL
10
-31.9051
20
-8.5874
30
8.4000
0
VERTEX
8
L2_EXTERIOR_WALL
10
-30.3545
20
-9.4076
30
8.4000
0
VERTEX
8
L2_EXTERIOR_WALL
10
-28.8450
20
-10.3074
30
8.4000
0
VERTEX
8
L2_EXTERIOR_WALL
10
-27.4458
20
-11.4312
30
8.4000
0
VERTEX
8
L2_EXTERIOR_WALL
10
-26.1230
20
-12.7298
30
8.4000
0
VERTEX
8
L2_EXTERIOR_WALL
10
-24.7468
20
-13.9080
30
8.4000
0
VERTEX
8
L2_EXTERIOR_WALL
10
-23.1686
20
-14.6931
30
8.4000
0
VERTEX
8
L2_EXTERIOR_WALL
10
-21.4375
20
-15.1612
30
8.4000
0
VERTEX
8
L2_EXTERIOR_WALL
10
-19.7928
20
-15.7901
30
8.4000
0
VERTEX
8
L2_EXTERIOR_WALL
10
-18.3573
20
-16.8693
30
8.4000
0
VERTEX
8
L2_EXTERIOR_WALL
10
-16.9594
20
-18.0483
30
8.4000
0
VERTEX
8
L2_EXTERIOR_WALL
10
-15.4594
20
-18.9993
30
8.4000
0
VERTEX
8
L2_EXTERIOR_WALL
10
-13.8863
20
-19.7797
30
8.4000
0
VERTEX
8
L2_EXTERIOR_WALL
10
-12.2879
20
-20.5149
30
8.4000
0
VERTEX
8
L2_EXTERIOR_WALL
10
-10.6857
20
-21.2393
30
8.4000
0
VERTEX
8
L2_EXTERIOR_WALL
10
-9.0873
20
-21.9620
30
8.4000
0
VERTEX
8
L2_EXTERIOR_WALL
10
-7.4839
20
-22.6869
30
8.4000
0
VERTEX
8
L2_EXTERIOR_WALL
10
-5.8769
20
-23.4040
30
8.4000
0
VERTEX
8
L2_EXTERIOR_WALL
10
-4.2746
20
-24.1186
30
8.4000
0
VERTEX
8
L2_EXTERIOR_WALL
10
-2.6614
20
-24.8271
30
8.4000
0
VERTEX
8
L2_EXTERIOR_WALL
10
-1.0090
20
-25.4485
30
8.4000
0
VERTEX
8
L2_EXTERIOR_WALL
10
0.7366
20
-25.8365
30
8.4000
0
VERTEX
8
L2_EXTERIOR_WALL
10
2.6009
20
-25.9590
30
8.4000
0
VERTEX
8
L2_EXTERIOR_WALL
10
4.4621
20
-26.0801
30
8.4000
0
VERTEX
8
L2_EXTERIOR_WALL
10
6.2068
20
-26.4623
30
8.4000
0
VERTEX
8
L2_EXTERIOR_WALL
10
7.8651
20
-27.0468
30
8.4000
0
VERTEX
8
L2_EXTERIOR_WALL
10
9.5042
20
-27.6740
30
8.4000
0
VERTEX
8
L2_EXTERIOR_WALL
10
11.1387
20
-28.3110
30
8.4000
0
VERTEX
8
L2_EXTERIOR_WALL
10
12.7697
20
-28.9568
30
8.4000
0
VERTEX
8
L2_EXTERIOR_WALL
10
14.4186
20
-29.5550
30
8.4000
0
VERTEX
8
L2_EXTERIOR_WALL
10
16.0699
20
-30.1471
30
8.4000
0
VERTEX
8
L2_EXTERIOR_WALL
10
17.7388
20
-30.6840
30
8.4000
0
VERTEX
8
L2_EXTERIOR_WALL
10
19.4266
20
-31.1621
30
8.4000
0
VERTEX
8
L2_EXTERIOR_WALL
10
21.1448
20
-31.4990
30
8.4000
0
VERTEX
8
L2_EXTERIOR_WALL
10
22.8814
20
-31.5858
30
8.4000
0
VERTEX
8
L2_EXTERIOR_WALL
10
24.5848
20
-31.2404
30
8.4000
0
VERTEX
8
L2_EXTERIOR_WALL
10
26.1139
20
-30.4045
30
8.4000
0
VERTEX
8
L2_EXTERIOR_WALL
10
27.3354
20
-29.1456
30
8.4000
0
VERTEX
8
L2_EXTERIOR_WALL
10
28.2223
20
-27.6371
30
8.4000
0
VERTEX
8
L2_EXTERIOR_WALL
10
29.0182
20
-26.0754
30
8.4000
0
VERTEX
8
L2_EXTERIOR_WALL
10
29.7477
20
-24.4801
30
8.4000
0
VERTEX
8
L2_EXTERIOR_WALL
10
30.4096
20
-22.8563
30
8.4000
0
VERTEX
8
L2_EXTERIOR_WALL
10
31.0471
20
-21.2220
30
8.4000
0
VERTEX
8
L2_EXTERIOR_WALL
10
31.6277
20
-19.5672
30
8.4000
0
VERTEX
8
L2_EXTERIOR_WALL
10
32.1789
20
-17.9019
30
8.4000
0
VERTEX
8
L2_EXTERIOR_WALL
10
32.6971
20
-16.2264
30
8.4000
0
VERTEX
8
L2_EXTERIOR_WALL
10
33.1720
20
-14.5378
30
8.4000
0
VERTEX
8
L2_EXTERIOR_WALL
10
33.6448
20
-12.8485
30
8.4000
0
VERTEX
8
L2_EXTERIOR_WALL
10
34.0749
20
-11.1479
30
8.4000
0
VERTEX
8
L2_EXTERIOR_WALL
10
34.5051
20
-9.4472
30
8.4000
0
VERTEX
8
L2_EXTERIOR_WALL
10
34.9153
20
-7.7418
30
8.4000
0
VERTEX
8
L2_EXTERIOR_WALL
10
35.3058
20
-6.0317
30
8.4000
0
VERTEX
8
L2_EXTERIOR_WALL
10
35.6963
20
-4.3215
30
8.4000
0
VERTEX
8
L2_EXTERIOR_WALL
10
36.0011
20
-2.5946
30
8.4000
0
VERTEX
8
L2_EXTERIOR_WALL
10
36.2826
20
-0.8631
30
8.4000
0
VERTEX
8
L2_EXTERIOR_WALL
10
36.5334
20
0.8722
30
8.4000
0
VERTEX
8
L2_EXTERIOR_WALL
10
36.6894
20
2.6195
30
8.4000
0
VERTEX
8
L2_EXTERIOR_WALL
10
36.8453
20
4.3667
30
8.4000
0
VERTEX
8
L2_EXTERIOR_WALL
10
36.9191
20
6.1190
30
8.4000
0
VERTEX
8
L2_EXTERIOR_WALL
10
36.9800
20
7.8722
30
8.4000
0
VERTEX
8
L2_EXTERIOR_WALL
10
36.9849
20
9.6256
30
8.4000
0
VERTEX
8
L2_EXTERIOR_WALL
10
36.9448
20
11.3794
30
8.4000
0
VERTEX
8
L2_EXTERIOR_WALL
10
36.8541
20
13.1295
30
8.4000
0
VERTEX
8
L2_EXTERIOR_WALL
10
36.6494
20
14.8718
30
8.4000
0
VERTEX
8
L2_EXTERIOR_WALL
10
36.3657
20
16.5996
30
8.4000
0
VERTEX
8
L2_EXTERIOR_WALL
10
35.9424
20
18.3019
30
8.4000
0
VERTEX
8
L2_EXTERIOR_WALL
10
35.1739
20
19.8590
30
8.4000
0
VERTEX
8
L2_EXTERIOR_WALL
10
34.1378
20
21.2475
30
8.4000
0
VERTEX
8
L2_EXTERIOR_WALL
10
32.7483
20
22.3210
30
8.4000
0
VERTEX
8
L2_EXTERIOR_WALL
10
31.2188
20
23.1911
30
8.4000
0
VERTEX
8
L2_EXTERIOR_WALL
10
29.6872
20
24.2316
30
8.4000
0
VERTEX
8
L2_EXTERIOR_WALL
10
28.0584
20
25.3043
30
8.4000
0
VERTEX
8
L2_EXTERIOR_WALL
10
26.3609
20
26.1510
30
8.4000
0
VERTEX
8
L2_EXTERIOR_WALL
10
24.5581
20
26.3847
30
8.4000
0
VERTEX
8
L2_EXTERIOR_WALL
10
22.7103
20
26.0602
30
8.4000
0
VERTEX
8
L2_EXTERIOR_WALL
10
20.8839
20
25.4615
30
8.4000
0
VERTEX
8
L2_EXTERIOR_WALL
10
19.1039
20
25.1212
30
8.4000
0
VERTEX
8
L2_EXTERIOR_WALL
10
17.3441
20
25.0469
30
8.4000
0
VERTEX
8
L2_EXTERIOR_WALL
10
15.5902
20
25.0849
30
8.4000
0
VERTEX
8
L2_EXTERIOR_WALL
10
13.8365
20
25.1204
30
8.4000
0
VERTEX
8
L2_EXTERIOR_WALL
10
12.0824
20
25.1255
30
8.4000
0
VERTEX
8
L2_EXTERIOR_WALL
10
10.3282
20
25.1306
30
8.4000
0
VERTEX
8
L2_EXTERIOR_WALL
10
8.5752
20
25.0729
30
8.4000
0
VERTEX
8
L2_EXTERIOR_WALL
10
6.8226
20
24.9992
30
8.4000
0
VERTEX
8
L2_EXTERIOR_WALL
10
5.0709
20
24.9106
30
8.4000
0
VERTEX
8
L2_EXTERIOR_WALL
10
3.3232
20
24.7598
30
8.4000
0
VERTEX
8
L2_EXTERIOR_WALL
10
1.5755
20
24.6090
30
8.4000
0
VERTEX
8
L2_EXTERIOR_WALL
10
-0.1725
20
24.4620
30
8.4000
0
VERTEX
8
L2_EXTERIOR_WALL
10
-1.9208
20
24.3180
30
8.4000
0
VERTEX
8
L2_EXTERIOR_WALL
10
-3.6691
20
24.1741
30
8.4000
0
VERTEX
8
L2_EXTERIOR_WALL
10
-5.4177
20
24.0346
30
8.4000
0
VERTEX
8
L2_EXTERIOR_WALL
10
-7.1665
20
23.8967
30
8.4000
0
VERTEX
8
L2_EXTERIOR_WALL
10
-8.9152
20
23.7587
30
8.4000
0
VERTEX
8
L2_EXTERIOR_WALL
10
-10.6631
20
23.6107
30
8.4000
0
VERTEX
8
L2_EXTERIOR_WALL
10
-12.4108
20
23.4599
30
8.4000
0
VERTEX
8
L2_EXTERIOR_WALL
10
-14.1585
20
23.3091
30
8.4000
0
VERTEX
8
L2_EXTERIOR_WALL
10
-15.9051
20
23.1462
30
8.4000
0
VERTEX
8
L2_EXTERIOR_WALL
10
-17.6516
20
22.9818
30
8.4000
0
VERTEX
8
L2_EXTERIOR_WALL
10
-19.3978
20
22.8147
30
8.4000
0
VERTEX
8
L2_EXTERIOR_WALL
10
-21.1406
20
22.6152
30
8.4000
0
VERTEX
8
L2_EXTERIOR_WALL
10
-22.8834
20
22.4157
30
8.4000
0
VERTEX
8
L2_EXTERIOR_WALL
10
-24.6247
20
22.2037
30
8.4000
0
VERTEX
8
L2_EXTERIOR_WALL
10
-26.3629
20
21.9673
30
8.4000
0
VERTEX
8
L2_EXTERIOR_WALL
10
-28.1010
20
21.7309
30
8.4000
0
VERTEX
8
L2_EXTERIOR_WALL
10
-29.8295
20
21.4346
30
8.4000
0
VERTEX
8
L2_EXTERIOR_WALL
10
-31.5532
20
21.1090
30
8.4000
0
VERTEX
8
L2_EXTERIOR_WALL
10
-33.2717
20
20.7596
30
8.4000
0
VERTEX
8
L2_EXTERIOR_WALL
10
-34.9720
20
20.3284
30
8.4000
0
VERTEX
8
L2_EXTERIOR_WALL
10
-36.6724
20
19.8973
30
8.4000
0
VERTEX
8
L2_EXTERIOR_WALL
10
-38.3152
20
19.2822
30
8.4000
0
VERTEX
8
L2_EXTERIOR_WALL
10
-39.9578
20
18.6665
30
8.4000
0
VERTEX
8
L2_EXTERIOR_WALL
10
-41.5613
20
17.9599
30
8.4000
0
VERTEX
8
L2_EXTERIOR_WALL
10
-43.1383
20
17.1917
30
8.4000
0
VERTEX
8
L2_EXTERIOR_WALL
10
-44.7154
20
16.4234
30
8.4000
0
SEQEND
8
L2_EXTERIOR_WALL
0
POLYLINE
8
L2_COURTYARD
62
3
66
1
70
1
10
0.0
20
0.0
30
8.4000
0
VERTEX
8
L2_COURTYARD
10
-20.6512
20
3.7485
30
8.4000
0
VERTEX
8
L2_COURTYARD
10
-20.7404
20
4.5684
30
8.4000
0
VERTEX
8
L2_COURTYARD
10
-20.0177
20
3.8985
30
8.4000
0
VERTEX
8
L2_COURTYARD
10
-19.1551
20
3.0826
30
8.4000
0
VERTEX
8
L2_COURTYARD
10
-18.2643
20
2.2547
30
8.4000
0
VERTEX
8
L2_COURTYARD
10
-17.2374
20
1.4240
30
8.4000
0
VERTEX
8
L2_COURTYARD
10
-16.1507
20
0.5687
30
8.4000
0
VERTEX
8
L2_COURTYARD
10
-15.0183
20
-0.2324
30
8.4000
0
VERTEX
8
L2_COURTYARD
10
-13.8196
20
-1.0436
30
8.4000
0
VERTEX
8
L2_COURTYARD
10
-12.6181
20
-1.8252
30
8.4000
0
VERTEX
8
L2_COURTYARD
10
-11.3784
20
-2.5783
30
8.4000
0
VERTEX
8
L2_COURTYARD
10
-10.1372
20
-3.3141
30
8.4000
0
VERTEX
8
L2_COURTYARD
10
-8.8724
20
-3.9949
30
8.4000
0
VERTEX
8
L2_COURTYARD
10
-7.5757
20
-4.6565
30
8.4000
0
VERTEX
8
L2_COURTYARD
10
-6.2802
20
-5.2699
30
8.4000
0
VERTEX
8
L2_COURTYARD
10
-4.9495
20
-5.8287
30
8.4000
0
VERTEX
8
L2_COURTYARD
10
-3.6193
20
-6.3712
30
8.4000
0
VERTEX
8
L2_COURTYARD
10
-2.2896
20
-6.9058
30
8.4000
0
VERTEX
8
L2_COURTYARD
10
-0.9732
20
-7.5415
30
8.4000
0
VERTEX
8
L2_COURTYARD
10
0.3181
20
-8.2485
30
8.4000
0
VERTEX
8
L2_COURTYARD
10
1.6512
20
-8.8621
30
8.4000
0
VERTEX
8
L2_COURTYARD
10
3.0636
20
-9.1783
30
8.4000
0
VERTEX
8
L2_COURTYARD
10
4.5698
20
-9.1287
30
8.4000
0
VERTEX
8
L2_COURTYARD
10
6.0662
20
-8.9289
30
8.4000
0
VERTEX
8
L2_COURTYARD
10
7.5285
20
-8.7136
30
8.4000
0
VERTEX
8
L2_COURTYARD
10
8.9134
20
-8.6319
30
8.4000
0
VERTEX
8
L2_COURTYARD
10
10.1728
20
-8.5437
30
8.4000
0
VERTEX
8
L2_COURTYARD
10
10.9823
20
-8.4640
30
8.4000
0
VERTEX
8
L2_COURTYARD
10
10.6336
20
-8.6881
30
8.4000
0
VERTEX
8
L2_COURTYARD
10
10.3439
20
-8.6562
30
8.4000
0
VERTEX
8
L2_COURTYARD
10
10.7278
20
-7.7091
30
8.4000
0
VERTEX
8
L2_COURTYARD
10
11.1135
20
-6.4836
30
8.4000
0
VERTEX
8
L2_COURTYARD
10
11.5284
20
-5.1179
30
8.4000
0
VERTEX
8
L2_COURTYARD
10
11.9107
20
-3.7388
30
8.4000
0
VERTEX
8
L2_COURTYARD
10
12.2681
20
-2.3457
30
8.4000
0
VERTEX
8
L2_COURTYARD
10
12.5875
20
-0.9688
30
8.4000
0
VERTEX
8
L2_COURTYARD
10
12.8539
20
0.3685
30
8.4000
0
VERTEX
8
L2_COURTYARD
10
13.0656
20
1.7187
30
8.4000
0
VERTEX
8
L2_COURTYARD
10
13.2693
20
3.0656
30
8.4000
0
VERTEX
8
L2_COURTYARD
10
13.4498
20
4.4003
30
8.4000
0
VERTEX
8
L2_COURTYARD
10
13.6273
20
5.6855
30
8.4000
0
VERTEX
8
L2_COURTYARD
10
13.7639
20
6.5528
30
8.4000
0
VERTEX
8
L2_COURTYARD
10
14.1089
20
6.4166
30
8.4000
0
VERTEX
8
L2_COURTYARD
10
14.1688
20
6.2749
30
8.4000
0
VERTEX
8
L2_COURTYARD
10
13.2193
20
6.5934
30
8.4000
0
VERTEX
8
L2_COURTYARD
10
11.9520
20
6.9838
30
8.4000
0
VERTEX
8
L2_COURTYARD
10
10.6179
20
7.2865
30
8.4000
0
VERTEX
8
L2_COURTYARD
10
9.2573
20
7.5961
30
8.4000
0
VERTEX
8
L2_COURTYARD
10
7.8867
20
7.8263
30
8.4000
0
VERTEX
8
L2_COURTYARD
10
6.4892
20
8.0541
30
8.4000
0
VERTEX
8
L2_COURTYARD
10
5.0995
20
8.2224
30
8.4000
0
VERTEX
8
L2_COURTYARD
10
3.6801
20
8.3590
30
8.4000
0
VERTEX
8
L2_COURTYARD
10
2.2738
20
8.4521
30
8.4000
0
VERTEX
8
L2_COURTYARD
10
0.8437
20
8.4710
30
8.4000
0
VERTEX
8
L2_COURTYARD
10
-0.5744
20
8.4602
30
8.4000
0
VERTEX
8
L2_COURTYARD
10
-1.9857
20
8.3468
30
8.4000
0
VERTEX
8
L2_COURTYARD
10
-3.4092
20
8.1958
30
8.4000
0
VERTEX
8
L2_COURTYARD
10
-4.8040
20
7.9686
30
8.4000
0
VERTEX
8
L2_COURTYARD
10
-6.2015
20
7.6826
30
8.4000
0
VERTEX
8
L2_COURTYARD
10
-7.5614
20
7.3484
30
8.4000
0
VERTEX
8
L2_COURTYARD
10
-8.9234
20
6.9313
30
8.4000
0
VERTEX
8
L2_COURTYARD
10
-10.2535
20
6.5046
30
8.4000
0
VERTEX
8
L2_COURTYARD
10
-11.5527
20
5.9888
30
8.4000
0
VERTEX
8
L2_COURTYARD
10
-12.8851
20
5.4669
30
8.4000
0
VERTEX
8
L2_COURTYARD
10
-14.1794
20
4.9262
30
8.4000
0
VERTEX
8
L2_COURTYARD
10
-15.4798
20
4.3796
30
8.4000
0
VERTEX
8
L2_COURTYARD
10
-16.7474
20
3.8287
30
8.4000
0
VERTEX
8
L2_COURTYARD
10
-17.9941
20
3.2434
30
8.4000
0
VERTEX
8
L2_COURTYARD
10
-19.1820
20
2.6444
30
8.4000
0
VERTEX
8
L2_COURTYARD
10
-20.2750
20
1.9980
30
8.4000
0
VERTEX
8
L2_COURTYARD
10
-21.3180
20
1.2895
30
8.4000
0
VERTEX
8
L2_COURTYARD
10
-21.1263
20
1.6556
30
8.4000
0
SEQEND
8
L2_COURTYARD
0
POLYLINE
8
L2_WALL_INNER_FACE
62
8
66
1
70
1
10
0.0
20
0.0
30
8.4000
0
VERTEX
8
L2_WALL_INNER_FACE
10
-45.6419
20
14.8933
30
8.4000
0
VERTEX
8
L2_WALL_INNER_FACE
10
-46.7133
20
13.6839
30
8.4000
0
VERTEX
8
L2_WALL_INNER_FACE
10
-47.0178
20
12.0774
30
8.4000
0
VERTEX
8
L2_WALL_INNER_FACE
10
-47.2139
20
10.3753
30
8.4000
0
VERTEX
8
L2_WALL_INNER_FACE
10
-47.2548
20
8.6715
30
8.4000
0
VERTEX
8
L2_WALL_INNER_FACE
10
-47.0247
20
6.9844
30
8.4000
0
VERTEX
8
L2_WALL_INNER_FACE
10
-46.6534
20
5.3254
30
8.4000
0
VERTEX
8
L2_WALL_INNER_FACE
10
-46.0483
20
3.7380
30
8.4000
0
VERTEX
8
L2_WALL_INNER_FACE
10
-45.2315
20
2.2366
30
8.4000
0
VERTEX
8
L2_WALL_INNER_FACE
10
-44.3343
20
0.7875
30
8.4000
0
VERTEX
8
L2_WALL_INNER_FACE
10
-43.1709
20
-0.4662
30
8.4000
0
VERTEX
8
L2_WALL_INNER_FACE
10
-41.9754
20
-1.6997
30
8.4000
0
VERTEX
8
L2_WALL_INNER_FACE
10
-40.6054
20
-2.7461
30
8.4000
0
VERTEX
8
L2_WALL_INNER_FACE
10
-39.2218
20
-3.7962
30
8.4000
0
VERTEX
8
L2_WALL_INNER_FACE
10
-37.7567
20
-4.7313
30
8.4000
0
VERTEX
8
L2_WALL_INNER_FACE
10
-36.2854
20
-5.6708
30
8.4000
0
VERTEX
8
L2_WALL_INNER_FACE
10
-34.7800
20
-6.5445
30
8.4000
0
VERTEX
8
L2_WALL_INNER_FACE
10
-33.2478
20
-7.3898
30
8.4000
0
VERTEX
8
L2_WALL_INNER_FACE
10
-31.7150
20
-8.2355
30
8.4000
0
VERTEX
8
L2_WALL_INNER_FACE
10
-30.1585
20
-9.0589
30
8.4000
0
VERTEX
8
L2_WALL_INNER_FACE
10
-28.6168
20
-9.9789
30
8.4000
0
VERTEX
8
L2_WALL_INNER_FACE
10
-27.1801
20
-11.1322
30
8.4000
0
VERTEX
8
L2_WALL_INNER_FACE
10
-25.8526
20
-12.4350
30
8.4000
0
VERTEX
8
L2_WALL_INNER_FACE
10
-24.5259
20
-13.5745
30
8.4000
0
VERTEX
8
L2_WALL_INNER_FACE
10
-23.0266
20
-14.3192
30
8.4000
0
VERTEX
8
L2_WALL_INNER_FACE
10
-21.3138
20
-14.7809
30
8.4000
0
VERTEX
8
L2_WALL_INNER_FACE
10
-19.5993
20
-15.4400
30
8.4000
0
VERTEX
8
L2_WALL_INNER_FACE
10
-18.1081
20
-16.5564
30
8.4000
0
VERTEX
8
L2_WALL_INNER_FACE
10
-16.7228
20
-17.7258
30
8.4000
0
VERTEX
8
L2_WALL_INNER_FACE
10
-15.2631
20
-18.6508
30
8.4000
0
VERTEX
8
L2_WALL_INNER_FACE
10
-13.7138
20
-19.4188
30
8.4000
0
VERTEX
8
L2_WALL_INNER_FACE
10
-12.1220
20
-20.1510
30
8.4000
0
VERTEX
8
L2_WALL_INNER_FACE
10
-10.5209
20
-20.8749
30
8.4000
0
VERTEX
8
L2_WALL_INNER_FACE
10
-8.9225
20
-21.5975
30
8.4000
0
VERTEX
8
L2_WALL_INNER_FACE
10
-7.3201
20
-22.3221
30
8.4000
0
VERTEX
8
L2_WALL_INNER_FACE
10
-5.7139
20
-23.0387
30
8.4000
0
VERTEX
8
L2_WALL_INNER_FACE
10
-4.1127
20
-23.7528
30
8.4000
0
VERTEX
8
L2_WALL_INNER_FACE
10
-2.5105
20
-24.4567
30
8.4000
0
VERTEX
8
L2_WALL_INNER_FACE
10
-0.8950
20
-25.0651
30
8.4000
0
VERTEX
8
L2_WALL_INNER_FACE
10
0.7933
20
-25.4405
30
8.4000
0
VERTEX
8
L2_WALL_INNER_FACE
10
2.6270
20
-25.5599
30
8.4000
0
VERTEX
8
L2_WALL_INNER_FACE
10
4.5180
20
-25.6840
30
8.4000
0
VERTEX
8
L2_WALL_INNER_FACE
10
6.3163
20
-26.0776
30
8.4000
0
VERTEX
8
L2_WALL_INNER_FACE
10
8.0031
20
-26.6713
30
8.4000
0
VERTEX
8
L2_WALL_INNER_FACE
10
9.6483
20
-27.3008
30
8.4000
0
VERTEX
8
L2_WALL_INNER_FACE
10
11.2850
20
-27.9387
30
8.4000
0
VERTEX
8
L2_WALL_INNER_FACE
10
12.9115
20
-28.5828
30
8.4000
0
VERTEX
8
L2_WALL_INNER_FACE
10
14.5543
20
-29.1787
30
8.4000
0
VERTEX
8
L2_WALL_INNER_FACE
10
16.1986
20
-29.7684
30
8.4000
0
VERTEX
8
L2_WALL_INNER_FACE
10
17.8546
20
-30.3012
30
8.4000
0
VERTEX
8
L2_WALL_INNER_FACE
10
19.5196
20
-30.7731
30
8.4000
0
VERTEX
8
L2_WALL_INNER_FACE
10
21.1933
20
-31.1020
30
8.4000
0
VERTEX
8
L2_WALL_INNER_FACE
10
22.8514
20
-31.1869
30
8.4000
0
VERTEX
8
L2_WALL_INNER_FACE
10
24.4476
20
-30.8647
30
8.4000
0
VERTEX
8
L2_WALL_INNER_FACE
10
25.8717
20
-30.0862
30
8.4000
0
VERTEX
8
L2_WALL_INNER_FACE
10
27.0172
20
-28.9032
30
8.4000
0
VERTEX
8
L2_WALL_INNER_FACE
10
27.8716
20
-27.4448
30
8.4000
0
VERTEX
8
L2_WALL_INNER_FACE
10
28.6580
20
-25.9014
30
8.4000
0
VERTEX
8
L2_WALL_INNER_FACE
10
29.3805
20
-24.3214
30
8.4000
0
VERTEX
8
L2_WALL_INNER_FACE
10
30.0381
20
-22.7081
30
8.4000
0
VERTEX
8
L2_WALL_INNER_FACE
10
30.6720
20
-21.0831
30
8.4000
0
VERTEX
8
L2_WALL_INNER_FACE
10
31.2491
20
-19.4382
30
8.4000
0
VERTEX
8
L2_WALL_INNER_FACE
10
31.7980
20
-17.7799
30
8.4000
0
VERTEX
8
L2_WALL_INNER_FACE
10
32.3134
20
-16.1132
30
8.4000
0
VERTEX
8
L2_WALL_INNER_FACE
10
32.7869
20
-14.4297
30
8.4000
0
VERTEX
8
L2_WALL_INNER_FACE
10
33.2583
20
-12.7456
30
8.4000
0
VERTEX
8
L2_WALL_INNER_FACE
10
33.6872
20
-11.0498
30
8.4000
0
VERTEX
8
L2_WALL_INNER_FACE
10
34.1167
20
-9.3514
30
8.4000
0
VERTEX
8
L2_WALL_INNER_FACE
10
34.5259
20
-7.6505
30
8.4000
0
VERTEX
8
L2_WALL_INNER_FACE
10
34.9159
20
-5.9426
30
8.4000
0
VERTEX
8
L2_WALL_INNER_FACE
10
35.3043
20
-4.2422
30
8.4000
0
VERTEX
8
L2_WALL_INNER_FACE
10
35.6067
20
-2.5277
30
8.4000
0
VERTEX
8
L2_WALL_INNER_FACE
10
35.8873
20
-0.8024
30
8.4000
0
VERTEX
8
L2_WALL_INNER_FACE
10
36.1361
20
0.9186
30
8.4000
0
VERTEX
8
L2_WALL_INNER_FACE
10
36.2910
20
2.6550
30
8.4000
0
VERTEX
8
L2_WALL_INNER_FACE
10
36.4462
20
4.3929
30
8.4000
0
VERTEX
8
L2_WALL_INNER_FACE
10
36.5194
20
6.1344
30
8.4000
0
VERTEX
8
L2_WALL_INNER_FACE
10
36.5801
20
7.8797
30
8.4000
0
VERTEX
8
L2_WALL_INNER_FACE
10
36.5849
20
9.6216
30
8.4000
0
VERTEX
8
L2_WALL_INNER_FACE
10
36.5451
20
11.3644
30
8.4000
0
VERTEX
8
L2_WALL_INNER_FACE
10
36.4555
20
13.0958
30
8.4000
0
VERTEX
8
L2_WALL_INNER_FACE
10
36.2533
20
14.8160
30
8.4000
0
VERTEX
8
L2_WALL_INNER_FACE
10
35.9739
20
16.5188
30
8.4000
0
VERTEX
8
L2_WALL_INNER_FACE
10
35.5668
20
18.1643
30
8.4000
0
VERTEX
8
L2_WALL_INNER_FACE
10
34.8328
20
19.6500
30
8.4000
0
VERTEX
8
L2_WALL_INNER_FACE
10
33.8526
20
20.9670
30
8.4000
0
VERTEX
8
L2_WALL_INNER_FACE
10
32.5265
20
21.9880
30
8.4000
0
VERTEX
8
L2_WALL_INNER_FACE
10
31.0073
20
22.8516
30
8.4000
0
VERTEX
8
L2_WALL_INNER_FACE
10
29.4648
20
23.8991
30
8.4000
0
VERTEX
8
L2_WALL_INNER_FACE
10
27.8588
20
24.9577
30
8.4000
0
VERTEX
8
L2_WALL_INNER_FACE
10
26.2443
20
25.7684
30
8.4000
0
VERTEX
8
L2_WALL_INNER_FACE
10
24.5670
20
25.9848
30
8.4000
0
VERTEX
8
L2_WALL_INNER_FACE
10
22.8074
20
25.6721
30
8.4000
0
VERTEX
8
L2_WALL_INNER_FACE
10
20.9840
20
25.0742
30
8.4000
0
VERTEX
8
L2_WALL_INNER_FACE
10
19.1500
20
24.7239
30
8.4000
0
VERTEX
8
L2_WALL_INNER_FACE
10
17.3482
20
24.6469
30
8.4000
0
VERTEX
8
L2_WALL_INNER_FACE
10
15.5818
20
24.6850
30
8.4000
0
VERTEX
8
L2_WALL_INNER_FACE
10
13.8319
20
24.7204
30
8.4000
0
VERTEX
8
L2_WALL_INNER_FACE
10
12.0812
20
24.7255
30
8.4000
0
VERTEX
8
L2_WALL_INNER_FACE
10
10.3342
20
24.7306
30
8.4000
0
VERTEX
8
L2_WALL_INNER_FACE
10
8.5902
20
24.6732
30
8.4000
0
VERTEX
8
L2_WALL_INNER_FACE
10
6.8411
20
24.5997
30
8.4000
0
VERTEX
8
L2_WALL_INNER_FACE
10
5.0982
20
24.5115
30
8.4000
0
VERTEX
8
L2_WALL_INNER_FACE
10
3.3576
20
24.3613
30
8.4000
0
VERTEX
8
L2_WALL_INNER_FACE
10
1.6094
20
24.2104
30
8.4000
0
VERTEX
8
L2_WALL_INNER_FACE
10
-0.1394
20
24.0634
30
8.4000
0
VERTEX
8
L2_WALL_INNER_FACE
10
-1.8880
20
23.9194
30
8.4000
0
VERTEX
8
L2_WALL_INNER_FACE
10
-3.6368
20
23.7754
30
8.4000
0
VERTEX
8
L2_WALL_INNER_FACE
10
-5.3861
20
23.6359
30
8.4000
0
VERTEX
8
L2_WALL_INNER_FACE
10
-7.1350
20
23.4979
30
8.4000
0
VERTEX
8
L2_WALL_INNER_FACE
10
-8.8826
20
23.3600
30
8.4000
0
VERTEX
8
L2_WALL_INNER_FACE
10
-10.6291
20
23.2121
30
8.4000
0
VERTEX
8
L2_WALL_INNER_FACE
10
-12.3765
20
23.0613
30
8.4000
0
VERTEX
8
L2_WALL_INNER_FACE
10
-14.1228
20
22.9107
30
8.4000
0
VERTEX
8
L2_WALL_INNER_FACE
10
-15.8678
20
22.7479
30
8.4000
0
VERTEX
8
L2_WALL_INNER_FACE
10
-17.6138
20
22.5836
30
8.4000
0
VERTEX
8
L2_WALL_INNER_FACE
10
-19.3560
20
22.4168
30
8.4000
0
VERTEX
8
L2_WALL_INNER_FACE
10
-21.0951
20
22.2178
30
8.4000
0
VERTEX
8
L2_WALL_INNER_FACE
10
-22.8365
20
22.0185
30
8.4000
0
VERTEX
8
L2_WALL_INNER_FACE
10
-24.5735
20
21.8069
30
8.4000
0
VERTEX
8
L2_WALL_INNER_FACE
10
-26.3090
20
21.5709
30
8.4000
0
VERTEX
8
L2_WALL_INNER_FACE
10
-28.0403
20
21.3355
30
8.4000
0
VERTEX
8
L2_WALL_INNER_FACE
10
-29.7586
20
21.0409
30
8.4000
0
VERTEX
8
L2_WALL_INNER_FACE
10
-31.4763
20
20.7165
30
8.4000
0
VERTEX
8
L2_WALL_INNER_FACE
10
-33.1826
20
20.3696
30
8.4000
0
VERTEX
8
L2_WALL_INNER_FACE
10
-34.8737
20
19.9407
30
8.4000
0
VERTEX
8
L2_WALL_INNER_FACE
10
-36.5530
20
19.5156
30
8.4000
0
VERTEX
8
L2_WALL_INNER_FACE
10
-38.1749
20
18.9076
30
8.4000
0
VERTEX
8
L2_WALL_INNER_FACE
10
-39.8069
20
18.2961
30
8.4000
0
VERTEX
8
L2_WALL_INNER_FACE
10
-41.3930
20
17.5970
30
8.4000
0
VERTEX
8
L2_WALL_INNER_FACE
10
-42.9632
20
16.8321
30
8.4000
0
VERTEX
8
L2_WALL_INNER_FACE
10
-44.4807
20
16.0995
30
8.4000
0
SEQEND
8
L2_WALL_INNER_FACE
0
POLYLINE
8
L2_COURT_INNER_FACE
62
8
66
1
70
1
10
0.0
20
0.0
30
8.4000
0
VERTEX
8
L2_COURT_INNER_FACE
10
-20.2519
20
3.7255
30
8.4000
0
VERTEX
8
L2_COURT_INNER_FACE
10
-20.5607
20
4.2110
30
8.4000
0
VERTEX
8
L2_COURT_INNER_FACE
10
-20.2911
20
3.6066
30
8.4000
0
VERTEX
8
L2_COURT_INNER_FACE
10
-19.4287
20
2.7908
30
8.4000
0
VERTEX
8
L2_COURT_INNER_FACE
10
-18.5264
20
1.9525
30
8.4000
0
VERTEX
8
L2_COURT_INNER_FACE
10
-17.4869
20
1.1113
30
8.4000
0
VERTEX
8
L2_COURT_INNER_FACE
10
-16.3899
20
0.2481
30
8.4000
0
VERTEX
8
L2_COURT_INNER_FACE
10
-15.2459
20
-0.5613
30
8.4000
0
VERTEX
8
L2_COURT_INNER_FACE
10
-14.0408
20
-1.3769
30
8.4000
0
VERTEX
8
L2_COURT_INNER_FACE
10
-12.8310
20
-2.1638
30
8.4000
0
VERTEX
8
L2_COURT_INNER_FACE
10
-11.5842
20
-2.9213
30
8.4000
0
VERTEX
8
L2_COURT_INNER_FACE
10
-10.3340
20
-3.6623
30
8.4000
0
VERTEX
8
L2_COURT_INNER_FACE
10
-9.0581
20
-4.3492
30
8.4000
0
VERTEX
8
L2_COURT_INNER_FACE
10
-7.7523
20
-5.0155
30
8.4000
0
VERTEX
8
L2_COURT_INNER_FACE
10
-6.4432
20
-5.6352
30
8.4000
0
VERTEX
8
L2_COURT_INNER_FACE
10
-5.1024
20
-6.1983
30
8.4000
0
VERTEX
8
L2_COURT_INNER_FACE
10
-3.7695
20
-6.7420
30
8.4000
0
VERTEX
8
L2_COURT_INNER_FACE
10
-2.4513
20
-7.2717
30
8.4000
0
VERTEX
8
L2_COURT_INNER_FACE
10
-1.1563
20
-7.8971
30
8.4000
0
VERTEX
8
L2_COURT_INNER_FACE
10
0.1383
20
-8.6058
30
8.4000
0
VERTEX
8
L2_COURT_INNER_FACE
10
1.5232
20
-9.2411
30
8.4000
0
VERTEX
8
L2_COURT_INNER_FACE
10
3.0262
20
-9.5766
30
8.4000
0
VERTEX
8
L2_COURT_INNER_FACE
10
4.6029
20
-9.5274
30
8.4000
0
VERTEX
8
L2_COURT_INNER_FACE
10
6.1218
20
-9.3250
30
8.4000
0
VERTEX
8
L2_COURT_INNER_FACE
10
7.5695
20
-9.1115
30
8.4000
0
VERTEX
8
L2_COURT_INNER_FACE
10
8.9392
20
-9.0311
30
8.4000
0
VERTEX
8
L2_COURT_INNER_FACE
10
10.2063
20
-8.9423
30
8.4000
0
VERTEX
8
L2_COURT_INNER_FACE
10
10.6045
20
-8.5954
30
8.4000
0
VERTEX
8
L2_COURT_INNER_FACE
10
10.5421
20
-8.2987
30
8.4000
0
VERTEX
8
L2_COURT_INNER_FACE
10
10.6873
20
-8.4512
30
8.4000
0
VERTEX
8
L2_COURT_INNER_FACE
10
11.1042
20
-7.8444
30
8.4000
0
VERTEX
8
L2_COURT_INNER_FACE
10
11.4957
20
-6.6018
30
8.4000
0
VERTEX
8
L2_COURT_INNER_FACE
10
11.9125
20
-5.2294
30
8.4000
0
VERTEX
8
L2_COURT_INNER_FACE
10
12.2972
20
-3.8419
30
8.4000
0
VERTEX
8
L2_COURT_INNER_FACE
10
12.6567
20
-2.4406
30
8.4000
0
VERTEX
8
L2_COURT_INNER_FACE
10
12.9785
20
-1.0530
30
8.4000
0
VERTEX
8
L2_COURT_INNER_FACE
10
13.2477
20
0.2985
30
8.4000
0
VERTEX
8
L2_COURT_INNER_FACE
10
13.4610
20
1.6578
30
8.4000
0
VERTEX
8
L2_COURT_INNER_FACE
10
13.6652
20
3.0089
30
8.4000
0
VERTEX
8
L2_COURT_INNER_FACE
10
13.8461
20
4.3461
30
8.4000
0
VERTEX
8
L2_COURT_INNER_FACE
10
14.0230
20
5.6270
30
8.4000
0
VERTEX
8
L2_COURT_INNER_FACE
10
13.9624
20
6.2055
30
8.4000
0
VERTEX
8
L2_COURT_INNER_FACE
10
13.8295
20
6.1303
30
8.4000
0
VERTEX
8
L2_COURT_INNER_FACE
10
13.8754
20
6.5467
30
8.4000
0
VERTEX
8
L2_COURT_INNER_FACE
10
13.3418
20
6.9742
30
8.4000
0
VERTEX
8
L2_COURT_INNER_FACE
10
12.0553
20
7.3703
30
8.4000
0
VERTEX
8
L2_COURT_INNER_FACE
10
10.7065
20
7.6766
30
8.4000
0
VERTEX
8
L2_COURT_INNER_FACE
10
9.3349
20
7.9885
30
8.4000
0
VERTEX
8
L2_COURT_INNER_FACE
10
7.9520
20
8.2210
30
8.4000
0
VERTEX
8
L2_COURT_INNER_FACE
10
6.5454
20
8.4501
30
8.4000
0
VERTEX
8
L2_COURT_INNER_FACE
10
5.1427
20
8.6201
30
8.4000
0
VERTEX
8
L2_COURT_INNER_FACE
10
3.7125
20
8.7577
30
8.4000
0
VERTEX
8
L2_COURT_INNER_FACE
10
2.2897
20
8.8518
30
8.4000
0
VERTEX
8
L2_COURT_INNER_FACE
10
0.8448
20
8.8710
30
8.4000
0
VERTEX
8
L2_COURT_INNER_FACE
10
-0.5919
20
8.8598
30
8.4000
0
VERTEX
8
L2_COURT_INNER_FACE
10
-2.0228
20
8.7451
30
8.4000
0
VERTEX
8
L2_COURT_INNER_FACE
10
-3.4624
20
8.5923
30
8.4000
0
VERTEX
8
L2_COURT_INNER_FACE
10
-4.8763
20
8.3620
30
8.4000
0
VERTEX
8
L2_COURT_INNER_FACE
10
-6.2893
20
8.0728
30
8.4000
0
VERTEX
8
L2_COURT_INNER_FACE
10
-7.6677
20
7.7340
30
8.4000
0
VERTEX
8
L2_COURT_INNER_FACE
10
-9.0431
20
7.3130
30
8.4000
0
VERTEX
8
L2_COURT_INNER_FACE
10
-10.3885
20
6.8812
30
8.4000
0
VERTEX
8
L2_COURT_INNER_FACE
10
-11.6994
20
6.3609
30
8.4000
0
VERTEX
8
L2_COURT_INNER_FACE
10
-13.0352
20
5.8377
30
8.4000
0
VERTEX
8
L2_COURT_INNER_FACE
10
-14.3340
20
5.2951
30
8.4000
0
VERTEX
8
L2_COURT_INNER_FACE
10
-15.6370
20
4.7474
30
8.4000
0
VERTEX
8
L2_COURT_INNER_FACE
10
-16.9122
20
4.1932
30
8.4000
0
VERTEX
8
L2_COURT_INNER_FACE
10
-18.1691
20
3.6031
30
8.4000
0
VERTEX
8
L2_COURT_INNER_FACE
10
-19.3740
20
2.9953
30
8.4000
0
VERTEX
8
L2_COURT_INNER_FACE
10
-20.4893
20
2.3358
30
8.4000
0
VERTEX
8
L2_COURT_INNER_FACE
10
-21.0518
20
1.5880
30
8.4000
0
VERTEX
8
L2_COURT_INNER_FACE
10
-20.7510
20
1.5174
30
8.4000
0
SEQEND
8
L2_COURT_INNER_FACE
0
CIRCLE
8
L2_PROGRAM_CLASSROOM
62
7
10
17.9402
20
0.5176
30
8.4000
40
4.8533
0
TEXT
8
L2_LABELS
10
17.9402
20
0.5176
30
8.4000
40
0.7765
1
General Classroom 301 | 74 m2
72
1
11
17.9402
21
0.5176
31
8.4000
0
CIRCLE
8
L2_PROGRAM_CLASSROOM
62
7
10
26.6117
20
5.2072
30
8.4000
40
4.8533
0
TEXT
8
L2_LABELS
10
26.6117
20
5.2072
30
8.4000
40
0.7765
1
General Classroom 302 | 74 m2
72
1
11
26.6117
21
5.2072
31
8.4000
0
CIRCLE
8
L2_PROGRAM_CLASSROOM
62
7
10
18.5562
20
11.6540
30
8.4000
40
4.8533
0
TEXT
8
L2_LABELS
10
18.5562
20
11.6540
30
8.4000
40
0.7765
1
General Classroom 303 | 74 m2
72
1
11
18.5562
21
11.6540
31
8.4000
0
CIRCLE
8
L2_PROGRAM_CLASSROOM
62
7
10
7.1823
20
17.3674
30
8.4000
40
4.8533
0
TEXT
8
L2_LABELS
10
7.1823
20
17.3674
30
8.4000
40
0.7765
1
General Classroom 304 | 74 m2
72
1
11
7.1823
21
17.3674
31
8.4000
0
CIRCLE
8
L2_PROGRAM_CLASSROOM
62
7
10
-4.7625
20
17.0309
30
8.4000
40
4.8533
0
TEXT
8
L2_LABELS
10
-4.7625
20
17.0309
30
8.4000
40
0.7765
1
General Classroom 305 | 74 m2
72
1
11
-4.7625
21
17.0309
31
8.4000
0
CIRCLE
8
L2_PROGRAM_CLASSROOM
62
7
10
10.9300
20
9.9531
30
8.4000
40
4.8533
0
TEXT
8
L2_LABELS
10
10.9300
20
9.9531
30
8.4000
40
0.7765
1
General Classroom 306 | 74 m2
72
1
11
10.9300
21
9.9531
31
8.4000
0
CIRCLE
8
L2_PROGRAM_CLASSROOM
62
7
10
0.0076
20
11.1340
30
8.4000
40
4.8533
0
TEXT
8
L2_LABELS
10
0.0076
20
11.1340
30
8.4000
40
0.7765
1
General Classroom 307 | 74 m2
72
1
11
0.0076
21
11.1340
31
8.4000
0
CIRCLE
8
L2_PROGRAM_CLASSROOM
62
7
10
-10.2353
20
-6.2928
30
8.4000
40
4.8533
0
TEXT
8
L2_LABELS
10
-10.2353
20
-6.2928
30
8.4000
40
0.7765
1
General Classroom 308 | 74 m2
72
1
11
-10.2353
21
-6.2928
31
8.4000
0
CIRCLE
8
L2_PROGRAM_CLASSROOM
62
7
10
-11.1779
20
9.6032
30
8.4000
40
4.8533
0
TEXT
8
L2_LABELS
10
-11.1779
20
9.6032
30
8.4000
40
0.7765
1
General Classroom 309 | 74 m2
72
1
11
-11.1779
21
9.6032
31
8.4000
0
CIRCLE
8
L2_PROGRAM_CLASSROOM
62
7
10
-4.6130
20
-10.4224
30
8.4000
40
4.8533
0
TEXT
8
L2_LABELS
10
-4.6130
20
-10.4224
30
8.4000
40
0.7765
1
General Classroom 310 | 74 m2
72
1
11
-4.6130
21
-10.4224
31
8.4000
0
CIRCLE
8
L2_PROGRAM_CLASSROOM
62
7
10
-21.6499
20
-9.4110
30
8.4000
40
4.8533
0
TEXT
8
L2_LABELS
10
-21.6499
20
-9.4110
30
8.4000
40
0.7765
1
General Classroom 311 | 74 m2
72
1
11
-21.6499
21
-9.4110
31
8.4000
0
CIRCLE
8
L2_PROGRAM_CLASSROOM
62
7
10
-19.8995
20
-0.6714
30
8.4000
40
4.8533
0
TEXT
8
L2_LABELS
10
-19.8995
20
-0.6714
30
8.4000
40
0.7765
1
General Classroom 312 | 74 m2
72
1
11
-19.8995
21
-0.6714
31
8.4000
0
CIRCLE
8
L2_PROGRAM_STEM
62
7
10
-2.1582
20
-20.6626
30
8.4000
40
5.5852
0
TEXT
8
L2_LABELS
10
-2.1582
20
-20.6626
30
8.4000
40
0.8936
1
STEM / Science Lab 301 | 98 m2
72
1
11
-2.1582
21
-20.6626
31
8.4000
0
CIRCLE
8
L2_PROGRAM_STEM
62
7
10
-12.1480
20
-14.6463
30
8.4000
40
5.5852
0
TEXT
8
L2_LABELS
10
-12.1480
20
-14.6463
30
8.4000
40
0.8936
1
STEM / Science Lab 302 | 98 m2
72
1
11
-12.1480
21
-14.6463
31
8.4000
0
CIRCLE
8
L2_PROGRAM_MUSIC
62
7
10
9.4483
20
-12.8704
30
8.4000
40
5.5279
0
TEXT
8
L2_LABELS
10
9.4483
20
-12.8704
30
8.4000
40
0.8845
1
Music 301 | 96 m2
72
1
11
9.4483
21
-12.8704
31
8.4000
0
CIRCLE
8
L2_PROGRAM_SPED
62
7
10
-0.7472
20
-9.7281
30
8.4000
40
3.2898
0
TEXT
8
L2_LABELS
10
-0.7472
20
-9.7281
30
8.4000
40
0.6000
1
Small Group / SPED 301 | 34 m2
72
1
11
-0.7472
21
-9.7281
31
8.4000
0
CIRCLE
8
L2_PROGRAM_SPED
62
7
10
1.1960
20
-14.8984
30
8.4000
40
3.2898
0
TEXT
8
L2_LABELS
10
1.1960
20
-14.8984
30
8.4000
40
0.6000
1
Small Group / SPED 302 | 34 m2
72
1
11
1.1960
21
-14.8984
31
8.4000
0
CIRCLE
8
L2_PROGRAM_TOILETS
62
7
10
14.1869
20
-3.1492
30
8.4000
40
3.7424
0
TEXT
8
L2_LABELS
10
14.1869
20
-3.1492
30
8.4000
40
0.6000
1
Toilet Group 301 | 44 m2
72
1
11
14.1869
21
-3.1492
31
8.4000
0
CIRCLE
8
L2_PROGRAM_TOILETS
62
7
10
27.9472
20
-4.2530
30
8.4000
40
3.7424
0
TEXT
8
L2_LABELS
10
27.9472
20
-4.2530
30
8.4000
40
0.6000
1
Toilet Group 302 | 44 m2
72
1
11
27.9472
21
-4.2530
31
8.4000
0
CIRCLE
8
L2_PROGRAM_STORAGE
62
7
10
32.0950
20
13.4563
30
8.4000
40
3.4779
0
TEXT
8
L2_LABELS
10
32.0950
20
13.4563
30
8.4000
40
0.6000
1
Storage / Support 301 | 38 m2
72
1
11
32.0950
21
13.4563
31
8.4000
0
CIRCLE
8
L2_PROGRAM_STAFF
62
7
10
24.7352
20
21.1986
30
8.4000
40
4.7203
0
TEXT
8
L2_LABELS
10
24.7352
20
21.1986
30
8.4000
40
0.7553
1
Staff / Workroom 301 | 70 m2
72
1
11
24.7352
21
21.1986
31
8.4000
0
CIRCLE
8
L2_PROGRAM_CORE
62
7
10
8.2271
20
-21.5670
30
8.4000
40
4.2967
0
TEXT
8
L2_LABELS
10
8.2271
20
-21.5670
30
8.4000
40
0.6875
1
Stair 01 + Lift | 58 m2
72
1
11
8.2271
21
-21.5670
31
8.4000
0
CIRCLE
8
L2_PROGRAM_CORE
62
7
10
21.8271
20
-16.7670
30
8.4000
40
4.2967
0
TEXT
8
L2_LABELS
10
21.8271
20
-16.7670
30
8.4000
40
0.6875
1
Stair 02 + Lift | 58 m2
72
1
11
21.8271
21
-16.7670
31
8.4000
0
CIRCLE
8
L2_PROGRAM_CORE
62
7
10
20.2271
20
-9.5670
30
8.4000
40
4.2967
0
TEXT
8
L2_LABELS
10
20.2271
20
-9.5670
30
8.4000
40
0.6875
1
Service Core + Risers | 58 m2
72
1
11
20.2271
21
-9.5670
31
8.4000
0
ENDSEC
0
EOF