0
SECTION
2
HEADER
9
$INSUNITS
70
2
0
ENDSEC
0
SECTION
2
TABLES
0
TABLE
2
LAYER
70
42
0
LAYER
2
L0_EXTERIOR_WALL
70
0
62
7
6
CONTINUOUS
0
LAYER
2
L0_WALL_INNER_FACE
70
0
62
7
6
CONTINUOUS
0
LAYER
2
L0_COURTYARD
70
0
62
7
6
CONTINUOUS
0
LAYER
2
L0_ROOM_CORE
70
0
62
7
6
CONTINUOUS
0
LAYER
2
L0_LABELS
70
0
62
7
6
CONTINUOUS
0
LAYER
2
L0_ROOM_OUTDOOR
70
0
62
7
6
CONTINUOUS
0
LAYER
2
L0_ROOM_GYM
70
0
62
7
6
CONTINUOUS
0
LAYER
2
L0_ROOM_CAFETERIA
70
0
62
7
6
CONTINUOUS
0
LAYER
2
L0_ROOM_ADMIN
70
0
62
7
6
CONTINUOUS
0
LAYER
2
L0_ROOM_LOBBY
70
0
62
7
6
CONTINUOUS
0
LAYER
2
L0_ROOM_KITCHEN
70
0
62
7
6
CONTINUOUS
0
LAYER
2
L0_ROOM_STAGE
70
0
62
7
6
CONTINUOUS
0
LAYER
2
L0_ROOM_KINDER
70
0
62
7
6
CONTINUOUS
0
LAYER
2
L0_ROOM_STAFF
70
0
62
7
6
CONTINUOUS
0
LAYER
2
L0_ROOM_MECH
70
0
62
7
6
CONTINUOUS
0
LAYER
2
L0_ROOM_HEALTH
70
0
62
7
6
CONTINUOUS
0
LAYER
2
L0_ROOM_TOILETS
70
0
62
7
6
CONTINUOUS
0
LAYER
2
L0_ROOM_STORAGE
70
0
62
7
6
CONTINUOUS
0
LAYER
2
L1_EXTERIOR_WALL
70
0
62
7
6
CONTINUOUS
0
LAYER
2
L1_WALL_INNER_FACE
70
0
62
7
6
CONTINUOUS
0
LAYER
2
L1_COURTYARD
70
0
62
7
6
CONTINUOUS
0
LAYER
2
L1_ROOM_CORE
70
0
62
7
6
CONTINUOUS
0
LAYER
2
L1_LABELS
70
0
62
7
6
CONTINUOUS
0
LAYER
2
L1_ROOM_LIBRARY
70
0
62
7
6
CONTINUOUS
0
LAYER
2
L1_ROOM_ART
70
0
62
7
6
CONTINUOUS
0
LAYER
2
L1_ROOM_CLASSROOM
70
0
62
7
6
CONTINUOUS
0
LAYER
2
L1_ROOM_STAFF
70
0
62
7
6
CONTINUOUS
0
LAYER
2
L1_ROOM_TOILETS
70
0
62
7
6
CONTINUOUS
0
LAYER
2
L1_ROOM_SPED
70
0
62
7
6
CONTINUOUS
0
LAYER
2
L1_ROOM_STORAGE
70
0
62
7
6
CONTINUOUS
0
LAYER
2
L2_EXTERIOR_WALL
70
0
62
7
6
CONTINUOUS
0
LAYER
2
L2_WALL_INNER_FACE
70
0
62
7
6
CONTINUOUS
0
LAYER
2
L2_COURTYARD
70
0
62
7
6
CONTINUOUS
0
LAYER
2
L2_ROOM_CORE
70
0
62
7
6
CONTINUOUS
0
LAYER
2
L2_LABELS
70
0
62
7
6
CONTINUOUS
0
LAYER
2
L2_ROOM_MUSIC
70
0
62
7
6
CONTINUOUS
0
LAYER
2
L2_ROOM_STEM
70
0
62
7
6
CONTINUOUS
0
LAYER
2
L2_ROOM_CLASSROOM
70
0
62
7
6
CONTINUOUS
0
LAYER
2
L2_ROOM_STAFF
70
0
62
7
6
CONTINUOUS
0
LAYER
2
L2_ROOM_TOILETS
70
0
62
7
6
CONTINUOUS
0
LAYER
2
L2_ROOM_SPED
70
0
62
7
6
CONTINUOUS
0
LAYER
2
L2_ROOM_STORAGE
70
0
62
7
6
CONTINUOUS
0
ENDTAB
0
ENDSEC
0
SECTION
2
ENTITIES
0
POLYLINE
8
L0_EXTERIOR_WALL
62
5
66
1
70
1
10
0.0
20
0.0
30
0.0000
0
VERTEX
8
L0_EXTERIOR_WALL
10
-97.5833
20
-52.5566
30
0.0000
0
VERTEX
8
L0_EXTERIOR_WALL
10
-97.0561
20
-62.6156
30
0.0000
0
VERTEX
8
L0_EXTERIOR_WALL
10
-97.0561
20
-62.6156
30
0.0000
0
VERTEX
8
L0_EXTERIOR_WALL
10
-95.4804
20
-72.5644
30
0.0000
0
VERTEX
8
L0_EXTERIOR_WALL
10
-95.4804
20
-72.5644
30
0.0000
0
VERTEX
8
L0_EXTERIOR_WALL
10
-92.8733
20
-82.2941
30
0.0000
0
VERTEX
8
L0_EXTERIOR_WALL
10
-111.1094
20
-88.2193
30
0.0000
0
VERTEX
8
L0_EXTERIOR_WALL
10
-106.7804
20
-99.4969
30
0.0000
0
VERTEX
8
L0_EXTERIOR_WALL
10
-106.7804
20
-99.4969
30
0.0000
0
VERTEX
8
L0_EXTERIOR_WALL
10
-101.2962
20
-110.2601
30
0.0000
0
VERTEX
8
L0_EXTERIOR_WALL
10
-101.2962
20
-110.2601
30
0.0000
0
VERTEX
8
L0_EXTERIOR_WALL
10
-94.7170
20
-120.3912
30
0.0000
0
VERTEX
8
L0_EXTERIOR_WALL
10
-94.7170
20
-120.3912
30
0.0000
0
VERTEX
8
L0_EXTERIOR_WALL
10
-87.1149
20
-129.7790
30
0.0000
0
VERTEX
8
L0_EXTERIOR_WALL
10
-87.1149
20
-129.7790
30
0.0000
0
VERTEX
8
L0_EXTERIOR_WALL
10
-78.5731
20
-138.3208
30
0.0000
0
VERTEX
8
L0_EXTERIOR_WALL
10
-78.5731
20
-138.3208
30
0.0000
0
VERTEX
8
L0_EXTERIOR_WALL
10
-69.1436
20
-145.8655
30
0.0000
0
VERTEX
8
L0_EXTERIOR_WALL
10
-57.9148
20
-130.4104
30
0.0000
0
VERTEX
8
L0_EXTERIOR_WALL
10
-49.4670
20
-135.8964
30
0.0000
0
VERTEX
8
L0_EXTERIOR_WALL
10
-49.4670
20
-135.8964
30
0.0000
0
VERTEX
8
L0_EXTERIOR_WALL
10
-40.4920
20
-140.4694
30
0.0000
0
VERTEX
8
L0_EXTERIOR_WALL
10
-40.4920
20
-140.4694
30
0.0000
0
VERTEX
8
L0_EXTERIOR_WALL
10
-31.0882
20
-144.0792
30
0.0000
0
VERTEX
8
L0_EXTERIOR_WALL
10
-31.0882
20
-144.0792
30
0.0000
0
VERTEX
8
L0_EXTERIOR_WALL
10
-21.3586
20
-146.6862
30
0.0000
0
VERTEX
8
L0_EXTERIOR_WALL
10
-21.3586
20
-146.6862
30
0.0000
0
VERTEX
8
L0_EXTERIOR_WALL
10
-11.4097
20
-148.2620
30
0.0000
0
VERTEX
8
L0_EXTERIOR_WALL
10
-11.4097
20
-148.2620
30
0.0000
0
VERTEX
8
L0_EXTERIOR_WALL
10
-1.3507
20
-148.7892
30
0.0000
0
VERTEX
8
L0_EXTERIOR_WALL
10
-1.3507
20
-148.7892
30
0.0000
0
VERTEX
8
L0_EXTERIOR_WALL
10
8.7084
20
-148.2620
30
0.0000
0
VERTEX
8
L0_EXTERIOR_WALL
10
8.7084
20
-148.2620
30
0.0000
0
VERTEX
8
L0_EXTERIOR_WALL
10
18.6572
20
-146.6862
30
0.0000
0
VERTEX
8
L0_EXTERIOR_WALL
10
18.6572
20
-146.6862
30
0.0000
0
VERTEX
8
L0_EXTERIOR_WALL
10
28.3868
20
-144.0792
30
0.0000
0
VERTEX
8
L0_EXTERIOR_WALL
10
28.3868
20
-144.0792
30
0.0000
0
VERTEX
8
L0_EXTERIOR_WALL
10
37.7906
20
-140.4694
30
0.0000
0
VERTEX
8
L0_EXTERIOR_WALL
10
37.7906
20
-140.4694
30
0.0000
0
VERTEX
8
L0_EXTERIOR_WALL
10
46.7656
20
-135.8964
30
0.0000
0
VERTEX
8
L0_EXTERIOR_WALL
10
46.7656
20
-135.8964
30
0.0000
0
VERTEX
8
L0_EXTERIOR_WALL
10
55.2134
20
-130.4104
30
0.0000
0
VERTEX
8
L0_EXTERIOR_WALL
10
55.2134
20
-130.4104
30
0.0000
0
VERTEX
8
L0_EXTERIOR_WALL
10
63.0415
20
-124.0713
30
0.0000
0
VERTEX
8
L0_EXTERIOR_WALL
10
63.0415
20
-124.0713
30
0.0000
0
VERTEX
8
L0_EXTERIOR_WALL
10
70.1641
20
-116.9487
30
0.0000
0
VERTEX
8
L0_EXTERIOR_WALL
10
70.1641
20
-116.9487
30
0.0000
0
VERTEX
8
L0_EXTERIOR_WALL
10
76.5031
20
-109.1207
30
0.0000
0
VERTEX
8
L0_EXTERIOR_WALL
10
76.5031
20
-109.1207
30
0.0000
0
VERTEX
8
L0_EXTERIOR_WALL
10
81.9892
20
-100.6729
30
0.0000
0
VERTEX
8
L0_EXTERIOR_WALL
10
81.9892
20
-100.6729
30
0.0000
0
VERTEX
8
L0_EXTERIOR_WALL
10
86.5622
20
-91.6979
30
0.0000
0
VERTEX
8
L0_EXTERIOR_WALL
10
86.5622
20
-91.6979
30
0.0000
0
VERTEX
8
L0_EXTERIOR_WALL
10
90.1720
20
-82.2941
30
0.0000
0
VERTEX
8
L0_EXTERIOR_WALL
10
90.1720
20
-82.2941
30
0.0000
0
VERTEX
8
L0_EXTERIOR_WALL
10
92.7790
20
-72.5644
30
0.0000
0
VERTEX
8
L0_EXTERIOR_WALL
10
92.7790
20
-72.5644
30
0.0000
0
VERTEX
8
L0_EXTERIOR_WALL
10
94.3547
20
-62.6156
30
0.0000
0
VERTEX
8
L0_EXTERIOR_WALL
10
101.4944
20
-63.3660
30
0.0000
0
VERTEX
8
L0_EXTERIOR_WALL
10
102.0609
20
-52.5566
30
0.0000
0
VERTEX
8
L0_EXTERIOR_WALL
10
102.0609
20
-52.5566
30
0.0000
0
VERTEX
8
L0_EXTERIOR_WALL
10
101.4944
20
-41.7471
30
0.0000
0
VERTEX
8
L0_EXTERIOR_WALL
10
101.4944
20
-41.7471
30
0.0000
0
VERTEX
8
L0_EXTERIOR_WALL
10
99.8011
20
-31.0561
30
0.0000
0
VERTEX
8
L0_EXTERIOR_WALL
10
99.8011
20
-31.0561
30
0.0000
0
VERTEX
8
L0_EXTERIOR_WALL
10
96.9995
20
-20.6006
30
0.0000
0
VERTEX
8
L0_EXTERIOR_WALL
10
96.9995
20
-20.6006
30
0.0000
0
VERTEX
8
L0_EXTERIOR_WALL
10
93.1205
20
-10.4953
30
0.0000
0
VERTEX
8
L0_EXTERIOR_WALL
10
117.4512
20
0.3374
30
0.0000
0
VERTEX
8
L0_EXTERIOR_WALL
10
111.2715
20
12.4659
30
0.0000
0
VERTEX
8
L0_EXTERIOR_WALL
10
111.2715
20
12.4659
30
0.0000
0
VERTEX
8
L0_EXTERIOR_WALL
10
103.8578
20
23.8819
30
0.0000
0
VERTEX
8
L0_EXTERIOR_WALL
10
103.8578
20
23.8819
30
0.0000
0
VERTEX
8
L0_EXTERIOR_WALL
10
95.2915
20
34.4604
30
0.0000
0
VERTEX
8
L0_EXTERIOR_WALL
10
95.2915
20
34.4604
30
0.0000
0
VERTEX
8
L0_EXTERIOR_WALL
10
85.6663
20
44.0856
30
0.0000
0
VERTEX
8
L0_EXTERIOR_WALL
10
91.5764
20
50.6494
30
0.0000
0
VERTEX
8
L0_EXTERIOR_WALL
10
80.2794
20
59.7976
30
0.0000
0
VERTEX
8
L0_EXTERIOR_WALL
10
80.2794
20
59.7976
30
0.0000
0
VERTEX
8
L0_EXTERIOR_WALL
10
68.0880
20
67.7147
30
0.0000
0
VERTEX
8
L0_EXTERIOR_WALL
10
68.0880
20
67.7147
30
0.0000
0
VERTEX
8
L0_EXTERIOR_WALL
10
55.1358
20
74.3142
30
0.0000
0
VERTEX
8
L0_EXTERIOR_WALL
10
54.3945
20
72.6492
30
0.0000
0
VERTEX
8
L0_EXTERIOR_WALL
10
41.0016
20
77.7903
30
0.0000
0
VERTEX
8
L0_EXTERIOR_WALL
10
48.2915
20
100.2263
30
0.0000
0
VERTEX
8
L0_EXTERIOR_WALL
10
32.0494
20
104.5783
30
0.0000
0
VERTEX
8
L0_EXTERIOR_WALL
10
32.0494
20
104.5783
30
0.0000
0
VERTEX
8
L0_EXTERIOR_WALL
10
15.4413
20
107.2088
30
0.0000
0
VERTEX
8
L0_EXTERIOR_WALL
10
15.4413
20
107.2088
30
0.0000
0
VERTEX
8
L0_EXTERIOR_WALL
10
-1.3507
20
108.0888
30
0.0000
0
VERTEX
8
L0_EXTERIOR_WALL
10
-1.3507
20
108.0888
30
0.0000
0
VERTEX
8
L0_EXTERIOR_WALL
10
-18.1427
20
107.2088
30
0.0000
0
VERTEX
8
L0_EXTERIOR_WALL
10
-16.1532
20
88.2801
30
0.0000
0
VERTEX
8
L0_EXTERIOR_WALL
10
-30.7936
20
85.9613
30
0.0000
0
VERTEX
8
L0_EXTERIOR_WALL
10
-30.7936
20
85.9613
30
0.0000
0
VERTEX
8
L0_EXTERIOR_WALL
10
-45.1113
20
82.1249
30
0.0000
0
VERTEX
8
L0_EXTERIOR_WALL
10
-41.2818
20
70.3389
30
0.0000
0
VERTEX
8
L0_EXTERIOR_WALL
10
-53.9092
20
65.4917
30
0.0000
0
VERTEX
8
L0_EXTERIOR_WALL
10
-59.3568
20
77.7274
30
0.0000
0
VERTEX
8
L0_EXTERIOR_WALL
10
-72.6574
20
70.9503
30
0.0000
0
VERTEX
8
L0_EXTERIOR_WALL
10
-72.6574
20
70.9503
30
0.0000
0
VERTEX
8
L0_EXTERIOR_WALL
10
-85.1768
20
62.8202
30
0.0000
0
VERTEX
8
L0_EXTERIOR_WALL
10
-85.1768
20
62.8202
30
0.0000
0
VERTEX
8
L0_EXTERIOR_WALL
10
-96.7777
20
53.4259
30
0.0000
0
VERTEX
8
L0_EXTERIOR_WALL
10
-96.7777
20
53.4259
30
0.0000
0
VERTEX
8
L0_EXTERIOR_WALL
10
-107.3332
20
42.8705
30
0.0000
0
VERTEX
8
L0_EXTERIOR_WALL
10
-88.8143
20
26.1961
30
0.0000
0
VERTEX
8
L0_EXTERIOR_WALL
10
-96.5671
20
16.6222
30
0.0000
0
VERTEX
8
L0_EXTERIOR_WALL
10
-90.2798
20
12.0543
30
0.0000
0
VERTEX
8
L0_EXTERIOR_WALL
10
-96.5463
20
2.4047
30
0.0000
0
VERTEX
8
L0_EXTERIOR_WALL
10
-96.5463
20
2.4047
30
0.0000
0
VERTEX
8
L0_EXTERIOR_WALL
10
-101.7699
20
-7.8471
30
0.0000
0
VERTEX
8
L0_EXTERIOR_WALL
10
-101.7699
20
-7.8471
30
0.0000
0
VERTEX
8
L0_EXTERIOR_WALL
10
-105.8932
20
-18.5886
30
0.0000
0
VERTEX
8
L0_EXTERIOR_WALL
10
-105.8932
20
-18.5886
30
0.0000
0
VERTEX
8
L0_EXTERIOR_WALL
10
-108.8711
20
-29.7024
30
0.0000
0
VERTEX
8
L0_EXTERIOR_WALL
10
-95.4804
20
-32.5487
30
0.0000
0
VERTEX
8
L0_EXTERIOR_WALL
10
-97.0561
20
-42.4975
30
0.0000
0
VERTEX
8
L0_EXTERIOR_WALL
10
-97.0561
20
-42.4975
30
0.0000
0
VERTEX
8
L0_EXTERIOR_WALL
10
-97.5833
20
-52.5566
30
0.0000
0
SEQEND
8
L0_EXTERIOR_WALL
0
POLYLINE
8
L0_WALL_INNER_FACE
62
8
66
1
70
1
10
0.0
20
0.0
30
0.0000
0
VERTEX
8
L0_WALL_INNER_FACE
10
-96.5833
20
-52.5566
30
0.0000
0
VERTEX
8
L0_WALL_INNER_FACE
10
-96.0616
20
-62.5111
30
0.0000
0
VERTEX
8
L0_WALL_INNER_FACE
10
-96.0616
20
-62.5111
30
0.0000
0
VERTEX
8
L0_WALL_INNER_FACE
10
-94.5022
20
-72.3565
30
0.0000
0
VERTEX
8
L0_WALL_INNER_FACE
10
-94.5022
20
-72.3565
30
0.0000
0
VERTEX
8
L0_WALL_INNER_FACE
10
-91.9223
20
-81.9850
30
0.0000
0
VERTEX
8
L0_WALL_INNER_FACE
10
-110.1584
20
-87.9103
30
0.0000
0
VERTEX
8
L0_WALL_INNER_FACE
10
-105.8668
20
-99.0901
30
0.0000
0
VERTEX
8
L0_WALL_INNER_FACE
10
-105.8668
20
-99.0901
30
0.0000
0
VERTEX
8
L0_WALL_INNER_FACE
10
-100.4302
20
-109.7601
30
0.0000
0
VERTEX
8
L0_WALL_INNER_FACE
10
-100.4302
20
-109.7601
30
0.0000
0
VERTEX
8
L0_WALL_INNER_FACE
10
-93.9080
20
-119.8034
30
0.0000
0
VERTEX
8
L0_WALL_INNER_FACE
10
-93.9080
20
-119.8034
30
0.0000
0
VERTEX
8
L0_WALL_INNER_FACE
10
-86.3718
20
-129.1099
30
0.0000
0
VERTEX
8
L0_WALL_INNER_FACE
10
-86.3718
20
-129.1099
30
0.0000
0
VERTEX
8
L0_WALL_INNER_FACE
10
-77.9040
20
-137.5776
30
0.0000
0
VERTEX
8
L0_WALL_INNER_FACE
10
-77.9040
20
-137.5776
30
0.0000
0
VERTEX
8
L0_WALL_INNER_FACE
10
-68.5558
20
-145.0565
30
0.0000
0
VERTEX
8
L0_WALL_INNER_FACE
10
-57.3270
20
-129.6013
30
0.0000
0
VERTEX
8
L0_WALL_INNER_FACE
10
-48.9670
20
-135.0304
30
0.0000
0
VERTEX
8
L0_WALL_INNER_FACE
10
-48.9670
20
-135.0304
30
0.0000
0
VERTEX
8
L0_WALL_INNER_FACE
10
-40.0853
20
-139.5559
30
0.0000
0
VERTEX
8
L0_WALL_INNER_FACE
10
-40.0853
20
-139.5559
30
0.0000
0
VERTEX
8
L0_WALL_INNER_FACE
10
-30.7792
20
-143.1281
30
0.0000
0
VERTEX
8
L0_WALL_INNER_FACE
10
-30.7792
20
-143.1281
30
0.0000
0
VERTEX
8
L0_WALL_INNER_FACE
10
-21.1507
20
-145.7081
30
0.0000
0
VERTEX
8
L0_WALL_INNER_FACE
10
-21.1507
20
-145.7081
30
0.0000
0
VERTEX
8
L0_WALL_INNER_FACE
10
-11.3052
20
-147.2675
30
0.0000
0
VERTEX
8
L0_WALL_INNER_FACE
10
-11.3052
20
-147.2675
30
0.0000
0
VERTEX
8
L0_WALL_INNER_FACE
10
-1.3507
20
-147.7892
30
0.0000
0
VERTEX
8
L0_WALL_INNER_FACE
10
-1.3507
20
-147.7892
30
0.0000
0
VERTEX
8
L0_WALL_INNER_FACE
10
8.6038
20
-147.2675
30
0.0000
0
VERTEX
8
L0_WALL_INNER_FACE
10
8.6038
20
-147.2675
30
0.0000
0
VERTEX
8
L0_WALL_INNER_FACE
10
18.4493
20
-145.7081
30
0.0000
0
VERTEX
8
L0_WALL_INNER_FACE
10
18.4493
20
-145.7081
30
0.0000
0
VERTEX
8
L0_WALL_INNER_FACE
10
28.0778
20
-143.1281
30
0.0000
0
VERTEX
8
L0_WALL_INNER_FACE
10
28.0778
20
-143.1281
30
0.0000
0
VERTEX
8
L0_WALL_INNER_FACE
10
37.3839
20
-139.5559
30
0.0000
0
VERTEX
8
L0_WALL_INNER_FACE
10
37.3839
20
-139.5559
30
0.0000
0
VERTEX
8
L0_WALL_INNER_FACE
10
46.2656
20
-135.0304
30
0.0000
0
VERTEX
8
L0_WALL_INNER_FACE
10
46.2656
20
-135.0304
30
0.0000
0
VERTEX
8
L0_WALL_INNER_FACE
10
54.6256
20
-129.6013
30
0.0000
0
VERTEX
8
L0_WALL_INNER_FACE
10
54.6256
20
-129.6013
30
0.0000
0
VERTEX
8
L0_WALL_INNER_FACE
10
62.3724
20
-123.3282
30
0.0000
0
VERTEX
8
L0_WALL_INNER_FACE
10
62.3724
20
-123.3282
30
0.0000
0
VERTEX
8
L0_WALL_INNER_FACE
10
69.4209
20
-116.2796
30
0.0000
0
VERTEX
8
L0_WALL_INNER_FACE
10
69.4209
20
-116.2796
30
0.0000
0
VERTEX
8
L0_WALL_INNER_FACE
10
75.6941
20
-108.5329
30
0.0000
0
VERTEX
8
L0_WALL_INNER_FACE
10
75.6941
20
-108.5329
30
0.0000
0
VERTEX
8
L0_WALL_INNER_FACE
10
81.1232
20
-100.1729
30
0.0000
0
VERTEX
8
L0_WALL_INNER_FACE
10
81.1232
20
-100.1729
30
0.0000
0
VERTEX
8
L0_WALL_INNER_FACE
10
85.6486
20
-91.2911
30
0.0000
0
VERTEX
8
L0_WALL_INNER_FACE
10
85.6486
20
-91.2911
30
0.0000
0
VERTEX
8
L0_WALL_INNER_FACE
10
89.2209
20
-81.9850
30
0.0000
0
VERTEX
8
L0_WALL_INNER_FACE
10
89.2209
20
-81.9850
30
0.0000
0
VERTEX
8
L0_WALL_INNER_FACE
10
91.8009
20
-72.3565
30
0.0000
0
VERTEX
8
L0_WALL_INNER_FACE
10
91.8009
20
-72.3565
30
0.0000
0
VERTEX
8
L0_WALL_INNER_FACE
10
93.3602
20
-62.5111
30
0.0000
0
VERTEX
8
L0_WALL_INNER_FACE
10
100.4998
20
-63.2615
30
0.0000
0
VERTEX
8
L0_WALL_INNER_FACE
10
101.0609
20
-52.5566
30
0.0000
0
VERTEX
8
L0_WALL_INNER_FACE
10
101.0609
20
-52.5566
30
0.0000
0
VERTEX
8
L0_WALL_INNER_FACE
10
100.4998
20
-41.8516
30
0.0000
0
VERTEX
8
L0_WALL_INNER_FACE
10
100.4998
20
-41.8516
30
0.0000
0
VERTEX
8
L0_WALL_INNER_FACE
10
98.8229
20
-31.2640
30
0.0000
0
VERTEX
8
L0_WALL_INNER_FACE
10
98.8229
20
-31.2640
30
0.0000
0
VERTEX
8
L0_WALL_INNER_FACE
10
96.0485
20
-20.9096
30
0.0000
0
VERTEX
8
L0_WALL_INNER_FACE
10
96.0485
20
-20.9096
30
0.0000
0
VERTEX
8
L0_WALL_INNER_FACE
10
92.2069
20
-10.9020
30
0.0000
0
VERTEX
8
L0_WALL_INNER_FACE
10
116.5377
20
-0.0693
30
0.0000
0
VERTEX
8
L0_WALL_INNER_FACE
10
110.4054
20
11.9659
30
0.0000
0
VERTEX
8
L0_WALL_INNER_FACE
10
110.4054
20
11.9659
30
0.0000
0
VERTEX
8
L0_WALL_INNER_FACE
10
103.0488
20
23.2941
30
0.0000
0
VERTEX
8
L0_WALL_INNER_FACE
10
103.0488
20
23.2941
30
0.0000
0
VERTEX
8
L0_WALL_INNER_FACE
10
94.5483
20
33.7913
30
0.0000
0
VERTEX
8
L0_WALL_INNER_FACE
10
94.5483
20
33.7913
30
0.0000
0
VERTEX
8
L0_WALL_INNER_FACE
10
84.9972
20
43.3425
30
0.0000
0
VERTEX
8
L0_WALL_INNER_FACE
10
90.9073
20
49.9063
30
0.0000
0
VERTEX
8
L0_WALL_INNER_FACE
10
79.6916
20
58.9885
30
0.0000
0
VERTEX
8
L0_WALL_INNER_FACE
10
79.6916
20
58.9885
30
0.0000
0
VERTEX
8
L0_WALL_INNER_FACE
10
67.5880
20
66.8487
30
0.0000
0
VERTEX
8
L0_WALL_INNER_FACE
10
67.5880
20
66.8487
30
0.0000
0
VERTEX
8
L0_WALL_INNER_FACE
10
54.7291
20
73.4006
30
0.0000
0
VERTEX
8
L0_WALL_INNER_FACE
10
53.9878
20
71.7357
30
0.0000
0
VERTEX
8
L0_WALL_INNER_FACE
10
40.6926
20
76.8392
30
0.0000
0
VERTEX
8
L0_WALL_INNER_FACE
10
47.9825
20
99.2752
30
0.0000
0
VERTEX
8
L0_WALL_INNER_FACE
10
31.8415
20
103.6002
30
0.0000
0
VERTEX
8
L0_WALL_INNER_FACE
10
31.8415
20
103.6002
30
0.0000
0
VERTEX
8
L0_WALL_INNER_FACE
10
15.3368
20
106.2143
30
0.0000
0
VERTEX
8
L0_WALL_INNER_FACE
10
15.3368
20
106.2143
30
0.0000
0
VERTEX
8
L0_WALL_INNER_FACE
10
-1.3507
20
107.0888
30
0.0000
0
VERTEX
8
L0_WALL_INNER_FACE
10
-1.3507
20
107.0888
30
0.0000
0
VERTEX
8
L0_WALL_INNER_FACE
10
-18.0382
20
106.2143
30
0.0000
0
VERTEX
8
L0_WALL_INNER_FACE
10
-16.0487
20
87.2856
30
0.0000
0
VERTEX
8
L0_WALL_INNER_FACE
10
-30.5857
20
84.9832
30
0.0000
0
VERTEX
8
L0_WALL_INNER_FACE
10
-30.5857
20
84.9832
30
0.0000
0
VERTEX
8
L0_WALL_INNER_FACE
10
-44.8023
20
81.1738
30
0.0000
0
VERTEX
8
L0_WALL_INNER_FACE
10
-40.9728
20
69.3879
30
0.0000
0
VERTEX
8
L0_WALL_INNER_FACE
10
-53.5024
20
64.5782
30
0.0000
0
VERTEX
8
L0_WALL_INNER_FACE
10
-58.9501
20
76.8138
30
0.0000
0
VERTEX
8
L0_WALL_INNER_FACE
10
-72.1574
20
70.0843
30
0.0000
0
VERTEX
8
L0_WALL_INNER_FACE
10
-72.1574
20
70.0843
30
0.0000
0
VERTEX
8
L0_WALL_INNER_FACE
10
-84.5890
20
62.0112
30
0.0000
0
VERTEX
8
L0_WALL_INNER_FACE
10
-84.5890
20
62.0112
30
0.0000
0
VERTEX
8
L0_WALL_INNER_FACE
10
-96.1086
20
52.6828
30
0.0000
0
VERTEX
8
L0_WALL_INNER_FACE
10
-96.1086
20
52.6828
30
0.0000
0
VERTEX
8
L0_WALL_INNER_FACE
10
-106.5900
20
42.2014
30
0.0000
0
VERTEX
8
L0_WALL_INNER_FACE
10
-88.0712
20
25.5269
30
0.0000
0
VERTEX
8
L0_WALL_INNER_FACE
10
-95.7581
20
16.0344
30
0.0000
0
VERTEX
8
L0_WALL_INNER_FACE
10
-89.4708
20
11.4665
30
0.0000
0
VERTEX
8
L0_WALL_INNER_FACE
10
-95.6803
20
1.9047
30
0.0000
0
VERTEX
8
L0_WALL_INNER_FACE
10
-95.6803
20
1.9047
30
0.0000
0
VERTEX
8
L0_WALL_INNER_FACE
10
-100.8563
20
-8.2538
30
0.0000
0
VERTEX
8
L0_WALL_INNER_FACE
10
-100.8563
20
-8.2538
30
0.0000
0
VERTEX
8
L0_WALL_INNER_FACE
10
-104.9421
20
-18.8977
30
0.0000
0
VERTEX
8
L0_WALL_INNER_FACE
10
-104.9421
20
-18.8977
30
0.0000
0
VERTEX
8
L0_WALL_INNER_FACE
10
-107.8929
20
-29.9103
30
0.0000
0
VERTEX
8
L0_WALL_INNER_FACE
10
-94.5022
20
-32.7566
30
0.0000
0
VERTEX
8
L0_WALL_INNER_FACE
10
-96.0616
20
-42.6020
30
0.0000
0
VERTEX
8
L0_WALL_INNER_FACE
10
-96.0616
20
-42.6020
30
0.0000
0
VERTEX
8
L0_WALL_INNER_FACE
10
-96.5833
20
-52.5566
30
0.0000
0
SEQEND
8
L0_WALL_INNER_FACE
0
POLYLINE
8
L0_COURTYARD
62
3
66
1
70
1
10
0.0
20
0.0
30
0.0000
0
VERTEX
8
L0_COURTYARD
10
5.4134
20
43.0560
30
0.0000
0
VERTEX
8
L0_COURTYARD
10
-22.5560
20
-27.0560
30
0.0000
0
VERTEX
8
L0_COURTYARD
10
22.5560
20
-27.0560
30
0.0000
0
SEQEND
8
L0_COURTYARD
0
POLYLINE
8
L0_ROOM_CORE
62
7
66
1
70
1
10
0.0
20
0.0
30
0.0000
0
VERTEX
8
L0_ROOM_CORE
10
-15.0000
20
40.0000
30
0.0000
0
VERTEX
8
L0_ROOM_CORE
10
15.0000
20
40.0000
30
0.0000
0
VERTEX
8
L0_ROOM_CORE
10
15.0000
20
65.0000
30
0.0000
0
VERTEX
8
L0_ROOM_CORE
10
-15.0000
20
65.0000
30
0.0000
0
SEQEND
8
L0_ROOM_CORE
0
TEXT
8
L0_LABELS
10
0.0000
20
52.5000
30
0.0000
40
2.2500
1
Stair 01 + Lift | 750 SF
72
1
11
0.0000
21
52.5000
31
0.0000
0
POLYLINE
8
L0_ROOM_CORE
62
7
66
1
70
1
10
0.0
20
0.0
30
0.0000
0
VERTEX
8
L0_ROOM_CORE
10
10.0000
20
-75.0000
30
0.0000
0
VERTEX
8
L0_ROOM_CORE
10
40.0000
20
-75.0000
30
0.0000
0
VERTEX
8
L0_ROOM_CORE
10
40.0000
20
-50.0000
30
0.0000
0
VERTEX
8
L0_ROOM_CORE
10
10.0000
20
-50.0000
30
0.0000
0
SEQEND
8
L0_ROOM_CORE
0
TEXT
8
L0_LABELS
10
25.0000
20
-62.5000
30
0.0000
40
2.2500
1
Stair 02 + Lift | 750 SF
72
1
11
25.0000
21
-62.5000
31
0.0000
0
POLYLINE
8
L0_ROOM_CORE
62
7
66
1
70
1
10
0.0
20
0.0
30
0.0000
0
VERTEX
8
L0_ROOM_CORE
10
-65.0000
20
-20.0000
30
0.0000
0
VERTEX
8
L0_ROOM_CORE
10
-35.0000
20
-20.0000
30
0.0000
0
VERTEX
8
L0_ROOM_CORE
10
-35.0000
20
5.0000
30
0.0000
0
VERTEX
8
L0_ROOM_CORE
10
-65.0000
20
5.0000
30
0.0000
0
SEQEND
8
L0_ROOM_CORE
0
TEXT
8
L0_LABELS
10
-50.0000
20
-7.5000
30
0.0000
40
2.2500
1
Service Core + Risers | 750 SF
72
1
11
-50.0000
21
-7.5000
31
0.0000
0
POLYLINE
8
L0_ROOM_OUTDOOR
62
7
66
1
70
1
10
0.0
20
0.0
30
0.0000
0
VERTEX
8
L0_ROOM_OUTDOOR
10
-20.0000
20
-10.0000
30
0.0000
0
VERTEX
8
L0_ROOM_OUTDOOR
10
20.0000
20
-10.0000
30
0.0000
0
VERTEX
8
L0_ROOM_OUTDOOR
10
20.0000
20
30.0000
30
0.0000
0
VERTEX
8
L0_ROOM_OUTDOOR
10
-20.0000
20
30.0000
30
0.0000
0
SEQEND
8
L0_ROOM_OUTDOOR
0
TEXT
8
L0_LABELS
10
0.0000
20
10.0000
30
0.0000
40
3.6000
1
Outdoor Learning 101 | 1600 SF
72
1
11
0.0000
21
10.0000
31
0.0000
0
POLYLINE
8
L0_ROOM_GYM
62
7
66
1
70
1
10
0.0
20
0.0
30
0.0000
0
VERTEX
8
L0_ROOM_GYM
10
-90.0000
20
-90.0000
30
0.0000
0
VERTEX
8
L0_ROOM_GYM
10
10.0000
20
-90.0000
30
0.0000
0
VERTEX
8
L0_ROOM_GYM
10
10.0000
20
-40.0000
30
0.0000
0
VERTEX
8
L0_ROOM_GYM
10
-90.0000
20
-40.0000
30
0.0000
0
SEQEND
8
L0_ROOM_GYM
0
TEXT
8
L0_LABELS
10
-40.0000
20
-65.0000
30
0.0000
40
4.5000
1
Gymnasium 101 | 5000 SF
72
1
11
-40.0000
21
-65.0000
31
0.0000
0
POLYLINE
8
L0_ROOM_CAFETERIA
62
7
66
1
70
1
10
0.0
20
0.0
30
0.0000
0
VERTEX
8
L0_ROOM_CAFETERIA
10
30.0000
20
-10.0000
30
0.0000
0
VERTEX
8
L0_ROOM_CAFETERIA
10
90.0000
20
-10.0000
30
0.0000
0
VERTEX
8
L0_ROOM_CAFETERIA
10
90.0000
20
40.0000
30
0.0000
0
VERTEX
8
L0_ROOM_CAFETERIA
10
30.0000
20
40.0000
30
0.0000
0
SEQEND
8
L0_ROOM_CAFETERIA
0
TEXT
8
L0_LABELS
10
60.0000
20
15.0000
30
0.0000
40
4.5000
1
Cafeteria / Commons 101 | 3000 SF
72
1
11
60.0000
21
15.0000
31
0.0000
0
POLYLINE
8
L0_ROOM_ADMIN
62
7
66
1
70
1
10
0.0
20
0.0
30
0.0000
0
VERTEX
8
L0_ROOM_ADMIN
10
-80.0000
20
5.0000
30
0.0000
0
VERTEX
8
L0_ROOM_ADMIN
10
-20.0000
20
5.0000
30
0.0000
0
VERTEX
8
L0_ROOM_ADMIN
10
-20.0000
20
35.0000
30
0.0000
0
VERTEX
8
L0_ROOM_ADMIN
10
-80.0000
20
35.0000
30
0.0000
0
SEQEND
8
L0_ROOM_ADMIN
0
TEXT
8
L0_LABELS
10
-50.0000
20
20.0000
30
0.0000
40
2.7000
1
Administration 101 | 1800 SF
72
1
11
-50.0000
21
20.0000
31
0.0000
0
POLYLINE
8
L0_ROOM_LOBBY
62
7
66
1
70
1
10
0.0
20
0.0
30
0.0000
0
VERTEX
8
L0_ROOM_LOBBY
10
55.0000
20
-55.0000
30
0.0000
0
VERTEX
8
L0_ROOM_LOBBY
10
95.0000
20
-55.0000
30
0.0000
0
VERTEX
8
L0_ROOM_LOBBY
10
95.0000
20
-15.0000
30
0.0000
0
VERTEX
8
L0_ROOM_LOBBY
10
55.0000
20
-15.0000
30
0.0000
0
SEQEND
8
L0_ROOM_LOBBY
0
TEXT
8
L0_LABELS
10
75.0000
20
-35.0000
30
0.0000
40
3.6000
1
Entry / Lobby 101 | 1600 SF
72
1
11
75.0000
21
-35.0000
31
0.0000
0
POLYLINE
8
L0_ROOM_KITCHEN
62
7
66
1
70
1
10
0.0
20
0.0
30
0.0000
0
VERTEX
8
L0_ROOM_KITCHEN
10
-25.0000
20
-120.0000
30
0.0000
0
VERTEX
8
L0_ROOM_KITCHEN
10
25.0000
20
-120.0000
30
0.0000
0
VERTEX
8
L0_ROOM_KITCHEN
10
25.0000
20
-90.0000
30
0.0000
0
VERTEX
8
L0_ROOM_KITCHEN
10
-25.0000
20
-90.0000
30
0.0000
0
SEQEND
8
L0_ROOM_KITCHEN
0
TEXT
8
L0_LABELS
10
0.0000
20
-105.0000
30
0.0000
40
2.7000
1
Kitchen / Servery 101 | 1500 SF
72
1
11
0.0000
21
-105.0000
31
0.0000
0
POLYLINE
8
L0_ROOM_STAGE
62
7
66
1
70
1
10
0.0
20
0.0
30
0.0000
0
VERTEX
8
L0_ROOM_STAGE
10
-10.0000
20
75.0000
30
0.0000
0
VERTEX
8
L0_ROOM_STAGE
10
30.0000
20
75.0000
30
0.0000
0
VERTEX
8
L0_ROOM_STAGE
10
30.0000
20
105.0000
30
0.0000
0
VERTEX
8
L0_ROOM_STAGE
10
-10.0000
20
105.0000
30
0.0000
0
SEQEND
8
L0_ROOM_STAGE
0
TEXT
8
L0_LABELS
10
10.0000
20
90.0000
30
0.0000
40
2.7000
1
Stage / Assembly 101 | 1200 SF
72
1
11
10.0000
21
90.0000
31
0.0000
0
POLYLINE
8
L0_ROOM_KINDER
62
7
66
1
70
1
10
0.0
20
0.0
30
0.0000
0
VERTEX
8
L0_ROOM_KINDER
10
-55.0000
20
35.0000
30
0.0000
0
VERTEX
8
L0_ROOM_KINDER
10
-15.0000
20
35.0000
30
0.0000
0
VERTEX
8
L0_ROOM_KINDER
10
-15.0000
20
65.0000
30
0.0000
0
VERTEX
8
L0_ROOM_KINDER
10
-55.0000
20
65.0000
30
0.0000
0
SEQEND
8
L0_ROOM_KINDER
0
TEXT
8
L0_LABELS
10
-35.0000
20
50.0000
30
0.0000
40
2.7000
1
Kindergarten 101 | 1200 SF
72
1
11
-35.0000
21
50.0000
31
0.0000
0
POLYLINE
8
L0_ROOM_KINDER
62
7
66
1
70
1
10
0.0
20
0.0
30
0.0000
0
VERTEX
8
L0_ROOM_KINDER
10
20.0000
20
40.0000
30
0.0000
0
VERTEX
8
L0_ROOM_KINDER
10
60.0000
20
40.0000
30
0.0000
0
VERTEX
8
L0_ROOM_KINDER
10
60.0000
20
70.0000
30
0.0000
0
VERTEX
8
L0_ROOM_KINDER
10
20.0000
20
70.0000
30
0.0000
0
SEQEND
8
L0_ROOM_KINDER
0
TEXT
8
L0_LABELS
10
40.0000
20
55.0000
30
0.0000
40
2.7000
1
Kindergarten 102 | 1200 SF
72
1
11
40.0000
21
55.0000
31
0.0000
0
POLYLINE
8
L0_ROOM_KINDER
62
7
66
1
70
1
10
0.0
20
0.0
30
0.0000
0
VERTEX
8
L0_ROOM_KINDER
10
45.0000
20
-85.0000
30
0.0000
0
VERTEX
8
L0_ROOM_KINDER
10
85.0000
20
-85.0000
30
0.0000
0
VERTEX
8
L0_ROOM_KINDER
10
85.0000
20
-55.0000
30
0.0000
0
VERTEX
8
L0_ROOM_KINDER
10
45.0000
20
-55.0000
30
0.0000
0
SEQEND
8
L0_ROOM_KINDER
0
TEXT
8
L0_LABELS
10
65.0000
20
-70.0000
30
0.0000
40
2.7000
1
Kindergarten 103 | 1200 SF
72
1
11
65.0000
21
-70.0000
31
0.0000
0
POLYLINE
8
L0_ROOM_KINDER
62
7
66
1
70
1
10
0.0
20
0.0
30
0.0000
0
VERTEX
8
L0_ROOM_KINDER
10
-95.0000
20
-120.0000
30
0.0000
0
VERTEX
8
L0_ROOM_KINDER
10
-55.0000
20
-120.0000
30
0.0000
0
VERTEX
8
L0_ROOM_KINDER
10
-55.0000
20
-90.0000
30
0.0000
0
VERTEX
8
L0_ROOM_KINDER
10
-95.0000
20
-90.0000
30
0.0000
0
SEQEND
8
L0_ROOM_KINDER
0
TEXT
8
L0_LABELS
10
-75.0000
20
-105.0000
30
0.0000
40
2.7000
1
Kindergarten 104 | 1200 SF
72
1
11
-75.0000
21
-105.0000
31
0.0000
0
POLYLINE
8
L0_ROOM_STAFF
62
7
66
1
70
1
10
0.0
20
0.0
30
0.0000
0
VERTEX
8
L0_ROOM_STAFF
10
-95.0000
20
-25.0000
30
0.0000
0
VERTEX
8
L0_ROOM_STAFF
10
-65.0000
20
-25.0000
30
0.0000
0
VERTEX
8
L0_ROOM_STAFF
10
-65.0000
20
5.0000
30
0.0000
0
VERTEX
8
L0_ROOM_STAFF
10
-95.0000
20
5.0000
30
0.0000
0
SEQEND
8
L0_ROOM_STAFF
0
TEXT
8
L0_LABELS
10
-80.0000
20
-10.0000
30
0.0000
40
2.7000
1
Staff / Workroom 101 | 900 SF
72
1
11
-80.0000
21
-10.0000
31
0.0000
0
POLYLINE
8
L0_ROOM_MECH
62
7
66
1
70
1
10
0.0
20
0.0
30
0.0000
0
VERTEX
8
L0_ROOM_MECH
10
-95.0000
20
35.0000
30
0.0000
0
VERTEX
8
L0_ROOM_MECH
10
-55.0000
20
35.0000
30
0.0000
0
VERTEX
8
L0_ROOM_MECH
10
-55.0000
20
55.0000
30
0.0000
0
VERTEX
8
L0_ROOM_MECH
10
-95.0000
20
55.0000
30
0.0000
0
SEQEND
8
L0_ROOM_MECH
0
TEXT
8
L0_LABELS
10
-75.0000
20
45.0000
30
0.0000
40
1.8000
1
Mech / Electrical 101 | 800 SF
72
1
11
-75.0000
21
45.0000
31
0.0000
0
POLYLINE
8
L0_ROOM_HEALTH
62
7
66
1
70
1
10
0.0
20
0.0
30
0.0000
0
VERTEX
8
L0_ROOM_HEALTH
10
25.0000
20
-105.0000
30
0.0000
0
VERTEX
8
L0_ROOM_HEALTH
10
55.0000
20
-105.0000
30
0.0000
0
VERTEX
8
L0_ROOM_HEALTH
10
55.0000
20
-85.0000
30
0.0000
0
VERTEX
8
L0_ROOM_HEALTH
10
25.0000
20
-85.0000
30
0.0000
0
SEQEND
8
L0_ROOM_HEALTH
0
TEXT
8
L0_LABELS
10
40.0000
20
-95.0000
30
0.0000
40
1.8000
1
Health / Counseling 101 | 600 SF
72
1
11
40.0000
21
-95.0000
31
0.0000
0
POLYLINE
8
L0_ROOM_TOILETS
62
7
66
1
70
1
10
0.0
20
0.0
30
0.0000
0
VERTEX
8
L0_ROOM_TOILETS
10
-35.0000
20
65.0000
30
0.0000
0
VERTEX
8
L0_ROOM_TOILETS
10
-10.0000
20
65.0000
30
0.0000
0
VERTEX
8
L0_ROOM_TOILETS
10
-10.0000
20
85.0000
30
0.0000
0
VERTEX
8
L0_ROOM_TOILETS
10
-35.0000
20
85.0000
30
0.0000
0
SEQEND
8
L0_ROOM_TOILETS
0
TEXT
8
L0_LABELS
10
-22.5000
20
75.0000
30
0.0000
40
1.8000
1
Toilet Group 101 | 500 SF
72
1
11
-22.5000
21
75.0000
31
0.0000
0
POLYLINE
8
L0_ROOM_TOILETS
62
7
66
1
70
1
10
0.0
20
0.0
30
0.0000
0
VERTEX
8
L0_ROOM_TOILETS
10
-55.0000
20
-125.0000
30
0.0000
0
VERTEX
8
L0_ROOM_TOILETS
10
-30.0000
20
-125.0000
30
0.0000
0
VERTEX
8
L0_ROOM_TOILETS
10
-30.0000
20
-105.0000
30
0.0000
0
VERTEX
8
L0_ROOM_TOILETS
10
-55.0000
20
-105.0000
30
0.0000
0
SEQEND
8
L0_ROOM_TOILETS
0
TEXT
8
L0_LABELS
10
-42.5000
20
-115.0000
30
0.0000
40
1.8000
1
Toilet Group 102 | 500 SF
72
1
11
-42.5000
21
-115.0000
31
0.0000
0
POLYLINE
8
L0_ROOM_STORAGE
62
7
66
1
70
1
10
0.0
20
0.0
30
0.0000
0
VERTEX
8
L0_ROOM_STORAGE
10
35.0000
20
-30.0000
30
0.0000
0
VERTEX
8
L0_ROOM_STORAGE
10
55.0000
20
-30.0000
30
0.0000
0
VERTEX
8
L0_ROOM_STORAGE
10
55.0000
20
-10.0000
30
0.0000
0
VERTEX
8
L0_ROOM_STORAGE
10
35.0000
20
-10.0000
30
0.0000
0
SEQEND
8
L0_ROOM_STORAGE
0
TEXT
8
L0_LABELS
10
45.0000
20
-20.0000
30
0.0000
40
1.8000
1
Storage / Support 101 | 400 SF
72
1
11
45.0000
21
-20.0000
31
0.0000
0
POLYLINE
8
L0_ROOM_STORAGE
62
7
66
1
70
1
10
0.0
20
0.0
30
0.0000
0
VERTEX
8
L0_ROOM_STORAGE
10
60.0000
20
40.0000
30
0.0000
0
VERTEX
8
L0_ROOM_STORAGE
10
80.0000
20
40.0000
30
0.0000
0
VERTEX
8
L0_ROOM_STORAGE
10
80.0000
20
60.0000
30
0.0000
0
VERTEX
8
L0_ROOM_STORAGE
10
60.0000
20
60.0000
30
0.0000
0
SEQEND
8
L0_ROOM_STORAGE
0
TEXT
8
L0_LABELS
10
70.0000
20
50.0000
30
0.0000
40
1.8000
1
Storage / Support 102 | 400 SF
72
1
11
70.0000
21
50.0000
31
0.0000
0
POLYLINE
8
L1_EXTERIOR_WALL
62
5
66
1
70
1
10
0.0
20
0.0
30
14.0000
0
VERTEX
8
L1_EXTERIOR_WALL
10
-32.1829
20
-98.0556
30
14.0000
0
VERTEX
8
L1_EXTERIOR_WALL
10
-25.6529
20
-105.0581
30
14.0000
0
VERTEX
8
L1_EXTERIOR_WALL
10
-33.5334
20
-113.2186
30
14.0000
0
VERTEX
8
L1_EXTERIOR_WALL
10
-25.4111
20
-120.2793
30
14.0000
0
VERTEX
8
L1_EXTERIOR_WALL
10
-25.4111
20
-120.2793
30
14.0000
0
VERTEX
8
L1_EXTERIOR_WALL
10
-16.5952
20
-126.4522
30
14.0000
0
VERTEX
8
L1_EXTERIOR_WALL
10
-16.5952
20
-126.4522
30
14.0000
0
VERTEX
8
L1_EXTERIOR_WALL
10
-7.1823
20
-131.6699
30
14.0000
0
VERTEX
8
L1_EXTERIOR_WALL
10
-12.7008
20
-142.9845
30
14.0000
0
VERTEX
8
L1_EXTERIOR_WALL
10
-1.5812
20
-147.7045
30
14.0000
0
VERTEX
8
L1_EXTERIOR_WALL
10
-1.5812
20
-147.7045
30
14.0000
0
VERTEX
8
L1_EXTERIOR_WALL
10
9.9708
20
-151.2363
30
14.0000
0
VERTEX
8
L1_EXTERIOR_WALL
10
9.9708
20
-151.2363
30
14.0000
0
VERTEX
8
L1_EXTERIOR_WALL
10
21.8288
20
-153.5412
30
14.0000
0
VERTEX
8
L1_EXTERIOR_WALL
10
21.8288
20
-153.5412
30
14.0000
0
VERTEX
8
L1_EXTERIOR_WALL
10
33.8627
20
-154.5941
30
14.0000
0
VERTEX
8
L1_EXTERIOR_WALL
10
33.8627
20
-154.5941
30
14.0000
0
VERTEX
8
L1_EXTERIOR_WALL
10
45.9358
20
-154.3125
30
14.0000
0
VERTEX
8
L1_EXTERIOR_WALL
10
42.9230
20
-111.2272
30
14.0000
0
VERTEX
8
L1_EXTERIOR_WALL
10
50.4183
20
-110.3069
30
14.0000
0
VERTEX
8
L1_EXTERIOR_WALL
10
50.4183
20
-110.3069
30
14.0000
0
VERTEX
8
L1_EXTERIOR_WALL
10
57.7764
20
-108.6082
30
14.0000
0
VERTEX
8
L1_EXTERIOR_WALL
10
57.7764
20
-108.6082
30
14.0000
0
VERTEX
8
L1_EXTERIOR_WALL
10
64.9166
20
-106.1496
30
14.0000
0
VERTEX
8
L1_EXTERIOR_WALL
10
64.6633
20
-105.5227
30
14.0000
0
VERTEX
8
L1_EXTERIOR_WALL
10
71.4433
20
-102.3612
30
14.0000
0
VERTEX
8
L1_EXTERIOR_WALL
10
71.4433
20
-102.3612
30
14.0000
0
VERTEX
8
L1_EXTERIOR_WALL
10
77.8556
20
-98.5082
30
14.0000
0
VERTEX
8
L1_EXTERIOR_WALL
10
77.8556
20
-98.5082
30
14.0000
0
VERTEX
8
L1_EXTERIOR_WALL
10
83.8301
20
-94.0061
30
14.0000
0
VERTEX
8
L1_EXTERIOR_WALL
10
83.8301
20
-94.0061
30
14.0000
0
VERTEX
8
L1_EXTERIOR_WALL
10
89.3013
20
-88.9042
30
14.0000
0
VERTEX
8
L1_EXTERIOR_WALL
10
89.3013
20
-88.9042
30
14.0000
0
VERTEX
8
L1_EXTERIOR_WALL
10
94.2092
20
-83.2583
30
14.0000
0
VERTEX
8
L1_EXTERIOR_WALL
10
99.1342
20
-87.1062
30
14.0000
0
VERTEX
8
L1_EXTERIOR_WALL
10
103.8003
20
-80.4424
30
14.0000
0
VERTEX
8
L1_EXTERIOR_WALL
10
103.8003
20
-80.4424
30
14.0000
0
VERTEX
8
L1_EXTERIOR_WALL
10
107.7443
20
-73.3273
30
14.0000
0
VERTEX
8
L1_EXTERIOR_WALL
10
107.7443
20
-73.3273
30
14.0000
0
VERTEX
8
L1_EXTERIOR_WALL
10
110.9229
20
-65.8389
30
14.0000
0
VERTEX
8
L1_EXTERIOR_WALL
10
110.9229
20
-65.8389
30
14.0000
0
VERTEX
8
L1_EXTERIOR_WALL
10
113.3014
20
-58.0593
30
14.0000
0
VERTEX
8
L1_EXTERIOR_WALL
10
113.3014
20
-58.0593
30
14.0000
0
VERTEX
8
L1_EXTERIOR_WALL
10
114.8536
20
-50.0737
30
14.0000
0
VERTEX
8
L1_EXTERIOR_WALL
10
114.8536
20
-50.0737
30
14.0000
0
VERTEX
8
L1_EXTERIOR_WALL
10
115.5626
20
-41.9696
30
14.0000
0
VERTEX
8
L1_EXTERIOR_WALL
10
115.5626
20
-41.9696
30
14.0000
0
VERTEX
8
L1_EXTERIOR_WALL
10
115.4206
20
-33.8358
30
14.0000
0
VERTEX
8
L1_EXTERIOR_WALL
10
115.4206
20
-33.8358
30
14.0000
0
VERTEX
8
L1_EXTERIOR_WALL
10
114.4292
20
-25.7613
30
14.0000
0
VERTEX
8
L1_EXTERIOR_WALL
10
95.2298
20
-29.1467
30
14.0000
0
VERTEX
8
L1_EXTERIOR_WALL
10
93.8588
20
-23.2085
30
14.0000
0
VERTEX
8
L1_EXTERIOR_WALL
10
124.5845
20
-14.3981
30
14.0000
0
VERTEX
8
L1_EXTERIOR_WALL
10
121.5110
20
-5.4722
30
14.0000
0
VERTEX
8
L1_EXTERIOR_WALL
10
121.5110
20
-5.4722
30
14.0000
0
VERTEX
8
L1_EXTERIOR_WALL
10
117.5215
20
3.0834
30
14.0000
0
VERTEX
8
L1_EXTERIOR_WALL
10
117.5215
20
3.0834
30
14.0000
0
VERTEX
8
L1_EXTERIOR_WALL
10
112.6594
20
11.1752
30
14.0000
0
VERTEX
8
L1_EXTERIOR_WALL
10
112.6594
20
11.1752
30
14.0000
0
VERTEX
8
L1_EXTERIOR_WALL
10
106.9782
20
18.7144
30
14.0000
0
VERTEX
8
L1_EXTERIOR_WALL
10
115.3954
20
25.7773
30
14.0000
0
VERTEX
8
L1_EXTERIOR_WALL
10
108.1729
20
33.5225
30
14.0000
0
VERTEX
8
L1_EXTERIOR_WALL
10
108.1729
20
33.5225
30
14.0000
0
VERTEX
8
L1_EXTERIOR_WALL
10
100.1803
20
40.4703
30
14.0000
0
VERTEX
8
L1_EXTERIOR_WALL
10
104.0419
20
45.4130
30
14.0000
0
VERTEX
8
L1_EXTERIOR_WALL
10
94.8291
20
51.8639
30
14.0000
0
VERTEX
8
L1_EXTERIOR_WALL
10
94.8291
20
51.8639
30
14.0000
0
VERTEX
8
L1_EXTERIOR_WALL
10
84.9924
20
57.3164
30
14.0000
0
VERTEX
8
L1_EXTERIOR_WALL
10
87.6968
20
62.8611
30
14.0000
0
VERTEX
8
L1_EXTERIOR_WALL
10
76.7496
20
67.5079
30
14.0000
0
VERTEX
8
L1_EXTERIOR_WALL
10
76.7496
20
67.5079
30
14.0000
0
VERTEX
8
L1_EXTERIOR_WALL
10
65.3768
20
70.9849
30
14.0000
0
VERTEX
8
L1_EXTERIOR_WALL
10
68.7758
20
84.6177
30
14.0000
0
VERTEX
8
L1_EXTERIOR_WALL
10
55.6582
20
87.1675
30
14.0000
0
VERTEX
8
L1_EXTERIOR_WALL
10
55.6582
20
87.1675
30
14.0000
0
VERTEX
8
L1_EXTERIOR_WALL
10
42.3458
20
88.3322
30
14.0000
0
VERTEX
8
L1_EXTERIOR_WALL
10
42.3458
20
88.3322
30
14.0000
0
VERTEX
8
L1_EXTERIOR_WALL
10
28.9847
20
88.0990
30
14.0000
0
VERTEX
8
L1_EXTERIOR_WALL
10
28.9847
20
88.0990
30
14.0000
0
VERTEX
8
L1_EXTERIOR_WALL
10
15.7211
20
86.4704
30
14.0000
0
VERTEX
8
L1_EXTERIOR_WALL
10
13.1421
20
101.0972
30
14.0000
0
VERTEX
8
L1_EXTERIOR_WALL
10
-1.3934
20
97.7414
30
14.0000
0
VERTEX
8
L1_EXTERIOR_WALL
10
-1.3934
20
97.7414
30
14.0000
0
VERTEX
8
L1_EXTERIOR_WALL
10
-15.4985
20
92.8847
30
14.0000
0
VERTEX
8
L1_EXTERIOR_WALL
10
-15.4985
20
92.8847
30
14.0000
0
VERTEX
8
L1_EXTERIOR_WALL
10
-29.0186
20
86.5801
30
14.0000
0
VERTEX
8
L1_EXTERIOR_WALL
10
-37.1842
20
101.9375
30
14.0000
0
VERTEX
8
L1_EXTERIOR_WALL
10
-51.5318
20
93.3166
30
14.0000
0
VERTEX
8
L1_EXTERIOR_WALL
10
-51.5318
20
93.3166
30
14.0000
0
VERTEX
8
L1_EXTERIOR_WALL
10
-64.8997
20
83.2432
30
14.0000
0
VERTEX
8
L1_EXTERIOR_WALL
10
-64.8997
20
83.2432
30
14.0000
0
VERTEX
8
L1_EXTERIOR_WALL
10
-77.1414
20
71.8276
30
14.0000
0
VERTEX
8
L1_EXTERIOR_WALL
10
-50.0688
20
45.6840
30
14.0000
0
VERTEX
8
L1_EXTERIOR_WALL
10
-58.4658
20
36.0244
30
14.0000
0
VERTEX
8
L1_EXTERIOR_WALL
10
-71.4240
20
46.1485
30
14.0000
0
VERTEX
8
L1_EXTERIOR_WALL
10
-79.7525
20
34.2542
30
14.0000
0
VERTEX
8
L1_EXTERIOR_WALL
10
-79.7525
20
34.2542
30
14.0000
0
VERTEX
8
L1_EXTERIOR_WALL
10
-86.7921
20
21.5545
30
14.0000
0
VERTEX
8
L1_EXTERIOR_WALL
10
-86.7921
20
21.5545
30
14.0000
0
VERTEX
8
L1_EXTERIOR_WALL
10
-92.4656
20
8.1885
30
14.0000
0
VERTEX
8
L1_EXTERIOR_WALL
10
-92.4656
20
8.1885
30
14.0000
0
VERTEX
8
L1_EXTERIOR_WALL
10
-96.7109
20
-5.6973
30
14.0000
0
VERTEX
8
L1_EXTERIOR_WALL
10
-96.7109
20
-5.6973
30
14.0000
0
VERTEX
8
L1_EXTERIOR_WALL
10
-99.4815
20
-19.9509
30
14.0000
0
VERTEX
8
L1_EXTERIOR_WALL
10
-73.3462
20
-23.6239
30
14.0000
0
VERTEX
8
L1_EXTERIOR_WALL
10
-74.3709
20
-35.3370
30
14.0000
0
VERTEX
8
L1_EXTERIOR_WALL
10
-65.1046
20
-35.6606
30
14.0000
0
VERTEX
8
L1_EXTERIOR_WALL
10
-64.9164
20
-46.4462
30
14.0000
0
VERTEX
8
L1_EXTERIOR_WALL
10
-64.9164
20
-46.4462
30
14.0000
0
VERTEX
8
L1_EXTERIOR_WALL
10
-63.6017
20
-57.1530
30
14.0000
0
VERTEX
8
L1_EXTERIOR_WALL
10
-63.6017
20
-57.1530
30
14.0000
0
VERTEX
8
L1_EXTERIOR_WALL
10
-61.1751
20
-67.6638
30
14.0000
0
VERTEX
8
L1_EXTERIOR_WALL
10
-61.1751
20
-67.6638
30
14.0000
0
VERTEX
8
L1_EXTERIOR_WALL
10
-57.6631
20
-77.8633
30
14.0000
0
VERTEX
8
L1_EXTERIOR_WALL
10
-57.6631
20
-77.8633
30
14.0000
0
VERTEX
8
L1_EXTERIOR_WALL
10
-53.1042
20
-87.6399
30
14.0000
0
VERTEX
8
L1_EXTERIOR_WALL
10
-42.8765
20
-82.2017
30
14.0000
0
VERTEX
8
L1_EXTERIOR_WALL
10
-37.9451
20
-90.4088
30
14.0000
0
VERTEX
8
L1_EXTERIOR_WALL
10
-37.9451
20
-90.4088
30
14.0000
0
VERTEX
8
L1_EXTERIOR_WALL
10
-32.1829
20
-98.0556
30
14.0000
0
SEQEND
8
L1_EXTERIOR_WALL
0
POLYLINE
8
L1_WALL_INNER_FACE
62
8
66
1
70
1
10
0.0
20
0.0
30
14.0000
0
VERTEX
8
L1_WALL_INNER_FACE
10
-31.4168
20
-97.4128
30
14.0000
0
VERTEX
8
L1_WALL_INNER_FACE
10
-24.9582
20
-104.3388
30
14.0000
0
VERTEX
8
L1_WALL_INNER_FACE
10
-32.8387
20
-112.4993
30
14.0000
0
VERTEX
8
L1_WALL_INNER_FACE
10
-24.7954
20
-119.4913
30
14.0000
0
VERTEX
8
L1_WALL_INNER_FACE
10
-24.7954
20
-119.4913
30
14.0000
0
VERTEX
8
L1_WALL_INNER_FACE
10
-16.0653
20
-125.6042
30
14.0000
0
VERTEX
8
L1_WALL_INNER_FACE
10
-16.0653
20
-125.6042
30
14.0000
0
VERTEX
8
L1_WALL_INNER_FACE
10
-6.7440
20
-130.7711
30
14.0000
0
VERTEX
8
L1_WALL_INNER_FACE
10
-12.2625
20
-142.0857
30
14.0000
0
VERTEX
8
L1_WALL_INNER_FACE
10
-1.2392
20
-146.7648
30
14.0000
0
VERTEX
8
L1_WALL_INNER_FACE
10
-1.2392
20
-146.7648
30
14.0000
0
VERTEX
8
L1_WALL_INNER_FACE
10
10.2127
20
-150.2660
30
14.0000
0
VERTEX
8
L1_WALL_INNER_FACE
10
10.2127
20
-150.2660
30
14.0000
0
VERTEX
8
L1_WALL_INNER_FACE
10
21.9679
20
-152.5510
30
14.0000
0
VERTEX
8
L1_WALL_INNER_FACE
10
21.9679
20
-152.5510
30
14.0000
0
VERTEX
8
L1_WALL_INNER_FACE
10
33.8976
20
-153.5947
30
14.0000
0
VERTEX
8
L1_WALL_INNER_FACE
10
33.8976
20
-153.5947
30
14.0000
0
VERTEX
8
L1_WALL_INNER_FACE
10
45.8660
20
-153.3149
30
14.0000
0
VERTEX
8
L1_WALL_INNER_FACE
10
42.8532
20
-110.2297
30
14.0000
0
VERTEX
8
L1_WALL_INNER_FACE
10
50.2447
20
-109.3221
30
14.0000
0
VERTEX
8
L1_WALL_INNER_FACE
10
50.2447
20
-109.3221
30
14.0000
0
VERTEX
8
L1_WALL_INNER_FACE
10
57.5008
20
-107.6469
30
14.0000
0
VERTEX
8
L1_WALL_INNER_FACE
10
57.5008
20
-107.6469
30
14.0000
0
VERTEX
8
L1_WALL_INNER_FACE
10
64.5420
20
-105.2224
30
14.0000
0
VERTEX
8
L1_WALL_INNER_FACE
10
64.2887
20
-104.5955
30
14.0000
0
VERTEX
8
L1_WALL_INNER_FACE
10
70.9738
20
-101.4782
30
14.0000
0
VERTEX
8
L1_WALL_INNER_FACE
10
70.9738
20
-101.4782
30
14.0000
0
VERTEX
8
L1_WALL_INNER_FACE
10
77.2964
20
-97.6792
30
14.0000
0
VERTEX
8
L1_WALL_INNER_FACE
10
77.2964
20
-97.6792
30
14.0000
0
VERTEX
8
L1_WALL_INNER_FACE
10
83.1873
20
-93.2401
30
14.0000
0
VERTEX
8
L1_WALL_INNER_FACE
10
83.1873
20
-93.2401
30
14.0000
0
VERTEX
8
L1_WALL_INNER_FACE
10
88.5819
20
-88.2095
30
14.0000
0
VERTEX
8
L1_WALL_INNER_FACE
10
88.5819
20
-88.2095
30
14.0000
0
VERTEX
8
L1_WALL_INNER_FACE
10
93.4212
20
-82.6427
30
14.0000
0
VERTEX
8
L1_WALL_INNER_FACE
10
98.3462
20
-86.4905
30
14.0000
0
VERTEX
8
L1_WALL_INNER_FACE
10
102.9523
20
-79.9124
30
14.0000
0
VERTEX
8
L1_WALL_INNER_FACE
10
102.9523
20
-79.9124
30
14.0000
0
VERTEX
8
L1_WALL_INNER_FACE
10
106.8455
20
-72.8889
30
14.0000
0
VERTEX
8
L1_WALL_INNER_FACE
10
106.8455
20
-72.8889
30
14.0000
0
VERTEX
8
L1_WALL_INNER_FACE
10
109.9832
20
-65.4969
30
14.0000
0
VERTEX
8
L1_WALL_INNER_FACE
10
109.9832
20
-65.4969
30
14.0000
0
VERTEX
8
L1_WALL_INNER_FACE
10
112.3311
20
-57.8174
30
14.0000
0
VERTEX
8
L1_WALL_INNER_FACE
10
112.3311
20
-57.8174
30
14.0000
0
VERTEX
8
L1_WALL_INNER_FACE
10
113.8633
20
-49.9345
30
14.0000
0
VERTEX
8
L1_WALL_INNER_FACE
10
113.8633
20
-49.9345
30
14.0000
0
VERTEX
8
L1_WALL_INNER_FACE
10
114.5632
20
-41.9347
30
14.0000
0
VERTEX
8
L1_WALL_INNER_FACE
10
114.5632
20
-41.9347
30
14.0000
0
VERTEX
8
L1_WALL_INNER_FACE
10
114.4231
20
-33.9055
30
14.0000
0
VERTEX
8
L1_WALL_INNER_FACE
10
114.4231
20
-33.9055
30
14.0000
0
VERTEX
8
L1_WALL_INNER_FACE
10
113.4444
20
-25.9350
30
14.0000
0
VERTEX
8
L1_WALL_INNER_FACE
10
94.2450
20
-29.3204
30
14.0000
0
VERTEX
8
L1_WALL_INNER_FACE
10
92.8976
20
-23.4841
30
14.0000
0
VERTEX
8
L1_WALL_INNER_FACE
10
123.6232
20
-14.6737
30
14.0000
0
VERTEX
8
L1_WALL_INNER_FACE
10
120.5839
20
-5.8469
30
14.0000
0
VERTEX
8
L1_WALL_INNER_FACE
10
120.5839
20
-5.8469
30
14.0000
0
VERTEX
8
L1_WALL_INNER_FACE
10
116.6385
20
2.6139
30
14.0000
0
VERTEX
8
L1_WALL_INNER_FACE
10
116.6385
20
2.6139
30
14.0000
0
VERTEX
8
L1_WALL_INNER_FACE
10
111.8304
20
10.6160
30
14.0000
0
VERTEX
8
L1_WALL_INNER_FACE
10
111.8304
20
10.6160
30
14.0000
0
VERTEX
8
L1_WALL_INNER_FACE
10
106.2122
20
18.0716
30
14.0000
0
VERTEX
8
L1_WALL_INNER_FACE
10
114.6293
20
25.1345
30
14.0000
0
VERTEX
8
L1_WALL_INNER_FACE
10
107.4782
20
32.8031
30
14.0000
0
VERTEX
8
L1_WALL_INNER_FACE
10
107.4782
20
32.8031
30
14.0000
0
VERTEX
8
L1_WALL_INNER_FACE
10
99.5646
20
39.6823
30
14.0000
0
VERTEX
8
L1_WALL_INNER_FACE
10
103.4263
20
44.6250
30
14.0000
0
VERTEX
8
L1_WALL_INNER_FACE
10
94.2992
20
51.0158
30
14.0000
0
VERTEX
8
L1_WALL_INNER_FACE
10
94.2992
20
51.0158
30
14.0000
0
VERTEX
8
L1_WALL_INNER_FACE
10
84.5541
20
56.4176
30
14.0000
0
VERTEX
8
L1_WALL_INNER_FACE
10
87.2584
20
61.9623
30
14.0000
0
VERTEX
8
L1_WALL_INNER_FACE
10
76.4076
20
66.5682
30
14.0000
0
VERTEX
8
L1_WALL_INNER_FACE
10
76.4076
20
66.5682
30
14.0000
0
VERTEX
8
L1_WALL_INNER_FACE
10
65.1349
20
70.0146
30
14.0000
0
VERTEX
8
L1_WALL_INNER_FACE
10
68.5339
20
83.6474
30
14.0000
0
VERTEX
8
L1_WALL_INNER_FACE
10
55.5190
20
86.1773
30
14.0000
0
VERTEX
8
L1_WALL_INNER_FACE
10
55.5190
20
86.1773
30
14.0000
0
VERTEX
8
L1_WALL_INNER_FACE
10
42.3109
20
87.3328
30
14.0000
0
VERTEX
8
L1_WALL_INNER_FACE
10
42.3109
20
87.3328
30
14.0000
0
VERTEX
8
L1_WALL_INNER_FACE
10
29.0545
20
87.1014
30
14.0000
0
VERTEX
8
L1_WALL_INNER_FACE
10
29.0545
20
87.1014
30
14.0000
0
VERTEX
8
L1_WALL_INNER_FACE
10
15.8948
20
85.4856
30
14.0000
0
VERTEX
8
L1_WALL_INNER_FACE
10
13.3157
20
100.1124
30
14.0000
0
VERTEX
8
L1_WALL_INNER_FACE
10
-1.1178
20
96.7802
30
14.0000
0
VERTEX
8
L1_WALL_INNER_FACE
10
-1.1178
20
96.7802
30
14.0000
0
VERTEX
8
L1_WALL_INNER_FACE
10
-15.1238
20
91.9575
30
14.0000
0
VERTEX
8
L1_WALL_INNER_FACE
10
-15.1238
20
91.9575
30
14.0000
0
VERTEX
8
L1_WALL_INNER_FACE
10
-28.5491
20
85.6972
30
14.0000
0
VERTEX
8
L1_WALL_INNER_FACE
10
-36.7148
20
101.0545
30
14.0000
0
VERTEX
8
L1_WALL_INNER_FACE
10
-50.9726
20
92.4875
30
14.0000
0
VERTEX
8
L1_WALL_INNER_FACE
10
-50.9726
20
92.4875
30
14.0000
0
VERTEX
8
L1_WALL_INNER_FACE
10
-64.2569
20
82.4771
30
14.0000
0
VERTEX
8
L1_WALL_INNER_FACE
10
-64.2569
20
82.4771
30
14.0000
0
VERTEX
8
L1_WALL_INNER_FACE
10
-76.4220
20
71.1329
30
14.0000
0
VERTEX
8
L1_WALL_INNER_FACE
10
-49.3495
20
44.9893
30
14.0000
0
VERTEX
8
L1_WALL_INNER_FACE
10
-57.6778
20
35.4088
30
14.0000
0
VERTEX
8
L1_WALL_INNER_FACE
10
-70.6360
20
45.5329
30
14.0000
0
VERTEX
8
L1_WALL_INNER_FACE
10
-78.9045
20
33.7243
30
14.0000
0
VERTEX
8
L1_WALL_INNER_FACE
10
-78.9045
20
33.7243
30
14.0000
0
VERTEX
8
L1_WALL_INNER_FACE
10
-85.8933
20
21.1161
30
14.0000
0
VERTEX
8
L1_WALL_INNER_FACE
10
-85.8933
20
21.1161
30
14.0000
0
VERTEX
8
L1_WALL_INNER_FACE
10
-91.5259
20
7.8465
30
14.0000
0
VERTEX
8
L1_WALL_INNER_FACE
10
-91.5259
20
7.8465
30
14.0000
0
VERTEX
8
L1_WALL_INNER_FACE
10
-95.7407
20
-5.9393
30
14.0000
0
VERTEX
8
L1_WALL_INNER_FACE
10
-95.7407
20
-5.9393
30
14.0000
0
VERTEX
8
L1_WALL_INNER_FACE
10
-98.4913
20
-20.0900
30
14.0000
0
VERTEX
8
L1_WALL_INNER_FACE
10
-72.3559
20
-23.7631
30
14.0000
0
VERTEX
8
L1_WALL_INNER_FACE
10
-73.3715
20
-35.3719
30
14.0000
0
VERTEX
8
L1_WALL_INNER_FACE
10
-64.1052
20
-35.6955
30
14.0000
0
VERTEX
8
L1_WALL_INNER_FACE
10
-63.9188
20
-46.3764
30
14.0000
0
VERTEX
8
L1_WALL_INNER_FACE
10
-63.9188
20
-46.3764
30
14.0000
0
VERTEX
8
L1_WALL_INNER_FACE
10
-62.6169
20
-56.9794
30
14.0000
0
VERTEX
8
L1_WALL_INNER_FACE
10
-62.6169
20
-56.9794
30
14.0000
0
VERTEX
8
L1_WALL_INNER_FACE
10
-60.2139
20
-67.3881
30
14.0000
0
VERTEX
8
L1_WALL_INNER_FACE
10
-60.2139
20
-67.3881
30
14.0000
0
VERTEX
8
L1_WALL_INNER_FACE
10
-56.7359
20
-77.4887
30
14.0000
0
VERTEX
8
L1_WALL_INNER_FACE
10
-56.7359
20
-77.4887
30
14.0000
0
VERTEX
8
L1_WALL_INNER_FACE
10
-52.2213
20
-87.1704
30
14.0000
0
VERTEX
8
L1_WALL_INNER_FACE
10
-41.9935
20
-81.7322
30
14.0000
0
VERTEX
8
L1_WALL_INNER_FACE
10
-37.1161
20
-89.8497
30
14.0000
0
VERTEX
8
L1_WALL_INNER_FACE
10
-37.1161
20
-89.8497
30
14.0000
0
VERTEX
8
L1_WALL_INNER_FACE
10
-31.4168
20
-97.4128
30
14.0000
0
SEQEND
8
L1_WALL_INNER_FACE
0
POLYLINE
8
L1_COURTYARD
62
3
66
1
70
1
10
0.0
20
0.0
30
14.0000
0
VERTEX
8
L1_COURTYARD
10
-21.6493
20
44.8768
30
14.0000
0
VERTEX
8
L1_COURTYARD
10
4.3784
20
-43.3688
30
14.0000
0
VERTEX
8
L1_COURTYARD
10
49.8281
20
-5.2320
30
14.0000
0
SEQEND
8
L1_COURTYARD
0
POLYLINE
8
L1_ROOM_CORE
62
7
66
1
70
1
10
0.0
20
0.0
30
14.0000
0
VERTEX
8
L1_ROOM_CORE
10
-6.4809
20
31.2809
30
14.0000
0
VERTEX
8
L1_ROOM_CORE
10
16.5005
20
50.5645
30
14.0000
0
VERTEX
8
L1_ROOM_CORE
10
0.4308
20
69.7156
30
14.0000
0
VERTEX
8
L1_ROOM_CORE
10
-22.5506
20
50.4320
30
14.0000
0
SEQEND
8
L1_ROOM_CORE
0
TEXT
8
L1_LABELS
10
-3.0251
20
50.4982
30
14.0000
40
2.2500
1
Stair 01 + Lift | 750 SF
72
1
11
-3.0251
21
50.4982
31
14.0000
0
POLYLINE
8
L1_ROOM_CORE
62
7
66
1
70
1
10
0.0
20
0.0
30
14.0000
0
VERTEX
8
L1_ROOM_CORE
10
18.8794
20
-84.5071
30
14.0000
0
VERTEX
8
L1_ROOM_CORE
10
41.8607
20
-65.2235
30
14.0000
0
VERTEX
8
L1_ROOM_CORE
10
25.7910
20
-46.0724
30
14.0000
0
VERTEX
8
L1_ROOM_CORE
10
2.8097
20
-65.3560
30
14.0000
0
SEQEND
8
L1_ROOM_CORE
0
TEXT
8
L1_LABELS
10
22.3352
20
-65.2898
30
14.0000
40
2.2500
1
Stair 02 + Lift | 750 SF
72
1
11
22.3352
21
-65.2898
31
14.0000
0
POLYLINE
8
L1_ROOM_CORE
62
7
66
1
70
1
10
0.0
20
0.0
30
14.0000
0
VERTEX
8
L1_ROOM_CORE
10
-54.2924
20
-28.4189
30
14.0000
0
VERTEX
8
L1_ROOM_CORE
10
-31.3111
20
-9.1353
30
14.0000
0
VERTEX
8
L1_ROOM_CORE
10
-47.3808
20
10.0159
30
14.0000
0
VERTEX
8
L1_ROOM_CORE
10
-70.3621
20
-9.2678
30
14.0000
0
SEQEND
8
L1_ROOM_CORE
0
TEXT
8
L1_LABELS
10
-50.8366
20
-9.2015
30
14.0000
40
2.2500
1
Service Core + Risers | 750 SF
72
1
11
-50.8366
21
-9.2015
31
14.0000
0
POLYLINE
8
L1_ROOM_LIBRARY
62
7
66
1
70
1
10
0.0
20
0.0
30
14.0000
0
VERTEX
8
L1_ROOM_LIBRARY
10
48.9049
20
-65.8398
30
14.0000
0
VERTEX
8
L1_ROOM_LIBRARY
10
94.8675
20
-27.2725
30
14.0000
0
VERTEX
8
L1_ROOM_LIBRARY
10
69.1560
20
3.3692
30
14.0000
0
VERTEX
8
L1_ROOM_LIBRARY
10
23.1934
20
-35.1980
30
14.0000
0
SEQEND
8
L1_ROOM_LIBRARY
0
TEXT
8
L1_LABELS
10
59.0304
20
-31.2353
30
14.0000
40
3.6000
1
Library / Media 201 | 2400 SF
72
1
11
59.0304
21
-31.2353
31
14.0000
0
POLYLINE
8
L1_ROOM_ART
62
7
66
1
70
1
10
0.0
20
0.0
30
14.0000
0
VERTEX
8
L1_ROOM_ART
10
34.5515
20
13.4948
30
14.0000
0
VERTEX
8
L1_ROOM_ART
10
65.1933
20
39.2063
30
14.0000
0
VERTEX
8
L1_ROOM_ART
10
45.9097
20
62.1877
30
14.0000
0
VERTEX
8
L1_ROOM_ART
10
15.2679
20
36.4762
30
14.0000
0
SEQEND
8
L1_ROOM_ART
0
TEXT
8
L1_LABELS
10
40.2306
20
37.8412
30
14.0000
40
2.7000
1
Art / Maker 201 | 1200 SF
72
1
11
40.2306
21
37.8412
31
14.0000
0
POLYLINE
8
L1_ROOM_CLASSROOM
62
7
66
1
70
1
10
0.0
20
0.0
30
14.0000
0
VERTEX
8
L1_ROOM_CLASSROOM
10
-27.9646
20
-52.0165
30
14.0000
0
VERTEX
8
L1_ROOM_CLASSROOM
10
-0.3870
20
-28.8761
30
14.0000
0
VERTEX
8
L1_ROOM_CLASSROOM
10
-16.4567
20
-9.7250
30
14.0000
0
VERTEX
8
L1_ROOM_CLASSROOM
10
-44.0343
20
-32.8654
30
14.0000
0
SEQEND
8
L1_ROOM_CLASSROOM
0
TEXT
8
L1_LABELS
10
-22.2107
20
-30.8708
30
14.0000
40
2.2500
1
General Classroom 201 | 900 SF
72
1
11
-22.2107
21
-30.8708
31
14.0000
0
POLYLINE
8
L1_ROOM_CLASSROOM
62
7
66
1
70
1
10
0.0
20
0.0
30
14.0000
0
VERTEX
8
L1_ROOM_CLASSROOM
10
83.2443
20
2.1367
30
14.0000
0
VERTEX
8
L1_ROOM_CLASSROOM
10
110.8219
20
25.2770
30
14.0000
0
VERTEX
8
L1_ROOM_CLASSROOM
10
94.7523
20
44.4281
30
14.0000
0
VERTEX
8
L1_ROOM_CLASSROOM
10
67.1747
20
21.2878
30
14.0000
0
SEQEND
8
L1_ROOM_CLASSROOM
0
TEXT
8
L1_LABELS
10
88.9983
20
23.2824
30
14.0000
40
2.2500
1
General Classroom 202 | 900 SF
72
1
11
88.9983
21
23.2824
31
14.0000
0
POLYLINE
8
L1_ROOM_CLASSROOM
62
7
66
1
70
1
10
0.0
20
0.0
30
14.0000
0
VERTEX
8
L1_ROOM_CLASSROOM
10
-28.4484
20
-98.1117
30
14.0000
0
VERTEX
8
L1_ROOM_CLASSROOM
10
-0.8708
20
-74.9713
30
14.0000
0
VERTEX
8
L1_ROOM_CLASSROOM
10
-16.9405
20
-55.8202
30
14.0000
0
VERTEX
8
L1_ROOM_CLASSROOM
10
-44.5181
20
-78.9606
30
14.0000
0
SEQEND
8
L1_ROOM_CLASSROOM
0
TEXT
8
L1_LABELS
10
-22.6944
20
-76.9660
30
14.0000
40
2.2500
1
General Classroom 203 | 900 SF
72
1
11
-22.6944
21
-76.9660
31
14.0000
0
POLYLINE
8
L1_ROOM_CLASSROOM
62
7
66
1
70
1
10
0.0
20
0.0
30
14.0000
0
VERTEX
8
L1_ROOM_CLASSROOM
10
63.1257
20
-106.1234
30
14.0000
0
VERTEX
8
L1_ROOM_CLASSROOM
10
90.7033
20
-82.9830
30
14.0000
0
VERTEX
8
L1_ROOM_CLASSROOM
10
74.6336
20
-63.8319
30
14.0000
0
VERTEX
8
L1_ROOM_CLASSROOM
10
47.0560
20
-86.9723
30
14.0000
0
SEQEND
8
L1_ROOM_CLASSROOM
0
TEXT
8
L1_LABELS
10
68.8797
20
-84.9776
30
14.0000
40
2.2500
1
General Classroom 204 | 900 SF
72
1
11
68.8797
21
-84.9776
31
14.0000
0
POLYLINE
8
L1_ROOM_CLASSROOM
62
7
66
1
70
1
10
0.0
20
0.0
30
14.0000
0
VERTEX
8
L1_ROOM_CLASSROOM
10
91.6536
20
-23.4423
30
14.0000
0
VERTEX
8
L1_ROOM_CLASSROOM
10
119.2312
20
-0.3020
30
14.0000
0
VERTEX
8
L1_ROOM_CLASSROOM
10
103.1615
20
18.8492
30
14.0000
0
VERTEX
8
L1_ROOM_CLASSROOM
10
75.5839
20
-4.2912
30
14.0000
0
SEQEND
8
L1_ROOM_CLASSROOM
0
TEXT
8
L1_LABELS
10
97.4075
20
-2.2966
30
14.0000
40
2.2500
1
General Classroom 205 | 900 SF
72
1
11
97.4075
21
-2.2966
31
14.0000
0
POLYLINE
8
L1_ROOM_CLASSROOM
62
7
66
1
70
1
10
0.0
20
0.0
30
14.0000
0
VERTEX
8
L1_ROOM_CLASSROOM
10
87.3396
20
-72.7514
30
14.0000
0
VERTEX
8
L1_ROOM_CLASSROOM
10
114.9172
20
-49.6111
30
14.0000
0
VERTEX
8
L1_ROOM_CLASSROOM
10
98.8475
20
-30.4600
30
14.0000
0
VERTEX
8
L1_ROOM_CLASSROOM
10
71.2699
20
-53.6003
30
14.0000
0
SEQEND
8
L1_ROOM_CLASSROOM
0
TEXT
8
L1_LABELS
10
93.0936
20
-51.6057
30
14.0000
40
2.2500
1
General Classroom 206 | 900 SF
72
1
11
93.0936
21
-51.6057
31
14.0000
0
POLYLINE
8
L1_ROOM_CLASSROOM
62
7
66
1
70
1
10
0.0
20
0.0
30
14.0000
0
VERTEX
8
L1_ROOM_CLASSROOM
10
-47.3808
20
10.0159
30
14.0000
0
VERTEX
8
L1_ROOM_CLASSROOM
10
-19.8032
20
33.1562
30
14.0000
0
VERTEX
8
L1_ROOM_CLASSROOM
10
-35.8728
20
52.3073
30
14.0000
0
VERTEX
8
L1_ROOM_CLASSROOM
10
-63.4504
20
29.1670
30
14.0000
0
SEQEND
8
L1_ROOM_CLASSROOM
0
TEXT
8
L1_LABELS
10
-41.6268
20
31.1616
30
14.0000
40
2.2500
1
General Classroom 207 | 900 SF
72
1
11
-41.6268
21
31.1616
31
14.0000
0
POLYLINE
8
L1_ROOM_CLASSROOM
62
7
66
1
70
1
10
0.0
20
0.0
30
14.0000
0
VERTEX
8
L1_ROOM_CLASSROOM
10
-53.9412
20
56.7273
30
14.0000
0
VERTEX
8
L1_ROOM_CLASSROOM
10
-26.3636
20
79.8677
30
14.0000
0
VERTEX
8
L1_ROOM_CLASSROOM
10
-42.4332
20
99.0188
30
14.0000
0
VERTEX
8
L1_ROOM_CLASSROOM
10
-70.0108
20
75.8784
30
14.0000
0
SEQEND
8
L1_ROOM_CLASSROOM
0
TEXT
8
L1_LABELS
10
-48.1872
20
77.8731
30
14.0000
40
2.2500
1
General Classroom 208 | 900 SF
72
1
11
-48.1872
21
77.8731
31
14.0000
0
POLYLINE
8
L1_ROOM_CLASSROOM
62
7
66
1
70
1
10
0.0
20
0.0
30
14.0000
0
VERTEX
8
L1_ROOM_CLASSROOM
10
26.7585
20
46.1180
30
14.0000
0
VERTEX
8
L1_ROOM_CLASSROOM
10
54.3361
20
69.2583
30
14.0000
0
VERTEX
8
L1_ROOM_CLASSROOM
10
38.2665
20
88.4094
30
14.0000
0
VERTEX
8
L1_ROOM_CLASSROOM
10
10.6889
20
65.2691
30
14.0000
0
SEQEND
8
L1_ROOM_CLASSROOM
0
TEXT
8
L1_LABELS
10
32.5125
20
67.2637
30
14.0000
40
2.2500
1
General Classroom 209 | 900 SF
72
1
11
32.5125
21
67.2637
31
14.0000
0
POLYLINE
8
L1_ROOM_CLASSROOM
62
7
66
1
70
1
10
0.0
20
0.0
30
14.0000
0
VERTEX
8
L1_ROOM_CLASSROOM
10
-18.7204
20
53.6459
30
14.0000
0
VERTEX
8
L1_ROOM_CLASSROOM
10
8.8572
20
76.7863
30
14.0000
0
VERTEX
8
L1_ROOM_CLASSROOM
10
-7.2124
20
95.9374
30
14.0000
0
VERTEX
8
L1_ROOM_CLASSROOM
10
-34.7900
20
72.7970
30
14.0000
0
SEQEND
8
L1_ROOM_CLASSROOM
0
TEXT
8
L1_LABELS
10
-12.9664
20
74.7916
30
14.0000
40
2.2500
1
General Classroom 210 | 900 SF
72
1
11
-12.9664
21
74.7916
31
14.0000
0
POLYLINE
8
L1_ROOM_CLASSROOM
62
7
66
1
70
1
10
0.0
20
0.0
30
14.0000
0
VERTEX
8
L1_ROOM_CLASSROOM
10
-78.0225
20
-15.6956
30
14.0000
0
VERTEX
8
L1_ROOM_CLASSROOM
10
-50.4449
20
7.4447
30
14.0000
0
VERTEX
8
L1_ROOM_CLASSROOM
10
-66.5146
20
26.5958
30
14.0000
0
VERTEX
8
L1_ROOM_CLASSROOM
10
-94.0922
20
3.4555
30
14.0000
0
SEQEND
8
L1_ROOM_CLASSROOM
0
TEXT
8
L1_LABELS
10
-72.2686
20
5.4501
30
14.0000
40
2.2500
1
General Classroom 211 | 900 SF
72
1
11
-72.2686
21
5.4501
31
14.0000
0
POLYLINE
8
L1_ROOM_CLASSROOM
62
7
66
1
70
1
10
0.0
20
0.0
30
14.0000
0
VERTEX
8
L1_ROOM_CLASSROOM
10
9.5026
20
-151.1185
30
14.0000
0
VERTEX
8
L1_ROOM_CLASSROOM
10
37.0802
20
-127.9782
30
14.0000
0
VERTEX
8
L1_ROOM_CLASSROOM
10
21.0105
20
-108.8270
30
14.0000
0
VERTEX
8
L1_ROOM_CLASSROOM
10
-6.5671
20
-131.9674
30
14.0000
0
SEQEND
8
L1_ROOM_CLASSROOM
0
TEXT
8
L1_LABELS
10
15.2565
20
-129.9728
30
14.0000
40
2.2500
1
General Classroom 212 | 900 SF
72
1
11
15.2565
21
-129.9728
31
14.0000
0
POLYLINE
8
L1_ROOM_CLASSROOM
62
7
66
1
70
1
10
0.0
20
0.0
30
14.0000
0
VERTEX
8
L1_ROOM_CLASSROOM
10
-6.5671
20
-131.9674
30
14.0000
0
VERTEX
8
L1_ROOM_CLASSROOM
10
21.0105
20
-108.8270
30
14.0000
0
VERTEX
8
L1_ROOM_CLASSROOM
10
4.9408
20
-89.6759
30
14.0000
0
VERTEX
8
L1_ROOM_CLASSROOM
10
-22.6368
20
-112.8163
30
14.0000
0
SEQEND
8
L1_ROOM_CLASSROOM
0
TEXT
8
L1_LABELS
10
-0.8131
20
-110.8217
30
14.0000
40
2.2500
1
General Classroom 213 | 900 SF
72
1
11
-0.8131
21
-110.8217
31
14.0000
0
POLYLINE
8
L1_ROOM_STAFF
62
7
66
1
70
1
10
0.0
20
0.0
30
14.0000
0
VERTEX
8
L1_ROOM_STAFF
10
-44.5181
20
-78.9606
30
14.0000
0
VERTEX
8
L1_ROOM_STAFF
10
-21.5367
20
-59.6769
30
14.0000
0
VERTEX
8
L1_ROOM_STAFF
10
-40.8204
20
-36.6956
30
14.0000
0
VERTEX
8
L1_ROOM_STAFF
10
-63.8017
20
-55.9792
30
14.0000
0
SEQEND
8
L1_ROOM_STAFF
0
TEXT
8
L1_LABELS
10
-42.6692
20
-57.8281
30
14.0000
40
2.7000
1
Staff / Workroom 201 | 900 SF
72
1
11
-42.6692
21
-57.8281
31
14.0000
0
POLYLINE
8
L1_ROOM_TOILETS
62
7
66
1
70
1
10
0.0
20
0.0
30
14.0000
0
VERTEX
8
L1_ROOM_TOILETS
10
51.2375
20
1.3879
30
14.0000
0
VERTEX
8
L1_ROOM_TOILETS
10
70.3886
20
17.4576
30
14.0000
0
VERTEX
8
L1_ROOM_TOILETS
10
57.5328
20
32.7785
30
14.0000
0
VERTEX
8
L1_ROOM_TOILETS
10
38.3817
20
16.7088
30
14.0000
0
SEQEND
8
L1_ROOM_TOILETS
0
TEXT
8
L1_LABELS
10
54.3852
20
17.0832
30
14.0000
40
1.8000
1
Toilet Group 201 | 500 SF
72
1
11
54.3852
21
17.0832
31
14.0000
0
POLYLINE
8
L1_ROOM_TOILETS
62
7
66
1
70
1
10
0.0
20
0.0
30
14.0000
0
VERTEX
8
L1_ROOM_TOILETS
10
74.8351
20
27.7157
30
14.0000
0
VERTEX
8
L1_ROOM_TOILETS
10
93.9862
20
43.7854
30
14.0000
0
VERTEX
8
L1_ROOM_TOILETS
10
81.1305
20
59.1062
30
14.0000
0
VERTEX
8
L1_ROOM_TOILETS
10
61.9793
20
43.0366
30
14.0000
0
SEQEND
8
L1_ROOM_TOILETS
0
TEXT
8
L1_LABELS
10
77.9828
20
43.4110
30
14.0000
40
1.8000
1
Toilet Group 202 | 500 SF
72
1
11
77.9828
21
43.4110
31
14.0000
0
POLYLINE
8
L1_ROOM_SPED
62
7
66
1
70
1
10
0.0
20
0.0
30
14.0000
0
VERTEX
8
L1_ROOM_SPED
10
-24.2669
20
-9.7515
30
14.0000
0
VERTEX
8
L1_ROOM_SPED
10
-8.9460
20
3.1042
30
14.0000
0
VERTEX
8
L1_ROOM_SPED
10
-21.8018
20
18.4251
30
14.0000
0
VERTEX
8
L1_ROOM_SPED
10
-37.1227
20
5.5693
30
14.0000
0
SEQEND
8
L1_ROOM_SPED
0
TEXT
8
L1_LABELS
10
-23.0343
20
4.3368
30
14.0000
40
1.8000
1
Small Group / SPED 201 | 400 SF
72
1
11
-23.0343
21
4.3368
31
14.0000
0
POLYLINE
8
L1_ROOM_SPED
62
7
66
1
70
1
10
0.0
20
0.0
30
14.0000
0
VERTEX
8
L1_ROOM_SPED
10
61.9793
20
43.0366
30
14.0000
0
VERTEX
8
L1_ROOM_SPED
10
77.3002
20
55.8923
30
14.0000
0
VERTEX
8
L1_ROOM_SPED
10
64.4445
20
71.2132
30
14.0000
0
VERTEX
8
L1_ROOM_SPED
10
49.1236
20
58.3574
30
14.0000
0
SEQEND
8
L1_ROOM_SPED
0
TEXT
8
L1_LABELS
10
63.2119
20
57.1249
30
14.0000
40
1.8000
1
Small Group / SPED 202 | 400 SF
72
1
11
63.2119
21
57.1249
31
14.0000
0
POLYLINE
8
L1_ROOM_STORAGE
62
7
66
1
70
1
10
0.0
20
0.0
30
14.0000
0
VERTEX
8
L1_ROOM_STORAGE
10
41.3769
20
-111.3187
30
14.0000
0
VERTEX
8
L1_ROOM_STORAGE
10
56.6978
20
-98.4629
30
14.0000
0
VERTEX
8
L1_ROOM_STORAGE
10
43.8421
20
-83.1420
30
14.0000
0
VERTEX
8
L1_ROOM_STORAGE
10
28.5212
20
-95.9978
30
14.0000
0
SEQEND
8
L1_ROOM_STORAGE
0
TEXT
8
L1_LABELS
10
42.6095
20
-97.2304
30
14.0000
40
1.8000
1
Storage / Support 201 | 400 SF
72
1
11
42.6095
21
-97.2304
31
14.0000
0
POLYLINE
8
L2_EXTERIOR_WALL
62
5
66
1
70
1
10
0.0
20
0.0
30
28.0000
0
VERTEX
8
L2_EXTERIOR_WALL
10
44.5640
20
-87.9963
30
28.0000
0
VERTEX
8
L2_EXTERIOR_WALL
10
53.4414
20
-89.0863
30
28.0000
0
VERTEX
8
L2_EXTERIOR_WALL
10
53.4414
20
-89.0863
30
28.0000
0
VERTEX
8
L2_EXTERIOR_WALL
10
62.3841
20
-89.2424
30
28.0000
0
VERTEX
8
L2_EXTERIOR_WALL
10
62.3841
20
-89.2424
30
28.0000
0
VERTEX
8
L2_EXTERIOR_WALL
10
71.2942
20
-88.4628
30
28.0000
0
VERTEX
8
L2_EXTERIOR_WALL
10
71.2942
20
-88.4628
30
28.0000
0
VERTEX
8
L2_EXTERIOR_WALL
10
80.0739
20
-86.7562
30
28.0000
0
VERTEX
8
L2_EXTERIOR_WALL
10
77.9097
20
-78.0761
30
28.0000
0
VERTEX
8
L2_EXTERIOR_WALL
10
85.5675
20
-75.7348
30
28.0000
0
VERTEX
8
L2_EXTERIOR_WALL
10
85.5675
20
-75.7348
30
28.0000
0
VERTEX
8
L2_EXTERIOR_WALL
10
92.9387
20
-72.6060
30
28.0000
0
VERTEX
8
L2_EXTERIOR_WALL
10
92.9387
20
-72.6060
30
28.0000
0
VERTEX
8
L2_EXTERIOR_WALL
10
99.9423
20
-68.7238
30
28.0000
0
VERTEX
8
L2_EXTERIOR_WALL
10
99.9423
20
-68.7238
30
28.0000
0
VERTEX
8
L2_EXTERIOR_WALL
10
106.5019
20
-64.1307
30
28.0000
0
VERTEX
8
L2_EXTERIOR_WALL
10
106.5019
20
-64.1307
30
28.0000
0
VERTEX
8
L2_EXTERIOR_WALL
10
112.5453
20
-58.8772
30
28.0000
0
VERTEX
8
L2_EXTERIOR_WALL
10
112.5453
20
-58.8772
30
28.0000
0
VERTEX
8
L2_EXTERIOR_WALL
10
118.0066
20
-53.0208
30
28.0000
0
VERTEX
8
L2_EXTERIOR_WALL
10
114.1509
20
-49.7855
30
28.0000
0
VERTEX
8
L2_EXTERIOR_WALL
10
118.6530
20
-43.8110
30
28.0000
0
VERTEX
8
L2_EXTERIOR_WALL
10
118.6530
20
-43.8110
30
28.0000
0
VERTEX
8
L2_EXTERIOR_WALL
10
122.5060
20
-37.3987
30
28.0000
0
VERTEX
8
L2_EXTERIOR_WALL
10
122.5060
20
-37.3987
30
28.0000
0
VERTEX
8
L2_EXTERIOR_WALL
10
125.6675
20
-30.6187
30
28.0000
0
VERTEX
8
L2_EXTERIOR_WALL
10
125.6675
20
-30.6187
30
28.0000
0
VERTEX
8
L2_EXTERIOR_WALL
10
128.1030
20
-23.5454
30
28.0000
0
VERTEX
8
L2_EXTERIOR_WALL
10
128.1030
20
-23.5454
30
28.0000
0
VERTEX
8
L2_EXTERIOR_WALL
10
129.7859
20
-16.2563
30
28.0000
0
VERTEX
8
L2_EXTERIOR_WALL
10
129.7859
20
-16.2563
30
28.0000
0
VERTEX
8
L2_EXTERIOR_WALL
10
130.6976
20
-8.8312
30
28.0000
0
VERTEX
8
L2_EXTERIOR_WALL
10
130.6976
20
-8.8312
30
28.0000
0
VERTEX
8
L2_EXTERIOR_WALL
10
130.8281
20
-1.3514
30
28.0000
0
VERTEX
8
L2_EXTERIOR_WALL
10
137.0743
20
-1.1333
30
28.0000
0
VERTEX
8
L2_EXTERIOR_WALL
10
136.3653
20
6.9708
30
28.0000
0
VERTEX
8
L2_EXTERIOR_WALL
10
136.3653
20
6.9708
30
28.0000
0
VERTEX
8
L2_EXTERIOR_WALL
10
134.8131
20
14.9564
30
28.0000
0
VERTEX
8
L2_EXTERIOR_WALL
10
134.8131
20
14.9564
30
28.0000
0
VERTEX
8
L2_EXTERIOR_WALL
10
132.4346
20
22.7360
30
28.0000
0
VERTEX
8
L2_EXTERIOR_WALL
10
132.4346
20
22.7360
30
28.0000
0
VERTEX
8
L2_EXTERIOR_WALL
10
129.2560
20
30.2244
30
28.0000
0
VERTEX
8
L2_EXTERIOR_WALL
10
129.2560
20
30.2244
30
28.0000
0
VERTEX
8
L2_EXTERIOR_WALL
10
125.3120
20
37.3394
30
28.0000
0
VERTEX
8
L2_EXTERIOR_WALL
10
125.3120
20
37.3394
30
28.0000
0
VERTEX
8
L2_EXTERIOR_WALL
10
120.6459
20
44.0033
30
28.0000
0
VERTEX
8
L2_EXTERIOR_WALL
10
120.6459
20
44.0033
30
28.0000
0
VERTEX
8
L2_EXTERIOR_WALL
10
115.3089
20
50.1429
30
28.0000
0
VERTEX
8
L2_EXTERIOR_WALL
10
115.3089
20
50.1429
30
28.0000
0
VERTEX
8
L2_EXTERIOR_WALL
10
109.3592
20
55.6910
30
28.0000
0
VERTEX
8
L2_EXTERIOR_WALL
10
93.1863
20
36.4169
30
28.0000
0
VERTEX
8
L2_EXTERIOR_WALL
10
88.7927
20
39.7277
30
28.0000
0
VERTEX
8
L2_EXTERIOR_WALL
10
109.8344
20
70.9234
30
28.0000
0
VERTEX
8
L2_EXTERIOR_WALL
10
101.7427
20
75.7855
30
28.0000
0
VERTEX
8
L2_EXTERIOR_WALL
10
101.7427
20
75.7855
30
28.0000
0
VERTEX
8
L2_EXTERIOR_WALL
10
93.1870
20
79.7750
30
28.0000
0
VERTEX
8
L2_EXTERIOR_WALL
10
93.1870
20
79.7750
30
28.0000
0
VERTEX
8
L2_EXTERIOR_WALL
10
84.2612
20
82.8484
30
28.0000
0
VERTEX
8
L2_EXTERIOR_WALL
10
84.2612
20
82.8484
30
28.0000
0
VERTEX
8
L2_EXTERIOR_WALL
10
75.0630
20
84.9720
30
28.0000
0
VERTEX
8
L2_EXTERIOR_WALL
10
76.9710
20
95.7929
30
28.0000
0
VERTEX
8
L2_EXTERIOR_WALL
10
66.4597
20
97.0835
30
28.0000
0
VERTEX
8
L2_EXTERIOR_WALL
10
66.4597
20
97.0835
30
28.0000
0
VERTEX
8
L2_EXTERIOR_WALL
10
55.8710
20
97.2684
30
28.0000
0
VERTEX
8
L2_EXTERIOR_WALL
10
55.6521
20
103.5369
30
28.0000
0
VERTEX
8
L2_EXTERIOR_WALL
10
44.4481
20
102.5567
30
28.0000
0
VERTEX
8
L2_EXTERIOR_WALL
10
44.4481
20
102.5567
30
28.0000
0
VERTEX
8
L2_EXTERIOR_WALL
10
33.4080
20
100.4107
30
28.0000
0
VERTEX
8
L2_EXTERIOR_WALL
10
29.2906
20
116.9246
30
28.0000
0
VERTEX
8
L2_EXTERIOR_WALL
10
16.8316
20
113.1156
30
28.0000
0
VERTEX
8
L2_EXTERIOR_WALL
10
16.8316
20
113.1156
30
28.0000
0
VERTEX
8
L2_EXTERIOR_WALL
10
4.8390
20
108.0250
30
28.0000
0
VERTEX
8
L2_EXTERIOR_WALL
10
4.8390
20
108.0250
30
28.0000
0
VERTEX
8
L2_EXTERIOR_WALL
10
-6.5557
20
101.7088
30
28.0000
0
VERTEX
8
L2_EXTERIOR_WALL
10
-6.5557
20
101.7088
30
28.0000
0
VERTEX
8
L2_EXTERIOR_WALL
10
-17.2279
20
94.2361
30
28.0000
0
VERTEX
8
L2_EXTERIOR_WALL
10
-17.2279
20
94.2361
30
28.0000
0
VERTEX
8
L2_EXTERIOR_WALL
10
-27.0604
20
85.6888
30
28.0000
0
VERTEX
8
L2_EXTERIOR_WALL
10
-25.2709
20
83.8356
30
28.0000
0
VERTEX
8
L2_EXTERIOR_WALL
10
-33.9722
20
74.5046
30
28.0000
0
VERTEX
8
L2_EXTERIOR_WALL
10
-49.7743
20
87.7641
30
28.0000
0
VERTEX
8
L2_EXTERIOR_WALL
10
-58.7521
20
75.8502
30
28.0000
0
VERTEX
8
L2_EXTERIOR_WALL
10
-58.7521
20
75.8502
30
28.0000
0
VERTEX
8
L2_EXTERIOR_WALL
10
-66.4353
20
63.0632
30
28.0000
0
VERTEX
8
L2_EXTERIOR_WALL
10
-66.4353
20
63.0632
30
28.0000
0
VERTEX
8
L2_EXTERIOR_WALL
10
-72.7398
20
49.5431
30
28.0000
0
VERTEX
8
L2_EXTERIOR_WALL
10
-88.8666
20
56.0587
30
28.0000
0
VERTEX
8
L2_EXTERIOR_WALL
10
-94.3161
20
40.2323
30
28.0000
0
VERTEX
8
L2_EXTERIOR_WALL
10
-94.3161
20
40.2323
30
28.0000
0
VERTEX
8
L2_EXTERIOR_WALL
10
-98.0814
20
23.9229
30
28.0000
0
VERTEX
8
L2_EXTERIOR_WALL
10
-98.0814
20
23.9229
30
28.0000
0
VERTEX
8
L2_EXTERIOR_WALL
10
-100.1213
20
7.3093
30
28.0000
0
VERTEX
8
L2_EXTERIOR_WALL
10
-64.0435
20
4.7865
30
28.0000
0
VERTEX
8
L2_EXTERIOR_WALL
10
-64.2696
20
-8.1644
30
28.0000
0
VERTEX
8
L2_EXTERIOR_WALL
10
-64.2696
20
-8.1644
30
28.0000
0
VERTEX
8
L2_EXTERIOR_WALL
10
-63.1407
20
-21.0679
30
28.0000
0
VERTEX
8
L2_EXTERIOR_WALL
10
-63.1407
20
-21.0679
30
28.0000
0
VERTEX
8
L2_EXTERIOR_WALL
10
-60.6691
20
-33.7828
30
28.0000
0
VERTEX
8
L2_EXTERIOR_WALL
10
-59.2025
20
-33.4171
30
28.0000
0
VERTEX
8
L2_EXTERIOR_WALL
10
-55.4617
20
-45.6527
30
28.0000
0
VERTEX
8
L2_EXTERIOR_WALL
10
-55.4617
20
-45.6527
30
28.0000
0
VERTEX
8
L2_EXTERIOR_WALL
10
-50.4625
20
-57.4302
30
28.0000
0
VERTEX
8
L2_EXTERIOR_WALL
10
-50.4625
20
-57.4302
30
28.0000
0
VERTEX
8
L2_EXTERIOR_WALL
10
-44.2595
20
-68.6206
30
28.0000
0
VERTEX
8
L2_EXTERIOR_WALL
10
-44.2595
20
-68.6206
30
28.0000
0
VERTEX
8
L2_EXTERIOR_WALL
10
-36.9208
20
-79.1014
30
28.0000
0
VERTEX
8
L2_EXTERIOR_WALL
10
-28.4270
20
-72.4653
30
28.0000
0
VERTEX
8
L2_EXTERIOR_WALL
10
-20.7732
20
-81.2700
30
28.0000
0
VERTEX
8
L2_EXTERIOR_WALL
10
-20.7732
20
-81.2700
30
28.0000
0
VERTEX
8
L2_EXTERIOR_WALL
10
-12.2409
20
-89.2265
30
28.0000
0
VERTEX
8
L2_EXTERIOR_WALL
10
-12.2409
20
-89.2265
30
28.0000
0
VERTEX
8
L2_EXTERIOR_WALL
10
-2.9238
20
-96.2475
30
28.0000
0
VERTEX
8
L2_EXTERIOR_WALL
10
-2.9238
20
-96.2475
30
28.0000
0
VERTEX
8
L2_EXTERIOR_WALL
10
7.0763
20
-102.2561
30
28.0000
0
VERTEX
8
L2_EXTERIOR_WALL
10
16.3545
20
-84.8063
30
28.0000
0
VERTEX
8
L2_EXTERIOR_WALL
10
25.0530
20
-88.8625
30
28.0000
0
VERTEX
8
L2_EXTERIOR_WALL
10
25.0530
20
-88.8625
30
28.0000
0
VERTEX
8
L2_EXTERIOR_WALL
10
34.1279
20
-91.9872
30
28.0000
0
VERTEX
8
L2_EXTERIOR_WALL
10
35.8492
20
-85.9843
30
28.0000
0
VERTEX
8
L2_EXTERIOR_WALL
10
44.5640
20
-87.9963
30
28.0000
0
SEQEND
8
L2_EXTERIOR_WALL
0
POLYLINE
8
L2_WALL_INNER_FACE
62
8
66
1
70
1
10
0.0
20
0.0
30
28.0000
0
VERTEX
8
L2_WALL_INNER_FACE
10
44.7377
20
-87.0114
30
28.0000
0
VERTEX
8
L2_WALL_INNER_FACE
10
53.5112
20
-88.0887
30
28.0000
0
VERTEX
8
L2_WALL_INNER_FACE
10
53.5112
20
-88.0887
30
28.0000
0
VERTEX
8
L2_WALL_INNER_FACE
10
62.3492
20
-88.2430
30
28.0000
0
VERTEX
8
L2_WALL_INNER_FACE
10
62.3492
20
-88.2430
30
28.0000
0
VERTEX
8
L2_WALL_INNER_FACE
10
71.1550
20
-87.4726
30
28.0000
0
VERTEX
8
L2_WALL_INNER_FACE
10
71.1550
20
-87.4726
30
28.0000
0
VERTEX
8
L2_WALL_INNER_FACE
10
79.8320
20
-85.7859
30
28.0000
0
VERTEX
8
L2_WALL_INNER_FACE
10
77.6678
20
-77.1058
30
28.0000
0
VERTEX
8
L2_WALL_INNER_FACE
10
85.2255
20
-74.7951
30
28.0000
0
VERTEX
8
L2_WALL_INNER_FACE
10
85.2255
20
-74.7951
30
28.0000
0
VERTEX
8
L2_WALL_INNER_FACE
10
92.5003
20
-71.7072
30
28.0000
0
VERTEX
8
L2_WALL_INNER_FACE
10
92.5003
20
-71.7072
30
28.0000
0
VERTEX
8
L2_WALL_INNER_FACE
10
99.4124
20
-67.8757
30
28.0000
0
VERTEX
8
L2_WALL_INNER_FACE
10
99.4124
20
-67.8757
30
28.0000
0
VERTEX
8
L2_WALL_INNER_FACE
10
105.8862
20
-63.3427
30
28.0000
0
VERTEX
8
L2_WALL_INNER_FACE
10
105.8862
20
-63.3427
30
28.0000
0
VERTEX
8
L2_WALL_INNER_FACE
10
111.8507
20
-58.1579
30
28.0000
0
VERTEX
8
L2_WALL_INNER_FACE
10
111.8507
20
-58.1579
30
28.0000
0
VERTEX
8
L2_WALL_INNER_FACE
10
117.2405
20
-52.3780
30
28.0000
0
VERTEX
8
L2_WALL_INNER_FACE
10
113.3849
20
-49.1427
30
28.0000
0
VERTEX
8
L2_WALL_INNER_FACE
10
117.8240
20
-43.2518
30
28.0000
0
VERTEX
8
L2_WALL_INNER_FACE
10
117.8240
20
-43.2518
30
28.0000
0
VERTEX
8
L2_WALL_INNER_FACE
10
121.6230
20
-36.9292
30
28.0000
0
VERTEX
8
L2_WALL_INNER_FACE
10
121.6230
20
-36.9292
30
28.0000
0
VERTEX
8
L2_WALL_INNER_FACE
10
124.7403
20
-30.2441
30
28.0000
0
VERTEX
8
L2_WALL_INNER_FACE
10
124.7403
20
-30.2441
30
28.0000
0
VERTEX
8
L2_WALL_INNER_FACE
10
127.1418
20
-23.2698
30
28.0000
0
VERTEX
8
L2_WALL_INNER_FACE
10
127.1418
20
-23.2698
30
28.0000
0
VERTEX
8
L2_WALL_INNER_FACE
10
128.8011
20
-16.0826
30
28.0000
0
VERTEX
8
L2_WALL_INNER_FACE
10
128.8011
20
-16.0826
30
28.0000
0
VERTEX
8
L2_WALL_INNER_FACE
10
129.7000
20
-8.7614
30
28.0000
0
VERTEX
8
L2_WALL_INNER_FACE
10
129.7000
20
-8.7614
30
28.0000
0
VERTEX
8
L2_WALL_INNER_FACE
10
129.8287
20
-1.3863
30
28.0000
0
VERTEX
8
L2_WALL_INNER_FACE
10
136.0749
20
-1.1682
30
28.0000
0
VERTEX
8
L2_WALL_INNER_FACE
10
135.3750
20
6.8316
30
28.0000
0
VERTEX
8
L2_WALL_INNER_FACE
10
135.3750
20
6.8316
30
28.0000
0
VERTEX
8
L2_WALL_INNER_FACE
10
133.8428
20
14.7145
30
28.0000
0
VERTEX
8
L2_WALL_INNER_FACE
10
133.8428
20
14.7145
30
28.0000
0
VERTEX
8
L2_WALL_INNER_FACE
10
131.4949
20
22.3940
30
28.0000
0
VERTEX
8
L2_WALL_INNER_FACE
10
131.4949
20
22.3940
30
28.0000
0
VERTEX
8
L2_WALL_INNER_FACE
10
128.3572
20
29.7860
30
28.0000
0
VERTEX
8
L2_WALL_INNER_FACE
10
128.3572
20
29.7860
30
28.0000
0
VERTEX
8
L2_WALL_INNER_FACE
10
124.4640
20
36.8095
30
28.0000
0
VERTEX
8
L2_WALL_INNER_FACE
10
124.4640
20
36.8095
30
28.0000
0
VERTEX
8
L2_WALL_INNER_FACE
10
119.8579
20
43.3876
30
28.0000
0
VERTEX
8
L2_WALL_INNER_FACE
10
119.8579
20
43.3876
30
28.0000
0
VERTEX
8
L2_WALL_INNER_FACE
10
114.5895
20
49.4482
30
28.0000
0
VERTEX
8
L2_WALL_INNER_FACE
10
114.5895
20
49.4482
30
28.0000
0
VERTEX
8
L2_WALL_INNER_FACE
10
108.7165
20
54.9250
30
28.0000
0
VERTEX
8
L2_WALL_INNER_FACE
10
92.5436
20
35.6508
30
28.0000
0
VERTEX
8
L2_WALL_INNER_FACE
10
88.2335
20
38.8987
30
28.0000
0
VERTEX
8
L2_WALL_INNER_FACE
10
109.2752
20
70.0944
30
28.0000
0
VERTEX
8
L2_WALL_INNER_FACE
10
101.2732
20
74.9025
30
28.0000
0
VERTEX
8
L2_WALL_INNER_FACE
10
101.2732
20
74.9025
30
28.0000
0
VERTEX
8
L2_WALL_INNER_FACE
10
92.8124
20
78.8478
30
28.0000
0
VERTEX
8
L2_WALL_INNER_FACE
10
92.8124
20
78.8478
30
28.0000
0
VERTEX
8
L2_WALL_INNER_FACE
10
83.9855
20
81.8872
30
28.0000
0
VERTEX
8
L2_WALL_INNER_FACE
10
83.9855
20
81.8872
30
28.0000
0
VERTEX
8
L2_WALL_INNER_FACE
10
74.8893
20
83.9872
30
28.0000
0
VERTEX
8
L2_WALL_INNER_FACE
10
76.7973
20
94.8081
30
28.0000
0
VERTEX
8
L2_WALL_INNER_FACE
10
66.3899
20
96.0860
30
28.0000
0
VERTEX
8
L2_WALL_INNER_FACE
10
66.3899
20
96.0860
30
28.0000
0
VERTEX
8
L2_WALL_INNER_FACE
10
55.9059
20
96.2690
30
28.0000
0
VERTEX
8
L2_WALL_INNER_FACE
10
55.6870
20
102.5375
30
28.0000
0
VERTEX
8
L2_WALL_INNER_FACE
10
44.5873
20
101.5664
30
28.0000
0
VERTEX
8
L2_WALL_INNER_FACE
10
44.5873
20
101.5664
30
28.0000
0
VERTEX
8
L2_WALL_INNER_FACE
10
33.6499
20
99.4404
30
28.0000
0
VERTEX
8
L2_WALL_INNER_FACE
10
29.5325
20
115.9544
30
28.0000
0
VERTEX
8
L2_WALL_INNER_FACE
10
17.1736
20
112.1759
30
28.0000
0
VERTEX
8
L2_WALL_INNER_FACE
10
17.1736
20
112.1759
30
28.0000
0
VERTEX
8
L2_WALL_INNER_FACE
10
5.2774
20
107.1262
30
28.0000
0
VERTEX
8
L2_WALL_INNER_FACE
10
5.2774
20
107.1262
30
28.0000
0
VERTEX
8
L2_WALL_INNER_FACE
10
-6.0258
20
100.8607
30
28.0000
0
VERTEX
8
L2_WALL_INNER_FACE
10
-6.0258
20
100.8607
30
28.0000
0
VERTEX
8
L2_WALL_INNER_FACE
10
-16.6122
20
93.4481
30
28.0000
0
VERTEX
8
L2_WALL_INNER_FACE
10
-16.6122
20
93.4481
30
28.0000
0
VERTEX
8
L2_WALL_INNER_FACE
10
-26.3658
20
84.9694
30
28.0000
0
VERTEX
8
L2_WALL_INNER_FACE
10
-24.5762
20
83.1163
30
28.0000
0
VERTEX
8
L2_WALL_INNER_FACE
10
-33.2062
20
73.8618
30
28.0000
0
VERTEX
8
L2_WALL_INNER_FACE
10
-49.0083
20
87.1213
30
28.0000
0
VERTEX
8
L2_WALL_INNER_FACE
10
-57.9230
20
75.2911
30
28.0000
0
VERTEX
8
L2_WALL_INNER_FACE
10
-57.9230
20
75.2911
30
28.0000
0
VERTEX
8
L2_WALL_INNER_FACE
10
-65.5524
20
62.5937
30
28.0000
0
VERTEX
8
L2_WALL_INNER_FACE
10
-65.5524
20
62.5937
30
28.0000
0
VERTEX
8
L2_WALL_INNER_FACE
10
-71.8127
20
49.1685
30
28.0000
0
VERTEX
8
L2_WALL_INNER_FACE
10
-87.9394
20
55.6841
30
28.0000
0
VERTEX
8
L2_WALL_INNER_FACE
10
-93.3548
20
39.9566
30
28.0000
0
VERTEX
8
L2_WALL_INNER_FACE
10
-93.3548
20
39.9566
30
28.0000
0
VERTEX
8
L2_WALL_INNER_FACE
10
-97.0966
20
23.7492
30
28.0000
0
VERTEX
8
L2_WALL_INNER_FACE
10
-97.0966
20
23.7492
30
28.0000
0
VERTEX
8
L2_WALL_INNER_FACE
10
-99.1237
20
7.2395
30
28.0000
0
VERTEX
8
L2_WALL_INNER_FACE
10
-63.0459
20
4.7167
30
28.0000
0
VERTEX
8
L2_WALL_INNER_FACE
10
-63.2702
20
-8.1295
30
28.0000
0
VERTEX
8
L2_WALL_INNER_FACE
10
-63.2702
20
-8.1295
30
28.0000
0
VERTEX
8
L2_WALL_INNER_FACE
10
-62.1504
20
-20.9288
30
28.0000
0
VERTEX
8
L2_WALL_INNER_FACE
10
-62.1504
20
-20.9288
30
28.0000
0
VERTEX
8
L2_WALL_INNER_FACE
10
-59.6988
20
-33.5409
30
28.0000
0
VERTEX
8
L2_WALL_INNER_FACE
10
-58.2322
20
-33.1752
30
28.0000
0
VERTEX
8
L2_WALL_INNER_FACE
10
-54.5220
20
-45.3107
30
28.0000
0
VERTEX
8
L2_WALL_INNER_FACE
10
-54.5220
20
-45.3107
30
28.0000
0
VERTEX
8
L2_WALL_INNER_FACE
10
-49.5637
20
-56.9918
30
28.0000
0
VERTEX
8
L2_WALL_INNER_FACE
10
-49.5637
20
-56.9918
30
28.0000
0
VERTEX
8
L2_WALL_INNER_FACE
10
-43.4115
20
-68.0907
30
28.0000
0
VERTEX
8
L2_WALL_INNER_FACE
10
-43.4115
20
-68.0907
30
28.0000
0
VERTEX
8
L2_WALL_INNER_FACE
10
-36.1328
20
-78.4857
30
28.0000
0
VERTEX
8
L2_WALL_INNER_FACE
10
-27.6390
20
-71.8496
30
28.0000
0
VERTEX
8
L2_WALL_INNER_FACE
10
-20.0539
20
-80.5754
30
28.0000
0
VERTEX
8
L2_WALL_INNER_FACE
10
-20.0539
20
-80.5754
30
28.0000
0
VERTEX
8
L2_WALL_INNER_FACE
10
-11.5982
20
-88.4604
30
28.0000
0
VERTEX
8
L2_WALL_INNER_FACE
10
-11.5982
20
-88.4604
30
28.0000
0
VERTEX
8
L2_WALL_INNER_FACE
10
-2.3646
20
-95.4184
30
28.0000
0
VERTEX
8
L2_WALL_INNER_FACE
10
-2.3646
20
-95.4184
30
28.0000
0
VERTEX
8
L2_WALL_INNER_FACE
10
7.5458
20
-101.3732
30
28.0000
0
VERTEX
8
L2_WALL_INNER_FACE
10
16.8240
20
-83.9233
30
28.0000
0
VERTEX
8
L2_WALL_INNER_FACE
10
25.4276
20
-87.9353
30
28.0000
0
VERTEX
8
L2_WALL_INNER_FACE
10
25.4276
20
-87.9353
30
28.0000
0
VERTEX
8
L2_WALL_INNER_FACE
10
34.4035
20
-91.0259
30
28.0000
0
VERTEX
8
L2_WALL_INNER_FACE
10
36.1248
20
-85.0230
30
28.0000
0
VERTEX
8
L2_WALL_INNER_FACE
10
44.7377
20
-87.0114
30
28.0000
0
SEQEND
8
L2_WALL_INNER_FACE
0
POLYLINE
8
L2_COURTYARD
62
3
66
1
70
1
10
0.0
20
0.0
30
28.0000
0
VERTEX
8
L2_COURTYARD
10
-44.0131
20
23.9526
30
28.0000
0
VERTEX
8
L2_COURTYARD
10
39.5769
20
-33.1116
30
28.0000
0
VERTEX
8
L2_COURTYARD
10
51.2511
20
33.0962
30
28.0000
0
SEQEND
8
L2_COURTYARD
0
POLYLINE
8
L2_ROOM_CORE
62
7
66
1
70
1
10
0.0
20
0.0
30
28.0000
0
VERTEX
8
L2_ROOM_CORE
10
7.2956
20
32.0992
30
28.0000
0
VERTEX
8
L2_ROOM_CORE
10
12.5051
20
61.6435
30
28.0000
0
VERTEX
8
L2_ROOM_CORE
10
-12.1151
20
65.9847
30
28.0000
0
VERTEX
8
L2_ROOM_CORE
10
-17.3246
20
36.4405
30
28.0000
0
SEQEND
8
L2_ROOM_CORE
0
TEXT
8
L2_LABELS
10
-2.4097
20
49.0420
30
28.0000
40
2.2500
1
Stair 01 + Lift | 750 SF
72
1
11
-2.4097
21
49.0420
31
28.0000
0
POLYLINE
8
L2_ROOM_CORE
62
7
66
1
70
1
10
0.0
20
0.0
30
28.0000
0
VERTEX
8
L2_ROOM_CORE
10
32.5107
20
-84.0438
30
28.0000
0
VERTEX
8
L2_ROOM_CORE
10
37.7201
20
-54.4995
30
28.0000
0
VERTEX
8
L2_ROOM_CORE
10
13.0999
20
-50.1583
30
28.0000
0
VERTEX
8
L2_ROOM_CORE
10
7.8905
20
-79.7026
30
28.0000
0
SEQEND
8
L2_ROOM_CORE
0
TEXT
8
L2_LABELS
10
22.8053
20
-67.1011
30
28.0000
40
2.2500
1
Stair 02 + Lift | 750 SF
72
1
11
22.8053
21
-67.1011
31
28.0000
0
POLYLINE
8
L2_ROOM_CORE
62
7
66
1
70
1
10
0.0
20
0.0
30
28.0000
0
VERTEX
8
L2_ROOM_CORE
10
-38.4598
20
-25.8356
30
28.0000
0
VERTEX
8
L2_ROOM_CORE
10
-33.2503
20
3.7087
30
28.0000
0
VERTEX
8
L2_ROOM_CORE
10
-57.8705
20
8.0499
30
28.0000
0
VERTEX
8
L2_ROOM_CORE
10
-63.0800
20
-21.4944
30
28.0000
0
SEQEND
8
L2_ROOM_CORE
0
TEXT
8
L2_LABELS
10
-48.1651
20
-8.8928
30
28.0000
40
2.2500
1
Service Core + Risers | 750 SF
72
1
11
-48.1651
21
-8.8928
31
28.0000
0
POLYLINE
8
L2_ROOM_MUSIC
62
7
66
1
70
1
10
0.0
20
0.0
30
28.0000
0
VERTEX
8
L2_ROOM_MUSIC
10
7.3076
20
-54.2141
30
28.0000
0
VERTEX
8
L2_ROOM_MUSIC
10
14.2536
20
-14.8218
30
28.0000
0
VERTEX
8
L2_ROOM_MUSIC
10
-15.2907
20
-9.6124
30
28.0000
0
VERTEX
8
L2_ROOM_MUSIC
10
-22.2366
20
-49.0047
30
28.0000
0
SEQEND
8
L2_ROOM_MUSIC
0
TEXT
8
L2_LABELS
10
-3.9915
20
-31.9133
30
28.0000
40
2.7000
1
Music 301 | 1200 SF
72
1
11
-3.9915
21
-31.9133
31
28.0000
0
POLYLINE
8
L2_ROOM_STEM
62
7
66
1
70
1
10
0.0
20
0.0
30
28.0000
0
VERTEX
8
L2_ROOM_STEM
10
66.6815
20
-34.2205
30
28.0000
0
VERTEX
8
L2_ROOM_STEM
10
73.6274
20
5.1718
30
28.0000
0
VERTEX
8
L2_ROOM_STEM
10
49.0073
20
9.5130
30
28.0000
0
VERTEX
8
L2_ROOM_STEM
10
42.0613
20
-29.8793
30
28.0000
0
SEQEND
8
L2_ROOM_STEM
0
TEXT
8
L2_LABELS
10
57.8444
20
-12.3538
30
28.0000
40
2.2500
1
STEM / Science Lab 301 | 1000 SF
72
1
11
57.8444
21
-12.3538
31
28.0000
0
POLYLINE
8
L2_ROOM_STEM
62
7
66
1
70
1
10
0.0
20
0.0
30
28.0000
0
VERTEX
8
L2_ROOM_STEM
10
38.5763
20
36.7379
30
28.0000
0
VERTEX
8
L2_ROOM_STEM
10
45.5223
20
76.1302
30
28.0000
0
VERTEX
8
L2_ROOM_STEM
10
20.9021
20
80.4714
30
28.0000
0
VERTEX
8
L2_ROOM_STEM
10
13.9561
20
41.0791
30
28.0000
0
SEQEND
8
L2_ROOM_STEM
0
TEXT
8
L2_LABELS
10
29.7392
20
58.6046
30
28.0000
40
2.2500
1
STEM / Science Lab 302 | 1000 SF
72
1
11
29.7392
21
58.6046
31
28.0000
0
POLYLINE
8
L2_ROOM_CLASSROOM
62
7
66
1
70
1
10
0.0
20
0.0
30
28.0000
0
VERTEX
8
L2_ROOM_CLASSROOM
10
73.6274
20
5.1718
30
28.0000
0
VERTEX
8
L2_ROOM_CLASSROOM
10
79.8788
20
40.6248
30
28.0000
0
VERTEX
8
L2_ROOM_CLASSROOM
10
55.2586
20
44.9660
30
28.0000
0
VERTEX
8
L2_ROOM_CLASSROOM
10
49.0073
20
9.5130
30
28.0000
0
SEQEND
8
L2_ROOM_CLASSROOM
0
TEXT
8
L2_LABELS
10
64.4430
20
25.0689
30
28.0000
40
2.2500
1
General Classroom 301 | 900 SF
72
1
11
64.4430
21
25.0689
31
28.0000
0
POLYLINE
8
L2_ROOM_CLASSROOM
62
7
66
1
70
1
10
0.0
20
0.0
30
28.0000
0
VERTEX
8
L2_ROOM_CLASSROOM
10
67.5377
20
57.0169
30
28.0000
0
VERTEX
8
L2_ROOM_CLASSROOM
10
73.7891
20
92.4699
30
28.0000
0
VERTEX
8
L2_ROOM_CLASSROOM
10
49.1689
20
96.8112
30
28.0000
0
VERTEX
8
L2_ROOM_CLASSROOM
10
42.9175
20
61.3581
30
28.0000
0
SEQEND
8
L2_ROOM_CLASSROOM
0
TEXT
8
L2_LABELS
10
58.3533
20
76.9140
30
28.0000
40
2.2500
1
General Classroom 302 | 900 SF
72
1
11
58.3533
21
76.9140
31
28.0000
0
POLYLINE
8
L2_ROOM_CLASSROOM
62
7
66
1
70
1
10
0.0
20
0.0
30
28.0000
0
VERTEX
8
L2_ROOM_CLASSROOM
10
121.7142
20
-38.8472
30
28.0000
0
VERTEX
8
L2_ROOM_CLASSROOM
10
127.9655
20
-3.3941
30
28.0000
0
VERTEX
8
L2_ROOM_CLASSROOM
10
103.3453
20
0.9471
30
28.0000
0
VERTEX
8
L2_ROOM_CLASSROOM
10
97.0940
20
-34.5060
30
28.0000
0
SEQEND
8
L2_ROOM_CLASSROOM
0
TEXT
8
L2_LABELS
10
112.5298
20
-18.9500
30
28.0000
40
2.2500
1
General Classroom 303 | 900 SF
72
1
11
112.5298
21
-18.9500
31
28.0000
0
POLYLINE
8
L2_ROOM_CLASSROOM
62
7
66
1
70
1
10
0.0
20
0.0
30
28.0000
0
VERTEX
8
L2_ROOM_CLASSROOM
10
62.0549
20
-89.2532
30
28.0000
0
VERTEX
8
L2_ROOM_CLASSROOM
10
68.3062
20
-53.8001
30
28.0000
0
VERTEX
8
L2_ROOM_CLASSROOM
10
43.6861
20
-49.4589
30
28.0000
0
VERTEX
8
L2_ROOM_CLASSROOM
10
37.4347
20
-84.9120
30
28.0000
0
SEQEND
8
L2_ROOM_CLASSROOM
0
TEXT
8
L2_LABELS
10
52.8705
20
-69.3561
30
28.0000
40
2.2500
1
General Classroom 304 | 900 SF
72
1
11
52.8705
21
-69.3561
31
28.0000
0
POLYLINE
8
L2_ROOM_CLASSROOM
62
7
66
1
70
1
10
0.0
20
0.0
30
28.0000
0
VERTEX
8
L2_ROOM_CLASSROOM
10
-18.1928
20
31.5164
30
28.0000
0
VERTEX
8
L2_ROOM_CLASSROOM
10
-11.9415
20
66.9695
30
28.0000
0
VERTEX
8
L2_ROOM_CLASSROOM
10
-36.5617
20
71.3107
30
28.0000
0
VERTEX
8
L2_ROOM_CLASSROOM
10
-42.8130
20
35.8576
30
28.0000
0
SEQEND
8
L2_ROOM_CLASSROOM
0
TEXT
8
L2_LABELS
10
-27.3772
20
51.4136
30
28.0000
40
2.2500
1
General Classroom 305 | 900 SF
72
1
11
-27.3772
21
51.4136
31
28.0000
0
POLYLINE
8
L2_ROOM_CLASSROOM
62
7
66
1
70
1
10
0.0
20
0.0
30
28.0000
0
VERTEX
8
L2_ROOM_CLASSROOM
10
90.4215
20
42.8276
30
28.0000
0
VERTEX
8
L2_ROOM_CLASSROOM
10
96.6728
20
78.2807
30
28.0000
0
VERTEX
8
L2_ROOM_CLASSROOM
10
72.0526
20
82.6219
30
28.0000
0
VERTEX
8
L2_ROOM_CLASSROOM
10
65.8013
20
47.1688
30
28.0000
0
SEQEND
8
L2_ROOM_CLASSROOM
0
TEXT
8
L2_LABELS
10
81.2370
20
62.7247
30
28.0000
40
2.2500
1
General Classroom 306 | 900 SF
72
1
11
81.2370
21
62.7247
31
28.0000
0
POLYLINE
8
L2_ROOM_CLASSROOM
62
7
66
1
70
1
10
0.0
20
0.0
30
28.0000
0
VERTEX
8
L2_ROOM_CLASSROOM
10
118.8120
20
2.2816
30
28.0000
0
VERTEX
8
L2_ROOM_CLASSROOM
10
125.0634
20
37.7347
30
28.0000
0
VERTEX
8
L2_ROOM_CLASSROOM
10
100.4432
20
42.0759
30
28.0000
0
VERTEX
8
L2_ROOM_CLASSROOM
10
94.1918
20
6.6228
30
28.0000
0
SEQEND
8
L2_ROOM_CLASSROOM
0
TEXT
8
L2_LABELS
10
109.6276
20
22.1788
30
28.0000
40
2.2500
1
General Classroom 307 | 900 SF
72
1
11
109.6276
21
22.1788
31
28.0000
0
POLYLINE
8
L2_ROOM_CLASSROOM
62
7
66
1
70
1
10
0.0
20
0.0
30
28.0000
0
VERTEX
8
L2_ROOM_CLASSROOM
10
-72.6426
20
10.6546
30
28.0000
0
VERTEX
8
L2_ROOM_CLASSROOM
10
-66.3913
20
46.1077
30
28.0000
0
VERTEX
8
L2_ROOM_CLASSROOM
10
-91.0115
20
50.4489
30
28.0000
0
VERTEX
8
L2_ROOM_CLASSROOM
10
-97.2628
20
14.9958
30
28.0000
0
SEQEND
8
L2_ROOM_CLASSROOM
0
TEXT
8
L2_LABELS
10
-81.8271
20
30.5517
30
28.0000
40
2.2500
1
General Classroom 308 | 900 SF
72
1
11
-81.8271
21
30.5517
31
28.0000
0
POLYLINE
8
L2_ROOM_CLASSROOM
62
7
66
1
70
1
10
0.0
20
0.0
30
28.0000
0
VERTEX
8
L2_ROOM_CLASSROOM
10
92.1700
20
-33.6377
30
28.0000
0
VERTEX
8
L2_ROOM_CLASSROOM
10
98.4213
20
1.8154
30
28.0000
0
VERTEX
8
L2_ROOM_CLASSROOM
10
73.8011
20
6.1566
30
28.0000
0
VERTEX
8
L2_ROOM_CLASSROOM
10
67.5498
20
-29.2965
30
28.0000
0
SEQEND
8
L2_ROOM_CLASSROOM
0
TEXT
8
L2_LABELS
10
82.9855
20
-13.7406
30
28.0000
40
2.2500
1
General Classroom 309 | 900 SF
72
1
11
82.9855
21
-13.7406
31
28.0000
0
POLYLINE
8
L2_ROOM_CLASSROOM
62
7
66
1
70
1
10
0.0
20
0.0
30
28.0000
0
VERTEX
8
L2_ROOM_CLASSROOM
10
90.1481
20
-73.8983
30
28.0000
0
VERTEX
8
L2_ROOM_CLASSROOM
10
96.3994
20
-38.4452
30
28.0000
0
VERTEX
8
L2_ROOM_CLASSROOM
10
71.7792
20
-34.1040
30
28.0000
0
VERTEX
8
L2_ROOM_CLASSROOM
10
65.5279
20
-69.5571
30
28.0000
0
SEQEND
8
L2_ROOM_CLASSROOM
0
TEXT
8
L2_LABELS
10
80.9636
20
-54.0011
30
28.0000
40
2.2500
1
General Classroom 310 | 900 SF
72
1
11
80.9636
21
-54.0011
31
28.0000
0
POLYLINE
8
L2_ROOM_CLASSROOM
62
7
66
1
70
1
10
0.0
20
0.0
30
28.0000
0
VERTEX
8
L2_ROOM_CLASSROOM
10
-24.8413
20
-63.7768
30
28.0000
0
VERTEX
8
L2_ROOM_CLASSROOM
10
-18.5900
20
-28.3237
30
28.0000
0
VERTEX
8
L2_ROOM_CLASSROOM
10
-43.2102
20
-23.9825
30
28.0000
0
VERTEX
8
L2_ROOM_CLASSROOM
10
-49.4615
20
-59.4356
30
28.0000
0
SEQEND
8
L2_ROOM_CLASSROOM
0
TEXT
8
L2_LABELS
10
-34.0257
20
-43.8797
30
28.0000
40
2.2500
1
General Classroom 311 | 900 SF
72
1
11
-34.0257
21
-43.8797
31
28.0000
0
POLYLINE
8
L2_ROOM_CLASSROOM
62
7
66
1
70
1
10
0.0
20
0.0
30
28.0000
0
VERTEX
8
L2_ROOM_CLASSROOM
10
18.2974
20
65.6993
30
28.0000
0
VERTEX
8
L2_ROOM_CLASSROOM
10
24.5487
20
101.1524
30
28.0000
0
VERTEX
8
L2_ROOM_CLASSROOM
10
-0.0715
20
105.4936
30
28.0000
0
VERTEX
8
L2_ROOM_CLASSROOM
10
-6.3228
20
70.0405
30
28.0000
0
SEQEND
8
L2_ROOM_CLASSROOM
0
TEXT
8
L2_LABELS
10
9.1129
20
85.5964
30
28.0000
40
2.2500
1
General Classroom 312 | 900 SF
72
1
11
9.1129
21
85.5964
31
28.0000
0
POLYLINE
8
L2_ROOM_CLASSROOM
62
7
66
1
70
1
10
0.0
20
0.0
30
28.0000
0
VERTEX
8
L2_ROOM_CLASSROOM
10
-43.6812
20
30.9336
30
28.0000
0
VERTEX
8
L2_ROOM_CLASSROOM
10
-37.4299
20
66.3867
30
28.0000
0
VERTEX
8
L2_ROOM_CLASSROOM
10
-62.0501
20
70.7279
30
28.0000
0
VERTEX
8
L2_ROOM_CLASSROOM
10
-68.3014
20
35.2748
30
28.0000
0
SEQEND
8
L2_ROOM_CLASSROOM
0
TEXT
8
L2_LABELS
10
-52.8657
20
50.8307
30
28.0000
40
2.2500
1
General Classroom 313 | 900 SF
72
1
11
-52.8657
21
50.8307
31
28.0000
0
POLYLINE
8
L2_ROOM_STAFF
62
7
66
1
70
1
10
0.0
20
0.0
30
28.0000
0
VERTEX
8
L2_ROOM_STAFF
10
7.0222
20
-84.6266
30
28.0000
0
VERTEX
8
L2_ROOM_STAFF
10
12.2317
20
-55.0824
30
28.0000
0
VERTEX
8
L2_ROOM_STAFF
10
-17.3125
20
-49.8729
30
28.0000
0
VERTEX
8
L2_ROOM_STAFF
10
-22.5220
20
-79.4172
30
28.0000
0
SEQEND
8
L2_ROOM_STAFF
0
TEXT
8
L2_LABELS
10
-5.1452
20
-67.2498
30
28.0000
40
2.7000
1
Staff / Workroom 301 | 900 SF
72
1
11
-5.1452
21
-67.2498
31
28.0000
0
POLYLINE
8
L2_ROOM_TOILETS
62
7
66
1
70
1
10
0.0
20
0.0
30
28.0000
0
VERTEX
8
L2_ROOM_TOILETS
10
-17.8954
20
-24.3845
30
28.0000
0
VERTEX
8
L2_ROOM_TOILETS
10
-13.5542
20
0.2357
30
28.0000
0
VERTEX
8
L2_ROOM_TOILETS
10
-33.2503
20
3.7087
30
28.0000
0
VERTEX
8
L2_ROOM_TOILETS
10
-37.5915
20
-20.9115
30
28.0000
0
SEQEND
8
L2_ROOM_TOILETS
0
TEXT
8
L2_LABELS
10
-25.5729
20
-10.3379
30
28.0000
40
1.8000
1
Toilet Group 301 | 500 SF
72
1
11
-25.5729
21
-10.3379
31
28.0000
0
POLYLINE
8
L2_ROOM_TOILETS
62
7
66
1
70
1
10
0.0
20
0.0
30
28.0000
0
VERTEX
8
L2_ROOM_TOILETS
10
94.1918
20
6.6228
30
28.0000
0
VERTEX
8
L2_ROOM_TOILETS
10
98.5330
20
31.2430
30
28.0000
0
VERTEX
8
L2_ROOM_TOILETS
10
78.8369
20
34.7160
30
28.0000
0
VERTEX
8
L2_ROOM_TOILETS
10
74.4957
20
10.0958
30
28.0000
0
SEQEND
8
L2_ROOM_TOILETS
0
TEXT
8
L2_LABELS
10
86.5144
20
20.6694
30
28.0000
40
1.8000
1
Toilet Group 302 | 500 SF
72
1
11
86.5144
21
20.6694
31
28.0000
0
POLYLINE
8
L2_ROOM_SPED
62
7
66
1
70
1
10
0.0
20
0.0
30
28.0000
0
VERTEX
8
L2_ROOM_SPED
10
28.7403
20
-47.8390
30
28.0000
0
VERTEX
8
L2_ROOM_SPED
10
32.2132
20
-28.1429
30
28.0000
0
VERTEX
8
L2_ROOM_SPED
10
12.5171
20
-24.6699
30
28.0000
0
VERTEX
8
L2_ROOM_SPED
10
9.0441
20
-44.3661
30
28.0000
0
SEQEND
8
L2_ROOM_SPED
0
TEXT
8
L2_LABELS
10
20.6287
20
-36.2545
30
28.0000
40
1.8000
1
Small Group / SPED 301 | 400 SF
72
1
11
20.6287
21
-36.2545
31
28.0000
0
POLYLINE
8
L2_ROOM_SPED
62
7
66
1
70
1
10
0.0
20
0.0
30
28.0000
0
VERTEX
8
L2_ROOM_SPED
10
45.5223
20
76.1302
30
28.0000
0
VERTEX
8
L2_ROOM_SPED
10
48.9952
20
95.8263
30
28.0000
0
VERTEX
8
L2_ROOM_SPED
10
29.2991
20
99.2993
30
28.0000
0
VERTEX
8
L2_ROOM_SPED
10
25.8261
20
79.6032
30
28.0000
0
SEQEND
8
L2_ROOM_SPED
0
TEXT
8
L2_LABELS
10
37.4107
20
87.7148
30
28.0000
40
1.8000
1
Small Group / SPED 302 | 400 SF
72
1
11
37.4107
21
87.7148
31
28.0000
0
POLYLINE
8
L2_ROOM_STORAGE
62
7
66
1
70
1
10
0.0
20
0.0
30
28.0000
0
VERTEX
8
L2_ROOM_STORAGE
10
-52.0782
20
12.1057
30
28.0000
0
VERTEX
8
L2_ROOM_STORAGE
10
-48.6053
20
31.8018
30
28.0000
0
VERTEX
8
L2_ROOM_STORAGE
10
-68.3014
20
35.2748
30
28.0000
0
VERTEX
8
L2_ROOM_STORAGE
10
-71.7744
20
15.5786
30
28.0000
0
SEQEND
8
L2_ROOM_STORAGE
0
TEXT
8
L2_LABELS
10
-60.1898
20
23.6902
30
28.0000
40
1.8000
1
Storage / Support 301 | 400 SF
72
1
11
-60.1898
21
23.6902
31
28.0000
0
ENDSEC
0
EOF
