0
SECTION
2
HEADER
9
$INSUNITS
70
2
0
ENDSEC
0
SECTION
2
TABLES
0
TABLE
2
LAYER
70
42
0
LAYER
2
L0_EXTERIOR_WALL
70
0
62
7
6
CONTINUOUS
0
LAYER
2
L0_WALL_INNER_FACE
70
0
62
7
6
CONTINUOUS
0
LAYER
2
L0_COURTYARD
70
0
62
7
6
CONTINUOUS
0
LAYER
2
L0_ROOM_CORE
70
0
62
7
6
CONTINUOUS
0
LAYER
2
L0_LABELS
70
0
62
7
6
CONTINUOUS
0
LAYER
2
L0_ROOM_GYM
70
0
62
7
6
CONTINUOUS
0
LAYER
2
L0_ROOM_CAFETERIA
70
0
62
7
6
CONTINUOUS
0
LAYER
2
L0_ROOM_KITCHEN
70
0
62
7
6
CONTINUOUS
0
LAYER
2
L0_ROOM_STAGE
70
0
62
7
6
CONTINUOUS
0
LAYER
2
L0_ROOM_LOBBY
70
0
62
7
6
CONTINUOUS
0
LAYER
2
L0_ROOM_ADMIN
70
0
62
7
6
CONTINUOUS
0
LAYER
2
L0_ROOM_HEALTH
70
0
62
7
6
CONTINUOUS
0
LAYER
2
L0_ROOM_STAFF
70
0
62
7
6
CONTINUOUS
0
LAYER
2
L0_ROOM_KINDER
70
0
62
7
6
CONTINUOUS
0
LAYER
2
L0_ROOM_TOILETS
70
0
62
7
6
CONTINUOUS
0
LAYER
2
L0_ROOM_STORAGE
70
0
62
7
6
CONTINUOUS
0
LAYER
2
L0_ROOM_MECH
70
0
62
7
6
CONTINUOUS
0
LAYER
2
L0_ROOM_OUTDOOR
70
0
62
7
6
CONTINUOUS
0
LAYER
2
L1_EXTERIOR_WALL
70
0
62
7
6
CONTINUOUS
0
LAYER
2
L1_WALL_INNER_FACE
70
0
62
7
6
CONTINUOUS
0
LAYER
2
L1_COURTYARD
70
0
62
7
6
CONTINUOUS
0
LAYER
2
L1_ROOM_CORE
70
0
62
7
6
CONTINUOUS
0
LAYER
2
L1_LABELS
70
0
62
7
6
CONTINUOUS
0
LAYER
2
L1_ROOM_CLASSROOM
70
0
62
7
6
CONTINUOUS
0
LAYER
2
L1_ROOM_SPED
70
0
62
7
6
CONTINUOUS
0
LAYER
2
L1_ROOM_ART
70
0
62
7
6
CONTINUOUS
0
LAYER
2
L1_ROOM_LIBRARY
70
0
62
7
6
CONTINUOUS
0
LAYER
2
L1_ROOM_TOILETS
70
0
62
7
6
CONTINUOUS
0
LAYER
2
L1_ROOM_STORAGE
70
0
62
7
6
CONTINUOUS
0
LAYER
2
L1_ROOM_STAFF
70
0
62
7
6
CONTINUOUS
0
LAYER
2
L2_EXTERIOR_WALL
70
0
62
7
6
CONTINUOUS
0
LAYER
2
L2_WALL_INNER_FACE
70
0
62
7
6
CONTINUOUS
0
LAYER
2
L2_COURTYARD
70
0
62
7
6
CONTINUOUS
0
LAYER
2
L2_ROOM_CORE
70
0
62
7
6
CONTINUOUS
0
LAYER
2
L2_LABELS
70
0
62
7
6
CONTINUOUS
0
LAYER
2
L2_ROOM_CLASSROOM
70
0
62
7
6
CONTINUOUS
0
LAYER
2
L2_ROOM_STEM
70
0
62
7
6
CONTINUOUS
0
LAYER
2
L2_ROOM_MUSIC
70
0
62
7
6
CONTINUOUS
0
LAYER
2
L2_ROOM_SPED
70
0
62
7
6
CONTINUOUS
0
LAYER
2
L2_ROOM_TOILETS
70
0
62
7
6
CONTINUOUS
0
LAYER
2
L2_ROOM_STORAGE
70
0
62
7
6
CONTINUOUS
0
LAYER
2
L2_ROOM_STAFF
70
0
62
7
6
CONTINUOUS
0
ENDTAB
0
ENDSEC
0
SECTION
2
ENTITIES
0
POLYLINE
8
L0_EXTERIOR_WALL
62
5
66
1
70
1
10
0.0
20
0.0
30
0.0000
0
VERTEX
8
L0_EXTERIOR_WALL
10
-110.0000
20
-90.0000
30
0.0000
0
VERTEX
8
L0_EXTERIOR_WALL
10
-110.0000
20
-70.0000
30
0.0000
0
VERTEX
8
L0_EXTERIOR_WALL
10
-110.0000
20
-70.0000
30
0.0000
0
VERTEX
8
L0_EXTERIOR_WALL
10
-110.0000
20
-50.0000
30
0.0000
0
VERTEX
8
L0_EXTERIOR_WALL
10
-110.0000
20
-50.0000
30
0.0000
0
VERTEX
8
L0_EXTERIOR_WALL
10
-110.0000
20
-30.0000
30
0.0000
0
VERTEX
8
L0_EXTERIOR_WALL
10
-110.0000
20
-30.0000
30
0.0000
0
VERTEX
8
L0_EXTERIOR_WALL
10
-110.0000
20
-10.0000
30
0.0000
0
VERTEX
8
L0_EXTERIOR_WALL
10
-110.0000
20
-10.0000
30
0.0000
0
VERTEX
8
L0_EXTERIOR_WALL
10
-110.0000
20
10.0000
30
0.0000
0
VERTEX
8
L0_EXTERIOR_WALL
10
-110.0000
20
10.0000
30
0.0000
0
VERTEX
8
L0_EXTERIOR_WALL
10
-110.0000
20
30.0000
30
0.0000
0
VERTEX
8
L0_EXTERIOR_WALL
10
-110.0000
20
30.0000
30
0.0000
0
VERTEX
8
L0_EXTERIOR_WALL
10
-110.0000
20
50.0000
30
0.0000
0
VERTEX
8
L0_EXTERIOR_WALL
10
-110.0000
20
50.0000
30
0.0000
0
VERTEX
8
L0_EXTERIOR_WALL
10
-110.0000
20
70.0000
30
0.0000
0
VERTEX
8
L0_EXTERIOR_WALL
10
-110.0000
20
70.0000
30
0.0000
0
VERTEX
8
L0_EXTERIOR_WALL
10
-110.0000
20
90.0000
30
0.0000
0
VERTEX
8
L0_EXTERIOR_WALL
10
-110.0000
20
80.0000
30
0.0000
0
VERTEX
8
L0_EXTERIOR_WALL
10
-110.0000
20
80.0000
30
0.0000
0
VERTEX
8
L0_EXTERIOR_WALL
10
-90.0000
20
80.0000
30
0.0000
0
VERTEX
8
L0_EXTERIOR_WALL
10
-90.0000
20
80.0000
30
0.0000
0
VERTEX
8
L0_EXTERIOR_WALL
10
-70.0000
20
80.0000
30
0.0000
0
VERTEX
8
L0_EXTERIOR_WALL
10
-70.0000
20
80.0000
30
0.0000
0
VERTEX
8
L0_EXTERIOR_WALL
10
-50.0000
20
80.0000
30
0.0000
0
VERTEX
8
L0_EXTERIOR_WALL
10
-50.0000
20
80.0000
30
0.0000
0
VERTEX
8
L0_EXTERIOR_WALL
10
-30.0000
20
80.0000
30
0.0000
0
VERTEX
8
L0_EXTERIOR_WALL
10
-30.0000
20
80.0000
30
0.0000
0
VERTEX
8
L0_EXTERIOR_WALL
10
-10.0000
20
80.0000
30
0.0000
0
VERTEX
8
L0_EXTERIOR_WALL
10
-10.0000
20
105.0000
30
0.0000
0
VERTEX
8
L0_EXTERIOR_WALL
10
10.0000
20
105.0000
30
0.0000
0
VERTEX
8
L0_EXTERIOR_WALL
10
10.0000
20
105.0000
30
0.0000
0
VERTEX
8
L0_EXTERIOR_WALL
10
30.0000
20
105.0000
30
0.0000
0
VERTEX
8
L0_EXTERIOR_WALL
10
30.0000
20
90.0000
30
0.0000
0
VERTEX
8
L0_EXTERIOR_WALL
10
50.0000
20
90.0000
30
0.0000
0
VERTEX
8
L0_EXTERIOR_WALL
10
50.0000
20
90.0000
30
0.0000
0
VERTEX
8
L0_EXTERIOR_WALL
10
70.0000
20
90.0000
30
0.0000
0
VERTEX
8
L0_EXTERIOR_WALL
10
70.0000
20
90.0000
30
0.0000
0
VERTEX
8
L0_EXTERIOR_WALL
10
90.0000
20
90.0000
30
0.0000
0
VERTEX
8
L0_EXTERIOR_WALL
10
90.0000
20
50.0000
30
0.0000
0
VERTEX
8
L0_EXTERIOR_WALL
10
110.0000
20
50.0000
30
0.0000
0
VERTEX
8
L0_EXTERIOR_WALL
10
85.0000
20
50.0000
30
0.0000
0
VERTEX
8
L0_EXTERIOR_WALL
10
85.0000
20
90.0000
30
0.0000
0
VERTEX
8
L0_EXTERIOR_WALL
10
85.0000
20
70.0000
30
0.0000
0
VERTEX
8
L0_EXTERIOR_WALL
10
85.0000
20
70.0000
30
0.0000
0
VERTEX
8
L0_EXTERIOR_WALL
10
85.0000
20
50.0000
30
0.0000
0
VERTEX
8
L0_EXTERIOR_WALL
10
110.0000
20
50.0000
30
0.0000
0
VERTEX
8
L0_EXTERIOR_WALL
10
110.0000
20
30.0000
30
0.0000
0
VERTEX
8
L0_EXTERIOR_WALL
10
110.0000
20
30.0000
30
0.0000
0
VERTEX
8
L0_EXTERIOR_WALL
10
110.0000
20
10.0000
30
0.0000
0
VERTEX
8
L0_EXTERIOR_WALL
10
110.0000
20
10.0000
30
0.0000
0
VERTEX
8
L0_EXTERIOR_WALL
10
110.0000
20
-10.0000
30
0.0000
0
VERTEX
8
L0_EXTERIOR_WALL
10
110.0000
20
-10.0000
30
0.0000
0
VERTEX
8
L0_EXTERIOR_WALL
10
110.0000
20
-30.0000
30
0.0000
0
VERTEX
8
L0_EXTERIOR_WALL
10
110.0000
20
-30.0000
30
0.0000
0
VERTEX
8
L0_EXTERIOR_WALL
10
110.0000
20
-50.0000
30
0.0000
0
VERTEX
8
L0_EXTERIOR_WALL
10
110.0000
20
-50.0000
30
0.0000
0
VERTEX
8
L0_EXTERIOR_WALL
10
110.0000
20
-70.0000
30
0.0000
0
VERTEX
8
L0_EXTERIOR_WALL
10
105.0000
20
-70.0000
30
0.0000
0
VERTEX
8
L0_EXTERIOR_WALL
10
105.0000
20
-90.0000
30
0.0000
0
VERTEX
8
L0_EXTERIOR_WALL
10
105.0000
20
-90.0000
30
0.0000
0
VERTEX
8
L0_EXTERIOR_WALL
10
110.0000
20
-90.0000
30
0.0000
0
VERTEX
8
L0_EXTERIOR_WALL
10
90.0000
20
-90.0000
30
0.0000
0
VERTEX
8
L0_EXTERIOR_WALL
10
90.0000
20
-90.0000
30
0.0000
0
VERTEX
8
L0_EXTERIOR_WALL
10
70.0000
20
-90.0000
30
0.0000
0
VERTEX
8
L0_EXTERIOR_WALL
10
70.0000
20
-90.0000
30
0.0000
0
VERTEX
8
L0_EXTERIOR_WALL
10
50.0000
20
-90.0000
30
0.0000
0
VERTEX
8
L0_EXTERIOR_WALL
10
50.0000
20
-90.0000
30
0.0000
0
VERTEX
8
L0_EXTERIOR_WALL
10
30.0000
20
-90.0000
30
0.0000
0
VERTEX
8
L0_EXTERIOR_WALL
10
30.0000
20
-90.0000
30
0.0000
0
VERTEX
8
L0_EXTERIOR_WALL
10
10.0000
20
-90.0000
30
0.0000
0
VERTEX
8
L0_EXTERIOR_WALL
10
10.0000
20
-90.0000
30
0.0000
0
VERTEX
8
L0_EXTERIOR_WALL
10
-10.0000
20
-90.0000
30
0.0000
0
VERTEX
8
L0_EXTERIOR_WALL
10
-10.0000
20
-90.0000
30
0.0000
0
VERTEX
8
L0_EXTERIOR_WALL
10
-30.0000
20
-90.0000
30
0.0000
0
VERTEX
8
L0_EXTERIOR_WALL
10
-30.0000
20
-77.5000
30
0.0000
0
VERTEX
8
L0_EXTERIOR_WALL
10
-50.0000
20
-77.5000
30
0.0000
0
VERTEX
8
L0_EXTERIOR_WALL
10
-50.0000
20
-90.0000
30
0.0000
0
VERTEX
8
L0_EXTERIOR_WALL
10
-70.0000
20
-90.0000
30
0.0000
0
VERTEX
8
L0_EXTERIOR_WALL
10
-70.0000
20
-90.0000
30
0.0000
0
VERTEX
8
L0_EXTERIOR_WALL
10
-90.0000
20
-90.0000
30
0.0000
0
VERTEX
8
L0_EXTERIOR_WALL
10
-90.0000
20
-90.0000
30
0.0000
0
VERTEX
8
L0_EXTERIOR_WALL
10
-110.0000
20
-90.0000
30
0.0000
0
VERTEX
8
L0_EXTERIOR_WALL
10
-110.0000
20
-90.0000
30
0.0000
0
SEQEND
8
L0_EXTERIOR_WALL
0
POLYLINE
8
L0_WALL_INNER_FACE
62
8
66
1
70
1
10
0.0
20
0.0
30
0.0000
0
VERTEX
8
L0_WALL_INNER_FACE
10
-109.0000
20
-90.0000
30
0.0000
0
VERTEX
8
L0_WALL_INNER_FACE
10
-109.0000
20
-70.0000
30
0.0000
0
VERTEX
8
L0_WALL_INNER_FACE
10
-109.0000
20
-70.0000
30
0.0000
0
VERTEX
8
L0_WALL_INNER_FACE
10
-109.0000
20
-50.0000
30
0.0000
0
VERTEX
8
L0_WALL_INNER_FACE
10
-109.0000
20
-50.0000
30
0.0000
0
VERTEX
8
L0_WALL_INNER_FACE
10
-109.0000
20
-30.0000
30
0.0000
0
VERTEX
8
L0_WALL_INNER_FACE
10
-109.0000
20
-30.0000
30
0.0000
0
VERTEX
8
L0_WALL_INNER_FACE
10
-109.0000
20
-10.0000
30
0.0000
0
VERTEX
8
L0_WALL_INNER_FACE
10
-109.0000
20
-10.0000
30
0.0000
0
VERTEX
8
L0_WALL_INNER_FACE
10
-109.0000
20
10.0000
30
0.0000
0
VERTEX
8
L0_WALL_INNER_FACE
10
-109.0000
20
10.0000
30
0.0000
0
VERTEX
8
L0_WALL_INNER_FACE
10
-109.0000
20
30.0000
30
0.0000
0
VERTEX
8
L0_WALL_INNER_FACE
10
-109.0000
20
30.0000
30
0.0000
0
VERTEX
8
L0_WALL_INNER_FACE
10
-109.0000
20
50.0000
30
0.0000
0
VERTEX
8
L0_WALL_INNER_FACE
10
-109.0000
20
50.0000
30
0.0000
0
VERTEX
8
L0_WALL_INNER_FACE
10
-109.0000
20
70.0000
30
0.0000
0
VERTEX
8
L0_WALL_INNER_FACE
10
-109.0000
20
70.0000
30
0.0000
0
VERTEX
8
L0_WALL_INNER_FACE
10
-109.0000
20
90.0000
30
0.0000
0
VERTEX
8
L0_WALL_INNER_FACE
10
-109.0000
20
79.0000
30
0.0000
0
VERTEX
8
L0_WALL_INNER_FACE
10
-110.0000
20
79.0000
30
0.0000
0
VERTEX
8
L0_WALL_INNER_FACE
10
-90.0000
20
79.0000
30
0.0000
0
VERTEX
8
L0_WALL_INNER_FACE
10
-90.0000
20
79.0000
30
0.0000
0
VERTEX
8
L0_WALL_INNER_FACE
10
-70.0000
20
79.0000
30
0.0000
0
VERTEX
8
L0_WALL_INNER_FACE
10
-70.0000
20
79.0000
30
0.0000
0
VERTEX
8
L0_WALL_INNER_FACE
10
-50.0000
20
79.0000
30
0.0000
0
VERTEX
8
L0_WALL_INNER_FACE
10
-50.0000
20
79.0000
30
0.0000
0
VERTEX
8
L0_WALL_INNER_FACE
10
-30.0000
20
79.0000
30
0.0000
0
VERTEX
8
L0_WALL_INNER_FACE
10
-30.0000
20
79.0000
30
0.0000
0
VERTEX
8
L0_WALL_INNER_FACE
10
-10.0000
20
79.0000
30
0.0000
0
VERTEX
8
L0_WALL_INNER_FACE
10
-10.0000
20
104.0000
30
0.0000
0
VERTEX
8
L0_WALL_INNER_FACE
10
10.0000
20
104.0000
30
0.0000
0
VERTEX
8
L0_WALL_INNER_FACE
10
10.0000
20
104.0000
30
0.0000
0
VERTEX
8
L0_WALL_INNER_FACE
10
30.0000
20
104.0000
30
0.0000
0
VERTEX
8
L0_WALL_INNER_FACE
10
30.0000
20
89.0000
30
0.0000
0
VERTEX
8
L0_WALL_INNER_FACE
10
50.0000
20
89.0000
30
0.0000
0
VERTEX
8
L0_WALL_INNER_FACE
10
50.0000
20
89.0000
30
0.0000
0
VERTEX
8
L0_WALL_INNER_FACE
10
70.0000
20
89.0000
30
0.0000
0
VERTEX
8
L0_WALL_INNER_FACE
10
70.0000
20
89.0000
30
0.0000
0
VERTEX
8
L0_WALL_INNER_FACE
10
90.0000
20
89.0000
30
0.0000
0
VERTEX
8
L0_WALL_INNER_FACE
10
90.0000
20
49.0000
30
0.0000
0
VERTEX
8
L0_WALL_INNER_FACE
10
110.0000
20
49.0000
30
0.0000
0
VERTEX
8
L0_WALL_INNER_FACE
10
84.0000
20
49.0000
30
0.0000
0
VERTEX
8
L0_WALL_INNER_FACE
10
84.0000
20
90.0000
30
0.0000
0
VERTEX
8
L0_WALL_INNER_FACE
10
84.0000
20
70.0000
30
0.0000
0
VERTEX
8
L0_WALL_INNER_FACE
10
84.0000
20
70.0000
30
0.0000
0
VERTEX
8
L0_WALL_INNER_FACE
10
84.0000
20
50.0000
30
0.0000
0
VERTEX
8
L0_WALL_INNER_FACE
10
109.0000
20
50.0000
30
0.0000
0
VERTEX
8
L0_WALL_INNER_FACE
10
109.0000
20
30.0000
30
0.0000
0
VERTEX
8
L0_WALL_INNER_FACE
10
109.0000
20
30.0000
30
0.0000
0
VERTEX
8
L0_WALL_INNER_FACE
10
109.0000
20
10.0000
30
0.0000
0
VERTEX
8
L0_WALL_INNER_FACE
10
109.0000
20
10.0000
30
0.0000
0
VERTEX
8
L0_WALL_INNER_FACE
10
109.0000
20
-10.0000
30
0.0000
0
VERTEX
8
L0_WALL_INNER_FACE
10
109.0000
20
-10.0000
30
0.0000
0
VERTEX
8
L0_WALL_INNER_FACE
10
109.0000
20
-30.0000
30
0.0000
0
VERTEX
8
L0_WALL_INNER_FACE
10
109.0000
20
-30.0000
30
0.0000
0
VERTEX
8
L0_WALL_INNER_FACE
10
109.0000
20
-50.0000
30
0.0000
0
VERTEX
8
L0_WALL_INNER_FACE
10
109.0000
20
-50.0000
30
0.0000
0
VERTEX
8
L0_WALL_INNER_FACE
10
109.0000
20
-70.0000
30
0.0000
0
VERTEX
8
L0_WALL_INNER_FACE
10
104.0000
20
-70.0000
30
0.0000
0
VERTEX
8
L0_WALL_INNER_FACE
10
104.0000
20
-90.0000
30
0.0000
0
VERTEX
8
L0_WALL_INNER_FACE
10
104.0000
20
-89.0000
30
0.0000
0
VERTEX
8
L0_WALL_INNER_FACE
10
110.0000
20
-89.0000
30
0.0000
0
VERTEX
8
L0_WALL_INNER_FACE
10
90.0000
20
-89.0000
30
0.0000
0
VERTEX
8
L0_WALL_INNER_FACE
10
90.0000
20
-89.0000
30
0.0000
0
VERTEX
8
L0_WALL_INNER_FACE
10
70.0000
20
-89.0000
30
0.0000
0
VERTEX
8
L0_WALL_INNER_FACE
10
70.0000
20
-89.0000
30
0.0000
0
VERTEX
8
L0_WALL_INNER_FACE
10
50.0000
20
-89.0000
30
0.0000
0
VERTEX
8
L0_WALL_INNER_FACE
10
50.0000
20
-89.0000
30
0.0000
0
VERTEX
8
L0_WALL_INNER_FACE
10
30.0000
20
-89.0000
30
0.0000
0
VERTEX
8
L0_WALL_INNER_FACE
10
30.0000
20
-89.0000
30
0.0000
0
VERTEX
8
L0_WALL_INNER_FACE
10
10.0000
20
-89.0000
30
0.0000
0
VERTEX
8
L0_WALL_INNER_FACE
10
10.0000
20
-89.0000
30
0.0000
0
VERTEX
8
L0_WALL_INNER_FACE
10
-10.0000
20
-89.0000
30
0.0000
0
VERTEX
8
L0_WALL_INNER_FACE
10
-10.0000
20
-89.0000
30
0.0000
0
VERTEX
8
L0_WALL_INNER_FACE
10
-30.0000
20
-89.0000
30
0.0000
0
VERTEX
8
L0_WALL_INNER_FACE
10
-30.0000
20
-76.5000
30
0.0000
0
VERTEX
8
L0_WALL_INNER_FACE
10
-50.0000
20
-76.5000
30
0.0000
0
VERTEX
8
L0_WALL_INNER_FACE
10
-50.0000
20
-89.0000
30
0.0000
0
VERTEX
8
L0_WALL_INNER_FACE
10
-70.0000
20
-89.0000
30
0.0000
0
VERTEX
8
L0_WALL_INNER_FACE
10
-70.0000
20
-89.0000
30
0.0000
0
VERTEX
8
L0_WALL_INNER_FACE
10
-90.0000
20
-89.0000
30
0.0000
0
VERTEX
8
L0_WALL_INNER_FACE
10
-90.0000
20
-89.0000
30
0.0000
0
VERTEX
8
L0_WALL_INNER_FACE
10
-110.0000
20
-89.0000
30
0.0000
0
VERTEX
8
L0_WALL_INNER_FACE
10
-109.0000
20
-89.0000
30
0.0000
0
SEQEND
8
L0_WALL_INNER_FACE
0
POLYLINE
8
L0_COURTYARD
62
3
66
1
70
1
10
0.0
20
0.0
30
0.0000
0
VERTEX
8
L0_COURTYARD
10
-40.0000
20
-30.0000
30
0.0000
0
VERTEX
8
L0_COURTYARD
10
40.0000
20
-30.0000
30
0.0000
0
VERTEX
8
L0_COURTYARD
10
40.0000
20
30.0000
30
0.0000
0
VERTEX
8
L0_COURTYARD
10
-40.0000
20
30.0000
30
0.0000
0
SEQEND
8
L0_COURTYARD
0
POLYLINE
8
L0_ROOM_CORE
62
7
66
1
70
1
10
0.0
20
0.0
30
0.0000
0
VERTEX
8
L0_ROOM_CORE
10
-45.0000
20
-77.5000
30
0.0000
0
VERTEX
8
L0_ROOM_CORE
10
-15.0000
20
-77.5000
30
0.0000
0
VERTEX
8
L0_ROOM_CORE
10
-15.0000
20
-52.5000
30
0.0000
0
VERTEX
8
L0_ROOM_CORE
10
-45.0000
20
-52.5000
30
0.0000
0
SEQEND
8
L0_ROOM_CORE
0
TEXT
8
L0_LABELS
10
-30.0000
20
-65.0000
30
0.0000
40
2.2500
1
Stair 01 + Lift | 750 SF
72
1
11
-30.0000
21
-65.0000
31
0.0000
0
POLYLINE
8
L0_ROOM_CORE
62
7
66
1
70
1
10
0.0
20
0.0
30
0.0000
0
VERTEX
8
L0_ROOM_CORE
10
15.0000
20
47.5000
30
0.0000
0
VERTEX
8
L0_ROOM_CORE
10
45.0000
20
47.5000
30
0.0000
0
VERTEX
8
L0_ROOM_CORE
10
45.0000
20
72.5000
30
0.0000
0
VERTEX
8
L0_ROOM_CORE
10
15.0000
20
72.5000
30
0.0000
0
SEQEND
8
L0_ROOM_CORE
0
TEXT
8
L0_LABELS
10
30.0000
20
60.0000
30
0.0000
40
2.2500
1
Stair 02 + Lift | 750 SF
72
1
11
30.0000
21
60.0000
31
0.0000
0
POLYLINE
8
L0_ROOM_CORE
62
7
66
1
70
1
10
0.0
20
0.0
30
0.0000
0
VERTEX
8
L0_ROOM_CORE
10
-90.0000
20
-62.5000
30
0.0000
0
VERTEX
8
L0_ROOM_CORE
10
-60.0000
20
-62.5000
30
0.0000
0
VERTEX
8
L0_ROOM_CORE
10
-60.0000
20
-37.5000
30
0.0000
0
VERTEX
8
L0_ROOM_CORE
10
-90.0000
20
-37.5000
30
0.0000
0
SEQEND
8
L0_ROOM_CORE
0
TEXT
8
L0_LABELS
10
-75.0000
20
-50.0000
30
0.0000
40
2.2500
1
Service Core + Risers | 750 SF
72
1
11
-75.0000
21
-50.0000
31
0.0000
0
POLYLINE
8
L0_ROOM_GYM
62
7
66
1
70
1
10
0.0
20
0.0
30
0.0000
0
VERTEX
8
L0_ROOM_GYM
10
-110.0000
20
30.0000
30
0.0000
0
VERTEX
8
L0_ROOM_GYM
10
-10.0000
20
30.0000
30
0.0000
0
VERTEX
8
L0_ROOM_GYM
10
-10.0000
20
80.0000
30
0.0000
0
VERTEX
8
L0_ROOM_GYM
10
-110.0000
20
80.0000
30
0.0000
0
SEQEND
8
L0_ROOM_GYM
0
TEXT
8
L0_LABELS
10
-60.0000
20
55.0000
30
0.0000
40
4.5000
1
Gymnasium 101 | 5000 SF
72
1
11
-60.0000
21
55.0000
31
0.0000
0
POLYLINE
8
L0_ROOM_CAFETERIA
62
7
66
1
70
1
10
0.0
20
0.0
30
0.0000
0
VERTEX
8
L0_ROOM_CAFETERIA
10
-110.0000
20
-35.0000
30
0.0000
0
VERTEX
8
L0_ROOM_CAFETERIA
10
-50.0000
20
-35.0000
30
0.0000
0
VERTEX
8
L0_ROOM_CAFETERIA
10
-50.0000
20
15.0000
30
0.0000
0
VERTEX
8
L0_ROOM_CAFETERIA
10
-110.0000
20
15.0000
30
0.0000
0
SEQEND
8
L0_ROOM_CAFETERIA
0
TEXT
8
L0_LABELS
10
-80.0000
20
-10.0000
30
0.0000
40
4.5000
1
Cafeteria / Commons 101 | 3000 SF
72
1
11
-80.0000
21
-10.0000
31
0.0000
0
POLYLINE
8
L0_ROOM_KITCHEN
62
7
66
1
70
1
10
0.0
20
0.0
30
0.0000
0
VERTEX
8
L0_ROOM_KITCHEN
10
-15.0000
20
-90.0000
30
0.0000
0
VERTEX
8
L0_ROOM_KITCHEN
10
35.0000
20
-90.0000
30
0.0000
0
VERTEX
8
L0_ROOM_KITCHEN
10
35.0000
20
-60.0000
30
0.0000
0
VERTEX
8
L0_ROOM_KITCHEN
10
-15.0000
20
-60.0000
30
0.0000
0
SEQEND
8
L0_ROOM_KITCHEN
0
TEXT
8
L0_LABELS
10
10.0000
20
-75.0000
30
0.0000
40
2.7000
1
Kitchen / Servery 101 | 1500 SF
72
1
11
10.0000
21
-75.0000
31
0.0000
0
POLYLINE
8
L0_ROOM_STAGE
62
7
66
1
70
1
10
0.0
20
0.0
30
0.0000
0
VERTEX
8
L0_ROOM_STAGE
10
35.0000
20
-90.0000
30
0.0000
0
VERTEX
8
L0_ROOM_STAGE
10
75.0000
20
-90.0000
30
0.0000
0
VERTEX
8
L0_ROOM_STAGE
10
75.0000
20
-60.0000
30
0.0000
0
VERTEX
8
L0_ROOM_STAGE
10
35.0000
20
-60.0000
30
0.0000
0
SEQEND
8
L0_ROOM_STAGE
0
TEXT
8
L0_LABELS
10
55.0000
20
-75.0000
30
0.0000
40
2.7000
1
Stage / Assembly 101 | 1200 SF
72
1
11
55.0000
21
-75.0000
31
0.0000
0
POLYLINE
8
L0_ROOM_LOBBY
62
7
66
1
70
1
10
0.0
20
0.0
30
0.0000
0
VERTEX
8
L0_ROOM_LOBBY
10
45.0000
20
50.0000
30
0.0000
0
VERTEX
8
L0_ROOM_LOBBY
10
85.0000
20
50.0000
30
0.0000
0
VERTEX
8
L0_ROOM_LOBBY
10
85.0000
20
90.0000
30
0.0000
0
VERTEX
8
L0_ROOM_LOBBY
10
45.0000
20
90.0000
30
0.0000
0
SEQEND
8
L0_ROOM_LOBBY
0
TEXT
8
L0_LABELS
10
65.0000
20
70.0000
30
0.0000
40
3.6000
1
Entry / Lobby 101 | 1600 SF
72
1
11
65.0000
21
70.0000
31
0.0000
0
POLYLINE
8
L0_ROOM_ADMIN
62
7
66
1
70
1
10
0.0
20
0.0
30
0.0000
0
VERTEX
8
L0_ROOM_ADMIN
10
50.0000
20
-60.0000
30
0.0000
0
VERTEX
8
L0_ROOM_ADMIN
10
110.0000
20
-60.0000
30
0.0000
0
VERTEX
8
L0_ROOM_ADMIN
10
110.0000
20
-30.0000
30
0.0000
0
VERTEX
8
L0_ROOM_ADMIN
10
50.0000
20
-30.0000
30
0.0000
0
SEQEND
8
L0_ROOM_ADMIN
0
TEXT
8
L0_LABELS
10
80.0000
20
-45.0000
30
0.0000
40
2.7000
1
Administration 101 | 1800 SF
72
1
11
80.0000
21
-45.0000
31
0.0000
0
POLYLINE
8
L0_ROOM_HEALTH
62
7
66
1
70
1
10
0.0
20
0.0
30
0.0000
0
VERTEX
8
L0_ROOM_HEALTH
10
-110.0000
20
-90.0000
30
0.0000
0
VERTEX
8
L0_ROOM_HEALTH
10
-80.0000
20
-90.0000
30
0.0000
0
VERTEX
8
L0_ROOM_HEALTH
10
-80.0000
20
-70.0000
30
0.0000
0
VERTEX
8
L0_ROOM_HEALTH
10
-110.0000
20
-70.0000
30
0.0000
0
SEQEND
8
L0_ROOM_HEALTH
0
TEXT
8
L0_LABELS
10
-95.0000
20
-80.0000
30
0.0000
40
1.8000
1
Health / Counseling 101 | 600 SF
72
1
11
-95.0000
21
-80.0000
31
0.0000
0
POLYLINE
8
L0_ROOM_STAFF
62
7
66
1
70
1
10
0.0
20
0.0
30
0.0000
0
VERTEX
8
L0_ROOM_STAFF
10
75.0000
20
-90.0000
30
0.0000
0
VERTEX
8
L0_ROOM_STAFF
10
105.0000
20
-90.0000
30
0.0000
0
VERTEX
8
L0_ROOM_STAFF
10
105.0000
20
-60.0000
30
0.0000
0
VERTEX
8
L0_ROOM_STAFF
10
75.0000
20
-60.0000
30
0.0000
0
SEQEND
8
L0_ROOM_STAFF
0
TEXT
8
L0_LABELS
10
90.0000
20
-75.0000
30
0.0000
40
2.7000
1
Staff / Workroom 101 | 900 SF
72
1
11
90.0000
21
-75.0000
31
0.0000
0
POLYLINE
8
L0_ROOM_KINDER
62
7
66
1
70
1
10
0.0
20
0.0
30
0.0000
0
VERTEX
8
L0_ROOM_KINDER
10
70.0000
20
-30.0000
30
0.0000
0
VERTEX
8
L0_ROOM_KINDER
10
110.0000
20
-30.0000
30
0.0000
0
VERTEX
8
L0_ROOM_KINDER
10
110.0000
20
0.0000
30
0.0000
0
VERTEX
8
L0_ROOM_KINDER
10
70.0000
20
0.0000
30
0.0000
0
SEQEND
8
L0_ROOM_KINDER
0
TEXT
8
L0_LABELS
10
90.0000
20
-15.0000
30
0.0000
40
2.7000
1
Kindergarten 101 | 1200 SF
72
1
11
90.0000
21
-15.0000
31
0.0000
0
POLYLINE
8
L0_ROOM_KINDER
62
7
66
1
70
1
10
0.0
20
0.0
30
0.0000
0
VERTEX
8
L0_ROOM_KINDER
10
70.0000
20
0.0000
30
0.0000
0
VERTEX
8
L0_ROOM_KINDER
10
110.0000
20
0.0000
30
0.0000
0
VERTEX
8
L0_ROOM_KINDER
10
110.0000
20
30.0000
30
0.0000
0
VERTEX
8
L0_ROOM_KINDER
10
70.0000
20
30.0000
30
0.0000
0
SEQEND
8
L0_ROOM_KINDER
0
TEXT
8
L0_LABELS
10
90.0000
20
15.0000
30
0.0000
40
2.7000
1
Kindergarten 102 | 1200 SF
72
1
11
90.0000
21
15.0000
31
0.0000
0
POLYLINE
8
L0_ROOM_KINDER
62
7
66
1
70
1
10
0.0
20
0.0
30
0.0000
0
VERTEX
8
L0_ROOM_KINDER
10
-15.0000
20
-60.0000
30
0.0000
0
VERTEX
8
L0_ROOM_KINDER
10
25.0000
20
-60.0000
30
0.0000
0
VERTEX
8
L0_ROOM_KINDER
10
25.0000
20
-30.0000
30
0.0000
0
VERTEX
8
L0_ROOM_KINDER
10
-15.0000
20
-30.0000
30
0.0000
0
SEQEND
8
L0_ROOM_KINDER
0
TEXT
8
L0_LABELS
10
5.0000
20
-45.0000
30
0.0000
40
2.7000
1
Kindergarten 103 | 1200 SF
72
1
11
5.0000
21
-45.0000
31
0.0000
0
POLYLINE
8
L0_ROOM_KINDER
62
7
66
1
70
1
10
0.0
20
0.0
30
0.0000
0
VERTEX
8
L0_ROOM_KINDER
10
-10.0000
20
75.0000
30
0.0000
0
VERTEX
8
L0_ROOM_KINDER
10
30.0000
20
75.0000
30
0.0000
0
VERTEX
8
L0_ROOM_KINDER
10
30.0000
20
105.0000
30
0.0000
0
VERTEX
8
L0_ROOM_KINDER
10
-10.0000
20
105.0000
30
0.0000
0
SEQEND
8
L0_ROOM_KINDER
0
TEXT
8
L0_LABELS
10
10.0000
20
90.0000
30
0.0000
40
2.7000
1
Kindergarten 104 | 1200 SF
72
1
11
10.0000
21
90.0000
31
0.0000
0
POLYLINE
8
L0_ROOM_TOILETS
62
7
66
1
70
1
10
0.0
20
0.0
30
0.0000
0
VERTEX
8
L0_ROOM_TOILETS
10
-80.0000
20
-90.0000
30
0.0000
0
VERTEX
8
L0_ROOM_TOILETS
10
-55.0000
20
-90.0000
30
0.0000
0
VERTEX
8
L0_ROOM_TOILETS
10
-55.0000
20
-70.0000
30
0.0000
0
VERTEX
8
L0_ROOM_TOILETS
10
-80.0000
20
-70.0000
30
0.0000
0
SEQEND
8
L0_ROOM_TOILETS
0
TEXT
8
L0_LABELS
10
-67.5000
20
-80.0000
30
0.0000
40
1.8000
1
Toilet Group 101 | 500 SF
72
1
11
-67.5000
21
-80.0000
31
0.0000
0
POLYLINE
8
L0_ROOM_TOILETS
62
7
66
1
70
1
10
0.0
20
0.0
30
0.0000
0
VERTEX
8
L0_ROOM_TOILETS
10
85.0000
20
30.0000
30
0.0000
0
VERTEX
8
L0_ROOM_TOILETS
10
110.0000
20
30.0000
30
0.0000
0
VERTEX
8
L0_ROOM_TOILETS
10
110.0000
20
50.0000
30
0.0000
0
VERTEX
8
L0_ROOM_TOILETS
10
85.0000
20
50.0000
30
0.0000
0
SEQEND
8
L0_ROOM_TOILETS
0
TEXT
8
L0_LABELS
10
97.5000
20
40.0000
30
0.0000
40
1.8000
1
Toilet Group 102 | 500 SF
72
1
11
97.5000
21
40.0000
31
0.0000
0
POLYLINE
8
L0_ROOM_STORAGE
62
7
66
1
70
1
10
0.0
20
0.0
30
0.0000
0
VERTEX
8
L0_ROOM_STORAGE
10
-110.0000
20
-70.0000
30
0.0000
0
VERTEX
8
L0_ROOM_STORAGE
10
-90.0000
20
-70.0000
30
0.0000
0
VERTEX
8
L0_ROOM_STORAGE
10
-90.0000
20
-50.0000
30
0.0000
0
VERTEX
8
L0_ROOM_STORAGE
10
-110.0000
20
-50.0000
30
0.0000
0
SEQEND
8
L0_ROOM_STORAGE
0
TEXT
8
L0_LABELS
10
-100.0000
20
-60.0000
30
0.0000
40
1.8000
1
Storage / Support 101 | 400 SF
72
1
11
-100.0000
21
-60.0000
31
0.0000
0
POLYLINE
8
L0_ROOM_STORAGE
62
7
66
1
70
1
10
0.0
20
0.0
30
0.0000
0
VERTEX
8
L0_ROOM_STORAGE
10
-10.0000
20
30.0000
30
0.0000
0
VERTEX
8
L0_ROOM_STORAGE
10
10.0000
20
30.0000
30
0.0000
0
VERTEX
8
L0_ROOM_STORAGE
10
10.0000
20
50.0000
30
0.0000
0
VERTEX
8
L0_ROOM_STORAGE
10
-10.0000
20
50.0000
30
0.0000
0
SEQEND
8
L0_ROOM_STORAGE
0
TEXT
8
L0_LABELS
10
0.0000
20
40.0000
30
0.0000
40
1.8000
1
Storage / Support 102 | 400 SF
72
1
11
0.0000
21
40.0000
31
0.0000
0
POLYLINE
8
L0_ROOM_MECH
62
7
66
1
70
1
10
0.0
20
0.0
30
0.0000
0
VERTEX
8
L0_ROOM_MECH
10
45.0000
20
30.0000
30
0.0000
0
VERTEX
8
L0_ROOM_MECH
10
85.0000
20
30.0000
30
0.0000
0
VERTEX
8
L0_ROOM_MECH
10
85.0000
20
50.0000
30
0.0000
0
VERTEX
8
L0_ROOM_MECH
10
45.0000
20
50.0000
30
0.0000
0
SEQEND
8
L0_ROOM_MECH
0
TEXT
8
L0_LABELS
10
65.0000
20
40.0000
30
0.0000
40
1.8000
1
Mech / Electrical 101 | 800 SF
72
1
11
65.0000
21
40.0000
31
0.0000
0
POLYLINE
8
L0_ROOM_OUTDOOR
62
7
66
1
70
1
10
0.0
20
0.0
30
0.0000
0
VERTEX
8
L0_ROOM_OUTDOOR
10
-20.0000
20
-20.0000
30
0.0000
0
VERTEX
8
L0_ROOM_OUTDOOR
10
20.0000
20
-20.0000
30
0.0000
0
VERTEX
8
L0_ROOM_OUTDOOR
10
20.0000
20
20.0000
30
0.0000
0
VERTEX
8
L0_ROOM_OUTDOOR
10
-20.0000
20
20.0000
30
0.0000
0
SEQEND
8
L0_ROOM_OUTDOOR
0
TEXT
8
L0_LABELS
10
0.0000
20
0.0000
30
0.0000
40
3.6000
1
Outdoor Learning 101 | 1600 SF
72
1
11
0.0000
21
0.0000
31
0.0000
0
POLYLINE
8
L1_EXTERIOR_WALL
62
5
66
1
70
1
10
0.0
20
0.0
30
14.0000
0
VERTEX
8
L1_EXTERIOR_WALL
10
-26.4140
20
-139.6506
30
14.0000
0
VERTEX
8
L1_EXTERIOR_WALL
10
-39.2698
20
-124.3297
30
14.0000
0
VERTEX
8
L1_EXTERIOR_WALL
10
-39.2698
20
-124.3297
30
14.0000
0
VERTEX
8
L1_EXTERIOR_WALL
10
-52.1255
20
-109.0089
30
14.0000
0
VERTEX
8
L1_EXTERIOR_WALL
10
-52.1255
20
-109.0089
30
14.0000
0
VERTEX
8
L1_EXTERIOR_WALL
10
-64.9813
20
-93.6880
30
14.0000
0
VERTEX
8
L1_EXTERIOR_WALL
10
-64.9813
20
-93.6880
30
14.0000
0
VERTEX
8
L1_EXTERIOR_WALL
10
-77.8370
20
-78.3671
30
14.0000
0
VERTEX
8
L1_EXTERIOR_WALL
10
-77.8370
20
-78.3671
30
14.0000
0
VERTEX
8
L1_EXTERIOR_WALL
10
-90.6928
20
-63.0462
30
14.0000
0
VERTEX
8
L1_EXTERIOR_WALL
10
-90.6928
20
-63.0462
30
14.0000
0
VERTEX
8
L1_EXTERIOR_WALL
10
-103.5485
20
-47.7253
30
14.0000
0
VERTEX
8
L1_EXTERIOR_WALL
10
-103.5485
20
-47.7253
30
14.0000
0
VERTEX
8
L1_EXTERIOR_WALL
10
-116.4043
20
-32.4044
30
14.0000
0
VERTEX
8
L1_EXTERIOR_WALL
10
-116.4043
20
-32.4044
30
14.0000
0
VERTEX
8
L1_EXTERIOR_WALL
10
-129.2600
20
-17.0835
30
14.0000
0
VERTEX
8
L1_EXTERIOR_WALL
10
-129.2600
20
-17.0835
30
14.0000
0
VERTEX
8
L1_EXTERIOR_WALL
10
-142.1158
20
-1.7626
30
14.0000
0
VERTEX
8
L1_EXTERIOR_WALL
10
-132.4740
20
-13.2533
30
14.0000
0
VERTEX
8
L1_EXTERIOR_WALL
10
-132.4740
20
-13.2533
30
14.0000
0
VERTEX
8
L1_EXTERIOR_WALL
10
-117.1531
20
-0.3976
30
14.0000
0
VERTEX
8
L1_EXTERIOR_WALL
10
-117.1531
20
-0.3976
30
14.0000
0
VERTEX
8
L1_EXTERIOR_WALL
10
-101.8322
20
12.4582
30
14.0000
0
VERTEX
8
L1_EXTERIOR_WALL
10
-111.4740
20
23.9489
30
14.0000
0
VERTEX
8
L1_EXTERIOR_WALL
10
-96.1531
20
36.8046
30
14.0000
0
VERTEX
8
L1_EXTERIOR_WALL
10
-96.1531
20
36.8046
30
14.0000
0
VERTEX
8
L1_EXTERIOR_WALL
10
-80.8322
20
49.6604
30
14.0000
0
VERTEX
8
L1_EXTERIOR_WALL
10
-80.8322
20
49.6604
30
14.0000
0
VERTEX
8
L1_EXTERIOR_WALL
10
-65.5113
20
62.5161
30
14.0000
0
VERTEX
8
L1_EXTERIOR_WALL
10
-65.5113
20
62.5161
30
14.0000
0
VERTEX
8
L1_EXTERIOR_WALL
10
-50.1904
20
75.3719
30
14.0000
0
VERTEX
8
L1_EXTERIOR_WALL
10
-50.1904
20
75.3719
30
14.0000
0
VERTEX
8
L1_EXTERIOR_WALL
10
-34.8696
20
88.2276
30
14.0000
0
VERTEX
8
L1_EXTERIOR_WALL
10
-34.8696
20
88.2276
30
14.0000
0
VERTEX
8
L1_EXTERIOR_WALL
10
-19.5487
20
101.0834
30
14.0000
0
VERTEX
8
L1_EXTERIOR_WALL
10
-19.5487
20
101.0834
30
14.0000
0
VERTEX
8
L1_EXTERIOR_WALL
10
-4.2278
20
113.9391
30
14.0000
0
VERTEX
8
L1_EXTERIOR_WALL
10
-4.2278
20
113.9391
30
14.0000
0
VERTEX
8
L1_EXTERIOR_WALL
10
11.0931
20
126.7949
30
14.0000
0
VERTEX
8
L1_EXTERIOR_WALL
10
33.5907
20
99.9833
30
14.0000
0
VERTEX
8
L1_EXTERIOR_WALL
10
48.9116
20
112.8391
30
14.0000
0
VERTEX
8
L1_EXTERIOR_WALL
10
30.5265
20
97.4122
30
14.0000
0
VERTEX
8
L1_EXTERIOR_WALL
10
8.0289
20
124.2237
30
14.0000
0
VERTEX
8
L1_EXTERIOR_WALL
10
20.8847
20
108.9028
30
14.0000
0
VERTEX
8
L1_EXTERIOR_WALL
10
39.2698
20
124.3297
30
14.0000
0
VERTEX
8
L1_EXTERIOR_WALL
10
52.1255
20
109.0089
30
14.0000
0
VERTEX
8
L1_EXTERIOR_WALL
10
52.1255
20
109.0089
30
14.0000
0
VERTEX
8
L1_EXTERIOR_WALL
10
64.9813
20
93.6880
30
14.0000
0
VERTEX
8
L1_EXTERIOR_WALL
10
64.9813
20
93.6880
30
14.0000
0
VERTEX
8
L1_EXTERIOR_WALL
10
77.8370
20
78.3671
30
14.0000
0
VERTEX
8
L1_EXTERIOR_WALL
10
77.8370
20
78.3671
30
14.0000
0
VERTEX
8
L1_EXTERIOR_WALL
10
90.6928
20
63.0462
30
14.0000
0
VERTEX
8
L1_EXTERIOR_WALL
10
90.6928
20
63.0462
30
14.0000
0
VERTEX
8
L1_EXTERIOR_WALL
10
103.5485
20
47.7253
30
14.0000
0
VERTEX
8
L1_EXTERIOR_WALL
10
103.5485
20
47.7253
30
14.0000
0
VERTEX
8
L1_EXTERIOR_WALL
10
116.4043
20
32.4044
30
14.0000
0
VERTEX
8
L1_EXTERIOR_WALL
10
116.4043
20
32.4044
30
14.0000
0
VERTEX
8
L1_EXTERIOR_WALL
10
129.2600
20
17.0835
30
14.0000
0
VERTEX
8
L1_EXTERIOR_WALL
10
129.2600
20
17.0835
30
14.0000
0
VERTEX
8
L1_EXTERIOR_WALL
10
142.1158
20
1.7626
30
14.0000
0
VERTEX
8
L1_EXTERIOR_WALL
10
142.1158
20
1.7626
30
14.0000
0
VERTEX
8
L1_EXTERIOR_WALL
10
142.1158
20
1.7626
30
14.0000
0
VERTEX
8
L1_EXTERIOR_WALL
10
126.7949
20
-11.0931
30
14.0000
0
VERTEX
8
L1_EXTERIOR_WALL
10
126.7949
20
-11.0931
30
14.0000
0
VERTEX
8
L1_EXTERIOR_WALL
10
111.4740
20
-23.9489
30
14.0000
0
VERTEX
8
L1_EXTERIOR_WALL
10
111.4740
20
-23.9489
30
14.0000
0
VERTEX
8
L1_EXTERIOR_WALL
10
96.1531
20
-36.8046
30
14.0000
0
VERTEX
8
L1_EXTERIOR_WALL
10
96.1531
20
-36.8046
30
14.0000
0
VERTEX
8
L1_EXTERIOR_WALL
10
80.8322
20
-49.6604
30
14.0000
0
VERTEX
8
L1_EXTERIOR_WALL
10
80.8322
20
-49.6604
30
14.0000
0
VERTEX
8
L1_EXTERIOR_WALL
10
65.5113
20
-62.5161
30
14.0000
0
VERTEX
8
L1_EXTERIOR_WALL
10
65.5113
20
-62.5161
30
14.0000
0
VERTEX
8
L1_EXTERIOR_WALL
10
50.1904
20
-75.3719
30
14.0000
0
VERTEX
8
L1_EXTERIOR_WALL
10
50.1904
20
-75.3719
30
14.0000
0
VERTEX
8
L1_EXTERIOR_WALL
10
34.8696
20
-88.2276
30
14.0000
0
VERTEX
8
L1_EXTERIOR_WALL
10
34.8696
20
-88.2276
30
14.0000
0
VERTEX
8
L1_EXTERIOR_WALL
10
19.5487
20
-101.0834
30
14.0000
0
VERTEX
8
L1_EXTERIOR_WALL
10
19.5487
20
-101.0834
30
14.0000
0
VERTEX
8
L1_EXTERIOR_WALL
10
4.2278
20
-113.9391
30
14.0000
0
VERTEX
8
L1_EXTERIOR_WALL
10
4.2278
20
-113.9391
30
14.0000
0
VERTEX
8
L1_EXTERIOR_WALL
10
-11.0931
20
-126.7949
30
14.0000
0
VERTEX
8
L1_EXTERIOR_WALL
10
-11.0931
20
-126.7949
30
14.0000
0
VERTEX
8
L1_EXTERIOR_WALL
10
-26.4140
20
-139.6506
30
14.0000
0
VERTEX
8
L1_EXTERIOR_WALL
10
-26.4140
20
-139.6506
30
14.0000
0
SEQEND
8
L1_EXTERIOR_WALL
0
POLYLINE
8
L1_WALL_INNER_FACE
62
8
66
1
70
1
10
0.0
20
0.0
30
14.0000
0
VERTEX
8
L1_WALL_INNER_FACE
10
-25.6480
20
-139.0078
30
14.0000
0
VERTEX
8
L1_WALL_INNER_FACE
10
-38.5037
20
-123.6870
30
14.0000
0
VERTEX
8
L1_WALL_INNER_FACE
10
-38.5037
20
-123.6870
30
14.0000
0
VERTEX
8
L1_WALL_INNER_FACE
10
-51.3595
20
-108.3661
30
14.0000
0
VERTEX
8
L1_WALL_INNER_FACE
10
-51.3595
20
-108.3661
30
14.0000
0
VERTEX
8
L1_WALL_INNER_FACE
10
-64.2152
20
-93.0452
30
14.0000
0
VERTEX
8
L1_WALL_INNER_FACE
10
-64.2152
20
-93.0452
30
14.0000
0
VERTEX
8
L1_WALL_INNER_FACE
10
-77.0710
20
-77.7243
30
14.0000
0
VERTEX
8
L1_WALL_INNER_FACE
10
-77.0710
20
-77.7243
30
14.0000
0
VERTEX
8
L1_WALL_INNER_FACE
10
-89.9267
20
-62.4034
30
14.0000
0
VERTEX
8
L1_WALL_INNER_FACE
10
-89.9267
20
-62.4034
30
14.0000
0
VERTEX
8
L1_WALL_INNER_FACE
10
-102.7825
20
-47.0825
30
14.0000
0
VERTEX
8
L1_WALL_INNER_FACE
10
-102.7825
20
-47.0825
30
14.0000
0
VERTEX
8
L1_WALL_INNER_FACE
10
-115.6382
20
-31.7616
30
14.0000
0
VERTEX
8
L1_WALL_INNER_FACE
10
-115.6382
20
-31.7616
30
14.0000
0
VERTEX
8
L1_WALL_INNER_FACE
10
-128.4940
20
-16.4407
30
14.0000
0
VERTEX
8
L1_WALL_INNER_FACE
10
-128.4940
20
-16.4407
30
14.0000
0
VERTEX
8
L1_WALL_INNER_FACE
10
-141.3497
20
-1.1198
30
14.0000
0
VERTEX
8
L1_WALL_INNER_FACE
10
-131.0651
20
-13.3766
30
14.0000
0
VERTEX
8
L1_WALL_INNER_FACE
10
-131.8312
20
-14.0193
30
14.0000
0
VERTEX
8
L1_WALL_INNER_FACE
10
-116.5103
20
-1.1636
30
14.0000
0
VERTEX
8
L1_WALL_INNER_FACE
10
-116.5103
20
-1.1636
30
14.0000
0
VERTEX
8
L1_WALL_INNER_FACE
10
-101.1894
20
11.6922
30
14.0000
0
VERTEX
8
L1_WALL_INNER_FACE
10
-110.8312
20
23.1828
30
14.0000
0
VERTEX
8
L1_WALL_INNER_FACE
10
-95.5103
20
36.0386
30
14.0000
0
VERTEX
8
L1_WALL_INNER_FACE
10
-95.5103
20
36.0386
30
14.0000
0
VERTEX
8
L1_WALL_INNER_FACE
10
-80.1894
20
48.8943
30
14.0000
0
VERTEX
8
L1_WALL_INNER_FACE
10
-80.1894
20
48.8943
30
14.0000
0
VERTEX
8
L1_WALL_INNER_FACE
10
-64.8685
20
61.7501
30
14.0000
0
VERTEX
8
L1_WALL_INNER_FACE
10
-64.8685
20
61.7501
30
14.0000
0
VERTEX
8
L1_WALL_INNER_FACE
10
-49.5477
20
74.6058
30
14.0000
0
VERTEX
8
L1_WALL_INNER_FACE
10
-49.5477
20
74.6058
30
14.0000
0
VERTEX
8
L1_WALL_INNER_FACE
10
-34.2268
20
87.4616
30
14.0000
0
VERTEX
8
L1_WALL_INNER_FACE
10
-34.2268
20
87.4616
30
14.0000
0
VERTEX
8
L1_WALL_INNER_FACE
10
-18.9059
20
100.3173
30
14.0000
0
VERTEX
8
L1_WALL_INNER_FACE
10
-18.9059
20
100.3173
30
14.0000
0
VERTEX
8
L1_WALL_INNER_FACE
10
-3.5850
20
113.1731
30
14.0000
0
VERTEX
8
L1_WALL_INNER_FACE
10
-3.5850
20
113.1731
30
14.0000
0
VERTEX
8
L1_WALL_INNER_FACE
10
11.7359
20
126.0288
30
14.0000
0
VERTEX
8
L1_WALL_INNER_FACE
10
34.2335
20
99.2173
30
14.0000
0
VERTEX
8
L1_WALL_INNER_FACE
10
49.5544
20
112.0730
30
14.0000
0
VERTEX
8
L1_WALL_INNER_FACE
10
30.4032
20
96.0033
30
14.0000
0
VERTEX
8
L1_WALL_INNER_FACE
10
7.2629
20
123.5809
30
14.0000
0
VERTEX
8
L1_WALL_INNER_FACE
10
20.1186
20
108.2601
30
14.0000
0
VERTEX
8
L1_WALL_INNER_FACE
10
38.5037
20
123.6870
30
14.0000
0
VERTEX
8
L1_WALL_INNER_FACE
10
51.3595
20
108.3661
30
14.0000
0
VERTEX
8
L1_WALL_INNER_FACE
10
51.3595
20
108.3661
30
14.0000
0
VERTEX
8
L1_WALL_INNER_FACE
10
64.2152
20
93.0452
30
14.0000
0
VERTEX
8
L1_WALL_INNER_FACE
10
64.2152
20
93.0452
30
14.0000
0
VERTEX
8
L1_WALL_INNER_FACE
10
77.0710
20
77.7243
30
14.0000
0
VERTEX
8
L1_WALL_INNER_FACE
10
77.0710
20
77.7243
30
14.0000
0
VERTEX
8
L1_WALL_INNER_FACE
10
89.9267
20
62.4034
30
14.0000
0
VERTEX
8
L1_WALL_INNER_FACE
10
89.9267
20
62.4034
30
14.0000
0
VERTEX
8
L1_WALL_INNER_FACE
10
102.7825
20
47.0825
30
14.0000
0
VERTEX
8
L1_WALL_INNER_FACE
10
102.7825
20
47.0825
30
14.0000
0
VERTEX
8
L1_WALL_INNER_FACE
10
115.6382
20
31.7616
30
14.0000
0
VERTEX
8
L1_WALL_INNER_FACE
10
115.6382
20
31.7616
30
14.0000
0
VERTEX
8
L1_WALL_INNER_FACE
10
128.4940
20
16.4407
30
14.0000
0
VERTEX
8
L1_WALL_INNER_FACE
10
128.4940
20
16.4407
30
14.0000
0
VERTEX
8
L1_WALL_INNER_FACE
10
141.3497
20
1.1198
30
14.0000
0
VERTEX
8
L1_WALL_INNER_FACE
10
140.7069
20
1.8859
30
14.0000
0
VERTEX
8
L1_WALL_INNER_FACE
10
141.4730
20
2.5287
30
14.0000
0
VERTEX
8
L1_WALL_INNER_FACE
10
126.1521
20
-10.3271
30
14.0000
0
VERTEX
8
L1_WALL_INNER_FACE
10
126.1521
20
-10.3271
30
14.0000
0
VERTEX
8
L1_WALL_INNER_FACE
10
110.8312
20
-23.1828
30
14.0000
0
VERTEX
8
L1_WALL_INNER_FACE
10
110.8312
20
-23.1828
30
14.0000
0
VERTEX
8
L1_WALL_INNER_FACE
10
95.5103
20
-36.0386
30
14.0000
0
VERTEX
8
L1_WALL_INNER_FACE
10
95.5103
20
-36.0386
30
14.0000
0
VERTEX
8
L1_WALL_INNER_FACE
10
80.1894
20
-48.8943
30
14.0000
0
VERTEX
8
L1_WALL_INNER_FACE
10
80.1894
20
-48.8943
30
14.0000
0
VERTEX
8
L1_WALL_INNER_FACE
10
64.8685
20
-61.7501
30
14.0000
0
VERTEX
8
L1_WALL_INNER_FACE
10
64.8685
20
-61.7501
30
14.0000
0
VERTEX
8
L1_WALL_INNER_FACE
10
49.5477
20
-74.6058
30
14.0000
0
VERTEX
8
L1_WALL_INNER_FACE
10
49.5477
20
-74.6058
30
14.0000
0
VERTEX
8
L1_WALL_INNER_FACE
10
34.2268
20
-87.4616
30
14.0000
0
VERTEX
8
L1_WALL_INNER_FACE
10
34.2268
20
-87.4616
30
14.0000
0
VERTEX
8
L1_WALL_INNER_FACE
10
18.9059
20
-100.3173
30
14.0000
0
VERTEX
8
L1_WALL_INNER_FACE
10
18.9059
20
-100.3173
30
14.0000
0
VERTEX
8
L1_WALL_INNER_FACE
10
3.5850
20
-113.1731
30
14.0000
0
VERTEX
8
L1_WALL_INNER_FACE
10
3.5850
20
-113.1731
30
14.0000
0
VERTEX
8
L1_WALL_INNER_FACE
10
-11.7359
20
-126.0288
30
14.0000
0
VERTEX
8
L1_WALL_INNER_FACE
10
-11.7359
20
-126.0288
30
14.0000
0
VERTEX
8
L1_WALL_INNER_FACE
10
-27.0568
20
-138.8846
30
14.0000
0
VERTEX
8
L1_WALL_INNER_FACE
10
-26.2907
20
-138.2418
30
14.0000
0
SEQEND
8
L1_WALL_INNER_FACE
0
POLYLINE
8
L1_COURTYARD
62
3
66
1
70
1
10
0.0
20
0.0
30
14.0000
0
VERTEX
8
L1_COURTYARD
10
-11.3581
20
-48.6928
30
14.0000
0
VERTEX
8
L1_COURTYARD
10
49.9254
20
2.7302
30
14.0000
0
VERTEX
8
L1_COURTYARD
10
11.3581
20
48.6928
30
14.0000
0
VERTEX
8
L1_COURTYARD
10
-49.9254
20
-2.7302
30
14.0000
0
SEQEND
8
L1_COURTYARD
0
POLYLINE
8
L1_ROOM_CORE
62
7
66
1
70
1
10
0.0
20
0.0
30
14.0000
0
VERTEX
8
L1_ROOM_CORE
10
-33.4558
20
-84.2174
30
14.0000
0
VERTEX
8
L1_ROOM_CORE
10
-10.4745
20
-64.9337
30
14.0000
0
VERTEX
8
L1_ROOM_CORE
10
-26.5442
20
-45.7826
30
14.0000
0
VERTEX
8
L1_ROOM_CORE
10
-49.5255
20
-65.0663
30
14.0000
0
SEQEND
8
L1_ROOM_CORE
0
TEXT
8
L1_LABELS
10
-30.0000
20
-65.0000
30
14.0000
40
2.2500
1
Stair 01 + Lift | 750 SF
72
1
11
-30.0000
21
-65.0000
31
14.0000
0
POLYLINE
8
L1_ROOM_CORE
62
7
66
1
70
1
10
0.0
20
0.0
30
14.0000
0
VERTEX
8
L1_ROOM_CORE
10
26.5442
20
40.7826
30
14.0000
0
VERTEX
8
L1_ROOM_CORE
10
49.5255
20
60.0663
30
14.0000
0
VERTEX
8
L1_ROOM_CORE
10
33.4558
20
79.2174
30
14.0000
0
VERTEX
8
L1_ROOM_CORE
10
10.4745
20
59.9337
30
14.0000
0
SEQEND
8
L1_ROOM_CORE
0
TEXT
8
L1_LABELS
10
30.0000
20
60.0000
30
14.0000
40
2.2500
1
Stair 02 + Lift | 750 SF
72
1
11
30.0000
21
60.0000
31
14.0000
0
POLYLINE
8
L1_ROOM_CORE
62
7
66
1
70
1
10
0.0
20
0.0
30
14.0000
0
VERTEX
8
L1_ROOM_CORE
10
-78.4558
20
-69.2174
30
14.0000
0
VERTEX
8
L1_ROOM_CORE
10
-55.4745
20
-49.9337
30
14.0000
0
VERTEX
8
L1_ROOM_CORE
10
-71.5442
20
-30.7826
30
14.0000
0
VERTEX
8
L1_ROOM_CORE
10
-94.5255
20
-50.0663
30
14.0000
0
SEQEND
8
L1_ROOM_CORE
0
TEXT
8
L1_LABELS
10
-75.0000
20
-50.0000
30
14.0000
40
2.2500
1
Service Core + Risers | 750 SF
72
1
11
-75.0000
21
-50.0000
31
14.0000
0
POLYLINE
8
L1_ROOM_CLASSROOM
62
7
66
1
70
1
10
0.0
20
0.0
30
14.0000
0
VERTEX
8
L1_ROOM_CLASSROOM
10
-26.4140
20
-139.6506
30
14.0000
0
VERTEX
8
L1_ROOM_CLASSROOM
10
1.1636
20
-116.5103
30
14.0000
0
VERTEX
8
L1_ROOM_CLASSROOM
10
-14.9061
20
-97.3592
30
14.0000
0
VERTEX
8
L1_ROOM_CLASSROOM
10
-42.4837
20
-120.4995
30
14.0000
0
SEQEND
8
L1_ROOM_CLASSROOM
0
TEXT
8
L1_LABELS
10
-20.6600
20
-118.5049
30
14.0000
40
2.2500
1
General Classroom 201 | 900 SF
72
1
11
-20.6600
21
-118.5049
31
14.0000
0
POLYLINE
8
L1_ROOM_CLASSROOM
62
7
66
1
70
1
10
0.0
20
0.0
30
14.0000
0
VERTEX
8
L1_ROOM_CLASSROOM
10
-100.3346
20
-51.5555
30
14.0000
0
VERTEX
8
L1_ROOM_CLASSROOM
10
-72.7570
20
-28.4152
30
14.0000
0
VERTEX
8
L1_ROOM_CLASSROOM
10
-88.8267
20
-9.2641
30
14.0000
0
VERTEX
8
L1_ROOM_CLASSROOM
10
-116.4043
20
-32.4044
30
14.0000
0
SEQEND
8
L1_ROOM_CLASSROOM
0
TEXT
8
L1_LABELS
10
-94.5806
20
-30.4098
30
14.0000
40
2.2500
1
General Classroom 202 | 900 SF
72
1
11
-94.5806
21
-30.4098
31
14.0000
0
POLYLINE
8
L1_ROOM_CLASSROOM
62
7
66
1
70
1
10
0.0
20
0.0
30
14.0000
0
VERTEX
8
L1_ROOM_CLASSROOM
10
-116.4043
20
-32.4044
30
14.0000
0
VERTEX
8
L1_ROOM_CLASSROOM
10
-88.8267
20
-9.2641
30
14.0000
0
VERTEX
8
L1_ROOM_CLASSROOM
10
-104.8964
20
9.8871
30
14.0000
0
VERTEX
8
L1_ROOM_CLASSROOM
10
-132.4740
20
-13.2533
30
14.0000
0
SEQEND
8
L1_ROOM_CLASSROOM
0
TEXT
8
L1_LABELS
10
-110.6503
20
-11.2587
30
14.0000
40
2.2500
1
General Classroom 203 | 900 SF
72
1
11
-110.6503
21
-11.2587
31
14.0000
0
POLYLINE
8
L1_ROOM_CLASSROOM
62
7
66
1
70
1
10
0.0
20
0.0
30
14.0000
0
VERTEX
8
L1_ROOM_CLASSROOM
10
4.2278
20
-113.9391
30
14.0000
0
VERTEX
8
L1_ROOM_CLASSROOM
10
31.8054
20
-90.7988
30
14.0000
0
VERTEX
8
L1_ROOM_CLASSROOM
10
15.7357
20
-71.6477
30
14.0000
0
VERTEX
8
L1_ROOM_CLASSROOM
10
-11.8419
20
-94.7880
30
14.0000
0
SEQEND
8
L1_ROOM_CLASSROOM
0
TEXT
8
L1_LABELS
10
9.9817
20
-92.7934
30
14.0000
40
2.2500
1
General Classroom 204 | 900 SF
72
1
11
9.9817
21
-92.7934
31
14.0000
0
POLYLINE
8
L1_ROOM_CLASSROOM
62
7
66
1
70
1
10
0.0
20
0.0
30
14.0000
0
VERTEX
8
L1_ROOM_CLASSROOM
10
-95.4043
20
4.7978
30
14.0000
0
VERTEX
8
L1_ROOM_CLASSROOM
10
-67.8267
20
27.9381
30
14.0000
0
VERTEX
8
L1_ROOM_CLASSROOM
10
-83.8964
20
47.0892
30
14.0000
0
VERTEX
8
L1_ROOM_CLASSROOM
10
-111.4740
20
23.9489
30
14.0000
0
SEQEND
8
L1_ROOM_CLASSROOM
0
TEXT
8
L1_LABELS
10
-89.6504
20
25.9435
30
14.0000
40
2.2500
1
General Classroom 205 | 900 SF
72
1
11
-89.6504
21
25.9435
31
14.0000
0
POLYLINE
8
L1_ROOM_CLASSROOM
62
7
66
1
70
1
10
0.0
20
0.0
30
14.0000
0
VERTEX
8
L1_ROOM_CLASSROOM
10
34.8696
20
-88.2276
30
14.0000
0
VERTEX
8
L1_ROOM_CLASSROOM
10
62.4472
20
-65.0873
30
14.0000
0
VERTEX
8
L1_ROOM_CLASSROOM
10
46.3775
20
-45.9362
30
14.0000
0
VERTEX
8
L1_ROOM_CLASSROOM
10
18.7999
20
-69.0765
30
14.0000
0
SEQEND
8
L1_ROOM_CLASSROOM
0
TEXT
8
L1_LABELS
10
40.6235
20
-67.0819
30
14.0000
40
2.2500
1
General Classroom 206 | 900 SF
72
1
11
40.6235
21
-67.0819
31
14.0000
0
POLYLINE
8
L1_ROOM_CLASSROOM
62
7
66
1
70
1
10
0.0
20
0.0
30
14.0000
0
VERTEX
8
L1_ROOM_CLASSROOM
10
-64.7625
20
30.5093
30
14.0000
0
VERTEX
8
L1_ROOM_CLASSROOM
10
-37.1849
20
53.6496
30
14.0000
0
VERTEX
8
L1_ROOM_CLASSROOM
10
-53.2546
20
72.8007
30
14.0000
0
VERTEX
8
L1_ROOM_CLASSROOM
10
-80.8322
20
49.6604
30
14.0000
0
SEQEND
8
L1_ROOM_CLASSROOM
0
TEXT
8
L1_LABELS
10
-59.0086
20
51.6550
30
14.0000
40
2.2500
1
General Classroom 207 | 900 SF
72
1
11
-59.0086
21
51.6550
31
14.0000
0
POLYLINE
8
L1_ROOM_CLASSROOM
62
7
66
1
70
1
10
0.0
20
0.0
30
14.0000
0
VERTEX
8
L1_ROOM_CLASSROOM
10
65.5113
20
-62.5161
30
14.0000
0
VERTEX
8
L1_ROOM_CLASSROOM
10
93.0889
20
-39.3758
30
14.0000
0
VERTEX
8
L1_ROOM_CLASSROOM
10
77.0192
20
-20.2247
30
14.0000
0
VERTEX
8
L1_ROOM_CLASSROOM
10
49.4416
20
-43.3650
30
14.0000
0
SEQEND
8
L1_ROOM_CLASSROOM
0
TEXT
8
L1_LABELS
10
71.2653
20
-41.3704
30
14.0000
40
2.2500
1
General Classroom 208 | 900 SF
72
1
11
71.2653
21
-41.3704
31
14.0000
0
POLYLINE
8
L1_ROOM_CLASSROOM
62
7
66
1
70
1
10
0.0
20
0.0
30
14.0000
0
VERTEX
8
L1_ROOM_CLASSROOM
10
-34.1208
20
56.2208
30
14.0000
0
VERTEX
8
L1_ROOM_CLASSROOM
10
-6.5432
20
79.3611
30
14.0000
0
VERTEX
8
L1_ROOM_CLASSROOM
10
-22.6128
20
98.5122
30
14.0000
0
VERTEX
8
L1_ROOM_CLASSROOM
10
-50.1904
20
75.3719
30
14.0000
0
SEQEND
8
L1_ROOM_CLASSROOM
0
TEXT
8
L1_LABELS
10
-28.3668
20
77.3665
30
14.0000
40
2.2500
1
General Classroom 209 | 900 SF
72
1
11
-28.3668
21
77.3665
31
14.0000
0
POLYLINE
8
L1_ROOM_CLASSROOM
62
7
66
1
70
1
10
0.0
20
0.0
30
14.0000
0
VERTEX
8
L1_ROOM_CLASSROOM
10
96.1531
20
-36.8046
30
14.0000
0
VERTEX
8
L1_ROOM_CLASSROOM
10
123.7307
20
-13.6643
30
14.0000
0
VERTEX
8
L1_ROOM_CLASSROOM
10
107.6610
20
5.4868
30
14.0000
0
VERTEX
8
L1_ROOM_CLASSROOM
10
80.0834
20
-17.6535
30
14.0000
0
SEQEND
8
L1_ROOM_CLASSROOM
0
TEXT
8
L1_LABELS
10
101.9071
20
-15.6589
30
14.0000
40
2.2500
1
General Classroom 210 | 900 SF
72
1
11
101.9071
21
-15.6589
31
14.0000
0
POLYLINE
8
L1_ROOM_CLASSROOM
62
7
66
1
70
1
10
0.0
20
0.0
30
14.0000
0
VERTEX
8
L1_ROOM_CLASSROOM
10
-3.4790
20
81.9323
30
14.0000
0
VERTEX
8
L1_ROOM_CLASSROOM
10
24.0986
20
105.0726
30
14.0000
0
VERTEX
8
L1_ROOM_CLASSROOM
10
8.0289
20
124.2237
30
14.0000
0
VERTEX
8
L1_ROOM_CLASSROOM
10
-19.5487
20
101.0834
30
14.0000
0
SEQEND
8
L1_ROOM_CLASSROOM
0
TEXT
8
L1_LABELS
10
2.2750
20
103.0780
30
14.0000
40
2.2500
1
General Classroom 211 | 900 SF
72
1
11
2.2750
21
103.0780
31
14.0000
0
POLYLINE
8
L1_ROOM_CLASSROOM
62
7
66
1
70
1
10
0.0
20
0.0
30
14.0000
0
VERTEX
8
L1_ROOM_CLASSROOM
10
20.0324
20
-54.9882
30
14.0000
0
VERTEX
8
L1_ROOM_CLASSROOM
10
47.6100
20
-31.8478
30
14.0000
0
VERTEX
8
L1_ROOM_CLASSROOM
10
31.5403
20
-12.6967
30
14.0000
0
VERTEX
8
L1_ROOM_CLASSROOM
10
3.9627
20
-35.8371
30
14.0000
0
SEQEND
8
L1_ROOM_CLASSROOM
0
TEXT
8
L1_LABELS
10
25.7864
20
-33.8425
30
14.0000
40
2.2500
1
General Classroom 212 | 900 SF
72
1
11
25.7864
21
-33.8425
31
14.0000
0
POLYLINE
8
L1_ROOM_CLASSROOM
62
7
66
1
70
1
10
0.0
20
0.0
30
14.0000
0
VERTEX
8
L1_ROOM_CLASSROOM
10
-34.6045
20
10.1256
30
14.0000
0
VERTEX
8
L1_ROOM_CLASSROOM
10
-7.0269
20
33.2659
30
14.0000
0
VERTEX
8
L1_ROOM_CLASSROOM
10
-23.0966
20
52.4170
30
14.0000
0
VERTEX
8
L1_ROOM_CLASSROOM
10
-50.6742
20
29.2767
30
14.0000
0
SEQEND
8
L1_ROOM_CLASSROOM
0
TEXT
8
L1_LABELS
10
-28.8506
20
31.2713
30
14.0000
40
2.2500
1
General Classroom 213 | 900 SF
72
1
11
-28.8506
21
31.2713
31
14.0000
0
POLYLINE
8
L1_ROOM_SPED
62
7
66
1
70
1
10
0.0
20
0.0
30
14.0000
0
VERTEX
8
L1_ROOM_SPED
10
-42.4837
20
-120.4995
30
14.0000
0
VERTEX
8
L1_ROOM_SPED
10
-27.1628
20
-107.6438
30
14.0000
0
VERTEX
8
L1_ROOM_SPED
10
-40.0186
20
-92.3229
30
14.0000
0
VERTEX
8
L1_ROOM_SPED
10
-55.3394
20
-105.1786
30
14.0000
0
SEQEND
8
L1_ROOM_SPED
0
TEXT
8
L1_LABELS
10
-41.2511
20
-106.4112
30
14.0000
40
1.8000
1
Small Group / SPED 201 | 400 SF
72
1
11
-41.2511
21
-106.4112
31
14.0000
0
POLYLINE
8
L1_ROOM_SPED
62
7
66
1
70
1
10
0.0
20
0.0
30
14.0000
0
VERTEX
8
L1_ROOM_SPED
10
-55.3394
20
-105.1786
30
14.0000
0
VERTEX
8
L1_ROOM_SPED
10
-40.0186
20
-92.3229
30
14.0000
0
VERTEX
8
L1_ROOM_SPED
10
-52.8743
20
-77.0020
30
14.0000
0
VERTEX
8
L1_ROOM_SPED
10
-68.1952
20
-89.8577
30
14.0000
0
SEQEND
8
L1_ROOM_SPED
0
TEXT
8
L1_LABELS
10
-54.1069
20
-91.0903
30
14.0000
40
1.8000
1
Small Group / SPED 202 | 400 SF
72
1
11
-54.1069
21
-91.0903
31
14.0000
0
POLYLINE
8
L1_ROOM_ART
62
7
66
1
70
1
10
0.0
20
0.0
30
14.0000
0
VERTEX
8
L1_ROOM_ART
10
95.4043
20
-4.7978
30
14.0000
0
VERTEX
8
L1_ROOM_ART
10
126.0461
20
20.9137
30
14.0000
0
VERTEX
8
L1_ROOM_ART
10
106.7625
20
43.8951
30
14.0000
0
VERTEX
8
L1_ROOM_ART
10
76.1207
20
18.1836
30
14.0000
0
SEQEND
8
L1_ROOM_ART
0
TEXT
8
L1_LABELS
10
101.0834
20
19.5487
30
14.0000
40
2.7000
1
Art / Maker 201 | 1200 SF
72
1
11
101.0834
21
19.5487
31
14.0000
0
POLYLINE
8
L1_ROOM_LIBRARY
62
7
66
1
70
1
10
0.0
20
0.0
30
14.0000
0
VERTEX
8
L1_ROOM_LIBRARY
10
60.7998
20
5.3278
30
14.0000
0
VERTEX
8
L1_ROOM_LIBRARY
10
106.7625
20
43.8951
30
14.0000
0
VERTEX
8
L1_ROOM_LIBRARY
10
81.0510
20
74.5369
30
14.0000
0
VERTEX
8
L1_ROOM_LIBRARY
10
35.0883
20
35.9696
30
14.0000
0
SEQEND
8
L1_ROOM_LIBRARY
0
TEXT
8
L1_LABELS
10
70.9254
20
39.9323
30
14.0000
40
3.6000
1
Library / Media 201 | 2400 SF
72
1
11
70.9254
21
39.9323
31
14.0000
0
POLYLINE
8
L1_ROOM_TOILETS
62
7
66
1
70
1
10
0.0
20
0.0
30
14.0000
0
VERTEX
8
L1_ROOM_TOILETS
10
-68.1952
20
-89.8577
30
14.0000
0
VERTEX
8
L1_ROOM_TOILETS
10
-49.0441
20
-73.7881
30
14.0000
0
VERTEX
8
L1_ROOM_TOILETS
10
-61.8998
20
-58.4672
30
14.0000
0
VERTEX
8
L1_ROOM_TOILETS
10
-81.0510
20
-74.5369
30
14.0000
0
SEQEND
8
L1_ROOM_TOILETS
0
TEXT
8
L1_LABELS
10
-65.0475
20
-74.1625
30
14.0000
40
1.8000
1
Toilet Group 201 | 500 SF
72
1
11
-65.0475
21
-74.1625
31
14.0000
0
POLYLINE
8
L1_ROOM_TOILETS
62
7
66
1
70
1
10
0.0
20
0.0
30
14.0000
0
VERTEX
8
L1_ROOM_TOILETS
10
61.8998
20
58.4672
30
14.0000
0
VERTEX
8
L1_ROOM_TOILETS
10
81.0510
20
74.5369
30
14.0000
0
VERTEX
8
L1_ROOM_TOILETS
10
68.1952
20
89.8577
30
14.0000
0
VERTEX
8
L1_ROOM_TOILETS
10
49.0441
20
73.7881
30
14.0000
0
SEQEND
8
L1_ROOM_TOILETS
0
TEXT
8
L1_LABELS
10
65.0475
20
74.1625
30
14.0000
40
1.8000
1
Toilet Group 202 | 500 SF
72
1
11
65.0475
21
74.1625
31
14.0000
0
POLYLINE
8
L1_ROOM_STORAGE
62
7
66
1
70
1
10
0.0
20
0.0
30
14.0000
0
VERTEX
8
L1_ROOM_STORAGE
10
126.7949
20
-11.0931
30
14.0000
0
VERTEX
8
L1_ROOM_STORAGE
10
142.1158
20
1.7626
30
14.0000
0
VERTEX
8
L1_ROOM_STORAGE
10
129.2600
20
17.0835
30
14.0000
0
VERTEX
8
L1_ROOM_STORAGE
10
113.9391
20
4.2278
30
14.0000
0
SEQEND
8
L1_ROOM_STORAGE
0
TEXT
8
L1_LABELS
10
128.0275
20
2.9952
30
14.0000
40
1.8000
1
Storage / Support 201 | 400 SF
72
1
11
128.0275
21
2.9952
31
14.0000
0
POLYLINE
8
L1_ROOM_STAFF
62
7
66
1
70
1
10
0.0
20
0.0
30
14.0000
0
VERTEX
8
L1_ROOM_STAFF
10
45.2139
20
70.5741
30
14.0000
0
VERTEX
8
L1_ROOM_STAFF
10
68.1952
20
89.8577
30
14.0000
0
VERTEX
8
L1_ROOM_STAFF
10
48.9116
20
112.8391
30
14.0000
0
VERTEX
8
L1_ROOM_STAFF
10
25.9302
20
93.5555
30
14.0000
0
SEQEND
8
L1_ROOM_STAFF
0
TEXT
8
L1_LABELS
10
47.0627
20
91.7066
30
14.0000
40
2.7000
1
Staff / Workroom 201 | 900 SF
72
1
11
47.0627
21
91.7066
31
14.0000
0
POLYLINE
8
L2_EXTERIOR_WALL
62
5
66
1
70
1
10
0.0
20
0.0
30
28.0000
0
VERTEX
8
L2_EXTERIOR_WALL
10
69.5314
20
-123.9572
30
28.0000
0
VERTEX
8
L2_EXTERIOR_WALL
10
49.8352
20
-120.4842
30
28.0000
0
VERTEX
8
L2_EXTERIOR_WALL
10
49.8352
20
-120.4842
30
28.0000
0
VERTEX
8
L2_EXTERIOR_WALL
10
30.1391
20
-117.0113
30
28.0000
0
VERTEX
8
L2_EXTERIOR_WALL
10
30.1391
20
-117.0113
30
28.0000
0
VERTEX
8
L2_EXTERIOR_WALL
10
10.4429
20
-113.5383
30
28.0000
0
VERTEX
8
L2_EXTERIOR_WALL
10
10.4429
20
-113.5383
30
28.0000
0
VERTEX
8
L2_EXTERIOR_WALL
10
-9.2532
20
-110.0653
30
28.0000
0
VERTEX
8
L2_EXTERIOR_WALL
10
-9.2532
20
-110.0653
30
28.0000
0
VERTEX
8
L2_EXTERIOR_WALL
10
-28.9494
20
-106.5924
30
28.0000
0
VERTEX
8
L2_EXTERIOR_WALL
10
-28.9494
20
-106.5924
30
28.0000
0
VERTEX
8
L2_EXTERIOR_WALL
10
-48.6455
20
-103.1194
30
28.0000
0
VERTEX
8
L2_EXTERIOR_WALL
10
-48.6455
20
-103.1194
30
28.0000
0
VERTEX
8
L2_EXTERIOR_WALL
10
-68.3417
20
-99.6464
30
28.0000
0
VERTEX
8
L2_EXTERIOR_WALL
10
-68.3417
20
-99.6464
30
28.0000
0
VERTEX
8
L2_EXTERIOR_WALL
10
-88.0378
20
-96.1735
30
28.0000
0
VERTEX
8
L2_EXTERIOR_WALL
10
-88.0378
20
-96.1735
30
28.0000
0
VERTEX
8
L2_EXTERIOR_WALL
10
-107.7340
20
-92.7005
30
28.0000
0
VERTEX
8
L2_EXTERIOR_WALL
10
-102.8100
20
-93.5688
30
28.0000
0
VERTEX
8
L2_EXTERIOR_WALL
10
-102.8100
20
-93.5688
30
28.0000
0
VERTEX
8
L2_EXTERIOR_WALL
10
-99.3370
20
-73.8726
30
28.0000
0
VERTEX
8
L2_EXTERIOR_WALL
10
-92.1264
20
-75.1440
30
28.0000
0
VERTEX
8
L2_EXTERIOR_WALL
10
-88.6534
20
-55.4479
30
28.0000
0
VERTEX
8
L2_EXTERIOR_WALL
10
-88.6534
20
-55.4479
30
28.0000
0
VERTEX
8
L2_EXTERIOR_WALL
10
-85.1805
20
-35.7517
30
28.0000
0
VERTEX
8
L2_EXTERIOR_WALL
10
-97.3151
20
-33.6121
30
28.0000
0
VERTEX
8
L2_EXTERIOR_WALL
10
-93.8421
20
-13.9159
30
28.0000
0
VERTEX
8
L2_EXTERIOR_WALL
10
-93.8421
20
-13.9159
30
28.0000
0
VERTEX
8
L2_EXTERIOR_WALL
10
-90.3692
20
5.7803
30
28.0000
0
VERTEX
8
L2_EXTERIOR_WALL
10
-90.3692
20
5.7803
30
28.0000
0
VERTEX
8
L2_EXTERIOR_WALL
10
-86.8962
20
25.4764
30
28.0000
0
VERTEX
8
L2_EXTERIOR_WALL
10
-86.8962
20
25.4764
30
28.0000
0
VERTEX
8
L2_EXTERIOR_WALL
10
-83.4233
20
45.1726
30
28.0000
0
VERTEX
8
L2_EXTERIOR_WALL
10
-83.4233
20
45.1726
30
28.0000
0
VERTEX
8
L2_EXTERIOR_WALL
10
-79.9503
20
64.8687
30
28.0000
0
VERTEX
8
L2_EXTERIOR_WALL
10
-79.9503
20
64.8687
30
28.0000
0
VERTEX
8
L2_EXTERIOR_WALL
10
-76.4773
20
84.5649
30
28.0000
0
VERTEX
8
L2_EXTERIOR_WALL
10
-76.4773
20
84.5649
30
28.0000
0
VERTEX
8
L2_EXTERIOR_WALL
10
-73.0044
20
104.2610
30
28.0000
0
VERTEX
8
L2_EXTERIOR_WALL
10
-73.0044
20
104.2610
30
28.0000
0
VERTEX
8
L2_EXTERIOR_WALL
10
-69.5314
20
123.9572
30
28.0000
0
VERTEX
8
L2_EXTERIOR_WALL
10
-70.3996
20
119.0332
30
28.0000
0
VERTEX
8
L2_EXTERIOR_WALL
10
-70.3996
20
119.0332
30
28.0000
0
VERTEX
8
L2_EXTERIOR_WALL
10
-50.7035
20
115.5602
30
28.0000
0
VERTEX
8
L2_EXTERIOR_WALL
10
-50.7035
20
115.5602
30
28.0000
0
VERTEX
8
L2_EXTERIOR_WALL
10
-31.0073
20
112.0872
30
28.0000
0
VERTEX
8
L2_EXTERIOR_WALL
10
-30.1391
20
117.0113
30
28.0000
0
VERTEX
8
L2_EXTERIOR_WALL
10
-10.4429
20
113.5383
30
28.0000
0
VERTEX
8
L2_EXTERIOR_WALL
10
-10.4429
20
113.5383
30
28.0000
0
VERTEX
8
L2_EXTERIOR_WALL
10
9.2532
20
110.0653
30
28.0000
0
VERTEX
8
L2_EXTERIOR_WALL
10
9.2532
20
110.0653
30
28.0000
0
VERTEX
8
L2_EXTERIOR_WALL
10
28.9494
20
106.5924
30
28.0000
0
VERTEX
8
L2_EXTERIOR_WALL
10
23.6180
20
76.3567
30
28.0000
0
VERTEX
8
L2_EXTERIOR_WALL
10
43.3142
20
72.8838
30
28.0000
0
VERTEX
8
L2_EXTERIOR_WALL
10
47.9509
20
99.1802
30
28.0000
0
VERTEX
8
L2_EXTERIOR_WALL
10
67.6471
20
95.7072
30
28.0000
0
VERTEX
8
L2_EXTERIOR_WALL
10
67.6471
20
95.7072
30
28.0000
0
VERTEX
8
L2_EXTERIOR_WALL
10
87.3432
20
92.2342
30
28.0000
0
VERTEX
8
L2_EXTERIOR_WALL
10
83.8703
20
72.5381
30
28.0000
0
VERTEX
8
L2_EXTERIOR_WALL
10
103.5664
20
69.0651
30
28.0000
0
VERTEX
8
L2_EXTERIOR_WALL
10
78.9462
20
73.4063
30
28.0000
0
VERTEX
8
L2_EXTERIOR_WALL
10
83.1138
20
97.0417
30
28.0000
0
VERTEX
8
L2_EXTERIOR_WALL
10
79.6408
20
77.3456
30
28.0000
0
VERTEX
8
L2_EXTERIOR_WALL
10
104.2610
20
73.0044
30
28.0000
0
VERTEX
8
L2_EXTERIOR_WALL
10
100.7881
20
53.3082
30
28.0000
0
VERTEX
8
L2_EXTERIOR_WALL
10
100.7881
20
53.3082
30
28.0000
0
VERTEX
8
L2_EXTERIOR_WALL
10
97.3151
20
33.6121
30
28.0000
0
VERTEX
8
L2_EXTERIOR_WALL
10
97.3151
20
33.6121
30
28.0000
0
VERTEX
8
L2_EXTERIOR_WALL
10
93.8421
20
13.9159
30
28.0000
0
VERTEX
8
L2_EXTERIOR_WALL
10
93.8421
20
13.9159
30
28.0000
0
VERTEX
8
L2_EXTERIOR_WALL
10
90.3692
20
-5.7803
30
28.0000
0
VERTEX
8
L2_EXTERIOR_WALL
10
90.3692
20
-5.7803
30
28.0000
0
VERTEX
8
L2_EXTERIOR_WALL
10
86.8962
20
-25.4764
30
28.0000
0
VERTEX
8
L2_EXTERIOR_WALL
10
86.8962
20
-25.4764
30
28.0000
0
VERTEX
8
L2_EXTERIOR_WALL
10
83.4233
20
-45.1726
30
28.0000
0
VERTEX
8
L2_EXTERIOR_WALL
10
83.4233
20
-45.1726
30
28.0000
0
VERTEX
8
L2_EXTERIOR_WALL
10
79.9503
20
-64.8687
30
28.0000
0
VERTEX
8
L2_EXTERIOR_WALL
10
79.9503
20
-64.8687
30
28.0000
0
VERTEX
8
L2_EXTERIOR_WALL
10
76.4773
20
-84.5649
30
28.0000
0
VERTEX
8
L2_EXTERIOR_WALL
10
76.4773
20
-84.5649
30
28.0000
0
VERTEX
8
L2_EXTERIOR_WALL
10
73.0044
20
-104.2610
30
28.0000
0
VERTEX
8
L2_EXTERIOR_WALL
10
73.0044
20
-104.2610
30
28.0000
0
VERTEX
8
L2_EXTERIOR_WALL
10
69.5314
20
-123.9572
30
28.0000
0
VERTEX
8
L2_EXTERIOR_WALL
10
69.5314
20
-123.9572
30
28.0000
0
SEQEND
8
L2_EXTERIOR_WALL
0
POLYLINE
8
L2_WALL_INNER_FACE
62
8
66
1
70
1
10
0.0
20
0.0
30
28.0000
0
VERTEX
8
L2_WALL_INNER_FACE
10
69.7050
20
-122.9724
30
28.0000
0
VERTEX
8
L2_WALL_INNER_FACE
10
50.0089
20
-119.4994
30
28.0000
0
VERTEX
8
L2_WALL_INNER_FACE
10
50.0089
20
-119.4994
30
28.0000
0
VERTEX
8
L2_WALL_INNER_FACE
10
30.3127
20
-116.0265
30
28.0000
0
VERTEX
8
L2_WALL_INNER_FACE
10
30.3127
20
-116.0265
30
28.0000
0
VERTEX
8
L2_WALL_INNER_FACE
10
10.6166
20
-112.5535
30
28.0000
0
VERTEX
8
L2_WALL_INNER_FACE
10
10.6166
20
-112.5535
30
28.0000
0
VERTEX
8
L2_WALL_INNER_FACE
10
-9.0796
20
-109.0805
30
28.0000
0
VERTEX
8
L2_WALL_INNER_FACE
10
-9.0796
20
-109.0805
30
28.0000
0
VERTEX
8
L2_WALL_INNER_FACE
10
-28.7757
20
-105.6076
30
28.0000
0
VERTEX
8
L2_WALL_INNER_FACE
10
-28.7757
20
-105.6076
30
28.0000
0
VERTEX
8
L2_WALL_INNER_FACE
10
-48.4719
20
-102.1346
30
28.0000
0
VERTEX
8
L2_WALL_INNER_FACE
10
-48.4719
20
-102.1346
30
28.0000
0
VERTEX
8
L2_WALL_INNER_FACE
10
-68.1680
20
-98.6616
30
28.0000
0
VERTEX
8
L2_WALL_INNER_FACE
10
-68.1680
20
-98.6616
30
28.0000
0
VERTEX
8
L2_WALL_INNER_FACE
10
-87.8642
20
-95.1887
30
28.0000
0
VERTEX
8
L2_WALL_INNER_FACE
10
-87.8642
20
-95.1887
30
28.0000
0
VERTEX
8
L2_WALL_INNER_FACE
10
-107.5603
20
-91.7157
30
28.0000
0
VERTEX
8
L2_WALL_INNER_FACE
10
-101.6515
20
-92.7576
30
28.0000
0
VERTEX
8
L2_WALL_INNER_FACE
10
-101.8252
20
-93.7424
30
28.0000
0
VERTEX
8
L2_WALL_INNER_FACE
10
-98.3522
20
-74.0463
30
28.0000
0
VERTEX
8
L2_WALL_INNER_FACE
10
-91.1416
20
-75.3177
30
28.0000
0
VERTEX
8
L2_WALL_INNER_FACE
10
-87.6686
20
-55.6215
30
28.0000
0
VERTEX
8
L2_WALL_INNER_FACE
10
-87.6686
20
-55.6215
30
28.0000
0
VERTEX
8
L2_WALL_INNER_FACE
10
-84.1957
20
-35.9254
30
28.0000
0
VERTEX
8
L2_WALL_INNER_FACE
10
-96.3303
20
-33.7857
30
28.0000
0
VERTEX
8
L2_WALL_INNER_FACE
10
-92.8573
20
-14.0895
30
28.0000
0
VERTEX
8
L2_WALL_INNER_FACE
10
-92.8573
20
-14.0895
30
28.0000
0
VERTEX
8
L2_WALL_INNER_FACE
10
-89.3844
20
5.6066
30
28.0000
0
VERTEX
8
L2_WALL_INNER_FACE
10
-89.3844
20
5.6066
30
28.0000
0
VERTEX
8
L2_WALL_INNER_FACE
10
-85.9114
20
25.3028
30
28.0000
0
VERTEX
8
L2_WALL_INNER_FACE
10
-85.9114
20
25.3028
30
28.0000
0
VERTEX
8
L2_WALL_INNER_FACE
10
-82.4384
20
44.9989
30
28.0000
0
VERTEX
8
L2_WALL_INNER_FACE
10
-82.4384
20
44.9989
30
28.0000
0
VERTEX
8
L2_WALL_INNER_FACE
10
-78.9655
20
64.6951
30
28.0000
0
VERTEX
8
L2_WALL_INNER_FACE
10
-78.9655
20
64.6951
30
28.0000
0
VERTEX
8
L2_WALL_INNER_FACE
10
-75.4925
20
84.3912
30
28.0000
0
VERTEX
8
L2_WALL_INNER_FACE
10
-75.4925
20
84.3912
30
28.0000
0
VERTEX
8
L2_WALL_INNER_FACE
10
-72.0196
20
104.0874
30
28.0000
0
VERTEX
8
L2_WALL_INNER_FACE
10
-72.0196
20
104.0874
30
28.0000
0
VERTEX
8
L2_WALL_INNER_FACE
10
-68.5466
20
123.7835
30
28.0000
0
VERTEX
8
L2_WALL_INNER_FACE
10
-69.5885
20
117.8747
30
28.0000
0
VERTEX
8
L2_WALL_INNER_FACE
10
-70.5733
20
118.0483
30
28.0000
0
VERTEX
8
L2_WALL_INNER_FACE
10
-50.8771
20
114.5754
30
28.0000
0
VERTEX
8
L2_WALL_INNER_FACE
10
-50.8771
20
114.5754
30
28.0000
0
VERTEX
8
L2_WALL_INNER_FACE
10
-31.1810
20
111.1024
30
28.0000
0
VERTEX
8
L2_WALL_INNER_FACE
10
-30.3127
20
116.0265
30
28.0000
0
VERTEX
8
L2_WALL_INNER_FACE
10
-10.6166
20
112.5535
30
28.0000
0
VERTEX
8
L2_WALL_INNER_FACE
10
-10.6166
20
112.5535
30
28.0000
0
VERTEX
8
L2_WALL_INNER_FACE
10
9.0796
20
109.0805
30
28.0000
0
VERTEX
8
L2_WALL_INNER_FACE
10
9.0796
20
109.0805
30
28.0000
0
VERTEX
8
L2_WALL_INNER_FACE
10
28.7757
20
105.6076
30
28.0000
0
VERTEX
8
L2_WALL_INNER_FACE
10
23.4444
20
75.3719
30
28.0000
0
VERTEX
8
L2_WALL_INNER_FACE
10
43.1405
20
71.8989
30
28.0000
0
VERTEX
8
L2_WALL_INNER_FACE
10
47.7773
20
98.1954
30
28.0000
0
VERTEX
8
L2_WALL_INNER_FACE
10
67.4734
20
94.7224
30
28.0000
0
VERTEX
8
L2_WALL_INNER_FACE
10
67.4734
20
94.7224
30
28.0000
0
VERTEX
8
L2_WALL_INNER_FACE
10
87.1696
20
91.2494
30
28.0000
0
VERTEX
8
L2_WALL_INNER_FACE
10
83.6966
20
71.5533
30
28.0000
0
VERTEX
8
L2_WALL_INNER_FACE
10
103.3928
20
68.0803
30
28.0000
0
VERTEX
8
L2_WALL_INNER_FACE
10
77.7878
20
72.5952
30
28.0000
0
VERTEX
8
L2_WALL_INNER_FACE
10
82.1290
20
97.2154
30
28.0000
0
VERTEX
8
L2_WALL_INNER_FACE
10
78.6560
20
77.5192
30
28.0000
0
VERTEX
8
L2_WALL_INNER_FACE
10
103.2762
20
73.1780
30
28.0000
0
VERTEX
8
L2_WALL_INNER_FACE
10
99.8033
20
53.4819
30
28.0000
0
VERTEX
8
L2_WALL_INNER_FACE
10
99.8033
20
53.4819
30
28.0000
0
VERTEX
8
L2_WALL_INNER_FACE
10
96.3303
20
33.7857
30
28.0000
0
VERTEX
8
L2_WALL_INNER_FACE
10
96.3303
20
33.7857
30
28.0000
0
VERTEX
8
L2_WALL_INNER_FACE
10
92.8573
20
14.0895
30
28.0000
0
VERTEX
8
L2_WALL_INNER_FACE
10
92.8573
20
14.0895
30
28.0000
0
VERTEX
8
L2_WALL_INNER_FACE
10
89.3844
20
-5.6066
30
28.0000
0
VERTEX
8
L2_WALL_INNER_FACE
10
89.3844
20
-5.6066
30
28.0000
0
VERTEX
8
L2_WALL_INNER_FACE
10
85.9114
20
-25.3028
30
28.0000
0
VERTEX
8
L2_WALL_INNER_FACE
10
85.9114
20
-25.3028
30
28.0000
0
VERTEX
8
L2_WALL_INNER_FACE
10
82.4384
20
-44.9989
30
28.0000
0
VERTEX
8
L2_WALL_INNER_FACE
10
82.4384
20
-44.9989
30
28.0000
0
VERTEX
8
L2_WALL_INNER_FACE
10
78.9655
20
-64.6951
30
28.0000
0
VERTEX
8
L2_WALL_INNER_FACE
10
78.9655
20
-64.6951
30
28.0000
0
VERTEX
8
L2_WALL_INNER_FACE
10
75.4925
20
-84.3912
30
28.0000
0
VERTEX
8
L2_WALL_INNER_FACE
10
75.4925
20
-84.3912
30
28.0000
0
VERTEX
8
L2_WALL_INNER_FACE
10
72.0196
20
-104.0874
30
28.0000
0
VERTEX
8
L2_WALL_INNER_FACE
10
72.0196
20
-104.0874
30
28.0000
0
VERTEX
8
L2_WALL_INNER_FACE
10
68.5466
20
-123.7835
30
28.0000
0
VERTEX
8
L2_WALL_INNER_FACE
10
68.7202
20
-122.7987
30
28.0000
0
SEQEND
8
L2_WALL_INNER_FACE
0
POLYLINE
8
L2_COURTYARD
62
3
66
1
70
1
10
0.0
20
0.0
30
28.0000
0
VERTEX
8
L2_COURTYARD
10
22.5983
20
-44.6018
30
28.0000
0
VERTEX
8
L2_COURTYARD
10
36.4902
20
34.1829
30
28.0000
0
VERTEX
8
L2_COURTYARD
10
-22.5983
20
44.6018
30
28.0000
0
VERTEX
8
L2_COURTYARD
10
-36.4902
20
-34.1829
30
28.0000
0
SEQEND
8
L2_COURTYARD
0
POLYLINE
8
L2_ROOM_CORE
62
7
66
1
70
1
10
0.0
20
0.0
30
28.0000
0
VERTEX
8
L2_ROOM_CORE
10
-20.2946
20
-81.9427
30
28.0000
0
VERTEX
8
L2_ROOM_CORE
10
-15.0852
20
-52.3985
30
28.0000
0
VERTEX
8
L2_ROOM_CORE
10
-39.7054
20
-48.0573
30
28.0000
0
VERTEX
8
L2_ROOM_CORE
10
-44.9148
20
-77.6015
30
28.0000
0
SEQEND
8
L2_ROOM_CORE
0
TEXT
8
L2_LABELS
10
-30.0000
20
-65.0000
30
28.0000
40
2.2500
1
Stair 01 + Lift | 750 SF
72
1
11
-30.0000
21
-65.0000
31
28.0000
0
POLYLINE
8
L2_ROOM_CORE
62
7
66
1
70
1
10
0.0
20
0.0
30
28.0000
0
VERTEX
8
L2_ROOM_CORE
10
39.7054
20
43.0573
30
28.0000
0
VERTEX
8
L2_ROOM_CORE
10
44.9148
20
72.6015
30
28.0000
0
VERTEX
8
L2_ROOM_CORE
10
20.2946
20
76.9427
30
28.0000
0
VERTEX
8
L2_ROOM_CORE
10
15.0852
20
47.3985
30
28.0000
0
SEQEND
8
L2_ROOM_CORE
0
TEXT
8
L2_LABELS
10
30.0000
20
60.0000
30
28.0000
40
2.2500
1
Stair 02 + Lift | 750 SF
72
1
11
30.0000
21
60.0000
31
28.0000
0
POLYLINE
8
L2_ROOM_CORE
62
7
66
1
70
1
10
0.0
20
0.0
30
28.0000
0
VERTEX
8
L2_ROOM_CORE
10
-65.2946
20
-66.9427
30
28.0000
0
VERTEX
8
L2_ROOM_CORE
10
-60.0852
20
-37.3985
30
28.0000
0
VERTEX
8
L2_ROOM_CORE
10
-84.7054
20
-33.0573
30
28.0000
0
VERTEX
8
L2_ROOM_CORE
10
-89.9148
20
-62.6015
30
28.0000
0
SEQEND
8
L2_ROOM_CORE
0
TEXT
8
L2_LABELS
10
-75.0000
20
-50.0000
30
28.0000
40
2.2500
1
Service Core + Risers | 750 SF
72
1
11
-75.0000
21
-50.0000
31
28.0000
0
POLYLINE
8
L2_ROOM_CLASSROOM
62
7
66
1
70
1
10
0.0
20
0.0
30
28.0000
0
VERTEX
8
L2_ROOM_CLASSROOM
10
69.5314
20
-123.9572
30
28.0000
0
VERTEX
8
L2_ROOM_CLASSROOM
10
75.7827
20
-88.5041
30
28.0000
0
VERTEX
8
L2_ROOM_CLASSROOM
10
51.1625
20
-84.1629
30
28.0000
0
VERTEX
8
L2_ROOM_CLASSROOM
10
44.9112
20
-119.6160
30
28.0000
0
SEQEND
8
L2_ROOM_CLASSROOM
0
TEXT
8
L2_LABELS
10
60.3470
20
-104.0600
30
28.0000
40
2.2500
1
General Classroom 301 | 900 SF
72
1
11
60.3470
21
-104.0600
31
28.0000
0
POLYLINE
8
L2_ROOM_CLASSROOM
62
7
66
1
70
1
10
0.0
20
0.0
30
28.0000
0
VERTEX
8
L2_ROOM_CLASSROOM
10
44.9112
20
-119.6160
30
28.0000
0
VERTEX
8
L2_ROOM_CLASSROOM
10
51.1625
20
-84.1629
30
28.0000
0
VERTEX
8
L2_ROOM_CLASSROOM
10
26.5423
20
-79.8217
30
28.0000
0
VERTEX
8
L2_ROOM_CLASSROOM
10
20.2910
20
-115.2748
30
28.0000
0
SEQEND
8
L2_ROOM_CLASSROOM
0
TEXT
8
L2_LABELS
10
35.7268
20
-99.7188
30
28.0000
40
2.2500
1
General Classroom 302 | 900 SF
72
1
11
35.7268
21
-99.7188
31
28.0000
0
POLYLINE
8
L2_ROOM_CLASSROOM
62
7
66
1
70
1
10
0.0
20
0.0
30
28.0000
0
VERTEX
8
L2_ROOM_CLASSROOM
10
20.2910
20
-115.2748
30
28.0000
0
VERTEX
8
L2_ROOM_CLASSROOM
10
26.5423
20
-79.8217
30
28.0000
0
VERTEX
8
L2_ROOM_CLASSROOM
10
1.9222
20
-75.4805
30
28.0000
0
VERTEX
8
L2_ROOM_CLASSROOM
10
-4.3292
20
-110.9336
30
28.0000
0
SEQEND
8
L2_ROOM_CLASSROOM
0
TEXT
8
L2_LABELS
10
11.1066
20
-95.3776
30
28.0000
40
2.2500
1
General Classroom 303 | 900 SF
72
1
11
11.1066
21
-95.3776
31
28.0000
0
POLYLINE
8
L2_ROOM_CLASSROOM
62
7
66
1
70
1
10
0.0
20
0.0
30
28.0000
0
VERTEX
8
L2_ROOM_CLASSROOM
10
76.4773
20
-84.5649
30
28.0000
0
VERTEX
8
L2_ROOM_CLASSROOM
10
82.7287
20
-49.1118
30
28.0000
0
VERTEX
8
L2_ROOM_CLASSROOM
10
58.1085
20
-44.7706
30
28.0000
0
VERTEX
8
L2_ROOM_CLASSROOM
10
51.8571
20
-80.2237
30
28.0000
0
SEQEND
8
L2_ROOM_CLASSROOM
0
TEXT
8
L2_LABELS
10
67.2929
20
-64.6677
30
28.0000
40
2.2500
1
General Classroom 304 | 900 SF
72
1
11
67.2929
21
-64.6677
31
28.0000
0
POLYLINE
8
L2_ROOM_CLASSROOM
62
7
66
1
70
1
10
0.0
20
0.0
30
28.0000
0
VERTEX
8
L2_ROOM_CLASSROOM
10
-71.8267
20
-33.0292
30
28.0000
0
VERTEX
8
L2_ROOM_CLASSROOM
10
-65.5753
20
2.4239
30
28.0000
0
VERTEX
8
L2_ROOM_CLASSROOM
10
-90.1955
20
6.7651
30
28.0000
0
VERTEX
8
L2_ROOM_CLASSROOM
10
-96.4469
20
-28.6880
30
28.0000
0
SEQEND
8
L2_ROOM_CLASSROOM
0
TEXT
8
L2_LABELS
10
-81.0111
20
-13.1321
30
28.0000
40
2.2500
1
General Classroom 305 | 900 SF
72
1
11
-81.0111
21
-13.1321
31
28.0000
0
POLYLINE
8
L2_ROOM_CLASSROOM
62
7
66
1
70
1
10
0.0
20
0.0
30
28.0000
0
VERTEX
8
L2_ROOM_CLASSROOM
10
83.4233
20
-45.1726
30
28.0000
0
VERTEX
8
L2_ROOM_CLASSROOM
10
89.6746
20
-9.7195
30
28.0000
0
VERTEX
8
L2_ROOM_CLASSROOM
10
65.0544
20
-5.3783
30
28.0000
0
VERTEX
8
L2_ROOM_CLASSROOM
10
58.8031
20
-40.8314
30
28.0000
0
SEQEND
8
L2_ROOM_CLASSROOM
0
TEXT
8
L2_LABELS
10
74.2388
20
-25.2754
30
28.0000
40
2.2500
1
General Classroom 306 | 900 SF
72
1
11
74.2388
21
-25.2754
31
28.0000
0
POLYLINE
8
L2_ROOM_CLASSROOM
62
7
66
1
70
1
10
0.0
20
0.0
30
28.0000
0
VERTEX
8
L2_ROOM_CLASSROOM
10
-64.8807
20
6.3631
30
28.0000
0
VERTEX
8
L2_ROOM_CLASSROOM
10
-58.6294
20
41.8162
30
28.0000
0
VERTEX
8
L2_ROOM_CLASSROOM
10
-83.2496
20
46.1574
30
28.0000
0
VERTEX
8
L2_ROOM_CLASSROOM
10
-89.5009
20
10.7043
30
28.0000
0
SEQEND
8
L2_ROOM_CLASSROOM
0
TEXT
8
L2_LABELS
10
-74.0652
20
26.2602
30
28.0000
40
2.2500
1
General Classroom 307 | 900 SF
72
1
11
-74.0652
21
26.2602
31
28.0000
0
POLYLINE
8
L2_ROOM_CLASSROOM
62
7
66
1
70
1
10
0.0
20
0.0
30
28.0000
0
VERTEX
8
L2_ROOM_CLASSROOM
10
90.3692
20
-5.7803
30
28.0000
0
VERTEX
8
L2_ROOM_CLASSROOM
10
96.6205
20
29.6728
30
28.0000
0
VERTEX
8
L2_ROOM_CLASSROOM
10
72.0003
20
34.0140
30
28.0000
0
VERTEX
8
L2_ROOM_CLASSROOM
10
65.7490
20
-1.4391
30
28.0000
0
SEQEND
8
L2_ROOM_CLASSROOM
0
TEXT
8
L2_LABELS
10
81.1847
20
14.1169
30
28.0000
40
2.2500
1
General Classroom 308 | 900 SF
72
1
11
81.1847
21
14.1169
31
28.0000
0
POLYLINE
8
L2_ROOM_CLASSROOM
62
7
66
1
70
1
10
0.0
20
0.0
30
28.0000
0
VERTEX
8
L2_ROOM_CLASSROOM
10
-57.9348
20
45.7554
30
28.0000
0
VERTEX
8
L2_ROOM_CLASSROOM
10
-51.6835
20
81.2085
30
28.0000
0
VERTEX
8
L2_ROOM_CLASSROOM
10
-76.3037
20
85.5497
30
28.0000
0
VERTEX
8
L2_ROOM_CLASSROOM
10
-82.5550
20
50.0966
30
28.0000
0
SEQEND
8
L2_ROOM_CLASSROOM
0
TEXT
8
L2_LABELS
10
-67.1192
20
65.6525
30
28.0000
40
2.2500
1
General Classroom 309 | 900 SF
72
1
11
-67.1192
21
65.6525
31
28.0000
0
POLYLINE
8
L2_ROOM_CLASSROOM
62
7
66
1
70
1
10
0.0
20
0.0
30
28.0000
0
VERTEX
8
L2_ROOM_CLASSROOM
10
97.3151
20
33.6121
30
28.0000
0
VERTEX
8
L2_ROOM_CLASSROOM
10
103.5664
20
69.0651
30
28.0000
0
VERTEX
8
L2_ROOM_CLASSROOM
10
78.9462
20
73.4063
30
28.0000
0
VERTEX
8
L2_ROOM_CLASSROOM
10
72.6949
20
37.9533
30
28.0000
0
SEQEND
8
L2_ROOM_CLASSROOM
0
TEXT
8
L2_LABELS
10
88.1307
20
53.5092
30
28.0000
40
2.2500
1
General Classroom 310 | 900 SF
72
1
11
88.1307
21
53.5092
31
28.0000
0
POLYLINE
8
L2_ROOM_CLASSROOM
62
7
66
1
70
1
10
0.0
20
0.0
30
28.0000
0
VERTEX
8
L2_ROOM_CLASSROOM
10
50.6915
20
-29.2468
30
28.0000
0
VERTEX
8
L2_ROOM_CLASSROOM
10
56.9428
20
6.2063
30
28.0000
0
VERTEX
8
L2_ROOM_CLASSROOM
10
32.3226
20
10.5475
30
28.0000
0
VERTEX
8
L2_ROOM_CLASSROOM
10
26.0713
20
-24.9056
30
28.0000
0
SEQEND
8
L2_ROOM_CLASSROOM
0
TEXT
8
L2_LABELS
10
41.5070
20
-9.3497
30
28.0000
40
2.2500
1
General Classroom 311 | 900 SF
72
1
11
41.5070
21
-9.3497
31
28.0000
0
POLYLINE
8
L2_ROOM_CLASSROOM
62
7
66
1
70
1
10
0.0
20
0.0
30
28.0000
0
VERTEX
8
L2_ROOM_CLASSROOM
10
-33.0172
20
-14.4867
30
28.0000
0
VERTEX
8
L2_ROOM_CLASSROOM
10
-26.7659
20
20.9664
30
28.0000
0
VERTEX
8
L2_ROOM_CLASSROOM
10
-51.3861
20
25.3076
30
28.0000
0
VERTEX
8
L2_ROOM_CLASSROOM
10
-57.6374
20
-10.1455
30
28.0000
0
SEQEND
8
L2_ROOM_CLASSROOM
0
TEXT
8
L2_LABELS
10
-42.2016
20
5.4104
30
28.0000
40
2.2500
1
General Classroom 312 | 900 SF
72
1
11
-42.2016
21
5.4104
31
28.0000
0
POLYLINE
8
L2_ROOM_CLASSROOM
62
7
66
1
70
1
10
0.0
20
0.0
30
28.0000
0
VERTEX
8
L2_ROOM_CLASSROOM
10
76.1679
20
57.6494
30
28.0000
0
VERTEX
8
L2_ROOM_CLASSROOM
10
82.4192
20
93.1025
30
28.0000
0
VERTEX
8
L2_ROOM_CLASSROOM
10
57.7990
20
97.4437
30
28.0000
0
VERTEX
8
L2_ROOM_CLASSROOM
10
51.5477
20
61.9906
30
28.0000
0
SEQEND
8
L2_ROOM_CLASSROOM
0
TEXT
8
L2_LABELS
10
66.9834
20
77.5466
30
28.0000
40
2.2500
1
General Classroom 313 | 900 SF
72
1
11
66.9834
21
77.5466
31
28.0000
0
POLYLINE
8
L2_ROOM_STEM
62
7
66
1
70
1
10
0.0
20
0.0
30
28.0000
0
VERTEX
8
L2_ROOM_STEM
10
17.0794
20
68.0683
30
28.0000
0
VERTEX
8
L2_ROOM_STEM
10
24.0253
20
107.4606
30
28.0000
0
VERTEX
8
L2_ROOM_STEM
10
-0.5949
20
111.8018
30
28.0000
0
VERTEX
8
L2_ROOM_STEM
10
-7.5408
20
72.4095
30
28.0000
0
SEQEND
8
L2_ROOM_STEM
0
TEXT
8
L2_LABELS
10
8.2423
20
89.9351
30
28.0000
40
2.2500
1
STEM / Science Lab 301 | 1000 SF
72
1
11
8.2423
21
89.9351
31
28.0000
0
POLYLINE
8
L2_ROOM_STEM
62
7
66
1
70
1
10
0.0
20
0.0
30
28.0000
0
VERTEX
8
L2_ROOM_STEM
10
-7.5408
20
72.4095
30
28.0000
0
VERTEX
8
L2_ROOM_STEM
10
-0.5949
20
111.8018
30
28.0000
0
VERTEX
8
L2_ROOM_STEM
10
-25.2150
20
116.1430
30
28.0000
0
VERTEX
8
L2_ROOM_STEM
10
-32.1610
20
76.7507
30
28.0000
0
SEQEND
8
L2_ROOM_STEM
0
TEXT
8
L2_LABELS
10
-16.3779
20
94.2763
30
28.0000
40
2.2500
1
STEM / Science Lab 302 | 1000 SF
72
1
11
-16.3779
21
94.2763
31
28.0000
0
POLYLINE
8
L2_ROOM_MUSIC
62
7
66
1
70
1
10
0.0
20
0.0
30
28.0000
0
VERTEX
8
L2_ROOM_MUSIC
10
48.6696
20
-69.5074
30
28.0000
0
VERTEX
8
L2_ROOM_MUSIC
10
55.6155
20
-30.1150
30
28.0000
0
VERTEX
8
L2_ROOM_MUSIC
10
26.0713
20
-24.9056
30
28.0000
0
VERTEX
8
L2_ROOM_MUSIC
10
19.1253
20
-64.2979
30
28.0000
0
SEQEND
8
L2_ROOM_MUSIC
0
TEXT
8
L2_LABELS
10
37.3704
20
-47.2065
30
28.0000
40
2.7000
1
Music 301 | 1200 SF
72
1
11
37.3704
21
-47.2065
31
28.0000
0
POLYLINE
8
L2_ROOM_SPED
62
7
66
1
70
1
10
0.0
20
0.0
30
28.0000
0
VERTEX
8
L2_ROOM_SPED
10
-4.3292
20
-110.9336
30
28.0000
0
VERTEX
8
L2_ROOM_SPED
10
-0.8562
20
-91.2374
30
28.0000
0
VERTEX
8
L2_ROOM_SPED
10
-20.5524
20
-87.7645
30
28.0000
0
VERTEX
8
L2_ROOM_SPED
10
-24.0253
20
-107.4606
30
28.0000
0
SEQEND
8
L2_ROOM_SPED
0
TEXT
8
L2_LABELS
10
-12.4408
20
-99.3490
30
28.0000
40
1.8000
1
Small Group / SPED 301 | 400 SF
72
1
11
-12.4408
21
-99.3490
31
28.0000
0
POLYLINE
8
L2_ROOM_SPED
62
7
66
1
70
1
10
0.0
20
0.0
30
28.0000
0
VERTEX
8
L2_ROOM_SPED
10
-24.0253
20
-107.4606
30
28.0000
0
VERTEX
8
L2_ROOM_SPED
10
-20.5524
20
-87.7645
30
28.0000
0
VERTEX
8
L2_ROOM_SPED
10
-40.2485
20
-84.2915
30
28.0000
0
VERTEX
8
L2_ROOM_SPED
10
-43.7215
20
-103.9876
30
28.0000
0
SEQEND
8
L2_ROOM_SPED
0
TEXT
8
L2_LABELS
10
-32.1369
20
-95.8761
30
28.0000
40
1.8000
1
Small Group / SPED 302 | 400 SF
72
1
11
-32.1369
21
-95.8761
31
28.0000
0
POLYLINE
8
L2_ROOM_TOILETS
62
7
66
1
70
1
10
0.0
20
0.0
30
28.0000
0
VERTEX
8
L2_ROOM_TOILETS
10
-43.7215
20
-103.9876
30
28.0000
0
VERTEX
8
L2_ROOM_TOILETS
10
-39.3803
20
-79.3675
30
28.0000
0
VERTEX
8
L2_ROOM_TOILETS
10
-59.0764
20
-75.8945
30
28.0000
0
VERTEX
8
L2_ROOM_TOILETS
10
-63.4176
20
-100.5147
30
28.0000
0
SEQEND
8
L2_ROOM_TOILETS
0
TEXT
8
L2_LABELS
10
-51.3990
20
-89.9411
30
28.0000
40
1.8000
1
Toilet Group 301 | 500 SF
72
1
11
-51.3990
21
-89.9411
31
28.0000
0
POLYLINE
8
L2_ROOM_TOILETS
62
7
66
1
70
1
10
0.0
20
0.0
30
28.0000
0
VERTEX
8
L2_ROOM_TOILETS
10
-63.4176
20
-100.5147
30
28.0000
0
VERTEX
8
L2_ROOM_TOILETS
10
-59.0764
20
-75.8945
30
28.0000
0
VERTEX
8
L2_ROOM_TOILETS
10
-78.7726
20
-72.4215
30
28.0000
0
VERTEX
8
L2_ROOM_TOILETS
10
-83.1138
20
-97.0417
30
28.0000
0
SEQEND
8
L2_ROOM_TOILETS
0
TEXT
8
L2_LABELS
10
-71.0951
20
-86.4681
30
28.0000
40
1.8000
1
Toilet Group 302 | 500 SF
72
1
11
-71.0951
21
-86.4681
31
28.0000
0
POLYLINE
8
L2_ROOM_STORAGE
62
7
66
1
70
1
10
0.0
20
0.0
30
28.0000
0
VERTEX
8
L2_ROOM_STORAGE
10
-83.1138
20
-97.0417
30
28.0000
0
VERTEX
8
L2_ROOM_STORAGE
10
-79.6408
20
-77.3456
30
28.0000
0
VERTEX
8
L2_ROOM_STORAGE
10
-99.3370
20
-73.8726
30
28.0000
0
VERTEX
8
L2_ROOM_STORAGE
10
-102.8100
20
-93.5688
30
28.0000
0
SEQEND
8
L2_ROOM_STORAGE
0
TEXT
8
L2_LABELS
10
-91.2254
20
-85.4572
30
28.0000
40
1.8000
1
Storage / Support 301 | 400 SF
72
1
11
-91.2254
21
-85.4572
31
28.0000
0
POLYLINE
8
L2_ROOM_STAFF
62
7
66
1
70
1
10
0.0
20
0.0
30
28.0000
0
VERTEX
8
L2_ROOM_STAFF
10
-46.0649
20
84.2795
30
28.0000
0
VERTEX
8
L2_ROOM_STAFF
10
-40.8554
20
113.8237
30
28.0000
0
VERTEX
8
L2_ROOM_STAFF
10
-70.3996
20
119.0332
30
28.0000
0
VERTEX
8
L2_ROOM_STAFF
10
-75.6091
20
89.4889
30
28.0000
0
SEQEND
8
L2_ROOM_STAFF
0
TEXT
8
L2_LABELS
10
-58.2322
20
101.6563
30
28.0000
40
2.7000
1
Staff / Workroom 301 | 900 SF
72
1
11
-58.2322
21
101.6563
31
28.0000
0
ENDSEC
0
EOF
